<?xml version="1.0" encoding="UTF-8"?>
<!DOCTYPE svg PUBLIC "-//W3C//DTD SVG 1.1//EN" "http://www.w3.org/Graphics/SVG/1.1/DTD/svg11.dtd">
<!-- Creator: CorelDRAW -->
<svg xmlns="http://www.w3.org/2000/svg" xml:space="preserve" width="273.52mm" height="325.876mm"
viewBox="0 0 34.6628 41.2977"
 xmlns:xlink="http://www.w3.org/1999/xlink">
 <defs>
  <style type="text/css">
    .fil6 {fill:#399339}
    .fil2 {fill:#4F9E3A}
    .fil1 {fill:#98CB51}
    .fil33 {fill:url(#id0)}
    .fil13 {fill:url(#id1)}
    .fil48 {fill:url(#id2)}
    .fil34 {fill:url(#id3)}
    .fil28 {fill:url(#id4)}
    .fil14 {fill:url(#id5)}
    .fil40 {fill:url(#id6)}
    .fil20 {fill:url(#id7)}
    .fil41 {fill:url(#id8)}
    .fil21 {fill:url(#id9)}
    .fil47 {fill:url(#id10)}
    .fil27 {fill:url(#id11)}
    .fil35 {fill:url(#id12)}
    .fil39 {fill:url(#id13)}
    .fil15 {fill:url(#id14)}
    .fil19 {fill:url(#id15)}
    .fil46 {fill:url(#id16)}
    .fil42 {fill:url(#id17)}
    .fil36 {fill:url(#id18)}
    .fil38 {fill:url(#id19)}
    .fil37 {fill:url(#id20)}
    .fil26 {fill:url(#id21)}
    .fil22 {fill:url(#id22)}
    .fil16 {fill:url(#id23)}
    .fil18 {fill:url(#id24)}
    .fil17 {fill:url(#id25)}
    .fil43 {fill:url(#id26)}
    .fil23 {fill:url(#id27)}
    .fil44 {fill:url(#id28)}
    .fil45 {fill:url(#id29)}
    .fil24 {fill:url(#id30)}
    .fil25 {fill:url(#id31)}
    .fil29 {fill:url(#id32)}
    .fil49 {fill:url(#id33)}
    .fil9 {fill:url(#id34)}
    .fil5 {fill:url(#id35)}
    .fil32 {fill:url(#id36)}
    .fil12 {fill:url(#id37)}
    .fil10 {fill:url(#id38)}
    .fil7 {fill:url(#id39)}
    .fil3 {fill:url(#id40)}
    .fil30 {fill:url(#id41)}
    .fil11 {fill:url(#id42)}
    .fil31 {fill:url(#id43)}
    .fil4 {fill:url(#id44)}
    .fil8 {fill:url(#id45)}
    .fil0 {fill:url(#id46)}
  </style>
  <linearGradient id="id0" gradientUnits="userSpaceOnUse" x1="31.5101" y1="19.0282" x2="18.401" y2="32.141">
   <stop offset="0" style="stop-color:#117C33"/>
   <stop offset="1" style="stop-color:#79B93E"/>
  </linearGradient>
  <linearGradient id="id1" gradientUnits="userSpaceOnUse" xlink:href="#id0" x1="3.31276" y1="18.9445" x2="16.4255" y2="32.0536">
  </linearGradient>
  <linearGradient id="id2" gradientUnits="userSpaceOnUse" xlink:href="#id0" x1="31.5435" y1="18.9948" x2="18.3677" y2="32.1743">
  </linearGradient>
  <linearGradient id="id3" gradientUnits="userSpaceOnUse" xlink:href="#id0" x1="31.5204" y1="19.0179" x2="18.3907" y2="32.1512">
  </linearGradient>
  <linearGradient id="id4" gradientUnits="userSpaceOnUse" xlink:href="#id0" x1="3.27939" y1="18.9111" x2="16.4588" y2="32.0869">
  </linearGradient>
  <linearGradient id="id5" gradientUnits="userSpaceOnUse" xlink:href="#id0" x1="3.30254" y1="18.9343" x2="16.4357" y2="32.0638">
  </linearGradient>
  <linearGradient id="id6" gradientUnits="userSpaceOnUse" xlink:href="#id0" x1="31.6134" y1="18.9249" x2="18.2978" y2="32.2443">
  </linearGradient>
  <linearGradient id="id7" gradientUnits="userSpaceOnUse" xlink:href="#id0" x1="3.20956" y1="18.8413" x2="16.5287" y2="32.1568">
  </linearGradient>
  <linearGradient id="id8" gradientUnits="userSpaceOnUse" xlink:href="#id0" x1="31.5479" y1="18.9904" x2="18.3632" y2="32.1788">
  </linearGradient>
  <linearGradient id="id9" gradientUnits="userSpaceOnUse" xlink:href="#id0" x1="3.27481" y1="18.9066" x2="16.4634" y2="32.0915">
  </linearGradient>
  <linearGradient id="id10" gradientUnits="userSpaceOnUse" xlink:href="#id0" x1="31.7181" y1="18.8203" x2="18.9763" y2="31.5656">
  </linearGradient>
  <linearGradient id="id11" gradientUnits="userSpaceOnUse" xlink:href="#id0" x1="3.10462" y1="18.7363" x2="15.8503" y2="31.4785">
  </linearGradient>
  <linearGradient id="id12" gradientUnits="userSpaceOnUse" xlink:href="#id0" x1="31.533" y1="19.0054" x2="18.3782" y2="32.1638">
  </linearGradient>
  <linearGradient id="id13" gradientUnits="userSpaceOnUse" xlink:href="#id0" x1="31.6125" y1="18.9258" x2="18.2986" y2="32.2434">
  </linearGradient>
  <linearGradient id="id14" gradientUnits="userSpaceOnUse" xlink:href="#id0" x1="3.29006" y1="18.9218" x2="16.4482" y2="32.0763">
  </linearGradient>
  <linearGradient id="id15" gradientUnits="userSpaceOnUse" xlink:href="#id0" x1="3.21047" y1="18.8423" x2="16.5277" y2="32.1558">
  </linearGradient>
  <linearGradient id="id16" gradientUnits="userSpaceOnUse" xlink:href="#id0" x1="31.5869" y1="18.9514" x2="18.3242" y2="32.2178">
  </linearGradient>
  <linearGradient id="id17" gradientUnits="userSpaceOnUse" xlink:href="#id0" x1="31.511" y1="19.0273" x2="18.4001" y2="32.1419">
  </linearGradient>
  <linearGradient id="id18" gradientUnits="userSpaceOnUse" xlink:href="#id0" x1="31.5518" y1="18.9865" x2="18.3594" y2="32.1826">
  </linearGradient>
  <linearGradient id="id19" gradientUnits="userSpaceOnUse" xlink:href="#id0" x1="31.5782" y1="18.9601" x2="18.3329" y2="32.2091">
  </linearGradient>
  <linearGradient id="id20" gradientUnits="userSpaceOnUse" xlink:href="#id0" x1="31.6527" y1="18.8856" x2="18.2585" y2="32.2836">
  </linearGradient>
  <linearGradient id="id21" gradientUnits="userSpaceOnUse" xlink:href="#id0" x1="3.23564" y1="18.8674" x2="16.5026" y2="32.1307">
  </linearGradient>
  <linearGradient id="id22" gradientUnits="userSpaceOnUse" xlink:href="#id0" x1="3.3116" y1="18.9433" x2="16.4266" y2="32.0547">
  </linearGradient>
  <linearGradient id="id23" gradientUnits="userSpaceOnUse" xlink:href="#id0" x1="3.27135" y1="18.9031" x2="16.4669" y2="32.095">
  </linearGradient>
  <linearGradient id="id24" gradientUnits="userSpaceOnUse" xlink:href="#id0" x1="3.24488" y1="18.8766" x2="16.4933" y2="32.1214">
  </linearGradient>
  <linearGradient id="id25" gradientUnits="userSpaceOnUse" xlink:href="#id0" x1="3.17044" y1="18.8022" x2="16.5678" y2="32.1958">
  </linearGradient>
  <linearGradient id="id26" gradientUnits="userSpaceOnUse" xlink:href="#id0" x1="31.6623" y1="18.876" x2="18.2489" y2="32.2932">
  </linearGradient>
  <linearGradient id="id27" gradientUnits="userSpaceOnUse" xlink:href="#id0" x1="3.16021" y1="18.792" x2="16.578" y2="32.2061">
  </linearGradient>
  <linearGradient id="id28" gradientUnits="userSpaceOnUse" xlink:href="#id0" x1="31.5987" y1="18.9396" x2="18.3124" y2="32.2296">
  </linearGradient>
  <linearGradient id="id29" gradientUnits="userSpaceOnUse" xlink:href="#id0" x1="31.5278" y1="19.0105" x2="18.3834" y2="32.1586">
  </linearGradient>
  <linearGradient id="id30" gradientUnits="userSpaceOnUse" xlink:href="#id0" x1="3.22375" y1="18.8555" x2="16.5145" y2="32.1425">
  </linearGradient>
  <linearGradient id="id31" gradientUnits="userSpaceOnUse" xlink:href="#id0" x1="3.29471" y1="18.9265" x2="16.4435" y2="32.0716">
  </linearGradient>
  <linearGradient id="id32" gradientUnits="userSpaceOnUse" x1="15.9138" y1="18.5101" x2="8.07884" y2="26.3473">
   <stop offset="0" style="stop-color:#0A7832"/>
   <stop offset="1" style="stop-color:#218837"/>
  </linearGradient>
  <linearGradient id="id33" gradientUnits="userSpaceOnUse" xlink:href="#id32" x1="18.9098" y1="18.5969" x2="26.7468" y2="26.4317">
  </linearGradient>
  <linearGradient id="id34" gradientUnits="userSpaceOnUse" x1="11.9831" y1="2.02246" x2="1.78076" y2="12.2276">
   <stop offset="0" style="stop-color:white"/>
   <stop offset="1" style="stop-color:#8CC63F"/>
  </linearGradient>
  <linearGradient id="id35" gradientUnits="userSpaceOnUse" xlink:href="#id34" x1="22.6782" y1="2.10012" x2="32.8835" y2="12.3025">
  </linearGradient>
  <linearGradient id="id36" gradientUnits="userSpaceOnUse" x1="23.5539" y1="35.0859" x2="31.875" y2="23.1985">
   <stop offset="0" style="stop-color:#E6F0C3"/>
   <stop offset="1" style="stop-color:#79B93E"/>
  </linearGradient>
  <linearGradient id="id37" gradientUnits="userSpaceOnUse" xlink:href="#id36" x1="11.2726" y1="34.9993" x2="2.94784" y2="23.1139">
  </linearGradient>
  <linearGradient id="id38" gradientUnits="userSpaceOnUse" x1="5.53979" y1="18.1113" x2="16.6666" y2="26.753">
   <stop offset="0" style="stop-color:#4F9E3A"/>
   <stop offset="1" style="stop-color:#A5CF4E"/>
  </linearGradient>
  <linearGradient id="id39" gradientUnits="userSpaceOnUse" x1="5.32075" y1="16.4088" x2="16.4476" y2="7.76706">
   <stop offset="0" style="stop-color:#4F9E3A"/>
   <stop offset="1" style="stop-color:#CBE081"/>
  </linearGradient>
  <linearGradient id="id40" gradientUnits="userSpaceOnUse" xlink:href="#id39" x1="29.3425" y1="16.4842" x2="18.2147" y2="7.84423">
  </linearGradient>
  <linearGradient id="id41" gradientUnits="userSpaceOnUse" xlink:href="#id38" x1="29.2844" y1="18.196" x2="18.1585" y2="26.8394">
  </linearGradient>
  <linearGradient id="id42" gradientUnits="userSpaceOnUse" x1="13.0491" y1="21.0598" x2="11.7976" y2="25.0152">
   <stop offset="0" style="stop-color:#2C8D38"/>
   <stop offset="1" style="stop-color:#50A23B"/>
  </linearGradient>
  <linearGradient id="id43" gradientUnits="userSpaceOnUse" xlink:href="#id42" x1="21.7753" y1="21.1453" x2="23.0274" y2="25.1008">
  </linearGradient>
  <linearGradient id="id44" gradientUnits="userSpaceOnUse" x1="21.8327" y1="13.5366" x2="23.0842" y2="9.58116">
   <stop offset="0" style="stop-color:#479C3B"/>
   <stop offset="1" style="stop-color:#6CB03D"/>
  </linearGradient>
  <linearGradient id="id45" gradientUnits="userSpaceOnUse" xlink:href="#id44" x1="12.8304" y1="13.4603" x2="11.5783" y2="9.50483">
  </linearGradient>
  <linearGradient id="id46" gradientUnits="userSpaceOnUse" x1="17.8855" y1="39.5946" x2="18.4192" y2="34.1351">
   <stop offset="0" style="stop-color:#85BE4B"/>
   <stop offset="1" style="stop-color:#B2D77D"/>
  </linearGradient>
 </defs>
 <g id="Слой_x0020_1">
  <g id="_244799528">
   <path id="_200459952" class="fil0" d="M16.8903 17.9461c3.9521,8.48942 1.66079,17.0029 -1.748,22.7967l3.00877 0.0609563c3.52585,-7.85604 3.86004,-16.6906 -0.446616,-23.329l-0.814154 0.471354z"/>
   <polygon id="_200469600" class="fil1" points="18.3879,15.6907 19.0233,16.3261 18.0452,17.3043 19.0234,18.2825 18.388,18.9179 17.4098,17.9398 16.4316,18.918 15.7961,18.2826 16.7743,17.3044 15.7961,16.3262 16.4315,15.6907 17.4097,16.6689 "/>
   <ellipse id="_200482296" class="fil2" transform="matrix(1.0399 0.00166695 -0.00238181 1.48585 16.6417 40.8032)" rx="1.452" ry="0.332751"/>
   <g>
    <path id="_200461224" class="fil3" d="M18.4312 16.3079c-0.645757,-0.657948 0.0717029,-1.4809 0.14883,-2.78948 0.0906108,-1.53703 -2.5481,-7.53782 1.18966,-11.433 4.28508,-4.46655 9.94666,-0.672345 9.40137,3.48264 4.15501,-0.545236 7.9492,5.11633 3.48267,9.40142 -3.89522,3.7377 -9.89594,1.09896 -11.4331,1.18965 -1.30857,0.0770762 -2.1315,0.7946 -2.78947,0.148804z"/>
    <path id="_200480520" class="fil4" d="M18.4312 16.3079l0.968027 -1.82477c0.742286,-1.87438 0.106718,-3.90785 1.48455,-5.28562 1.51704,-1.51709 3.62456,-1.14385 4.71314,-0.0552409 1.08855,1.08856 1.46188,3.19609 -0.0552156,4.71317 -1.37787,1.37778 -3.41134,0.74221 -5.2857,1.48445l-1.8248 0.968027z"/>
    <path id="_200475048" class="fil5" d="M25.0281 9.71351c3.53449,-6.03513 -2.23063,-8.98935 -5.0977,-5.82729 2.97681,-5.45558 9.65197,-1.4381 7.75204,3.17299 4.61104,-1.89996 8.62852,4.77523 3.17294,7.75199 3.16206,-2.86708 0.207873,-8.63217 -5.82727,-5.09769z"/>
    <path id="_200481384" class="fil1" d="M26.4941 6.49036l2.62482 -2.35697c-0.0310358,-0.152391 -0.0699287,-0.302881 -0.116261,-0.451001l-2.50856 2.80797z"/>
    <path id="_200474160" class="fil1" d="M26.1686 4.86054l2.31762 -2.29705c-0.0659494,-0.105679 -0.135904,-0.209102 -0.209634,-0.310041l-2.10799 2.60709z"/>
    <path id="_200473128" class="fil1" d="M25.5899 3.56296l1.69779 -2.33728c-0.0832479,-0.0661395 -0.168574,-0.129909 -0.255839,-0.191195l-1.44195 2.52847z"/>
    <path id="_200461704" class="fil1" d="M24.7248 2.69653l1.10792 -2.2948c-0.0871131,-0.0325438 -0.175278,-0.0628319 -0.264393,-0.0907882l-0.843529 2.38559z"/>
    <path id="_200465016" class="fil1" d="M23.7056 2.21213l0.540091 -2.13181c-0.0807006,-0.00320623 -0.161781,-0.00449886 -0.243217,-0.0038272l-0.296874 2.13564z"/>
    <path id="_200465400" class="fil1" d="M22.8733 2.40106l-0.143647 -2.15166c-0.075999,0.0201878 -0.152061,0.0422259 -0.2282,0.0661395l0.371846 2.08552z"/>
    <path id="_200466624" class="fil1" d="M21.7769 2.54232l-0.481631 -1.68461c-0.055355,0.0327973 -0.110634,0.0666971 -0.165824,0.101712l0.647455 1.5829z"/>
    <path id="_200474040" class="fil1" d="M21.155 3.34137l-1.07727 -1.56088c-0.0502098,0.0471049 -0.100255,0.0952871 -0.150122,0.144546l1.22739 1.41633z"/>
    <path id="_200455200" class="fil1" d="M20.2351 4.07321l-1.18791 -1.10036c-0.033621,0.0491326 -0.0664437,0.0984806 -0.0984933,0.148057l1.28641 0.9523z"/>
    <path id="_200460552" class="fil1" d="M30.6052 5.62006l-2.35688 2.62452 2.80768 -2.50837c-0.148069,-0.0462939 -0.298483,-0.0851615 -0.450798,-0.116147z"/>
    <path id="_200482416" class="fil1" d="M32.1756 6.25288l-2.29688 2.31777 2.60692 -2.10814c-0.100939,-0.0737306 -0.204349,-0.143685 -0.310041,-0.209634z"/>
    <path id="_200462544" class="fil1" d="M33.5138 7.45186l-2.33711 1.69787 2.52823 -1.44207c-0.0612605,-0.0872652 -0.125018,-0.172566 -0.191119,-0.255801z"/>
    <path id="_200468976" class="fil1" d="M34.3374 8.90655l-2.29494 1.10766 2.38571 -0.843251c-0.0279436,-0.0891154 -0.0582317,-0.17728 -0.0907755,-0.264406z"/>
    <path id="_200476536" class="fil1" d="M34.6588 10.4939l-2.13153 0.539952 2.13535 -0.29695c0.000684333,-0.0813596 -0.000608296,-0.162377 -0.00381452,-0.243002z"/>
    <path id="_200469696" class="fil1" d="M34.4898 12.0092l-2.15172 -0.143444 2.08551 0.371922c0.023939,-0.0762144 0.0459897,-0.152391 0.0662156,-0.228479z"/>
    <path id="_251656856" class="fil1" d="M33.8814 13.4439l-1.68446 -0.481441 1.58263 0.647417c0.0350657,-0.0552409 0.0690036,-0.110571 0.101826,-0.165976z"/>
    <path id="_200454984" class="fil1" d="M32.9587 14.6613l-1.5615 -1.07781 1.41692 1.22796c0.049272,-0.049893 0.0974541,-0.099938 0.144572,-0.150148z"/>
    <path id="_200483928" class="fil1" d="M31.7663 15.6919l-1.10012 -1.18766 0.95206 1.28614c0.0495635,-0.0320496 0.0989242,-0.0648723 0.148057,-0.0984806z"/>
    <path id="_200464680" class="fil6" d="M27.2269 7.07892c-2.50699,3.13162 -5.83531,6.09334 -9.04762,8.75462 0.0299206,0.168967 0.106224,0.325857 0.251961,0.474332 0.187824,0.184364 0.389081,0.257613 0.611262,0.266383 3.86406,-3.2507 6.43112,-6.55529 8.1844,-9.49534z"/>
   </g>
   <g>
    <path id="_200453760" class="fil7" d="M16.2316 16.2316c0.645846,-0.657948 -0.0716902,-1.48088 -0.148868,-2.78946 -0.0905728,-1.53713 2.54815,-7.53785 -1.1895,-11.4331 -4.28514,-4.46654 -9.94673,-0.672357 -9.4015,3.48271 -4.15497,-0.545325 -7.94916,5.11625 -3.48265,9.40134 3.89526,3.73771 9.89596,1.09905 11.433,1.1896 1.30862,0.0771649 2.13157,0.79465 2.78947,0.14888z"/>
    <path id="_200470680" class="fil8" d="M16.2316 16.2316l-0.968027 -1.82481c-0.742273,-1.87434 -0.106718,-3.90782 -1.48453,-5.28562 -1.51707,-1.51709 -3.62452,-1.1438 -4.71309,-0.0552409 -1.08853,1.08853 -1.46188,3.19606 0.0552282,4.71318 1.37775,1.37774 3.4113,0.742197 5.28568,1.48453l1.82475 0.967964z"/>
    <path id="_200460888" class="fil9" d="M9.6347 9.63724c-3.5345,-6.0352 2.23058,-8.9894 5.09766,-5.82731 -2.97674,-5.45558 -9.65194,-1.43808 -7.75201,3.17301 -4.61104,-1.89995 -8.62848,4.77521 -3.17296,7.75194 -3.16209,-2.86705 -0.20786,-8.63208 5.82731,-5.09764z"/>
    <path id="_200482920" class="fil1" d="M8.16867 6.41405l-2.62482 -2.35697c0.0310485,-0.152391 0.0699414,-0.302881 0.116261,-0.451001l2.50856 2.80797z"/>
    <path id="_200456448" class="fil1" d="M8.49424 4.78424l-2.31762 -2.29705c0.0659368,-0.105679 0.135904,-0.209102 0.209634,-0.310041l2.10799 2.60709z"/>
    <path id="_200461848" class="fil1" d="M9.07291 3.48665l-1.69778 -2.33728c0.0832479,-0.0661395 0.168561,-0.129909 0.255839,-0.191195l1.44194 2.52847z"/>
    <path id="_200476488" class="fil1" d="M9.93798 2.62022l-1.10794 -2.2948c0.0871131,-0.0325438 0.175278,-0.0628319 0.264393,-0.0907882l0.843542 2.38559z"/>
    <path id="_200478792" class="fil1" d="M10.9573 2.13583l-0.540091 -2.13181c0.080688,-0.00320623 0.161769,-0.00449886 0.243204,-0.0038272l0.296887 2.13564z"/>
    <path id="_200460432" class="fil1" d="M11.7895 2.32476l0.143647 -2.15166c0.075999,0.0201878 0.152074,0.0422259 0.2282,0.0661269l-0.371846 2.08553z"/>
    <path id="_200480064" class="fil1" d="M12.8859 2.46602l0.481644 -1.68461c0.0553423,0.0327973 0.110634,0.0666971 0.165811,0.101712l-0.647455 1.5829z"/>
    <path id="_200478000" class="fil1" d="M13.5078 3.26507l1.07728 -1.56088c0.0501971,0.0471049 0.100242,0.0952871 0.15011,0.144546l-1.22739 1.41633z"/>
    <path id="_200458392" class="fil1" d="M14.4276 3.99691l1.18793 -1.10036c0.0336084,0.0491326 0.066431,0.0984806 0.0984806,0.148057l-1.28641 0.9523z"/>
    <path id="_200456424" class="fil1" d="M4.05758 5.54376l2.35687 2.62452 -2.80768 -2.50837c0.148082,-0.0462939 0.298483,-0.0851615 0.450811,-0.116147z"/>
    <path id="_200457504" class="fil1" d="M2.48723 6.17658l2.29689 2.31777 -2.60693 -2.10814c0.100952,-0.0737306 0.204362,-0.143685 0.310041,-0.209634z"/>
    <path id="_251649944" class="fil1" d="M1.14905 7.37555l2.33711 1.69787 -2.52824 -1.44207c0.0612605,-0.0872652 0.125018,-0.172566 0.191132,-0.255801z"/>
    <path id="_251652296" class="fil1" d="M0.32535 8.83024l2.29494 1.10766 -2.38571 -0.843251c0.0279436,-0.0891154 0.0582317,-0.17728 0.0907755,-0.264406z"/>
    <path id="_251651312" class="fil1" d="M0.00401729 10.4176l2.13153 0.539952 -2.13535 -0.29695c-0.000684333,-0.0813596 0.000595623,-0.162377 0.00381452,-0.243002z"/>
    <path id="_251678240" class="fil1" d="M0.173035 11.9329l2.15172 -0.143444 -2.08549 0.371922c-0.0239517,-0.0762144 -0.0460024,-0.152391 -0.0662282,-0.228479z"/>
    <path id="_251661152" class="fil1" d="M0.781394 13.3675l1.68446 -0.481441 -1.58263 0.647417c-0.0350657,-0.0552409 -0.0690036,-0.110571 -0.101826,-0.165976z"/>
    <path id="_251662736" class="fil1" d="M1.70415 14.585l1.5615 -1.07781 -1.41694 1.22796c-0.049272,-0.049893 -0.0974541,-0.099938 -0.144559,-0.150148z"/>
    <path id="_251669648" class="fil1" d="M2.89655 15.6156l1.10012 -1.18766 -0.95206 1.28614c-0.0495761,-0.0320496 -0.0989242,-0.0648723 -0.148057,-0.0984806z"/>
    <path id="_251666720" class="fil6" d="M7.43593 7.00262c2.50699,3.13162 5.8353,6.09334 9.04761,8.75462 -0.0299079,0.168967 -0.106211,0.325857 -0.251949,0.474332 -0.187824,0.184364 -0.389094,0.257613 -0.611262,0.266383 -3.86407,-3.2507 -6.43114,-6.55529 -8.1844,-9.49534z"/>
   </g>
   <g>
    <path id="_251655656" class="fil10" d="M16.4506 18.2885c0.645808,0.657948 -0.0717156,1.48086 -0.148817,2.78949 -0.0906108,1.53704 2.54809,7.53777 -1.18962,11.433 -4.2851,4.46658 -9.94667,0.672345 -9.40141,-3.4826 -4.15502,0.545236 -7.94918,-5.11632 -3.48267,-9.40147 3.8952,-3.7377 9.89593,-1.09894 11.433,-1.18957 1.30862,-0.0771649 2.13152,-0.794612 2.78948,-0.148817z"/>
    <path id="_200455392" class="fil11" d="M16.4506 18.2885l-0.968027 1.82476c-0.742248,1.87435 -0.106731,3.90788 -1.48446,5.28566 -1.5171,1.51709 -3.62457,1.14381 -4.71315,0.0552156 -1.0886,-1.08853 -1.46186,-3.19614 0.0551649,-4.71315 1.37777,-1.3778 3.41134,-0.742172 5.28569,-1.48443l1.82479 -0.968053z"/>
    <path id="_200465328" class="fil12" d="M9.85373 24.8828c-3.53449,6.0351 2.23062,8.98938 5.09767,5.82734 -2.97679,5.45555 -9.65189,1.43814 -7.75205,-3.17297 -4.61108,1.89987 -8.62845,-4.77521 -3.17294,-7.75201 -3.16206,2.86713 -0.207847,8.6321 5.82731,5.09765z"/>
    <path id="_200472672" class="fil13" d="M8.38771 28.1061l-2.62482 2.35693c0.0309851,0.152416 0.0699541,0.302919 0.116261,0.451001l2.50856 -2.80793z"/>
    <path id="_200482944" class="fil14" d="M8.71325 29.7358l-2.3176 2.29707c0.0658988,0.105653 0.135853,0.209064 0.209634,0.310066l2.10796 -2.60713z"/>
    <path id="_200458008" class="fil15" d="M9.29194 31.0334l-1.69777 2.33733c0.0832479,0.0661015 0.168549,0.129922 0.255801,0.191208l1.44197 -2.52854z"/>
    <path id="_200479320" class="fil16" d="M10.157 31.8999l-1.1079 2.29478c0.0870877,0.0325058 0.175227,0.0627812 0.264368,0.0907248l0.843529 -2.38551z"/>
    <path id="_200468016" class="fil17" d="M11.1763 32.3843l-0.540066 2.13172c0.0807133,0.00324425 0.161756,0.00451153 0.243116,0.00385254l0.29695 -2.13558z"/>
    <path id="_200478696" class="fil18" d="M12.0085 32.1953l0.143634 2.15166c0.0759737,-0.0202005 0.152011,-0.0421625 0.228314,-0.0661649l-0.371948 -2.08549z"/>
    <path id="_200479176" class="fil19" d="M13.105 32.054l0.481644 1.68471c0.055393,-0.032848 0.110647,-0.0667732 0.165862,-0.101814l-0.647506 -1.5829z"/>
    <path id="_200472864" class="fil20" d="M13.7268 31.255l1.07728 1.56082c0.0501718,-0.0470162 0.100204,-0.0952237 0.150097,-0.144521l-1.22738 -1.4163z"/>
    <path id="_200476392" class="fil13" d="M14.6467 30.5231l1.18798 1.10034c0.0335703,-0.0491199 0.066431,-0.0984299 0.0984046,-0.148069l-1.28638 -0.952275z"/>
    <path id="_200456952" class="fil13" d="M4.27656 28.9763l2.35696 -2.62456 -2.80776 2.5084c0.148044,0.0462812 0.298509,0.0851615 0.450798,0.116159z"/>
    <path id="_200470032" class="fil21" d="M2.70626 28.3435l2.29691 -2.31777 -2.60695 2.10808c0.100964,0.0737179 0.204413,0.143697 0.310041,0.209697z"/>
    <path id="_200472384" class="fil22" d="M1.36807 27.1446l2.33711 -1.69792 -2.52824 1.44216c0.0611971,0.0871638 0.125043,0.172503 0.191132,0.255763z"/>
    <path id="_200468592" class="fil23" d="M0.544349 25.6898l2.29494 -1.10762 -2.38566 0.843314c0.027969,0.089052 0.058219,0.177179 0.0907248,0.264305z"/>
    <path id="_200476992" class="fil24" d="M0.223029 24.1025l2.13157 -0.539926 -2.13536 0.296925c-0.000709679,0.0813469 0.000620969,0.162326 0.00378918,0.243002z"/>
    <path id="_200468064" class="fil25" d="M0.392072 22.5872l2.15167 0.143431 -2.08542 -0.37196c-0.023977,0.0762144 -0.0460277,0.152429 -0.0662536,0.228529z"/>
    <path id="_200456568" class="fil26" d="M1.00036 21.1525l1.68455 0.481441 -1.58267 -0.647367c-0.0349897,0.0552536 -0.0689276,0.110583 -0.101877,0.165925z"/>
    <path id="_200471256" class="fil27" d="M1.92312 19.9351l1.56162 1.07786 -1.41696 -1.22793c-0.0493354,0.0498676 -0.0974921,0.0998366 -0.14466,0.150072z"/>
    <path id="_200453952" class="fil28" d="M3.11557 18.9045l1.10007 1.18765 -0.951958 -1.28608c-0.0496902,0.0319989 -0.0989875,0.0648596 -0.148107,0.0984299z"/>
    <path id="_200462808" class="fil29" d="M7.65499 27.5175c2.50697,-3.13169 5.83528,-6.09334 9.04758,-8.75464 -0.0299079,-0.169043 -0.106198,-0.325882 -0.251974,-0.474332 -0.187811,-0.184402 -0.389056,-0.257651 -0.611274,-0.266484 -3.86402,3.25076 -6.43111,6.55538 -8.18433,9.49545z"/>
   </g>
   <g>
    <path id="_200474400" class="fil30" d="M18.3741 18.3741c-0.64582,0.657936 0.0717029,1.48087 0.14883,2.78948 0.0906108,1.5371 -2.54811,7.53778 1.18964,11.433 4.28509,4.46649 9.94666,0.672345 9.40133,-3.48266 4.15504,0.545223 7.94921,-5.11628 3.48271,-9.40143 -3.89525,-3.73765 -9.89595,-1.09896 -11.433,-1.18959 -1.30865,-0.0771142 -2.1316,-0.794688 -2.78948,-0.14883z"/>
    <path id="_251654000" class="fil31" d="M18.3741 18.374l0.968053 1.82479c0.742273,1.87438 0.106642,3.9079 1.48451,5.28565 1.51707,1.51707 3.62453,1.14381 4.7131,0.0552409 1.08852,-1.08851 1.46186,-3.19605 -0.0552282,-4.71313 -1.3778,-1.37782 -3.4113,-0.742235 -5.28564,-1.48451l-1.8248 -0.96804z"/>
    <path id="_200458032" class="fil32" d="M24.9709 24.9684c3.53452,6.03513 -2.23058,8.98936 -5.09759,5.82727 2.9767,5.45558 9.6518,1.43816 7.75187,-3.173 4.61114,1.89992 8.62858,-4.77521 3.17302,-7.75192 3.16208,2.86704 0.207847,8.63209 -5.82731,5.09765z"/>
    <path id="_251677016" class="fil33" d="M26.437 28.1916l2.62482 2.35694c-0.0310358,0.152404 -0.0699794,0.302919 -0.116273,0.451039l-2.50855 -2.80798z"/>
    <path id="_244805240" class="fil34" d="M26.1114 29.8214l2.31766 2.29702c-0.0659621,0.105653 -0.135929,0.209102 -0.209647,0.310155l-2.10801 -2.60717z"/>
    <path id="_244811000" class="fil35" d="M25.5327 31.119l1.69782 2.33733c-0.0832352,0.0661142 -0.168599,0.129833 -0.255852,0.191132l-1.44197 -2.52846z"/>
    <path id="_244826528" class="fil36" d="M24.6677 31.9854l1.10787 2.29482c-0.0870497,0.0325185 -0.175215,0.0628446 -0.264368,0.0907882l-0.843504 -2.38561z"/>
    <path id="_244806800" class="fil37" d="M23.6484 32.4698l0.540053 2.13177c-0.0806499,0.00328226 -0.161731,0.00454955 -0.243154,0.00385254l-0.296899 -2.13563z"/>
    <path id="_244822640" class="fil38" d="M22.8162 32.2809l-0.143659 2.15164c-0.0759863,-0.0201878 -0.152087,-0.0422132 -0.2282,-0.0661142l0.371859 -2.08553z"/>
    <path id="_244822016" class="fil39" d="M21.7197 32.1397l-0.481644 1.68456c-0.0554056,-0.0327846 -0.110634,-0.0667098 -0.165837,-0.101687l0.647481 -1.58288z"/>
    <path id="_244821200" class="fil40" d="M21.0978 31.3406l-1.0772 1.56085c-0.0502858,-0.0470669 -0.100267,-0.0952871 -0.15016,-0.144496l1.22736 -1.41635z"/>
    <path id="_244803224" class="fil33" d="M20.178 30.6087l-1.18791 1.10041c-0.033583,-0.0491453 -0.0664057,-0.0984933 -0.0984679,-0.148069l1.28638 -0.952338z"/>
    <path id="_244802336" class="fil33" d="M30.5481 29.0619l-2.35691 -2.62452 2.80767 2.50831c-0.148057,0.0463192 -0.298471,0.0851868 -0.45076,0.11621z"/>
    <path id="_244801976" class="fil41" d="M32.1184 28.429l-2.2969 -2.31775 2.60694 2.10814c-0.100977,0.0737052 -0.204286,0.143634 -0.310041,0.209609z"/>
    <path id="_244801304" class="fil42" d="M33.4566 27.2301l-2.33707 -1.69789 2.52821 1.44208c-0.0612985,0.0872018 -0.125056,0.172541 -0.191132,0.255814z"/>
    <path id="_244817024" class="fil43" d="M34.2803 25.7754l-2.29497 -1.10766 2.38572 0.843263c-0.0279309,0.0891788 -0.0582317,0.177255 -0.0907502,0.264393z"/>
    <path id="_244799048" class="fil44" d="M34.6016 24.1881l-2.13147 -0.539964 2.13532 0.296925c0.000722352,0.0814103 -0.000620969,0.162377 -0.00385254,0.24304z"/>
    <path id="_244814864" class="fil45" d="M34.4325 22.6728l-2.15172 0.143431 2.08557 -0.371948c0.023939,0.0762018 0.0459771,0.152404 0.0661522,0.228517z"/>
    <path id="_244798424" class="fil46" d="M33.8243 21.238l-1.68451 0.481504 1.58263 -0.647455c0.0350531,0.0552662 0.0690289,0.110583 0.101877,0.165951z"/>
    <path id="_244798280" class="fil47" d="M32.9015 20.0206l-1.56147 1.07789 1.41682 -1.22802c0.0493354,0.0499056 0.0975048,0.0999633 0.144648,0.150135z"/>
    <path id="_244812032" class="fil48" d="M31.7091 18.9901l-1.10019 1.18771 0.952098 -1.2862c0.0496015,0.032113 0.0989368,0.0648849 0.148095,0.0984933z"/>
    <path id="_244811216" class="fil49" d="M27.1697 27.603c-2.507,-3.13166 -5.83533,-6.09338 -9.04761,-8.75466 0.0299206,-0.16898 0.106198,-0.325882 0.251961,-0.474319 0.187735,-0.18439 0.389094,-0.257639 0.611224,-0.266358 3.86409,3.25067 6.43115,6.55524 8.18442,9.49534z"/>
   </g>
  </g>
 </g>
</svg>
