<?xml version="1.0" standalone="no"?>
<!DOCTYPE svg PUBLIC "-//W3C//DTD SVG 1.1//EN" "http://www.w3.org/Graphics/SVG/1.1/DTD/svg11.dtd" >
<svg xmlns="http://www.w3.org/2000/svg" xmlns:xlink="http://www.w3.org/1999/xlink" version="1.1">
<metadata>
Created by FontForge 20161003 at Fri Jun 29 12:19:24 2018
 By www-data
Copyright (c) Gophmann AL (cyr.code page), 2000. All rights reserved.
</metadata>
<defs>
<font id="AnfisaGrotesk" horiz-adv-x="116" >
  <font-face
    font-family="AnfisaGrotesk"
    font-weight="500"
    font-stretch="normal"
    units-per-em="1000"
    panose-1="2 0 6 6 2 0 0 2 0 3"
    ascent="800"
    descent="-200"
    x-height="495"
    cap-height="715"
    bbox="-165 -247.522 821.519 890"
    underline-thickness="50"
    underline-position="-100"
    unicode-range="U+0020-2122"
  />
<missing-glyph horiz-adv-x="1000"
 />
    <glyph glyph-name=".notdef" horiz-adv-x="1000"
 />
    <glyph glyph-name=".null" horiz-adv-x="0"
 />
    <glyph glyph-name="nonmarkingreturn" horiz-adv-x="333"
 />
    <glyph glyph-name="space" unicode=" " horiz-adv-x="200"
 />
    <glyph glyph-name="exclam" unicode="!" horiz-adv-x="150"
d="M139 223q0 -12 -5 -23t-13 -20t-18 -14.5t-19 -5.5q-10 0 -21 4t-20.5 16t-16 32.5t-6.5 53.5q0 22 0.5 58t0.5 77t1 83t1 77t0.5 58t0.5 26q0 4 2 15.5t7 22.5t13.5 20t20.5 9q20 0 30.5 -19t10.5 -48q0 -9 -0.5 -37.5t-1 -65.5t-1.5 -78t-1.5 -77t-1 -61.5t-0.5 -30.5
q0 -16 0.5 -21.5t2.5 -5.5q3 0 6 3t7 3t12.5 -14t8.5 -37zM108 67q0 -41 -15 -60t-32 -19t-31 22.5t-14 54.5t13 55t37 23q18 0 30 -18t12 -58z" />
    <glyph glyph-name="numbersign" unicode="#" horiz-adv-x="612"
d="M589 217q0 -7 -3.5 -15t-14.5 -15t-31.5 -11.5t-54.5 -4.5h-64v-29q0 -12 5 -20t13 -3t11.5 6t4.5 -16q0 -9 1 -29t-1.5 -40t-11.5 -35.5t-29 -15.5t-32.5 13t-19.5 31.5t-9.5 38.5t-2.5 34v66q-18 0 -28.5 0.5t-19.5 0.5t-18.5 0.5t-24.5 0.5v-32q0 -12 5 -20t13 -3
t11.5 6t3.5 -16q0 -9 1.5 -29t-1 -40t-11.5 -35.5t-29 -15.5t-32.5 13t-19.5 31.5t-9.5 38.5t-2.5 34v69h-14q-12 0 -20 -5t-3 -13t6 -11.5t-16 -4.5q-9 0 -29 -1t-40 1.5t-35.5 11.5t-15.5 29t13 32.5t31.5 19.5t38.5 9.5t34 2.5h50l1 141h-15q-12 0 -20 -5t-3 -13t6 -11.5
t-16 -3.5q-9 0 -29 -1.5t-40 1t-35.5 11.5t-15.5 29t13 32.5t31.5 19.5t38.5 9.5t34 2.5h52v39q1 14 -4 19.5t-11 2.5t-13 -1.5t-6 11.5q1 4 2 23t6.5 40t17.5 38t35 17q7 0 15 -3.5t15 -14.5t11.5 -31.5t4.5 -54.5q0 -15 -0.5 -37t-0.5 -48q18 0 28 -0.5t18.5 -0.5h18h25.5
v40q1 14 -4 19.5t-10 2.5q-6 -3 -13.5 -1.5t-5.5 11.5q0 4 1 23t6.5 40t17.5 38t35 17q7 0 15 -3.5t15 -14.5t11.5 -31.5t4.5 -54.5v-37.5t-1 -49.5h15q14 -1 19.5 4t2.5 11t-1.5 13t11.5 6q4 -1 23 -2t40 -6.5t38 -18t17 -34.5q0 -7 -3.5 -15t-14.5 -15t-31.5 -11.5
t-54.5 -4.5h-27.5t-33.5 1l-2 -140h17q14 -1 19.5 4t2.5 10q-3 6 -1.5 13.5t11.5 5.5q4 0 23 -1t40 -6.5t38 -18t17 -34.5zM351 384q-18 0 -28.5 0.5t-19 1t-17.5 0.5h-25l-1 -141h91v139v0z" />
    <glyph glyph-name="dollar" unicode="$" horiz-adv-x="402"
d="M387 212q0 -24 -5 -53.5t-18.5 -58t-37 -53.5t-60.5 -40q-14 -5 -16 -6.5t-2 -14.5t-0.5 -32.5t-0.5 -30.5t-7.5 -21t-29.5 -15q-22 -6 -32 1t-11 21q0 7 -1 21.5t-1.5 30t-1 29t-0.5 18.5q0 11 -3 17t-7 11q-2 2 -8.5 7.5t-14 11.5t-14 11.5t-9.5 7.5q-6 4 -17 4
t-10 -12q0 -6 -1.5 -14t-5.5 -12t-11.5 -1.5t-17.5 18.5q-21 32 -24.5 51.5t-3.5 31.5q0 6 2.5 21t10 30.5t22.5 27.5t40 12t46 -12.5t39.5 -28t35 -28t31.5 -12.5q8 0 14 5t9.5 12.5t5.5 16t2 15.5t-0.5 15.5t-4 17.5t-11.5 18.5t-24 18.5t-37.5 20t-43 23t-39.5 24t-26 23
q-16 21 -28 57t-12 75q0 20 4.5 46.5t16.5 52.5t32 48t51 34q11 5 15.5 12.5t4.5 12.5q0 3 -0.5 14.5t-0.5 25t-0.5 26.5t-0.5 18t0.5 10.5t4 11t12 11t23.5 9.5q31 8 38 4t7 -21v-99q0 -9 2 -19t10 -15q4 -3 21 -12t35.5 -26.5t33 -44t14.5 -64.5q0 -34 -14.5 -56.5
t-36.5 -22.5t-38 14.5t-25 32.5q-10 18 -23 37t-33 19t-29 -14t-9 -37t9 -39.5t36 -31.5q13 -8 29 -16l32 -16t30.5 -17t24.5 -18t21 -24.5t20.5 -35t15.5 -42.5t6 -47z" />
    <glyph glyph-name="percent" unicode="%" horiz-adv-x="486"
d="M209 533q0 -66 -12 -103t-27.5 -55t-30.5 -22t-22 -4q-6 0 -20 4t-28 21.5t-24.5 54t-10.5 101.5t12 101.5t27.5 54t31 21t22.5 3.5t21 -3t27.5 -20t23.5 -52.5t10 -101.5zM471 702q6 -4 6.5 -10t-5.5 -17t-18 -29t-30 -46q-9 -14 -27.5 -42t-42.5 -64.5t-51.5 -78.5
t-54.5 -83.5t-53 -80.5t-46 -69.5t-32.5 -49.5t-14.5 -22q-7 -11 -7 -20t9 -9q9 -1 13 -1.5t-5 -16.5q-5 -8 -16 -22t-25 -27.5t-28 -21.5t-23 -3q-11 6 -10.5 20.5t7 32.5t16.5 36t18 30q4 6 19 29.5t37.5 57.5t50 75.5t55.5 84.5t55 84t48 73.5t35 53.5l16 24q8 11 7 18.5
t-8 8.5q-6 1 -11 6t1 12q3 4 14.5 19.5t27.5 30t35 22t38 -4.5zM444 174q0 -66 -12 -102.5t-27.5 -54.5t-30.5 -22t-21 -4q-7 0 -21 4t-28 21.5t-24.5 54t-10.5 101.5t12 101t27.5 53.5t31 21t22.5 3.5t21 -3t27.5 -19.5t23.5 -52.5t10 -102zM164 532q0 43 -4.5 67.5
t-11 36.5t-13.5 15t-12 3q-2 0 -9 -1.5t-14.5 -13t-13 -36.5t-5.5 -73q0 -47 5 -72t11.5 -36.5t13 -13.5t10.5 -2q3 0 10.5 3.5t14.5 16.5t12.5 38t5.5 68zM399 174q0 43 -4.5 67.5t-11 36.5t-13.5 14.5t-11 2.5q-2 0 -9 -1.5t-14.5 -12.5t-13.5 -36t-6 -73q0 -47 5 -72
t11.5 -36.5t13.5 -13.5t10 -2q4 0 11 3.5t14 16.5t12.5 38t5.5 68z" />
    <glyph glyph-name="ampersand" unicode="&#x26;" horiz-adv-x="537"
d="M526 595q-3 -6 -14 -22.5t-29 -33.5t-42.5 -30.5t-53.5 -13.5t-46 1.5t-28.5 3.5t-21 3.5t-22.5 0.5q-26 -1 -32 0t9 12t20.5 26t5.5 26q0 6 -1.5 13.5t-6 14t-13 11.5t-22.5 5q-27 0 -45.5 -22.5t-18.5 -51.5q0 -15 4.5 -31t13 -29.5t20.5 -22.5t26 -9q28 0 36.5 -2
t8.5 -23q0 -22 -8 -34.5t-41 -23.5q-17 -5 -39 -12.5t-42.5 -23.5t-34.5 -43.5t-14 -71.5t15.5 -70.5t35.5 -41t39 -19t27 -4.5q7 0 25 3.5t36.5 12.5t32.5 25t14 42q0 25 -8 42.5t-19.5 28.5t-24.5 15.5t-23 4.5h-26t-10 -2t-9 -2t-3 9q1 5 7 17t15.5 24t24 21.5t33.5 9.5
t38 -2t35.5 -4t28.5 -4t18 -2t15.5 0.5t20 2t20.5 4.5t16 8q13 9 19 7.5t-5 -13.5q-5 -6 -14 -16.5t-22 -21.5t-30 -20t-38 -13q-15 -3 -22.5 -3h-10.5q-3 1 -6 -0.5t5 -8.5q4 -4 12 -11.5t16 -19.5t14.5 -29t6.5 -39t-10 -49t-32 -50.5t-57.5 -39.5t-85.5 -16t-86.5 19
t-60 50.5t-34.5 71.5t-11 82t8.5 74t21.5 56.5t28.5 41.5t29.5 28q7 6 10 9.5t3 5.5t-1.5 3.5t-3.5 4.5q-4 6 -16 32t-12 74q0 24 7.5 52t25 52t45.5 40.5t70 16.5q13 0 35 -5.5t42.5 -18t33.5 -34t9 -52.5q-2 -11 -1 -14t13 2q13 5 37 5t50 -2t43 5t22 12t10.5 6.5
t-1.5 -10.5z" />
    <glyph glyph-name="parenleft" unicode="(" horiz-adv-x="309"
d="M305 -112q0 -23 -9.5 -40t-23 -27.5t-28.5 -15.5t-26 -5q-7 0 -25 8t-40.5 30t-46.5 59t-44 95t-33 139t-13 191q0 109 12 187t30 131.5t40.5 85t44 48t39 21.5t26.5 5q19 0 35.5 -8.5t28.5 -23.5t19 -34.5t7 -40.5q0 -43 -16.5 -69.5t-45.5 -26.5q-14 0 -24.5 8
t-17 19.5t-9.5 24t-3 20.5q0 17 6.5 24.5t12.5 7.5t9.5 -9.5t11.5 -9.5t9.5 3.5t1.5 9.5t-6 18.5t-20 12.5q-4 0 -12.5 -3.5t-18.5 -17t-20.5 -40t-19 -71.5t-14 -111.5t-5.5 -161.5q0 -142 13 -228.5t29.5 -133.5t32.5 -62.5t21 -15.5q11 0 16 2.5t5 16.5t-8.5 16t-16.5 -9
q-4 -5 -7.5 -4t-6 5.5t-3.5 11t0 12.5t4.5 16t10 19t16 16t23.5 7q28 0 43.5 -27.5t15.5 -74.5z" />
    <glyph glyph-name="parenright" unicode=")" horiz-adv-x="309"
d="M295 322q0 -109 -13 -190.5t-33 -139.5t-44 -95.5t-46.5 -59t-40.5 -29.5t-25 -8q-11 0 -26 5t-28.5 15.5t-23 27.5t-9.5 40q0 47 15.5 74.5t43.5 27.5q14 0 23.5 -7t16 -16t10 -19t4.5 -16t0 -12.5t-3.5 -11t-6 -5.5t-7.5 4q-8 11 -16.5 9t-8.5 -16t5 -16.5t16 -2.5
q5 0 21 15.5t32.5 62.5t29.5 133.5t13 228.5q0 95 -5.5 161.5t-14 111.5t-19 71.5t-20.5 40t-18.5 17t-12.5 3.5q-14 0 -20 -12.5t-6 -18.5t1.5 -9.5t9.5 -3.5t11.5 9.5t9.5 9.5t12.5 -7.5t6.5 -24.5q0 -8 -3 -20.5t-9.5 -24t-17 -19.5t-24.5 -8q-29 0 -45.5 26.5
t-16.5 69.5q0 21 6.5 40.5t18.5 34.5t28.5 23.5t36.5 8.5q9 0 26.5 -5t39 -21.5t44 -48t40.5 -85t30 -131.5t12 -187z" />
    <glyph glyph-name="asterisk" unicode="*" horiz-adv-x="346"
d="M286 685q-8 0 -31.5 3.5t-51.5 5.5q22 -21 42 -36t23 -17q13 -13 15 -23.5t-3.5 -15.5t-16.5 -3.5t-23 12.5q-5 5 -20 25.5t-34 40.5q1 -31 5 -56.5t4 -29.5q0 -15 -6 -23t-14 -8t-15 7.5t-7 22.5q-1 14 2.5 37t5.5 46q-20 -22 -35 -42t-17 -22q-10 -11 -20 -12t-15.5 4
t-5.5 15t11 21q10 11 29.5 26t38.5 31q-29 -1 -54.5 -4.5t-28.5 -3.5q-15 -1 -23 5.5t-8 14t7.5 14.5t22.5 7q14 1 36 -2.5t45 -5.5q-21 20 -40 33.5t-21 15.5q-11 10 -12 20t4.5 16t15.5 5.5t21 -10.5q10 -10 23 -27.5t27 -34.5q-1 27 -4 49.5t-4 25.5q0 19 6 27.5t13.5 8
t14 -9.5t7.5 -25q0 -7 -3.5 -30.5t-5.5 -50.5q20 21 34 40t17 21q12 14 22.5 16t15.5 -3.5t3.5 -17t-12.5 -23.5q-5 -5 -22.5 -17.5t-36.5 -29.5q29 2 51.5 5t26.5 3q18 1 26.5 -5t8.5 -14t-9 -14.5t-25 -7.5z" />
    <glyph glyph-name="plus" unicode="+" horiz-adv-x="460"
d="M263 178q-1 -52 -1.5 -91t-0.5 -45q1 -28 -8 -41t-20.5 -12.5t-21.5 14t-11 38.5v137h-50.5h-44h-32.5h-16q-23 -1 -34.5 8.5t-12 21.5t10.5 22t34 11q26 2 64.5 2t80.5 -1v48v41.5v30.5v15q-1 23 8.5 34.5t21.5 12t22 -10.5t11 -34q2 -25 2 -61.5t-1 -76.5
q49 -1 85.5 -1.5t42.5 -0.5q28 1 41 -8t12.5 -20.5t-14 -21.5t-38.5 -11h-130z" />
    <glyph glyph-name="comma" unicode=","
d="M102 54q0 -12 -2 -28.5t-6.5 -33t-13 -33t-20.5 -28.5q-7 -7 -10.5 -7.5t-4 2t0.5 7t4 7.5q5 6 8 19t2 18q0 2 -6.5 4t-14 8t-13.5 19t-6 38t5 39t12 20.5t14 7.5t10 1q18 0 29.5 -17.5t11.5 -42.5z" />
    <glyph glyph-name="hyphen" unicode="-" horiz-adv-x="377"
d="M313 258q-42 -2 -71.5 -1.5t-56.5 1.5t-56.5 1t-71.5 -1q-23 -1 -34.5 8.5t-12 21.5t10.5 22t34 11q42 1 71.5 0.5t57 -1.5t57 -1.5t71.5 0.5q28 1 41 -8t12.5 -20.5t-14 -21.5t-38.5 -11z" />
    <glyph glyph-name="period" unicode="."
d="M97 46q0 -29 -13.5 -49t-25.5 -20q-14 0 -28.5 20.5t-14.5 48.5q0 26 13 47t30 21q6 0 13 -6t12.5 -15.5t9.5 -22t4 -24.5z" />
    <glyph glyph-name="slash" unicode="/" horiz-adv-x="486"
d="M471 702q6 -4 6.5 -10t-5.5 -17t-18 -29t-30 -46q-9 -14 -27.5 -42t-42.5 -64.5t-51.5 -78.5t-54.5 -83.5t-53 -80.5t-46 -69.5t-32.5 -49.5t-14.5 -22q-7 -11 -7 -20t9 -9q9 -1 13 -1.5t-5 -16.5q-5 -8 -16 -22t-25 -27.5t-28 -21.5t-23 -3q-11 6 -10.5 20.5t7 32.5
t16.5 36t18 30q4 6 19 29.5t37.5 57.5t50 75.5t55.5 84.5t55 84t48 73.5t35 53.5l16 24q8 11 7 18.5t-8 8.5q-6 1 -11 6t1 12q3 4 14.5 19.5t27.5 30t35 22t38 -4.5z" />
    <glyph glyph-name="zero" unicode="0" horiz-adv-x="387"
d="M368 355q0 -88 -11 -149t-28.5 -102t-38.5 -64t-41 -34.5t-37 -14.5t-26 -3t-24.5 2.5t-34.5 13.5t-38 34t-35 63t-26 101t-10 148t11 147.5t28.5 100.5t39 62.5t42.5 33t38 13t27 2.5q9 0 25 -2t34.5 -12t37 -31.5t33.5 -61t24.5 -99.5t9.5 -148zM278 354q0 87 -9 135.5
t-21.5 72.5t-26.5 29.5t-23 5.5q-5 0 -18.5 -3t-28.5 -25.5t-26.5 -73.5t-11.5 -146q0 -94 9.5 -144t22.5 -73t26.5 -26.5t20.5 -3.5t21.5 7t28.5 32.5t25 75.5t11 137z" />
    <glyph glyph-name="one" unicode="1" horiz-adv-x="204"
d="M171 659q0 -8 -0.5 -38t-2 -73.5t-3 -96.5t-3 -108t-3 -107t-2.5 -93t-2 -67.5t-1 -29.5q-1 -6 -3 -16t-7 -19.5t-14 -16.5t-24 -7t-24 7t-13.5 17t-6 20.5t-1.5 17.5q0 4 1 39.5t2 85.5t2.5 108t2.5 107.5t2 83t1 36.5t1 8t0 10t-5 9t-14 6q-20 3 -29 8.5t-9 26.5
t4 28.5t15 12.5q6 2 14.5 6.5t18.5 12t19 18.5t16 25q8 17 15.5 23.5t23.5 6.5t22.5 -9.5t6.5 -41.5z" />
    <glyph glyph-name="two" unicode="2" horiz-adv-x="363"
d="M342 492q0 -44 -8.5 -77.5t-21.5 -58t-27 -42t-26 -30.5q-7 -8 -21.5 -23.5t-32 -35t-34.5 -40t-28 -38.5q-2 -3 -4.5 -7t-3 -8t2 -7t10.5 -4t21 -1h26.5t25.5 0.5t19 0.5q14 1 28 5.5t22 26.5q4 10 7.5 13.5t6.5 2.5t5.5 -4.5t4.5 -5.5q4 -5 13 -19t9 -48
q0 -33 -17.5 -58t-44.5 -29q-14 -2 -30 -3.5t-32 -2t-30 -0.5h-24h-27.5h-35.5h-33.5t-21.5 1q-13 2 -18.5 10t-5.5 19q0 6 1.5 27.5t8 51t20.5 62t40 60.5t46 49t35.5 37.5t27 29.5t19.5 24q17 23 24.5 52t7.5 70q0 20 -5 38t-14 32t-22 22.5t-28 8.5q-16 0 -27.5 -8
t-19 -20t-11 -25.5t-3.5 -23.5q0 -21 5.5 -27t13.5 -6q13 0 17 7q1 2 4.5 5.5t7 4.5t6.5 -1.5t5 -11.5t1.5 -28t-7 -37.5t-22 -32.5t-43.5 -14q-29 0 -45 18.5t-24.5 42.5t-10.5 46.5t-2 30.5q0 24 9 57t28.5 64t50.5 52.5t75 21.5q12 0 38 -9t52.5 -33t46.5 -66t20 -108z
" />
    <glyph glyph-name="three" unicode="3" horiz-adv-x="374"
d="M355 206q0 -38 -10.5 -77t-32 -70.5t-55 -52t-79.5 -20.5t-77.5 17.5t-50.5 42.5t-27 53t-8 48t3.5 46t12.5 48.5t24.5 38t39.5 15.5q27 0 48 -22.5t21 -60.5q0 -11 -4 -20.5t-15 -3.5t-20.5 2t-9.5 -29t16.5 -42t50.5 -17t55.5 28t21.5 71q0 44 -12 75.5t-49 40.5
q-18 4 -32.5 5t-24.5 4t-15.5 10.5t-5.5 25.5t9.5 28t22 16t25.5 8.5t19 5.5q7 3 15.5 8.5t16.5 16.5t13.5 30t5.5 48q0 21 -6.5 35.5t-16 23.5t-20.5 13.5t-20 4.5q-14 0 -26 -14t-12 -31q0 -18 5.5 -26.5t13.5 -8.5t13 -2.5t0 -20.5q-2 -9 -7.5 -19.5t-13 -19t-16 -14
t-16.5 -5.5t-21.5 3.5t-26.5 16t-22 37t-9 66.5q0 36 14 63.5t35.5 46.5t47 28.5t48.5 9.5q30 0 57.5 -12.5t48.5 -34.5t33 -53.5t12 -68.5q0 -38 -6 -65t-13.5 -45.5t-15 -28.5t-9.5 -13q-4 -5 -5 -11t6 -16q3 -5 12.5 -16t19 -29.5t17 -46t7.5 -64.5z" />
    <glyph glyph-name="four" unicode="4" horiz-adv-x="359"
d="M344 233q0 -19 -3.5 -32t-7.5 -21t-8.5 -12.5t-5.5 -6.5q-3 -5 -10 -7t-9 8q-3 10 -5 13t-7 3t-10 -4.5t-5 -15.5v-128q0 -4 -3 -11.5t-8.5 -14.5t-11.5 -12t-12 -5t-14.5 1t-16 5.5t-13 15t-5.5 28.5t0.5 37t0.5 35.5t0.5 29t0.5 17.5q0 10 -1.5 17t-15.5 7
q-7 0 -20.5 0.5t-27.5 0.5t-26.5 0.5t-16.5 0.5q-5 0 -19 2t-27 10t-19.5 24.5t4.5 45.5q10 29 24 63.5t27 66t23.5 56.5t13.5 36t7 27t7.5 31.5t5.5 29t2 18.5t-5 6.5t-10 2.5t-8.5 3t-1.5 10l6 24t11.5 31.5t20.5 27.5t33 12q19 0 36 -19t17 -52q0 -17 -1 -29.5t-3 -21.5
q-2 -11 -3 -19q3 8 8 15q5 6 11.5 11t17.5 5t16 -5t6.5 -12.5t1 -15.5t-0.5 -14q0 -4 -0.5 -22t-1 -43t-1 -53.5t-1 -53t-1 -42.5t-0.5 -21q0 -11 1 -14.5t12 -7.5q6 -2 14.5 -4.5t17 -9t14.5 -18t6 -30.5zM192 425q0 10 -2 10.5t-4.5 -3t-5.5 -9t-4 -7.5q-2 -2 -8.5 -16.5
t-14.5 -32.5t-15 -34t-9 -21q-3 -10 2 -12.5t11 -2.5t10.5 1t18.5 1t15 7t3 17q1 4 1.5 17t1 28.5t0.5 31v25.5z" />
    <glyph glyph-name="five" unicode="5" horiz-adv-x="347"
d="M331 248q0 -73 -16.5 -123t-42 -80.5t-57 -44t-61.5 -13.5t-55 12.5t-43.5 35t-28.5 54.5t-10 72q0 24 7.5 43.5t19 33.5t25 21.5t24.5 7.5q23 0 38.5 -15t21.5 -31q6 -17 1.5 -21.5t-12.5 -7.5t-12.5 -10.5t-4.5 -22.5q0 -8 1 -16.5t5.5 -16t13.5 -12.5t24 -5
q32 0 50.5 36t18.5 92q0 55 -18.5 84.5t-44.5 29.5q-13 0 -23 -6t-16.5 -14t-11 -16t-6.5 -11q-4 -6 -12 -16.5t-28 -10.5t-31 9.5t-11 33.5q0 8 0.5 34.5t1 62.5t1 75.5t1 74.5t1 59.5t0.5 29.5q0 7 2 17t7.5 19t15 15t24.5 6q21 0 29.5 -7t16.5 -18t18.5 -14.5t26.5 -3.5
q8 0 17.5 3t18 7.5t14.5 8t8 5.5q1 2 5 6.5t8 6.5t7.5 -1t5.5 -16q1 -13 0.5 -29.5t-4.5 -33t-12.5 -31t-21.5 -23.5q-27 -17 -49 -19t-33 0q-10 2 -15 0.5t-5 -15.5v-17.5t0.5 -21t0.5 -19v-12.5q0 -8 3.5 -14t15.5 -2q11 4 22.5 7.5t31.5 3.5q10 0 32 -6.5t44 -28.5
t39 -65t17 -116z" />
    <glyph glyph-name="six" unicode="6" horiz-adv-x="359"
d="M341 254q0 -65 -12.5 -115t-34.5 -83.5t-50.5 -50.5t-59.5 -17t-61.5 18.5t-54.5 59.5t-38.5 107.5t-14.5 161.5t14.5 166.5t40 119t58.5 71t71 23.5q13 0 36.5 -7t45.5 -24.5t38.5 -46.5t16.5 -73q0 -38 -18 -63t-44 -25q-13 0 -21 3t-13 6.5t-8 7.5t-6 7q-5 6 -7.5 13
t5.5 15t7.5 15.5t-0.5 12.5q0 2 -2 7t-6.5 10.5t-11.5 9.5t-17 4t-21.5 -6.5t-23 -22.5t-21 -43.5t-15.5 -68.5q-2 -17 1 -22.5t13 3.5q9 9 28 23t48 14q15 0 38 -7.5t45.5 -30t38.5 -63.5t16 -109zM253 235q0 27 -4.5 45.5t-11 30.5t-13.5 17.5t-12 5.5q-11 0 -11 -7
t-2 -15t2.5 -12.5t2.5 -12.5q-1 -5 -6 -9t-11.5 -7t-13 -5t-10.5 -2q-8 0 -21.5 6.5t-18.5 11.5q-2 2 -4.5 4t-4 2t-2.5 -4t-1 -13q0 -15 3.5 -42.5t11.5 -54.5t22.5 -47t35.5 -20q15 0 28 10t22 27.5t14 40.5t5 50z" />
    <glyph glyph-name="seven" unicode="7" horiz-adv-x="344"
d="M330 652q-14 -44 -37.5 -107.5t-46 -131.5t-39 -132.5t-16.5 -110.5q0 -26 1.5 -40t12.5 -14q10 0 11.5 4t6.5 4q5 -1 7.5 -11t-1.5 -30q-2 -9 -5.5 -26t-11.5 -33t-20.5 -28t-31.5 -12t-32.5 15.5t-21.5 36.5t-12 41.5t-4 30.5q0 55 11 111t28.5 111t37.5 109t38 105
q4 11 5.5 17t-12.5 8t-33 7t-31 9q-13 3 -24 -2t-11 -17t1 -16t7 -11q6 -6 7.5 -12t-6.5 -17q-7 -10 -15.5 -13.5t-15.5 -3.5q-3 0 -13 3t-20.5 13t-19 28.5t-8.5 49.5t11 54t27 38.5t33.5 23t29.5 7.5t25.5 -5t27.5 -10.5t29.5 -10.5t32.5 -5q16 0 25 2.5t13.5 5.5t6.5 6.5
t4 6.5q5 5 10 9t14 4q4 0 11 -2.5t12 -9.5t6.5 -19t-4.5 -30z" />
    <glyph glyph-name="eight" unicode="8" horiz-adv-x="367"
d="M350 222q0 -32 -7 -72.5t-26 -76.5t-53 -60.5t-87 -24.5t-85 25t-49 60t-22 73t-5 64t8 53t19 50t22 39.5t18 21.5q13 10 9 16.5t-9 12.5q-3 3 -9 15t-12 31t-11 43t-5 50t10.5 55.5t29.5 54t46.5 41t62.5 16.5q14 0 37.5 -6t46.5 -24.5t39.5 -51.5t16.5 -87
q0 -24 -4.5 -46t-11 -40t-13.5 -31t-11 -18q-8 -11 -8.5 -16t8.5 -18q4 -6 13 -18t18.5 -30.5t16.5 -43.5t7 -57zM242 527q0 74 -51 74q-13 0 -23 -7t-17 -18t-11 -24t-4 -25q0 -23 9 -44t21 -35q11 -14 21.5 -13.5t20.5 10.5t22 28t12 54zM263 208q0 36 -14.5 55.5
t-36.5 40.5q-11 11 -20.5 13t-17 -1t-13 -8t-8.5 -8q-4 -3 -11.5 -11.5t-15.5 -20.5t-14 -26.5t-6 -30.5q0 -54 20 -82t58 -28q18 0 33 10t25 25.5t15.5 34.5t5.5 37z" />
    <glyph glyph-name="nine" unicode="9" horiz-adv-x="361"
d="M341 365q0 -82 -11 -141.5t-28.5 -101.5t-39 -68t-41.5 -41t-37 -20t-26 -5q-13 0 -36.5 4t-46.5 18.5t-40 42t-17 75.5q0 18 4 37.5t12.5 35t20 26t26.5 10.5t24.5 -4t15.5 -10t9 -12t6 -10q10 -15 -4 -26q-6 -5 -9.5 -11.5t-3.5 -21.5q0 -14 12 -27t24 -13q6 0 18.5 3
t26 18.5t25.5 49t17 95.5q1 14 -0.5 19.5t-12.5 -7.5t-33.5 -22.5t-33.5 -9.5q-15 0 -39.5 8t-48 30.5t-40.5 64t-17 109.5q0 76 18.5 125t44 77t52.5 38.5t45 10.5q9 0 25 -3t34.5 -14t37 -33.5t33.5 -60.5t24.5 -95.5t9.5 -139.5zM251 444q-2 43 -10.5 72t-20 45.5
t-24.5 23.5t-24 7q-23 0 -44 -33.5t-21 -90.5q0 -28 4.5 -44.5t11.5 -25t13.5 -11t11.5 -2.5q10 0 14 6.5t-1 26.5q-2 10 1 16t7.5 9t10 4t9.5 1q7 0 20.5 -1.5t26.5 -15.5q6 -7 8.5 -6t4.5 6q2 4 2 13z" />
    <glyph glyph-name="colon" unicode=":"
d="M97 349q0 -29 -13.5 -49t-25.5 -20q-14 0 -28.5 20.5t-14.5 48.5q0 26 13 47t30 21q6 0 13 -6t12.5 -15.5t9.5 -22t4 -24.5zM97 46q0 -29 -13.5 -49t-25.5 -20q-14 0 -28.5 20.5t-14.5 48.5q0 26 13 47t30 21q6 0 13 -6t12.5 -15.5t9.5 -22t4 -24.5z" />
    <glyph glyph-name="semicolon" unicode=";"
d="M97 349q0 -29 -13.5 -49t-25.5 -20q-14 0 -28.5 20.5t-14.5 48.5q0 26 13 47t30 21q6 0 13 -6t12.5 -15.5t9.5 -22t4 -24.5zM102 54q0 -12 -2 -28.5t-6.5 -33t-13 -33t-20.5 -28.5q-7 -7 -10.5 -7.5t-4 2t0.5 7t4 7.5q5 6 8 19t2 18q0 2 -6.5 4t-14 8t-13.5 19t-6 38
t5 39t12 20.5t14 7.5t10 1q18 0 29.5 -17.5t11.5 -42.5z" />
    <glyph glyph-name="less" unicode="&#x3c;" horiz-adv-x="310"
d="M250 390q-4 -4 -21 -22.5t-38.5 -42t-44.5 -48t-39 -40.5q18 -18 40 -44t42 -50t34.5 -42t16.5 -20q21 -19 23.5 -34.5t-5.5 -23.5t-25 -5.5t-35 19.5q-5 4 -23.5 26t-41 48t-43 49.5t-28.5 31.5q-12 11 -19.5 19.5t-9 18.5t5 22t24.5 30q17 18 40.5 42.5t45.5 48
t38.5 40.5t18.5 19q19 21 34.5 23.5t23.5 -5.5t5.5 -25t-19.5 -35z" />
    <glyph glyph-name="equal" unicode="=" horiz-adv-x="482"
d="M413 298q-85 -3 -178 0t-178 0q-23 -1 -34.5 8.5t-12 21.5t10.5 22t34 11q85 3 178.5 -0.5t178.5 -1.5q28 1 41 -8t12.5 -20.5t-14 -21.5t-38.5 -11zM413 163q-85 -3 -178 0t-178 0q-23 -1 -34.5 8.5t-12 21.5t10.5 22t34 11q85 3 178.5 -1t178.5 -1q28 1 41 -8
t12.5 -20.5t-14 -21.5t-38.5 -11z" />
    <glyph glyph-name="greater" unicode="&#x3e;" horiz-adv-x="310"
d="M248 192q-8 -8 -28.5 -31.5t-43 -49.5t-41.5 -48t-23 -26q-18 -17 -35 -19.5t-25 5.5t-5.5 23.5t23.5 34.5q2 2 16.5 20t34.5 42t42 50t40 44q-16 16 -39 40.5t-44.5 48t-38.5 42t-21 22.5q-17 18 -19.5 35t5.5 25t23.5 5.5t34.5 -23.5q2 -2 18.5 -19t38.5 -40.5
t45.5 -48t40.5 -42.5q18 -18 24.5 -30t5 -22t-9 -18.5t-19.5 -19.5z" />
    <glyph glyph-name="question" unicode="?" horiz-adv-x="318"
d="M302 550q0 -41 -8.5 -69t-20 -47t-23 -30.5l-18.5 -18.5t-17 -18.5t-19.5 -25t-16 -27.5t-6.5 -25t2 -18t3 -12t-0.5 -8t-8.5 -7q-14 -8 -34 -9t-32 7q-11 8 -12.5 15t-1.5 12q0 3 -1 15t4.5 32t19.5 47t44 60q27 30 39 52t16 37t2.5 24t-1.5 13t-3 15t-10 23t-18.5 21
t-27.5 9q-17 0 -27.5 -6.5t-17 -16t-9 -20t-2.5 -17.5q0 -14 4.5 -24.5t13.5 -10.5t15 4t9 7q2 2 7 2.5t7 -10.5q1 -5 0.5 -21t-6 -32.5t-18.5 -29.5t-38 -13t-40 15.5t-22.5 36t-10 39.5t-2.5 27q0 5 2 20t8 34t16 40t25.5 38t37 28.5t51.5 11.5q23 0 48.5 -11.5t47.5 -33
t36 -53t14 -71.5zM174 55q0 -34 -14.5 -50.5t-28.5 -16.5t-25.5 17.5t-11.5 50.5t12 49.5t30 16.5q17 0 27.5 -16.5t10.5 -50.5z" />
    <glyph glyph-name="at" unicode="@" horiz-adv-x="755"
d="M745 290q-8 -59 -34 -111.5t-70.5 -91.5t-107 -62t-143.5 -23t-147.5 29t-113.5 80t-73 120.5t-26 150.5t21 151.5t62.5 123.5t103 83.5t142.5 30.5q66 0 123 -23.5t99 -65t65.5 -98t23.5 -122.5t-12 -123t-38 -98.5t-67.5 -65t-100.5 -23.5q-17 0 -28 6t-17.5 13.5
t-9.5 14t-3 8.5q-2 4 -5 8t-11 -5q-4 -5 -11 -12.5t-17 -14.5t-22.5 -12.5t-27.5 -5.5q-17 0 -33.5 8.5t-29 24t-20.5 37t-8 48.5q0 56 22.5 98.5t69.5 71.5q24 14 37 20.5t20 8.5t9.5 2t4.5 1q5 2 9 5t4 10q0 3 -0.5 9.5l-1 13t-1 12.5t-0.5 9q0 5 -7.5 16t-18.5 11
t-18.5 -6.5t-15.5 -20.5t-11 -20t-7 -11q-5 -5 -12.5 -10.5t-20.5 -5.5t-24.5 13t-11.5 35q0 11 5 32t19.5 41.5t39.5 36t64 15.5q10 0 28.5 -3t36.5 -15t31.5 -35t13.5 -62t0.5 -81t0.5 -77.5t0.5 -59.5t0.5 -28t1 -10t3 -12t5 -10t7 -4q49 0 75.5 23t39 55.5t14.5 66.5
t2 56q0 57 -20 105t-55.5 83t-83.5 54.5t-104 19.5q-69 0 -120.5 -27.5t-86 -74.5t-51.5 -108.5t-17 -130.5t22 -129t62 -104.5t96 -70t125 -25.5t123.5 20t94 54.5t63 79.5t31.5 96q2 16 10 22t16.5 3t14 -13t3.5 -25zM385 383q0 6 -2.5 10.5t-17.5 -0.5q-21 -8 -33.5 -20
t-19.5 -24.5t-9 -23.5t-2 -15q0 -5 0.5 -12t3 -14.5t8 -12.5t14.5 -5t17.5 5t15.5 11t11.5 12t6.5 8q5 5 6 10t1 10v61z" />
    <glyph glyph-name="A" unicode="A" horiz-adv-x="562"
d="M555 72q0 -11 -3.5 -25t-11 -27.5t-19.5 -22.5t-30 -9q-21 0 -34 13.5t-21 34.5t-12.5 45.5t-7 46t-4.5 36.5t-5 18q-3 2 -11 3.5t-17.5 2t-18 0.5h-11.5h-9.5t-11.5 -0.5t-10.5 -2t-5.5 -4.5q-4 -11 -11 -44t-18.5 -75.5t-28 -88.5t-40 -84.5t-53.5 -63.5t-68 -25
q-20 0 -38.5 8t-32.5 22t-22 32t-8 38q0 14 3 31t9.5 31.5t18 24t29.5 9.5q7 0 15 -3.5t15 -9t11.5 -12.5t4.5 -14t-3 -13t-3 -13q0 -8 7 -13t14 -5q13 0 27 16.5t27 41.5t24.5 56t20.5 60t14 53t5 35q0 3 -4.5 3.5t-7.5 0.5q-5 0 -8.5 -4t-8 -8.5t-10.5 -8t-14 -3.5
q-21 0 -30.5 18.5t-9.5 36.5q0 21 13 39t35 20q8 1 20 0t20 -1t14.5 1t11.5 8q6 9 5.5 30t0 42.5t5.5 37.5t23 16q19 0 26 -18.5t9 -41t1.5 -43t3.5 -24.5q5 -6 15.5 -8t18.5 -2h16t16 2t12 6t5 12v130q0 42 -1.5 77.5t-8.5 62t-21 41.5t-39 15q-35 0 -54.5 -16t-19.5 -34
q0 -7 1.5 -15.5t8.5 -10.5q4 -1 5.5 3.5t2 10t2.5 10t8 4.5q14 0 22.5 -8t13 -19.5t6 -24.5t1.5 -23q0 -26 -20 -46t-49 -20q-24 0 -40.5 11.5t-27.5 29t-16 38.5t-5 41q0 29 13.5 58.5t36 53t52 38.5t61.5 15q35 0 64.5 -14t50.5 -39.5t33 -60t12 -75.5q0 -74 0.5 -147
t0.5 -148v-33.5t2 -32t5.5 -24t11.5 -9.5q6 0 9 8t9 8q5 0 8 -7t5 -17t2.5 -22.5t0.5 -22.5z" />
    <glyph glyph-name="B" unicode="B" horiz-adv-x="520"
d="M509 185q0 -62 -19.5 -113.5t-55 -88t-85 -56.5t-110.5 -20q-47 0 -87.5 15t-70.5 42.5t-47.5 66t-17.5 84.5q0 86 46.5 134t122.5 48q46 0 72.5 -30t34.5 -73q3 -18 0.5 -35.5t-9 -33t-17.5 -27t-25 -15.5q-25 -8 -42.5 5.5t-22.5 30.5q-3 10 3 17.5t8 15.5
q2 12 -3 22.5t-13 10.5q-15 0 -25.5 -6.5t-17 -16.5t-9.5 -22.5t-3 -25.5q0 -20 10.5 -38.5t27 -33t36.5 -23t40 -8.5q31 0 63 8.5t57 27t41 47t16 68.5q0 33 -4 57t-13.5 42.5t-25.5 32.5t-41 28q-12 7 -21.5 9.5t-18 3.5t-16.5 2t-18 4q-5 2 -10 7t-8 5q-6 0 -7 -5.5
t-1 -12.5t-1.5 -13t-10.5 -7q-6 -1 -17.5 -1.5t-23 -0.5t-20.5 2t-12 6q-6 8 -4.5 18.5t1.5 20.5v147q-25 2 -38 25t-14 49q-1 33 14 57t39 39.5t54 23t59 7.5q44 0 81 -12t64 -34.5t42.5 -56t15.5 -75.5q0 -31 -7 -52t-17 -34.5t-20 -21.5t-16 -12q-5 -4 -8.5 -6.5
t-3.5 -6.5q0 -7 8 -10.5t14 -8.5q22 -18 42 -36.5t34 -41t22.5 -51t8.5 -64.5zM346 523q0 20 -9 36t-24 27.5t-34.5 18t-41.5 6.5q-8 0 -22 -4.5t-16 -13.5q10 -1 16.5 -4t8.5 -11v-136q0 -9 1.5 -12t4 -3t6 1.5t7.5 2.5q18 5 36.5 13.5t33 20t24 26.5t9.5 32z" />
    <glyph glyph-name="C" unicode="C" horiz-adv-x="404"
d="M394 503q0 -32 -8 -65.5t-24 -60.5t-38.5 -44t-50.5 -17q-17 0 -30 8.5t-23 22t-15 29.5t-5 31q0 11 2 25t7 26.5t14.5 20.5t23.5 7q12 -1 11.5 -14t-0.5 -21q0 -5 2 -9t10 -4q23 0 29.5 19.5t6.5 42.5q0 19 -5 37t-14.5 32.5t-23.5 23t-32 8.5q-27 0 -49.5 -17t-39 -48
t-25.5 -74t-9 -95q0 -54 7 -101t23.5 -81.5t43 -54t65.5 -19.5q11 0 26 5t15 15q0 9 -1 12.5t-2.5 6t-2.5 5.5t-1 9q0 8 5 15t12 12.5t15.5 8.5t15.5 3q14 0 24.5 -8.5t18 -21t11 -26.5t3.5 -26q0 -25 -11.5 -49t-30 -42.5t-43 -30t-49.5 -11.5q-56 0 -100 27.5t-74 74
t-46 109t-16 131.5q0 66 12 133.5t37.5 122t66 88.5t98.5 34q39 0 69.5 -18.5t51.5 -48t32 -66t11 -72.5z" />
    <glyph glyph-name="D" unicode="D" horiz-adv-x="482"
d="M473 344q0 -174 -58 -265.5t-168 -91.5q-9 0 -25.5 2.5t-34 5t-32.5 5t-21 2.5q-14 0 -23.5 -6.5t-9.5 -21.5q0 -9 5 -16t5 -18q-7 -6 -16.5 -10.5t-19.5 -4.5q-20 0 -33.5 10t-21.5 25t-11 33t-3 34q0 41 29 64t71 25q13 0 26.5 -0.5t27.5 -0.5q2 0 6 5.5t4 15.5v182
q0 8 0.5 9.5t7.5 6.5q11 8 31 17t31 14q7 3 9 -4q1 -3 0 -7v-50.5t-0.5 -64t-0.5 -60v-37.5q0 -11 2.5 -21.5t13.5 -11.5q22 -1 43.5 12.5t37.5 41.5t26 69t10 94q0 60 -10 110.5t-30 87t-51 57.5t-73 21q-46 0 -75 -26t-29 -74q0 -12 12 -27t27 -15q5 0 9 7t4 12
q0 11 -4.5 16.5t-4.5 13.5q0 14 16 22.5t28 8.5q16 0 26.5 -8t17 -20t9 -26t2.5 -26q0 -21 -7 -41t-20 -35.5t-31.5 -25t-41.5 -9.5q-31 0 -56.5 14.5t-43.5 37t-28 50t-10 53.5q0 42 15 79t41 65t62.5 44.5t79.5 16.5q65 0 113.5 -29t80.5 -78.5t48 -116t16 -141.5z" />
    <glyph glyph-name="E" unicode="E" horiz-adv-x="453"
d="M443 174q0 -39 -17 -73t-44.5 -59t-63.5 -39.5t-75 -14.5q-47 0 -88.5 14.5t-72 43t-48.5 70.5t-18 96q0 70 35 124t89 85q15 8 6 16q-19 16 -35.5 48.5t-16.5 69.5q0 48 19 78t45 46.5t53.5 22.5t44.5 6q25 0 49 -8t42.5 -23.5t30 -37.5t11.5 -50q0 -13 -3 -28.5
t-10 -28.5t-18.5 -21.5t-27.5 -8.5q-15 0 -30 11.5t-15 27.5q0 7 9.5 14t9.5 21q0 18 -15.5 30.5t-32.5 12.5q-27 0 -50 -18t-23 -46q0 -45 28 -74.5t71 -29.5q11 0 16 -8.5t5 -19.5q0 -17 -5.5 -30.5t-19.5 -14.5q-16 -2 -45.5 -8t-58.5 -23t-50.5 -49t-21.5 -86
q0 -30 12 -55t32.5 -43.5t48 -29t58.5 -10.5q17 0 35.5 7t33.5 19t25 28t10 34q0 9 -2 18.5t-7 17.5t-13.5 13t-20.5 5q-11 0 -15.5 -8t-4.5 -19q0 -12 5.5 -16t6.5 -12q-6 -8 -13.5 -15t-18.5 -7q-14 0 -25 8t-18.5 20t-11.5 26t-4 26q0 19 7 38.5t19.5 35.5t30 26.5
t37.5 10.5q31 0 56 -14.5t42 -37t26.5 -50.5t9.5 -54z" />
    <glyph glyph-name="F" unicode="F" horiz-adv-x="395"
d="M426 624q1 -13 -3 -26.5t-11.5 -25t-18 -18.5t-22.5 -7q-13 0 -26.5 3t-22.5 8q-26 12 -45 22t-44 23q-8 5 -21 9.5t-30 4.5q-11 0 -24.5 -3t-25.5 -11.5t-20 -23.5t-8 -39q0 -18 14 -26t28 -8q5 0 7.5 3t4.5 6.5t4.5 5.5t7.5 0q12 -5 14.5 -22.5t-3 -36.5t-18 -33.5
t-30.5 -14.5q-49 0 -83 32t-34 98q0 38 13 68.5t35.5 51.5t51.5 32.5t62 11.5q6 0 15.5 -0.5t19.5 -3.5q41 -14 72 -30t67 -30q3 -2 11 -3.5t12 0.5q6 2 8 7t3 10t2.5 9t6.5 5q6 1 11.5 -4.5t9.5 -14t7 -17t3 -12.5zM372 275q0 -17 -6.5 -18t-26.5 -1q-8 0 -20 0.5t-11 -7.5
q0 -5 1.5 -22t3 -39.5t3.5 -48.5t4 -48.5t3 -40.5t1 -24q0 -32 -8 -71.5t-27.5 -74t-51.5 -57.5t-81 -23q-27 0 -49.5 12.5t-39 33t-26 45.5t-9.5 50q0 15 5 30t15 27t24.5 19.5t34.5 7.5q14 0 25.5 -12.5t11.5 -29.5q0 -2 -4 -6t-8.5 -9t-8 -10t-3.5 -10q0 -14 5 -21
t12 -10.5t14 -4t10 -0.5q16 0 28.5 13.5t21 32t13.5 37.5t5 31q1 12 0 39.5t-3.5 59.5t-5 63.5t-4.5 51.5q-1 8 -2.5 12t-10.5 4h-44q-3 0 -6.5 3.5t-4.5 6.5q-1 20 -1.5 31t4.5 29q2 5 5.5 8.5t10.5 3.5h32q5 0 9.5 2.5t4.5 4.5q-1 15 -2 30.5t1 28.5q4 32 8.5 64t15.5 63
q2 5 3 9t4 8q7 9 22 8.5t24 -8.5q11 -9 10 -18t-3 -26q-3 -39 -6 -72t2 -72q1 -6 -0.5 -14t7.5 -8h57q5 0 8.5 -4t3.5 -9v-50z" />
    <glyph glyph-name="G" unicode="G" horiz-adv-x="408"
d="M393 262q0 -32 -4.5 -60.5t-9.5 -51.5t-7.5 -39t1.5 -24q3 -4 9 -2.5t10 -1.5q6 -5 6 -20.5t-6 -32t-18.5 -30t-33.5 -13.5q-9 0 -16 10.5t-11 18.5q-2 5 -3 12.5t-9 8.5q-6 -7 -15.5 -15.5t-21 -16t-23.5 -13t-23 -5.5q-59 0 -98 32.5t-62 82t-32.5 107.5t-9.5 108
q0 38 5 81.5t16.5 87t29.5 83.5t43.5 71t59 49.5t75.5 18.5q30 0 54.5 -11t42 -30t27 -43t9.5 -51q0 -15 -3 -31t-10 -30t-18.5 -24.5t-28.5 -13.5q-12 -2 -23.5 5t-19 19t-9.5 25.5t3 23.5q4 8 10 12.5t6 11.5q0 18 -14.5 28.5t-31.5 9.5q-27 -1 -47.5 -16.5t-35.5 -40
t-25 -56t-16 -64.5t-8.5 -64.5t-2.5 -55.5q0 -33 4.5 -71t16.5 -70t34 -53t58 -21q24 0 40 15.5t26 37.5t15 46.5t7 42.5q1 10 1.5 26t-2.5 31t-11 25.5t-23 10.5q-3 0 -4.5 -3.5t-1.5 -7.5q0 -12 8 -16t8 -12q0 -45 -50 -45q-14 0 -24 11t-17 27t-9.5 32.5t-0.5 28.5
q3 20 9 39t17 33.5t27 24t38 9.5q37 0 61 -17t38 -44t19 -61t5 -69z" />
    <glyph glyph-name="H" unicode="H" horiz-adv-x="504"
d="M493 98q0 -17 -3.5 -36t-11.5 -36t-21.5 -28t-34.5 -11q-20 0 -36 15t-27 36t-17 44t-6 40v162q0 14 -2 18.5t-16 4.5h-77q-16 0 -18 -11.5t-2 -26.5q0 -27 -0.5 -65t-1.5 -78.5t-3 -78.5t-5 -64q-2 -23 -11 -54.5t-25 -60t-40.5 -48.5t-58.5 -20q-20 0 -34.5 10.5
t-25 27t-15.5 35.5t-5 36q0 16 3.5 33.5t11.5 32t21 24t33 9.5q6 0 7.5 -2.5t0.5 -7t-3 -9.5t-2 -11q0 -7 2.5 -16t11.5 -9q13 0 22 23.5t16 61t11 83.5t6 90.5t3 83t1 61.5v87q0 10 -0.5 33t-3.5 45.5t-9.5 40t-17.5 17.5q-4 0 -6 -5t-4.5 -11.5t-5 -11.5t-8.5 -5t-10.5 10
t-7.5 23t-4.5 25.5t-1.5 18.5q0 13 4 28.5t11.5 29t19 22.5t27.5 9q23 0 41 -16t30.5 -39t19 -48t6.5 -43v-144q0 -9 1.5 -12t15.5 -3h18h22h22h18q10 0 14 6t4 15v121q0 16 4 42.5t14 52t26 44t40 18.5q13 0 23.5 -7t17.5 -18t10.5 -24t3.5 -24q0 -6 -1 -16t-3.5 -20.5
t-7.5 -18t-12 -7.5q-6 0 -7 5t-6 5q-8 0 -12 -16t-5.5 -37t-1.5 -42v-31v-95q0 -2 -1 -19.5t-1 -43t0.5 -54.5t4 -53.5t9.5 -41t16 -16.5q5 0 7.5 4t5 9.5t5.5 9.5t9 4q7 0 11 -6.5t6 -16.5t2 -20.5v-17.5z" />
    <glyph glyph-name="I" unicode="I" horiz-adv-x="370"
d="M363 627q0 -7 -4 -18t-10 -21t-14 -17.5t-15 -7.5t-9.5 6.5t-5 14t-7 14t-14.5 6.5q-18 0 -37.5 -8t-39.5 -17t-42 -17t-44 -8q-23 0 -40.5 8.5t-30 22.5t-19 33t-6.5 39q0 32 14 55.5t43 34.5q10 4 21.5 0.5t17.5 -12.5q10 -14 10 -21t-4 -10.5t-9 -6t-5 -8.5t7 -11.5
t13 -5.5q7 0 24.5 6t39 12.5t45.5 12.5t44 6q18 0 32 -7t24 -18.5t15.5 -26t5.5 -30.5zM322 165q0 -33 -13 -65t-36.5 -57t-56 -40t-70.5 -15q-30 0 -54 14t-41 36t-26 48.5t-9 52.5q0 15 4.5 34.5t13.5 36.5t23 29t34 12q13 0 24 -6t19 -15.5t12 -21t4 -22.5q0 -8 -7 -7.5
t-17 -2.5q-8 -3 -11 -12t-3 -17q0 -18 13 -34t33 -16q23 0 36.5 14.5t20.5 34.5t9 42t2 36q0 54 -8.5 106.5t-8.5 105.5q0 13 1.5 37t7.5 48t17.5 41.5t31.5 17.5q8 0 16.5 -3.5t11.5 -14.5q3 -9 -1 -19t-4 -20q0 -56 5 -102.5t11 -88.5t11 -82.5t5 -84.5z" />
    <glyph glyph-name="J" unicode="J" horiz-adv-x="349"
d="M309 638q0 -9 -1.5 -21t-6 -23.5t-11.5 -19t-19 -7.5q-7 0 -8.5 6t-3 13.5t-7 14t-19.5 6.5q-16 0 -32 -9t-33.5 -20.5t-36 -20.5t-39.5 -9q-20 0 -35 10.5t-25 26.5t-15.5 34.5t-5.5 35.5q0 39 18 61.5t40 22.5q23 0 30 -5.5t8 -24.5q0 -7 -7 -11.5t-7 -12.5q0 -9 7 -14
t15 -5q4 0 19 7.5t32.5 16t34.5 16t26 7.5q32 0 57 -17t25 -58zM339 17q0 -38 -14.5 -76.5t-42 -70t-66 -51t-86.5 -19.5q-29 0 -52 12t-39 32t-24.5 45.5t-8.5 52.5q0 16 4.5 35t13.5 35.5t22.5 28t30.5 11.5q22 0 37.5 -17t14.5 -37q0 -13 -5 -14.5t-11 -2.5t-10.5 -5
t-4.5 -21q0 -19 9 -31.5t28 -12.5t36.5 11.5t31 29t21.5 39.5t8 43q0 42 -11 98.5t-24 116t-24 117.5t-11 104q0 52 17.5 85t41.5 33q12 0 21.5 -5.5t9.5 -19.5q0 -17 -6.5 -36t-6.5 -39q0 -49 15.5 -107t34.5 -119.5t34.5 -124t15.5 -120.5z" />
    <glyph glyph-name="K" unicode="K" horiz-adv-x="484"
d="M477 74q0 -15 -6.5 -30.5t-17.5 -28t-26 -20.5t-31 -8q-29 0 -45.5 23t-27 57.5t-16 74.5t-11.5 75.5t-14.5 59.5t-23.5 26q-6 1 -12.5 -3t-11 -9.5t-7.5 -11.5t-3 -9q0 -36 -2.5 -85t-7.5 -99.5t-12 -97t-17 -77.5q-7 -23 -20 -43t-29.5 -35t-35.5 -24t-38 -9
q-20 0 -34.5 10t-24 26t-14 34.5t-4.5 35.5q0 11 3 26t10 28.5t17 23t25 9.5q20 0 20.5 -7t-4 -16t-6 -18.5t15.5 -15.5t30.5 12.5t22.5 51.5t14 75.5t5 84.5q0 31 0.5 68t0.5 75.5v76.5t-1 71v30.5t-2 39t-7 33.5t-15 14q-7 0 -7.5 -4t-0.5 -9t-1.5 -9t-10.5 -4
q-8 0 -13.5 9t-10 21t-6.5 24.5t-2 19.5q0 14 4 30t12.5 30t21.5 23.5t30 9.5q29 0 47.5 -24.5t29.5 -58t15 -68t4 -53.5q0 -20 0.5 -37t0.5 -40q0 -13 2 -13t7 5q13 12 19 34.5t11 39.5q7 24 13.5 61.5t19 73t35 61.5t62.5 26q18 0 33 -8t25.5 -21t15 -30t3.5 -35
q-1 -11 -4.5 -24.5t-10 -25t-16.5 -19.5t-23 -8q-5 0 -10.5 1t-6.5 6q-2 12 -2 18.5v9t-0.5 2.5h-3.5q-13 0 -20.5 -22.5t-15 -53.5t-17 -64t-25.5 -54q-2 -4 -1 -7.5t3 -5.5q13 -16 27.5 -39t24.5 -57q2 -7 6 -31t9.5 -50.5t12 -47t14.5 -20.5q12 0 13.5 6.5t0 14
t-1.5 13.5t9 4q14 -3 22 -13t12.5 -23.5t6 -29t1.5 -28.5z" />
    <glyph glyph-name="L" unicode="L" horiz-adv-x="435"
d="M423 108q0 -32 -10.5 -54.5t-27 -37t-35.5 -21t-36 -6.5q-29 0 -59.5 13.5t-57.5 27.5q-9 5 -12 6.5t-9 -9.5v-1q-11 -11 -22 -20t-28 -15q-24 -9 -44 -3t-35 20t-23.5 34t-8.5 39q0 21 5.5 39.5t15 32.5t23 22.5t30.5 8.5q16 0 24.5 -1.5t14.5 -3.5t10.5 -4.5t12.5 -4.5
q4 -2 4.5 3.5t-0.5 10.5q-1 11 -3 22.5t-4 22.5q-7 33 -22.5 65.5t-31.5 65.5t-28 66.5t-12 68.5q0 41 13 79.5t36 68.5t56 48t73 18t70 -16t49.5 -40.5t29 -54t9.5 -55.5q0 -22 -4.5 -51t-15.5 -55t-30 -44t-47 -18q-31 0 -50.5 19.5t-26.5 48.5q-3 11 1 25.5t11.5 28
t16 23t14.5 9.5t8 -4.5t3 -10t2 -10t4 -4.5q9 0 18.5 7.5t9.5 24.5q0 29 -15.5 51.5t-54.5 22.5q-20 0 -35.5 -11.5t-26.5 -28.5t-16.5 -36.5t-5.5 -34.5q0 -37 13 -71t28 -66t28 -64.5t13 -66.5v-14t-1 -21t-3.5 -24.5t-7.5 -24.5q-2 -6 -3 -7t6 -6q9 -7 22 -12t25.5 -8
t24 -4.5t17.5 -1.5q11 0 18.5 9t7.5 19t-2.5 15t-5.5 7.5t-6 4t-5 4.5q-3 4 0.5 12.5t10.5 17t15 14.5t13 6q15 0 27.5 -12t20.5 -28.5t12.5 -34.5t4.5 -30zM129 85q0 7 -11.5 12t-22.5 5q-5 0 -14 -3t-9 -17q0 -17 12 -20t24 1q8 3 14.5 9t6.5 13z" />
    <glyph glyph-name="M" unicode="M" horiz-adv-x="600"
d="M572 79q0 -24 -7.5 -41.5t-18 -29t-22 -17t-18.5 -5.5q-5 0 -13.5 1t-18 8t-19 24.5t-17.5 49.5t-13 83t-5 126q0 37 0.5 76t5 75t15.5 67t31 53q3 3 9 7t12 4.5t10.5 -4t4.5 -18.5q0 -10 -0.5 -38t-1 -65t-1 -78.5t-1 -78t-1 -62.5t-0.5 -33q0 -20 4 -35.5t15 -15.5
q5 0 8.5 4.5t6.5 9.5t5.5 9.5t5.5 4.5q6 0 15 -17t9 -64zM586 623q0 -20 -4.5 -34.5t-10.5 -24.5t-13 -17t-12 -11q-11 -9 -18 -5.5t-4 13.5t-1 25t-24 15q-21 0 -42.5 -27.5t-39 -62.5t-29.5 -67t-14 -41q-4 -16 -4 -23t1 -13q0 -3 2.5 -27.5t5 -54.5t4.5 -58.5t2 -38.5
q0 -32 -3.5 -63t-10.5 -56.5t-16.5 -41t-22.5 -15.5t-21.5 16t-14 41.5t-7.5 56.5t-2 61q0 6 2.5 31.5t5.5 54t6 53t4 27.5q2 7 0.5 14.5t-3.5 14.5q-25 106 -64.5 160.5t-74.5 54.5q-11 0 -16 -3.5t-7 -9t-1.5 -11t2.5 -8.5q2 -4 9 -9t7 -10q0 -8 -13 -16t-22 -8
q-13 0 -23.5 8t-18 21t-12 29.5t-4.5 34.5t7 37t20 35.5t30 27t38 10.5q34 0 63 -22t51 -51t36 -57.5t20 -41.5q5 -12 8.5 -12t8.5 11q4 8 16.5 36t33.5 58.5t49 54.5t62 24q28 0 43.5 -11.5t23.5 -26.5t10 -29t2 -18zM250 263q0 -114 -15.5 -188.5t-37.5 -119t-47 -62
t-44 -17.5q-38 0 -64 24t-26 75q0 15 5 31t13.5 29t19.5 21.5t22 8.5q17 0 17.5 -7.5t-4.5 -14.5q-2 -3 -4 -10.5t-1 -14.5t6.5 -12.5t18.5 -5.5t21.5 12t14.5 28t9 32t4 24q3 18 4.5 54.5t2.5 81t1.5 92.5t0.5 88v67.5v32.5q0 7 -0.5 16.5t1 17t6 10t13.5 -5.5
q41 -35 52 -108t11 -179z" />
    <glyph glyph-name="N" unicode="N" horiz-adv-x="504"
d="M498 625q0 -27 -7 -51t-18 -24q-5 0 -7.5 3.5t-4.5 8t-4 8t-6 3.5q-11 0 -18 -28t-10.5 -66.5t-4.5 -78.5t-1 -64q0 -63 4 -121.5t9.5 -104.5t11 -76t7.5 -36q9 -27 -21 -19q-33 8 -60 34t-45 61q-8 15 -18.5 45.5t-21.5 68t-22 77t-19 73t-13 57t-4 28.5q3 19 -3 20
t-4 -22q0 -8 0.5 -31.5t1 -54.5t0.5 -66v-66v-54.5v-31.5q0 -28 -5.5 -69t-18.5 -79.5t-35.5 -65.5t-56.5 -27q-37 0 -57 15.5t-29 35t-10.5 37.5t-1.5 23t2 18.5t8 27.5t16.5 25t27.5 11q16 0 21.5 -3t5.5 -7t-3.5 -8t-4.5 -6t-2.5 -9.5t-0.5 -15.5t4.5 -14t12.5 -6t16 7.5
t12 19.5t9 26t6 28q2 9 3 42t2.5 77.5t2.5 94.5t1.5 93t0.5 73.5v36.5v20t2 21.5t7 13t14 -4.5t14 -13.5t7.5 -9t3.5 -6.5t3 -6q3 -7 7 -5t-1 15q-2 6 -8.5 17.5t-15.5 22t-20.5 18.5t-23.5 8q-8 0 -15.5 -4.5t-7.5 -17.5q0 -3 3 -6t7 -6t7 -7t3 -10q0 -11 -11 -22.5
t-24 -11.5q-6 0 -16.5 3t-20.5 13t-17.5 27.5t-7.5 47.5q0 29 9.5 50.5t24.5 35.5t34 21t38 7q14 0 30 -4.5t32 -14t30.5 -25.5t25.5 -39q12 -27 23 -59.5t19.5 -62t13.5 -51.5t7 -28q3 -13 7.5 -14t3.5 14q-1 12 1 39.5t5.5 58t7.5 57.5t8 38t10.5 26.5t16 30t22.5 24.5
t30 10q16 0 28.5 -8t20 -20.5t11.5 -27.5t4 -28z" />
    <glyph glyph-name="O" unicode="O" horiz-adv-x="426"
d="M413 302q0 -95 -23.5 -156t-56 -96.5t-66.5 -49t-56 -13.5q-56 0 -93 35t-60 90t-32.5 121t-9.5 128q0 32 5 70t15.5 76.5t28.5 74.5t43.5 64t60 45t79.5 17q19 0 39.5 -6.5t37.5 -18.5t28 -28.5t11 -36.5q0 -22 -4.5 -35t-11.5 -20t-15 -9.5t-14 -2.5q-17 0 -32.5 7.5
t-15.5 22.5q0 11 -8.5 19t-23.5 8q-33 0 -57.5 -20t-41.5 -53.5t-25.5 -79t-8.5 -96.5q0 -115 27 -178.5t78 -63.5q53 0 80 47.5t27 124.5q0 66 -15 98.5t-27 41.5q-6 4 -11 3.5t-8 -3.5t-4 -7.5t1 -6.5q5 -5 11.5 -11t-2.5 -21t-18.5 -22.5t-16.5 -9.5q-3 -1 -14 0t-22 8.5
t-20 24t-9 46.5t8.5 52t22 36t30 21t31.5 7t41.5 -10t52.5 -37t45 -74.5t19 -122.5z" />
    <glyph glyph-name="P" unicode="P" horiz-adv-x="456"
d="M441 462q0 -52 -15 -90t-35 -63.5t-39 -38t-26 -12.5q-30 0 -46 30q-5 9 -8.5 12t-3.5 -9v-229q0 -27 -6.5 -59.5t-21.5 -60.5t-39.5 -46.5t-60.5 -18.5q-20 0 -40 5t-36 17.5t-26.5 33t-10.5 50.5q0 29 7 47t17 28.5t20.5 14.5t16.5 4q9 0 16.5 -4t13.5 -9.5t9.5 -11.5
t3.5 -10q1 -8 0.5 -12.5t-5.5 -9.5q-3 -3 -5 -8.5t-2 -11t3.5 -10t12.5 -4.5t17.5 6t16 15.5t12 22.5t4.5 27v26t-0.5 47t-0.5 56.5t-0.5 55.5t-0.5 43.5v20.5v11t10 8q5 2 12.5 5.5l15 7t13.5 6.5l8 4q4 2 11.5 0t14.5 2q3 2 3 4.5t-1 5.5t0.5 6.5t7.5 7.5t10 3t7.5 -3.5
t7.5 -4t10 1.5t11.5 13.5t10 23t7 26t2.5 22.5q0 30 -6 59.5t-22.5 52t-44.5 36.5t-71 14q-16 0 -33 -5.5t-30.5 -18t-22.5 -33.5t-9 -51q0 -28 6.5 -42t15.5 -20t18 -6h14q9 0 22.5 8.5t13.5 28.5t-2.5 26.5t-7.5 6.5t-11 -1.5t-11 0.5q-2 1 -2.5 8t0 15.5t3 17t6.5 12.5
q16 18 40 18q6 0 18 -4t24.5 -15t21.5 -31t9 -53t-11.5 -58t-28.5 -42.5t-37 -26.5t-38 -9t-44 9t-50 29.5t-41 52t-17 76.5q0 48 15.5 84.5t42 62t60.5 38.5t70 13q65 0 110 -20t73.5 -53.5t41 -78.5t12.5 -94z" />
    <glyph glyph-name="Q" unicode="Q" horiz-adv-x="424"
d="M413 302q0 -73 -14.5 -126t-37 -89t-49 -57.5t-51.5 -31.5q2 -19 4 -31t7 -12t7.5 5.5t7.5 5.5q12 0 17 -13t5 -28q0 -26 -15 -47t-41 -21q-18 0 -31.5 15t-22 36t-12.5 44t-5 38q-47 9 -78.5 46.5t-51 90.5t-28 114.5t-8.5 119.5q0 32 5 70t15.5 76.5t28.5 74.5t43.5 64
t60 45t79.5 17q19 0 39.5 -6.5t37.5 -18.5t28 -28.5t11 -36.5q0 -22 -4.5 -35t-11.5 -20t-15 -9.5t-14 -2.5q-17 0 -32.5 7.5t-15.5 22.5q0 11 -8.5 19t-23.5 8q-33 0 -57.5 -20t-41.5 -53.5t-25.5 -79t-8.5 -96.5q0 -95 18.5 -155t54.5 -79q-1 10 -1 19v17q0 19 13 37.5
t33 18.5t29 -14t9 -28v-16t-1 -27q29 20 43 60.5t14 96.5q0 66 -15 98.5t-27 41.5q-6 4 -11 3.5t-8 -3.5t-4 -7.5t1 -6.5q5 -5 11.5 -11t-2.5 -21t-18.5 -22.5t-16.5 -9.5q-3 -1 -14 0t-22 8.5t-20 24t-9 46.5t8.5 52t22 36t30 21t31.5 7t41.5 -10t52.5 -37t45 -74.5
t19 -122.5z" />
    <glyph glyph-name="R" unicode="R" horiz-adv-x="464"
d="M456 83q0 -16 -5.5 -33t-14 -31.5t-19.5 -23.5t-22 -9q-22 0 -43.5 23t-28.5 77t-9 97.5t-7 72.5q-2 10 -5.5 16t-11.5 16q-6 8 -14 11.5t-8 -8.5v-229q0 -27 -6.5 -59.5t-21.5 -60.5t-39.5 -46.5t-60.5 -18.5q-20 0 -40 5t-36 17.5t-26.5 33t-10.5 50.5q0 29 7 47
t17 28.5t20.5 14.5t16.5 4q9 0 16.5 -4t13.5 -9.5t9.5 -11.5t3.5 -10q1 -8 0.5 -12.5t-5.5 -9.5q-3 -3 -5 -8.5t-2 -11t3.5 -10t12.5 -4.5t17.5 6t16 15.5t12 22.5t4.5 27v26t-0.5 47t-0.5 56.5t-0.5 55.5t-0.5 43.5v20.5v11t10 8q5 2 12.5 5.5l15 7t13.5 6.5l8 4
q4 2 11.5 0t14.5 2q3 2 3 4.5t-1 5.5t0.5 6.5t7.5 7.5t10 3t7.5 -3.5t7.5 -4t10 1.5t11.5 13.5t10 23t7 26t2.5 22.5q0 30 -6 59.5t-22.5 52t-44.5 36.5t-71 14q-16 0 -33 -7t-30.5 -20.5t-22.5 -33.5t-9 -47q0 -28 6.5 -42t15.5 -20t18 -6h14q9 0 22.5 8.5t13.5 28.5
t-2.5 26.5t-7.5 6.5t-11 -1.5t-11 0.5q-2 1 -2.5 8t0 15.5t3 17t6.5 12.5q16 18 40 18q6 0 18 -4t24.5 -15t21.5 -31t9 -53t-11.5 -58t-28.5 -42.5t-37 -26.5t-38 -9t-44 9t-50 29.5t-41 52t-17 76.5q0 48 15.5 84.5t42 62t60.5 38.5t70 13q65 0 110 -20t73.5 -53.5
t41 -78.5t12.5 -94q0 -38 -13.5 -69.5t-28.5 -55.5t-26 -38t-6 -17q13 -8 23 -22.5t10 -40.5v-32t1.5 -29.5t4.5 -22t10 -8.5t11 3.5t6 8t4 8.5t4 4q5 0 10 -18t5 -50z" />
    <glyph glyph-name="S" unicode="S" horiz-adv-x="457"
d="M447 259q0 -74 -19.5 -125.5t-51.5 -83.5t-73.5 -47t-85.5 -15t-81 11t-63.5 34.5t-41.5 60.5t-15 89t15.5 85t38 51.5t47.5 25t45 6.5t39 -8t33.5 -22t23.5 -32.5t9 -40.5q0 -44 -17.5 -67t-37.5 -23t-22 3.5t-2 9.5t1.5 12.5t1.5 14.5t-7.5 21.5t-21.5 13.5
q-7 0 -15 -2t-15 -7.5t-11.5 -15.5t-4.5 -26q0 -42 21.5 -69t74.5 -27q26 0 52 8t46.5 27.5t33.5 52t13 81.5q0 31 -9.5 52.5t-22 35.5t-25.5 21t-20 9q-5 1 -23.5 5t-40.5 9.5t-42 10t-27 7.5q-8 3 -23.5 8.5t-31 21t-27.5 43t-12 74.5q0 40 12 69.5t31.5 49t42.5 29
t46 9.5q16 0 31.5 -5t30 -11.5t27.5 -11.5t25 -5t16 3.5t4 8t-2 9t-2 7.5q0 5 6 11t12 6q3 0 12.5 -2.5t19 -11.5t17.5 -25.5t8 -44.5t-10 -44t-23 -24t-25 -10t-15 -2t-20 6t-38 13t-41 13t-29 6q-18 0 -28 -13.5t-10 -30.5t10.5 -28.5t36.5 -19.5t57 -13.5t51 -9.5
q16 -3 40.5 -14t46.5 -35t38 -65.5t16 -106.5z" />
    <glyph glyph-name="T" unicode="T" horiz-adv-x="383"
d="M424 641q0 -21 -7.5 -37.5t-19 -28t-24.5 -18t-25 -6.5q-24 0 -50.5 8.5t-52.5 19t-50 19.5t-42 9q-11 0 -20 -6t-16 -14.5t-10.5 -18t-3.5 -16.5t0.5 -15.5t2 -16t4.5 -12.5t9 -5q11 0 13.5 8t8.5 8t13.5 -12t7.5 -50q0 -16 -8 -29.5t-18.5 -23.5t-22 -16t-17.5 -6
t-21 3.5t-30.5 19t-27 47t-11.5 86.5q0 51 19.5 84.5t45.5 53t51.5 27t38.5 7.5q33 0 57.5 -7.5t45 -16.5t39.5 -16.5t41 -7.5q7 0 8.5 3.5t0.5 8.5t-2.5 10t-1.5 9q0 8 8 14.5t15 6.5q3 0 11.5 -3.5t17.5 -12t16 -22.5t7 -35zM311 77q-1 -16 -7.5 -49.5t-24 -67.5
t-50 -59.5t-84.5 -25.5q-37 0 -59.5 16t-35 37t-17 42t-4.5 30t4.5 27t12 36t17.5 31t21 13q23 0 41.5 -11.5t18.5 -22.5q0 -5 -2.5 -9t-6 -7.5t-6 -8.5t-2.5 -13q0 -16 7.5 -25.5t21.5 -9.5q7 0 17.5 5t20.5 15t18.5 23t11.5 30q5 29 2.5 74t-11.5 124q-5 39 -9.5 73.5
t-7.5 64.5t-2 56t7 47q10 35 25 42t24 4q20 -6 27 -14t3 -36q-8 -44 -3 -96t16 -130t14.5 -127t1.5 -78z" />
    <glyph glyph-name="U" unicode="U" horiz-adv-x="437"
d="M431 618q0 -9 -1.5 -19.5t-3.5 -19.5t-5 -14.5t-6 -5.5t-6 4t-6 8.5t-6 8.5t-6 4q-6 0 -10 -11.5t-4 -27.5q0 -5 -0.5 -31t-1.5 -62t-1.5 -77.5t-1.5 -78t-1 -63.5v-34q0 -11 1 -22.5t3 -21.5t5.5 -17t9.5 -7t8.5 5t4 11t3 11.5t6.5 5.5q4 0 8 -9t7 -23t3.5 -30t-0.5 -31
q-2 -15 -8 -29.5t-14 -26.5t-17.5 -19.5t-17.5 -7.5t-18 3.5t-20 12.5t-19.5 25t-16.5 41q-3 11 -7 13.5t-11 -13.5q-3 -8 -12 -21.5t-21 -27t-26.5 -23.5t-29.5 -10t-32 5.5t-31.5 23t-23 49t-6.5 83.5q1 32 3 69.5t4.5 75t5 73.5t5 64.5t4 47.5t2.5 24q1 7 0 19t-5 23.5
t-10.5 20t-15.5 8.5q-14 0 -16.5 -6.5t-1.5 -14.5t10 -14.5t9 -16.5t-12 -16t-20 -6q-4 0 -13 4t-18.5 15t-16.5 30t-7 49t10 51t24 34.5t29.5 19.5t27.5 6t29 -4.5t33 -17.5t27.5 -37t11.5 -64q0 -26 -1 -62.5t-3 -76.5t-4 -80.5t-3.5 -75t-3 -59.5t-1.5 -35
q-1 -29 7 -45.5t24 -16.5t37 25.5t30 79.5q3 18 4.5 48.5t2.5 67t1.5 74.5t0.5 70.5v56t1 31.5q1 11 3.5 32t9.5 41.5t20 35.5t36 15q22 0 36.5 -11t22 -26.5t10.5 -31.5t3 -25z" />
    <glyph glyph-name="V" unicode="V" horiz-adv-x="451"
d="M448 642q0 -20 -3.5 -41t-8.5 -44q-2 -6 -8.5 -31.5t-16 -63.5t-21.5 -84.5t-24.5 -95t-24.5 -95t-21.5 -84t-16 -61.5t-7.5 -28q-5 -15 -12 -24.5t-14.5 -11t-14 6t-10.5 25.5q-3 14 -12.5 58.5t-22.5 103.5t-27 124t-26 120t-20.5 92t-8.5 41q-2 11 -7 16.5t-19 0.5
q-27 -10 -51 -10q-6 0 -14 6.5t-15 17t-11.5 23.5t-4.5 27t5 27t11.5 23.5t13.5 16.5t12 6q4 0 7 -3t5 -6.5t4.5 -6.5t5.5 -3t12 4t20.5 9.5t24 9.5t22.5 4q20 0 35 -15.5t18 -32.5q1 -5 6 -28t11.5 -55t14 -68t14 -68t11.5 -55t6 -28q1 -8 3.5 -19.5t5.5 -16t8 2t13 33.5
q7 27 15.5 58.5t15.5 59.5t12 49.5t7 28.5q8 30 8 52q0 10 -4.5 23.5t-14.5 13.5t-11.5 -3t-1.5 -8t3.5 -14t3.5 -14t-7.5 -6t-12.5 -1q-2 0 -11 2t-18.5 9.5t-17 22t-7.5 38.5t8.5 43.5t22 33t29.5 20.5t31 7t33 -5t33.5 -20t26 -41t10.5 -68z" />
    <glyph glyph-name="W" unicode="W" horiz-adv-x="619"
d="M613 657v-26t-1 -31.5t-2.5 -33.5t-4.5 -30q-2 -7 -8.5 -32.5t-17 -63.5t-23.5 -84t-26 -94t-25.5 -93.5t-23 -81.5t-17 -59.5t-7.5 -27.5q-2 -8 -9 -12t-14.5 -4t-14 3.5t-8.5 12.5q-2 6 -5.5 25t-8.5 44.5t-10 54.5t-10 55t-8 44.5t-4 24.5q-2 17 -7.5 16t-9.5 -16
q-1 -5 -7 -24.5t-14 -46t-17 -56.5t-17 -56t-14 -44l-7 -21q-2 -4 -7.5 -9t-12 -7t-12.5 1t-10 15q-2 6 -7 32t-12 65t-15.5 86.5t-17 96.5t-16.5 96t-14.5 84t-10.5 60.5t-4 25.5q-1 5 -1.5 11t-3 11t-8.5 7t-16 -1q-11 -3 -27.5 -5t-32 2.5t-27 19t-11.5 45.5q0 15 3.5 29
t8.5 25t11 17.5t12 6.5t8.5 -3.5t4 -7.5t3.5 -7.5t7 -3.5q4 0 14.5 2.5t22.5 6t23.5 6t19.5 2.5q16 0 33.5 -17.5t27.5 -66.5q3 -16 8.5 -43.5t11.5 -59t12 -64.5t11 -61t8 -47.5t4 -24.5q2 -15 8 -14.5t10 14.5q2 7 8.5 34.5t13.5 59t13 58t8 31.5q1 5 1 16t-1.5 22t-5 19
t-8.5 8t-6.5 -2.5t-2 -5t-1 -4.5t-3.5 -1t-8.5 5.5t-11 13.5t-9.5 22.5t-4 30.5q0 35 18.5 56t38.5 21q10 0 21 -4t21.5 -14.5t19.5 -29.5t14 -49q3 -20 8 -48.5t10.5 -60t10.5 -62.5t9.5 -57.5t7 -44.5t3.5 -22q2 -14 6 -13t9 14q2 4 7.5 23.5t13 46t16 57t16 57t12.5 45.5
t6 23q1 6 3 16.5t1.5 21t-4 18.5t-12.5 8q-18 0 -18 -6v-9t3.5 -9.5t3.5 -11.5t-5 -8t-12 -3q-3 0 -12.5 3.5t-19.5 12.5t-18 24.5t-8 39.5t9.5 42.5t23 31.5t28 19.5t23.5 6.5t25.5 -4.5t32.5 -16.5t28 -33.5t12 -55.5z" />
    <glyph glyph-name="X" unicode="X" horiz-adv-x="468"
d="M459 662q0 -17 -5.5 -32t-13 -26t-16 -17t-13.5 -6q-17 0 -36.5 6t-29.5 6q-14 0 -25.5 -19t-15.5 -40q-2 -11 -4 -28t-4 -34.5t-3 -32.5t-1 -20q0 -11 3.5 -13.5t10.5 -2.5t16.5 0.5t14.5 0.5t13 -3t7 -12t-2.5 -19t-3.5 -17t-9.5 -15t-12.5 -10t-13.5 -1.5t-11.5 -0.5
t-8.5 -3.5t-5.5 -12.5q0 -5 -0.5 -18t-0.5 -29t1.5 -32t5.5 -28t9.5 -26t13 -26t16.5 -20t20 -8t13.5 4t1.5 9.5t-4 11.5t-3 9q0 7 6.5 10t11.5 3q2 0 10 -4.5t16.5 -14t15.5 -24.5t7 -36t-7.5 -40t-18.5 -33t-25 -22t-26 -8t-26 7.5t-26 18t-22 21.5t-14 19q-9 16 -12 18.5
t-14 -16.5q-5 -9 -13 -21t-18.5 -22.5t-23.5 -17.5t-28 -7t-28 6t-23.5 13.5t-18.5 14t-12 6.5t-6 -6.5t-4 -14t-4.5 -13.5t-6.5 -6q-5 0 -12.5 3t-15.5 11.5t-13.5 23t-5.5 37.5t7 40t17.5 28.5t22.5 17.5t21 6t18 -4t18.5 -9.5t20 -9.5t21.5 -4t18.5 8t12 18.5t6.5 21
t3 14.5t3.5 21.5t5.5 37.5t5.5 37.5t2.5 20.5q1 7 -3.5 13.5t-13.5 5.5t-17 -1.5t-14 0.5t-11 4.5t-5 10.5t3.5 17t6.5 18t8.5 15.5t10.5 9.5t11 2t11 1t9 3.5t6 9.5q1 3 1 17.5t-1 33t-4 37.5t-8 32q-21 50 -44 50q-11 0 -16 -7t-5 -12t10 -12.5t10 -16.5t-14.5 -20.5
t-26.5 -11.5q-6 0 -17 4.5t-22 15t-19 28t-8 43.5t10.5 48t26.5 37.5t34.5 24.5t34.5 9t29 -6.5t23.5 -17t18.5 -22.5t13 -23t8 -14t5.5 -1.5t4.5 6.5t5 10t8 15.5t12.5 21t18.5 18.5t25 8q29 0 48 -9.5t26 -9.5q3 0 4 4t1.5 9.5t2 9.5t5.5 4t12 -2.5t16 -9t14 -17.5t6 -28z
" />
    <glyph glyph-name="Y" unicode="Y" horiz-adv-x="401"
d="M395 612q0 -9 -1 -19.5t-3 -19.5t-5 -15t-6 -6q-7 0 -12.5 10.5t-11.5 10.5q-10 0 -10 -33q0 -5 0.5 -26t0.5 -50t1 -62t1 -62.5t0.5 -51.5t0.5 -28t2 -37.5t0.5 -72.5t-9 -90t-26 -90t-51 -68t-83.5 -27q-55 0 -85.5 21.5t-44.5 48t-17 51t-3 30.5t2.5 24.5t9.5 38.5
t20 35.5t34 15.5t32.5 -9t16.5 -20t5.5 -22t0.5 -14t-5 -5t-11.5 -4.5t-11.5 -6.5t-5 -11q0 -8 2 -19.5t8.5 -23t18 -19.5t30.5 -8t33 7.5t24 20.5t16.5 29.5t10.5 33.5t5 43t1 54.5t-1 51.5t-1 28q0 21 -11 7q-5 -6 -15.5 -15t-23.5 -16.5t-26 -13t-22 -5.5t-27 6t-36 23.5
t-31 49.5t-13 83t2 85t4.5 55.5t4.5 33.5t2 20q0 16 -6.5 24t-11.5 8q-6 0 -8 -6t-2.5 -13.5t-2 -13.5t-5.5 -6q-2 0 -7.5 1t-11.5 8t-10.5 22t-4.5 42t8 45t19.5 28t23.5 14t20 4t21 -2.5t26 -14.5t22 -36.5t9 -67.5q0 -87 -4.5 -143t-4.5 -70q0 -7 2 -18t7 -21.5t13.5 -18
t21.5 -7.5t23 7t18 17.5t13.5 22.5t8.5 23q3 10 5.5 37t5 58t3.5 59t1 42q0 13 4.5 35t13.5 42t23 35t34 15q19 0 30 -12t15.5 -28t5.5 -32.5t1 -25.5z" />
    <glyph glyph-name="Z" unicode="Z" horiz-adv-x="444"
d="M437 618q0 -13 -4 -33.5t-14.5 -39.5t-27.5 -33t-43 -14q-14 0 -23 2t-14 4.5t-8.5 5t-7.5 3.5q-9 3 -12 3t-7 -10q-2 -5 -7 -20.5t-10 -33.5t-9.5 -34t-5.5 -22q-2 -11 1.5 -15t11.5 -4q4 0 11 0.5t14.5 0.5t14.5 0.5t11 0.5q8 0 15.5 -2t4.5 -11t-7 -22t-7 -19
t-12 -11.5t-15 -6.5q-3 0 -10 -0.5t-14.5 -0.5t-14 -0.5t-9.5 -0.5q-6 -1 -12.5 -4.5t-8.5 -10.5q-1 -3 -5 -22t-9 -40.5t-9 -40t-4 -21.5q-1 -6 -2.5 -14t8.5 -16q5 -4 15.5 -11t22.5 -14t24 -12.5t20 -5.5q17 0 27.5 14t10.5 23q0 20 -8 20q-4 0 -5.5 -2t-2.5 -5t-3 -5
t-6 -2q-8 0 -10.5 8t-2.5 18q0 5 2.5 16t9.5 22.5t17.5 20t27.5 8.5q16 0 28.5 -9t21 -23t12.5 -31.5t4 -34.5t-6 -41.5t-18.5 -47t-32.5 -38.5t-48 -16t-50.5 8.5t-39 19t-26.5 19.5t-12 11q-5 4 -8.5 4.5t-8.5 -6.5q-3 -3 -11 -12.5t-19 -19.5t-23 -17.5t-22 -7.5t-22.5 4
t-23 13.5t-18 26t-7.5 42.5q0 25 8.5 44.5t21.5 33t27.5 20t25.5 6.5t15.5 -0.5t6 -0.5t1.5 -0.5t2 -0.5q8 0 11 9q1 2 4 16.5t6.5 31.5t7 32.5t5.5 19.5q3 8 2.5 15t-11.5 6t-27.5 0t-21.5 1t-11.5 3.5t-4.5 9.5t4 18t4 17t9.5 13t24.5 10t22 1t9 -1t10 1.5t9 8.5q1 3 8 27
t14.5 51.5t14 51.5t7.5 27q2 7 3 11.5t-4 8.5q-3 2 -9 9t-15 14.5t-20 13.5t-23 6t-18.5 -5.5t-9.5 -12.5t-3.5 -15t-0.5 -12q0 -9 7 -10t14 -1t9 -15t2 -26q0 -6 -4 -16.5t-11.5 -21t-18 -18t-23.5 -7.5t-27 7t-25.5 21.5t-19 35.5t-7.5 48t8.5 54t24 48.5t38 34.5t49.5 13
q21 0 38 -5t30.5 -12t24.5 -15t21 -15t15 -9t7.5 -1.5t4 3t4.5 5.5t9 12t16.5 18t26 16.5t36.5 7.5t36 -10t24.5 -25t13.5 -31.5t4 -29.5zM371 604q0 5 -2.5 13.5t-12.5 8.5t-16 -7.5t-10 -11.5t-3 -8.5t4 -6.5t9 -5.5t11 -3.5t12.5 8t7.5 13zM93 88q-2 1 -3.5 5.5t-7.5 4.5
t-12 -9.5t-6 -14.5q0 -10 11 -10q2 0 7 3t8.5 7.5t5 8t-2.5 5.5z" />
    <glyph glyph-name="bracketleft" unicode="[" horiz-adv-x="247"
d="M239 -168q0 -16 -12 -22t-34 -7t-51.5 1t-63.5 2q-14 0 -20 6.5t-6 17.5v916q0 11 6 15.5t14 4.5q36 0 66.5 2t53 1.5t35 -7t12.5 -22.5q0 -12 -10.5 -16.5t-26.5 -5.5t-34.5 0t-34.5 1q-12 0 -15.5 -5t-3.5 -16v-828q0 -17 17 -17q16 0 34.5 1t35 0t27.5 -5.5t11 -16.5z
" />
    <glyph glyph-name="backslash" unicode="\" horiz-adv-x="486"
d="M466 -11q-9 -5 -23 3t-28 21.5t-25.5 27.5t-15.5 22q-9 16 -5 16.5t13 1.5q9 0 9 9t-7 20q-2 3 -14.5 22t-32.5 49.5t-46 69.5t-53 80.5t-54.5 83.5t-51.5 78.5t-42.5 64.5t-27.5 42q-18 28 -30 46t-18 29t-5.5 17t6.5 10q19 12 38 4.5t35 -22t27.5 -30t14.5 -19.5
q6 -7 1 -12t-11 -6q-7 -1 -8 -8.5t7 -18.5l16 -24t35 -53.5t48 -73.5t55 -84t55.5 -84.5t50 -75.5t37.5 -57.5t19 -29.5q7 -12 17 -30t17 -36t7.5 -32.5t-10.5 -20.5z" />
    <glyph glyph-name="bracketright" unicode="]" horiz-adv-x="247"
d="M204 -170q0 -11 -6 -17.5t-20 -6.5q-35 0 -64 -2t-51 -1t-34 7t-12 22q0 12 11 16.5t27.5 5.5t35 0t34.5 -1q17 0 17 17v828q0 11 -3.5 16t-15.5 5q-16 0 -34.5 -1t-34.5 0t-26.5 5.5t-10.5 16.5q0 16 12.5 22.5t35 7t53 -1.5t66.5 -2q8 0 14 -4.5t6 -15.5v-916v0z" />
    <glyph glyph-name="asciicircum" unicode="^" horiz-adv-x="466"
d="M429 297q21 -19 23.5 -35t-6 -23.5t-25 -5t-34.5 19.5q-5 4 -23.5 20.5t-42 38.5t-47.5 45t-40 39q-19 -18 -45 -40.5t-50 -42.5t-41.5 -34.5t-19.5 -16.5q-19 -21 -35 -23.5t-23.5 6t-5 25.5t19.5 35q4 4 26 22.5t48 41t49.5 43.5t31.5 29q10 12 19 19.5t19 9t22 -5.5
t30 -24t42.5 -41t48 -46t40.5 -38t19 -18z" />
    <glyph glyph-name="underscore" unicode="_" horiz-adv-x="409"
d="M6 -144v61h397v-61h-397z" />
    <glyph glyph-name="grave" unicode="`" horiz-adv-x="247"
d="M222 595q-3 -4 -25 5.5t-50 24t-55 30t-42 23.5q-12 7 -18.5 17.5t-8 22.5t2 23t10.5 18t18 9.5t23 0.5t23 -7.5t18 -14.5q8 -12 26.5 -35.5t37 -48.5t31.5 -44.5t9 -23.5z" />
    <glyph glyph-name="a" unicode="a" horiz-adv-x="330"
d="M321 97q0 -8 -1 -25.5t-7 -36t-19 -32.5t-37 -14q-17 0 -28 6t-17.5 13.5t-9 14t-3.5 8.5q-1 4 -4 8t-11 -5q-4 -5 -11 -12.5t-17 -14.5t-22.5 -12.5t-27.5 -5.5q-17 0 -33.5 8.5t-29 24t-20.5 37t-8 48.5q0 56 22 98.5t70 71.5q24 14 37 20.5t20 8.5t9.5 2t4.5 1
q5 2 8.5 5t3.5 10q0 3 -0.5 9.5t-0.5 13t-0.5 12.5t-0.5 9q0 5 -7.5 16t-18.5 11q-20 0 -34 -26q-8 -14 -11.5 -20.5t-7.5 -11.5t-11.5 -10.5t-20.5 -5.5q-14 0 -25.5 13.5t-11.5 35.5q0 11 5 31.5t19.5 41t39.5 36t65 15.5q10 0 28.5 -3t36.5 -15t31.5 -35t13.5 -62v-81
t0.5 -77t0.5 -59.5v-28.5q0 -8 4 -17t12 -9t16.5 2t8.5 -12zM191 220q0 6 -3 10.5t-17 -0.5q-21 -8 -33.5 -20t-19.5 -24.5t-9 -23.5t-2 -15q0 -5 0.5 -12t3 -14.5t8 -12.5t14.5 -5t17.5 5t15 11t11.5 12t7 8q5 5 6 10t1 10v61z" />
    <glyph glyph-name="b" unicode="b" horiz-adv-x="356"
d="M306 280q0 -82 -10.5 -137.5t-26.5 -89.5t-35.5 -48.5t-37.5 -14.5t-31.5 7t-22 15.5t-13.5 16.5t-7 10q-5 4 -6.5 3.5t-9.5 -8.5q-4 -4 -10.5 -10t-14 -11t-15 -9t-12.5 -4q-9 0 -15.5 1.5t-1.5 19.5q5 19 6 29.5t1 30.5q0 6 0.5 44t1.5 91t2.5 113.5t2.5 112.5
t1.5 87.5t0.5 38.5q0 10 -4 18t-9 8t-8.5 -2t-7.5 -2q-2 0 -3 5t-2 11t-1.5 12.5t-0.5 9.5t2.5 16.5t9.5 27.5t19.5 25.5t33.5 11.5q9 0 19 -3.5t19 -13t14.5 -26t5.5 -42.5q0 -52 1 -88t1 -45q0 -8 4 -12t9 1q3 2 9 5t13 5.5t13.5 4t10.5 1.5t21 -3t35.5 -23t33.5 -64
t15 -126zM210 328q-3 30 -13 41.5t-26 11.5q-8 0 -14 -5.5t-10.5 -13t-7 -15t-2.5 -11.5t-0.5 -31.5t-1.5 -60.5t-1 -60.5t1 -31.5t3 -10.5t6 -13t10.5 -11.5t16.5 -5t16.5 5.5t10.5 13t6.5 14.5t3.5 11t2 25.5t1.5 49t0 55t-1.5 42.5z" />
    <glyph glyph-name="c" unicode="c" horiz-adv-x="275"
d="M264 370q0 -27 -6.5 -45.5t-15.5 -29.5t-18.5 -15.5t-15.5 -4.5t-14.5 4t-16 11.5t-13 19.5t-5.5 28q0 4 3.5 8t8 8.5t8.5 9t4 8.5q0 9 -2.5 19.5t-19.5 10.5t-33.5 -42t-16.5 -116t18 -113t40 -39q11 0 19.5 7t14.5 16.5t9 19t3 14.5q0 10 7.5 15.5t15.5 -8.5
q7 -15 10.5 -27.5t3.5 -25.5q0 -7 -4.5 -25.5t-16 -38.5t-30.5 -35.5t-49 -15.5q-60 0 -96 61.5t-36 192.5q0 65 12 113t32.5 79t46.5 46t54 15q18 0 35.5 -9t31.5 -25.5t23 -39.5t9 -51z" />
    <glyph glyph-name="d" unicode="d" horiz-adv-x="323"
d="M313 123q0 -7 -1 -29t-7.5 -45t-20.5 -41.5t-39 -18.5q-21 0 -30.5 11t-14.5 20q-6 9 -7.5 12t-12.5 -9t-27 -25t-36 -13q-10 0 -27 5t-33.5 31t-28.5 80.5t-12 154.5q0 76 12 123t28.5 73.5t34 35.5t27.5 9q21 0 34.5 -5.5t21.5 -10.5q15 -10 15 2q0 7 0.5 22t-1.5 25
t-7 16t-11 1q-5 -5 -13 -5t-7 10q0 5 1.5 25t7.5 42.5t19 40.5t38 18t46 -28.5t21 -80.5q0 -17 -0.5 -52t-1 -77.5t-1 -88.5t-1 -85t-1 -66t-0.5 -33q0 -18 4 -32.5t9 -14.5q3 0 6.5 3.5t7 5.5t6 1.5t2.5 -7.5zM185 327q0 23 -8.5 38t-26.5 15q-9 0 -15.5 -6.5t-10.5 -15.5
t-6 -18t-2 -13v-172q0 -30 12.5 -42t24.5 -12t22 15t10 32v179z" />
    <glyph glyph-name="e" unicode="e" horiz-adv-x="277"
d="M259 335q0 -72 -25.5 -115t-62.5 -43q-13 0 -27 3.5t-19 7.5q-10 9 -9 -6q1 -4 4 -17t9.5 -27.5t16.5 -25.5t24 -11q15 0 24 7.5t14.5 16.5t7.5 17.5t3 10.5q1 1 2.5 4t3.5 5t4 2t5 -5t5.5 -8t4.5 -9t3.5 -18.5t1.5 -35.5t-10 -41.5t-25 -31.5t-33 -20t-33 -7t-37 9.5
t-42 39.5t-34.5 85t-14.5 145q0 49 7.5 91t22.5 72.5t38.5 47.5t55.5 17q7 0 26 -3.5t38.5 -19.5t35 -48t15.5 -89zM176 336q0 29 -9 44.5t-23 15.5t-23 -15t-9 -47q0 -31 8.5 -51t22.5 -20t23.5 22t9.5 51z" />
    <glyph glyph-name="f" unicode="f" horiz-adv-x="218"
d="M225 683q0 -5 -1 -18t-4.5 -26.5t-11.5 -23.5t-22 -10q-20 0 -26 -9t-6 -19t-1 -27.5t-1 -27.5q0 -11 4.5 -14t14.5 -7q9 -3 18.5 -10t9.5 -32q0 -24 -7.5 -31t-17.5 -12q-11 -5 -16 -7.5t-5 -13.5v-32v-71v-91.5v-94t-0.5 -79t-0.5 -45.5q-1 -17 -2 -47.5t-7 -60.5
t-19.5 -52t-38.5 -22t-39.5 16t-21.5 36t-8.5 38t-1.5 22q0 3 1.5 10t4 12.5t6 7t7.5 -4.5q18 -29 25 0q1 5 2 39t1 83t0.5 105t0.5 105v82.5v37.5q1 11 0 16.5t-12 7.5q-10 3 -22 10t-12 31q0 23 7 34t27 17q8 2 12.5 4t4.5 13v117q0 13 4.5 29t13 30t21 23.5t27.5 9.5
q16 0 25.5 -2t15 -5t9 -5t7.5 -2q7 0 12.5 9.5t12.5 9.5q3 0 5 -6.5t3 -15t1.5 -17.5t0.5 -14z" />
    <glyph glyph-name="g" unicode="g" horiz-adv-x="329"
d="M310 -80q0 -16 -7.5 -37t-19.5 -39.5t-28 -31.5t-33 -13t-36.5 5t-36 11.5t-29 12t-15.5 7.5q-6 4 -14 2.5t-3 -14.5q5 -14 0.5 -19t-16.5 -2q-6 1 -16 4.5t-20 12.5t-17 24.5t-7 40.5t9 40t20 23t21.5 10.5t13.5 2.5h10.5t19 -4t28.5 -13.5t40 -28.5q9 -7 16 -4.5t11 9
t5.5 14.5t0.5 12t-4 13t-6 19t-6 19.5t-5 14.5q-4 9 -7 8.5t-8 -5.5t-22 -16t-37 -11q-10 0 -26.5 4.5t-32 28t-27 73.5t-11.5 141t12 143.5t29.5 78.5t37 33t34.5 7t25 -3.5t16 -8t9.5 -9t5.5 -6.5q4 -4 9 -6t13 6t19 16.5t24 8.5q6 0 15 -3t18 -13t17 -27.5t11 -45.5
q3 -25 -0.5 -37t-12.5 -6q-10 7 -16.5 5.5t-6.5 -18.5v-248q0 -17 2.5 -35t5.5 -27q1 -5 6 -18t9.5 -30.5t8.5 -36t4 -34.5zM185 310q-4 39 -11.5 53.5t-26.5 14.5q-12 0 -18.5 -7.5t-9.5 -17t-3.5 -19.5t-0.5 -16t-1 -28t-1.5 -49t-0.5 -52.5t3 -38.5q3 -17 10.5 -29
t17.5 -13.5t20 10.5t17 42q2 8 4 25.5t3 38.5t0.5 43.5t-2.5 42.5z" />
    <glyph glyph-name="h" unicode="h" horiz-adv-x="347"
d="M333 105q0 -8 -1.5 -27t-7 -39t-17 -35.5t-31.5 -15.5q-21 0 -34 11.5t-20.5 28.5t-10 36.5t-2.5 34.5v31v46.5t-0.5 53.5t-0.5 51.5v40.5v21q0 6 -2 14.5t-5.5 14.5t-9.5 7.5t-14 -5.5q-16 -14 -22 -21t-10 -10t-7.5 -10t-3.5 -19q0 -6 -0.5 -32t-1.5 -55.5t-1.5 -55
t-0.5 -30.5q0 -10 5.5 -17.5t10.5 -5.5q2 1 6.5 3.5t9 3.5t7.5 -2t3 -13q0 -11 -1.5 -31t-8 -40.5t-19.5 -35.5t-37 -15t-37 16.5t-19.5 38t-8 41.5t-1.5 27q0 3 0.5 24t1 53.5t1 72.5t1 81.5t1 81.5t1 71.5t1 51.5t0.5 22q0 9 -6 19t-15 4q-15 -11 -15 5q0 4 0.5 23.5
t6.5 41t19 39t38 17.5q10 0 21 -4t20 -15t15.5 -29.5t7.5 -46.5v-56v-51.5t-0.5 -40.5t-0.5 -22q0 -11 4 -15t9 2q3 3 11.5 12t20 18.5t25.5 17t27 7.5q26 0 45 -25t19 -63v-36t-0.5 -53.5t-1 -60.5t-1 -57.5t-0.5 -45.5v-24q0 -15 8 -18t13 2q4 5 9.5 6t6.5 -15z" />
    <glyph glyph-name="i" unicode="i" horiz-adv-x="189"
d="M145 604q0 -33 -14.5 -51.5t-34.5 -18.5q-9 0 -17.5 6.5t-15 16.5t-10.5 22t-4 23q0 12 3.5 24t10 21.5t15 16t18.5 6.5q20 0 34.5 -16.5t14.5 -49.5zM172 109q0 -9 -1.5 -29t-8 -40t-18.5 -35.5t-32 -15.5t-32.5 13t-19.5 31.5t-9.5 38.5t-2.5 34v30v45t0.5 52t0.5 50
t0.5 39.5t0.5 21.5q1 14 -4 19.5t-11 2.5t-13 -1t-6 12q1 4 2 23t6.5 40t17.5 38t35 17q7 0 18.5 -3.5t22 -14.5t18 -31.5t7.5 -54.5t-0.5 -74.5t-1.5 -77.5t-1.5 -64t-0.5 -33q0 -12 5 -20t13 -3t11.5 6t3.5 -16z" />
    <glyph glyph-name="j" unicode="j" horiz-adv-x="170"
d="M139 603q0 -19 -5 -32t-12 -21t-15.5 -11.5t-15.5 -3.5q-8 0 -15.5 6.5t-14 16.5t-10.5 22t-4 23q0 12 3 23.5t8.5 21t14 15.5t19.5 6q6 0 14 -3.5t15.5 -11t12.5 -20t5 -31.5zM165 -109q0 -11 -6 -27t-17 -30.5t-26.5 -25t-34.5 -10.5q-38 0 -59.5 22t-21.5 50
q0 29 11 48t22 24q10 5 17 1.5t2 -13.5t-3 -22.5t9 -12.5q6 0 9.5 9t-1.5 21q-3 6 -6.5 20t-7 30t-6 31.5t-2.5 24.5q0 6 0.5 30.5t0.5 58t1 71.5t1 71t0.5 56t0.5 27q0 11 -5.5 22t-13.5 4q-8 -6 -11 -1.5t-3 13.5q0 4 0.5 22.5t6 38t18 35.5t36.5 16q23 0 44 -25.5
t21 -82.5q0 -19 -0.5 -47t-0.5 -59.5t-1 -64.5t-1 -61t-0.5 -48.5t-0.5 -27.5q0 -22 1.5 -43.5t8.5 -35.5q3 -7 6.5 -20.5t6 -29.5t4 -31.5t1.5 -27.5z" />
    <glyph glyph-name="k" unicode="k" horiz-adv-x="342"
d="M328 115q1 -7 1.5 -28t-4 -43t-16.5 -39t-35 -17q-16 0 -29 13.5t-23.5 34.5t-19 46t-14.5 47.5t-10 40t-5 23.5q-5 17 -16.5 16t-12.5 -15q-2 -14 -1.5 -30.5t0.5 -26.5q0 -11 2.5 -18t11.5 -4q8 3 12 3.5t5 -12.5q1 -7 0 -26t-7.5 -39.5t-20 -36.5t-38.5 -16
q-20 0 -31 13t-17 30t-7.5 34t-1.5 26v42v87t0.5 110t0.5 109.5v85v38.5q0 5 -1 11t-3 10.5t-6 6t-10 -2.5q-11 -7 -13 -1t-3 12q-1 3 0 21t8 38.5t20.5 37.5t38.5 17q7 0 16.5 -4.5t18.5 -15.5t15.5 -29.5t7.5 -45.5q0 -19 0.5 -46t1 -57.5t0.5 -61v-56v-43.5v-22
q0 -14 3.5 -21t12.5 -2q4 2 11.5 7l15 10t14 10.5t9.5 8.5t5.5 12t3 18t-3 16t-12.5 7q-11 0 -16.5 2t-5.5 13q0 5 4.5 18.5t13.5 28t22 25.5t31 11t30.5 -10t21 -24t12.5 -31t4 -30q0 -28 -12.5 -57.5t-44.5 -65.5q-8 -11 -9 -14.5t1 -11.5q1 -4 5 -21.5t9.5 -37.5t10 -38
t7.5 -22q6 -9 10.5 -13t10.5 1t12 6.5t9 -12.5z" />
    <glyph glyph-name="l" unicode="l" horiz-adv-x="182"
d="M172 107q0 -7 -0.5 -26.5t-6 -39.5t-17.5 -36t-34 -16q-23 0 -36 15.5t-19 36t-7.5 40t-1.5 27.5v39t0.5 82.5t1 104t1 103t0.5 80.5v37q0 11 -2.5 22t-13.5 5q-10 -6 -15.5 -5t-5.5 15q0 6 1.5 25.5t8 39.5t19 36t33.5 16q9 0 19.5 -4t19.5 -13.5t15 -24.5t6 -37v-55
v-91.5v-109t-0.5 -106.5t-0.5 -83.5v-41.5q0 -20 4 -25.5t12 -0.5q8 4 13.5 5t5.5 -14z" />
    <glyph glyph-name="m" unicode="m" horiz-adv-x="524"
d="M510 107q0 -5 -1 -24t-7 -40t-18.5 -38t-34.5 -17q-17 0 -29.5 9t-20.5 24t-12 35.5t-4 43.5t-1 60.5l-2 75t-2 68t-1 39.5t-2 19t-6 16t-11.5 6t-17.5 -10q-22 -19 -27 -31t-5 -29q0 -14 -0.5 -41t-0.5 -54.5t-0.5 -49.5t-0.5 -27q0 -11 5.5 -19t14.5 -3t14 0.5t5 -12.5
q0 -5 -1.5 -24t-7.5 -40.5t-19 -38.5t-36 -17t-36.5 17t-20.5 40t-9 46t-2 35v42t-0.5 64.5t-0.5 61v33.5t-1 16.5t-5 19.5t-11.5 11.5t-19.5 -8.5t-18 -19t-8.5 -14t-2.5 -10.5v-7.5v-169q0 -3 0.5 -9t2.5 -11.5t6 -8t10 1.5q8 5 14 6.5t7 -13.5q0 -8 -1 -28t-7 -41.5
t-20 -38t-39 -16.5q-20 0 -32 12t-19 31.5t-9.5 43.5t-2.5 49q0 24 -0.5 60t-0.5 70.5t-0.5 60t-0.5 30.5q0 9 -4.5 17t-14.5 3q-22 -8 -19 16q0 6 2 24.5t9 38.5t20 35.5t36 15.5q26 0 37.5 -13.5t20.5 -36.5q3 -8 5.5 -10t4.5 -1t4 3t4 3q1 1 10.5 10t22.5 19t27 18t26 8
q23 0 34.5 -9.5t22.5 -42.5q2 -7 7.5 -7.5t10.5 4.5q3 2 11 11t20 18.5t26 17.5t28 8q29 0 46 -24t17 -68v-38.5t0.5 -50.5t1 -54.5t1 -51t0.5 -40v-20.5q0 -6 0.5 -12.5t2.5 -11t6 -6.5t10 2q13 8 16.5 2t3.5 -15z" />
    <glyph glyph-name="n" unicode="n" horiz-adv-x="346"
d="M333 102q0 -6 -1 -24.5t-7 -38t-19 -35t-36 -15.5q-14 0 -25.5 5.5t-19.5 19.5t-12.5 37.5t-4.5 58.5v232q0 4 -1 12t-4 13t-9 6t-16 -8q-9 -9 -15 -14.5t-10 -11t-5.5 -12t-2.5 -18.5q-1 -11 -1 -36v-51.5v-49.5v-30q0 -32 15 -22q4 2 7.5 4t6.5 2t4.5 -4t1.5 -14
t-1.5 -29.5t-8.5 -39.5t-20 -35t-35 -15q-23 0 -35 14.5t-17.5 34t-6.5 39.5t-1 30v210q0 7 -0.5 17t-2 18.5t-5 13t-10.5 1.5q-14 -6 -15.5 2t-1.5 15q0 3 1 21t7.5 38t19.5 36t37 16q14 0 31 -9.5t26 -43.5q3 -10 6 -11.5t11 5.5q4 4 12.5 13.5t20 19.5t26 18t29.5 8
t25.5 -8.5t17 -20.5t9 -25.5t2.5 -23.5v-29t-0.5 -51.5t-1 -63t-1 -62.5t-0.5 -50.5v-26.5q0 -16 6.5 -20.5t14.5 -0.5q7 3 11 1.5t4 -12.5z" />
    <glyph glyph-name="o" unicode="o" horiz-adv-x="287"
d="M273 248q0 -81 -14.5 -132t-35.5 -79.5t-44 -38.5t-41 -10t-39.5 9t-40.5 36t-32 78t-13 135t15.5 133.5t37 75t44 33t37.5 7.5q16 0 38 -8.5t41.5 -34.5t33 -74.5t13.5 -129.5zM177 336q0 32 -9.5 47t-23.5 15q-11 0 -17.5 -6.5t-10 -16t-5 -20t-2.5 -18.5t-1.5 -35
t-0.5 -58.5t0.5 -60.5t0.5 -40q0 -23 9.5 -36.5t27.5 -13.5q9 0 15 6t9.5 14t5.5 16t2 13v194z" />
    <glyph glyph-name="p" unicode="p" horiz-adv-x="324"
d="M310 260q0 -81 -10 -133.5t-25 -83.5t-32 -43t-32 -12q-30 0 -41.5 10t-16.5 14q-2 2 -4.5 4t-4.5 1.5t-3.5 -4.5t-1.5 -13q0 -19 -1 -33.5t1 -25.5q1 -11 5.5 -18.5t9.5 -2.5q3 2 7 3.5t8 1t6.5 -4t1.5 -11.5t-3.5 -26.5t-9 -37t-19 -32.5t-33.5 -14t-33 16t-17.5 37
t-6.5 41t-1 27v413q0 7 -1 14.5t-3.5 13.5t-6.5 8.5t-10 -0.5q-13 -6 -15.5 -1t-2.5 14q0 4 1 22t7 38t19 36t37 16q23 0 33.5 -10.5t14.5 -19.5q5 -8 9 -10t12 7q8 10 25 22.5t34 12.5q8 0 25 -6.5t34.5 -30.5t30.5 -71t13 -128zM216 317q-1 29 -8 45.5t-27 16.5
q-10 0 -16.5 -7t-11 -17t-7 -20t-3.5 -16t-1.5 -29t-1 -49.5t0 -51t0.5 -34.5q1 -20 15.5 -33t21.5 -13q8 0 18 8.5t17 34.5q3 13 4 35t1 46t-1 46.5t-1 37.5z" />
    <glyph glyph-name="q" unicode="q" horiz-adv-x="331"
d="M318 389q0 -13 -4.5 -25.5t-14.5 -4.5q-9 9 -16 3t-9 -28v-38.5t-0.5 -75t-1.5 -93t-1.5 -93t-1.5 -76t-2 -40.5q-2 -12 -4.5 -32t-9 -39t-18 -33t-32.5 -14t-33.5 15t-18.5 33.5t-8 35.5t-2 21v8t1.5 9t5.5 5t11 -4q13 -9 16.5 -2t3.5 15q0 3 0.5 12t1.5 18.5t1.5 18
t-0.5 11.5q-1 6 -4 12t-17 -2q-13 -8 -21.5 -13t-22.5 -5q-5 0 -14.5 1t-20.5 7.5t-23 21t-22 42t-16 71t-6 106.5q0 75 9 125t25 80t36 42.5t43 12.5q19 0 32 -6t25 -23q5 -8 10.5 -7t11.5 8q5 7 17 16.5t28 9.5q8 0 19.5 -5t22 -17.5t17.5 -33t7 -50.5zM187 325
q0 8 -2.5 18.5t-7.5 19.5t-11.5 15.5t-13.5 6.5q-16 0 -22.5 -16.5t-12.5 -40.5q-3 -12 -4.5 -37.5t-1.5 -53t1 -50.5t2 -30q2 -14 8.5 -31t22.5 -17q8 0 14.5 5t11 12.5t7 16t3.5 14.5t2 30t2 52t1.5 53t0.5 33z" />
    <glyph glyph-name="r" unicode="r" horiz-adv-x="277"
d="M268 419q0 -17 -5 -33.5t-11 -31t-11 -26t-5 -17.5q0 -10 -3 -19.5t-7 -15t-9.5 -5t-10.5 12.5q-5 11 -5 21.5v15.5q0 3 1 13.5t-0.5 20t-8.5 14t-22 -5.5q-9 -6 -14.5 -16.5t-8.5 -22t-3.5 -22.5t-0.5 -18t-0.5 -24.5t-0.5 -38v-39.5v-28t3 -19.5t9.5 -17.5t16.5 -8
t25 9q4 3 8 8.5t7 8.5t5 0.5t2 -15.5q0 -14 -1.5 -36t-9.5 -43.5t-25.5 -37t-48.5 -15.5q-22 0 -37 12t-24 30t-13 38.5t-5 36.5q0 11 -0.5 31.5t-1 46t-1 52.5t-0.5 49.5t-0.5 38.5t-0.5 19q-1 11 -5 18.5t-12 5.5t-12 0t-6 17q0 7 2 25.5t9.5 37.5t20.5 34t34 15
q16 0 26.5 -6.5t22.5 -28.5q4 -7 7 -7.5t9 7.5q6 9 21.5 24.5t37.5 15.5q23 0 42.5 -23.5t19.5 -57.5z" />
    <glyph glyph-name="s" unicode="s" horiz-adv-x="306"
d="M293 131q0 -15 -5.5 -39.5t-18.5 -47t-35 -39t-54 -16.5q-18 0 -34 6t-28 13.5t-20 14t-11 8.5q-5 4 -12.5 5.5t-8.5 -13.5t-9.5 -15.5t-16.5 12.5q-4 6 -8.5 11t-8 11.5t-5.5 16t-2 24.5q0 7 3 19t9.5 24t17.5 21t28 9q12 0 27 -7t28.5 -15.5t24 -16.5t14.5 -11
q8 -5 18.5 -4t17.5 14q3 6 4 15t-1 18t-7.5 17.5t-14.5 14.5q-10 6 -26.5 14.5t-33.5 18t-32.5 19t-22.5 18.5q-36 38 -36 105q0 12 5 36t19 47.5t39 41t66 17.5q13 0 32.5 -7.5t38 -22.5t31.5 -36.5t13 -48.5q0 -25 -6 -38t-15 -18q-5 -3 -12 -5t-15 -0.5t-17 7t-16 18.5
q-15 25 -26 38t-25 13q-7 0 -11.5 -4.5t-7.5 -11t-4 -13.5t-1 -11q0 -8 5.5 -23t23.5 -24q9 -5 21.5 -10t26.5 -12t29 -18t29 -27t21.5 -30t10.5 -27.5t3.5 -27t0.5 -28.5z" />
    <glyph glyph-name="t" unicode="t" horiz-adv-x="216"
d="M207 476q0 -14 -4 -22.5t-9.5 -13.5t-10.5 -7.5l-7 -3.5q-4 -2 -10.5 -3.5t-6.5 -14.5v-264q0 -14 5 -22.5t13 -3.5t15.5 6.5t7.5 -19.5q0 -11 -2 -31t-9 -39.5t-20.5 -34.5t-35.5 -15q-23 0 -36.5 14.5t-20.5 34.5t-9.5 41.5t-2.5 35.5v33.5v55t0.5 64.5t0.5 62.5v48.5
v23q0 18 -10 23q-3 1 -9.5 3.5t-13.5 7t-12 12.5t-5 22q0 13 3.5 21.5t9 14t11 7.5t8.5 4l13 6.5t7 14.5q0 6 0.5 18.5t1 26.5t1.5 26.5t1 18.5q2 11 8 30.5t26 35.5q10 8 19.5 14t17 7t12.5 -4.5t5 -20.5q0 -14 0.5 -33.5l1 -39t1 -36t0.5 -24.5q0 -17 0.5 -23.5
t11.5 -12.5l22 -12t11 -32z" />
    <glyph glyph-name="u" unicode="u" horiz-adv-x="344"
d="M333 107q0 -9 -2 -28.5t-8 -40t-18.5 -35.5t-33.5 -15q-15 0 -25.5 8.5t-17 19t-9.5 20.5t-4 14t-2 8.5t-3 6.5t-6.5 -1t-11.5 -13t-16.5 -21t-20.5 -20.5t-22.5 -15.5t-23.5 -6q-23 0 -39.5 26.5t-18.5 69.5v38v52.5v57.5v53v40.5v19.5q0 4 -0.5 9t-2.5 9t-5.5 6
t-8.5 -1q-11 -6 -15 -0.5t-2 13.5q0 4 1.5 22t8 38.5t19.5 36.5t37 16q23 0 40.5 -21t17.5 -79v-69.5t-0.5 -78t-0.5 -66.5v-35t2 -15.5t7 -15.5t13 -6t21 14q13 13 19 24t8.5 19.5t2.5 15v11.5t-0.5 29.5t-0.5 52.5t-0.5 52t-0.5 28q0 8 -3 15t-15 2q-6 -2 -9 -0.5t-4 4.5
t-1 6.5v5.5t1 19t7 37t18.5 36t35.5 16t35 -16t17.5 -36.5t6.5 -39t1 -22.5v-240q0 -30 15 -25q4 1 7 3.5t5 2.5t3.5 -3t1.5 -12z" />
    <glyph glyph-name="v" unicode="v" horiz-adv-x="311"
d="M299 376q0 -8 -0.5 -27.5t-3 -46t-7.5 -57t-13 -58.5q-10 -34 -25 -69.5t-33 -64t-39 -47t-43 -18.5q-17 0 -28 9.5t-17.5 22t-9 25t-3.5 19.5t-3.5 29.5t-6 53.5t-7 65t-7 64t-6 50.5t-2.5 24.5q-2 11 -5 17t-13 1t-13.5 -1t-3.5 14v22.5t5 38.5t16 36t34 16
q8 0 17 -2.5t17 -10t14.5 -22.5t9.5 -39t7 -59.5t7 -70.5t5.5 -65.5t4.5 -44.5t5 -24t7.5 -13t10 2t13.5 19q7 14 13.5 37.5t11 49t6.5 49t1 38.5t-4 22.5t-6 10.5t-6.5 2.5t-6.5 -1.5q-5 -2 -11.5 -3t-6.5 13q0 7 0.5 25t5.5 37.5t16.5 34.5t33.5 15q21 0 34.5 -16t21 -36
t10.5 -40t3 -27z" />
    <glyph glyph-name="w" unicode="w" horiz-adv-x="483"
d="M469 350q0 -6 -1.5 -27.5t-5.5 -49.5t-9 -57.5t-11 -50.5t-17.5 -51.5t-28 -58t-37 -47t-44.5 -19.5q-12 0 -22.5 9.5t-18 21.5t-12.5 23.5t-6 16.5t-2.5 10.5t-3.5 8t-6 0t-10 -13.5t-14.5 -24t-19.5 -24.5t-24 -19.5t-27 -8t-22.5 6.5t-13.5 16t-7.5 19.5t-3.5 17
q-1 4 -4.5 27t-8 54.5t-10 67.5t-10 67.5t-8 53t-3.5 25.5q-2 11 -9 18.5t-12 4.5q-6 -3 -13.5 -1t-7.5 25q0 11 2.5 29t9.5 35t18.5 29t29.5 12q6 0 15 -2.5t18.5 -10.5t17.5 -24.5t13 -43.5q4 -27 10 -66t11.5 -75.5t10 -64t5.5 -32.5t2.5 -12t4.5 -11.5t7 -4.5t9 9
q11 17 17 30.5t9 20.5q2 8 3.5 16t-0.5 20q-1 6 -3 21t-4 32t-4.5 32t-3.5 20q-3 11 -7.5 17t-13.5 1q-10 -5 -17 -5.5t-7 13.5v26.5t5 40.5t18 37t39 16q20 0 33 -10.5t21.5 -25t12 -28.5t5.5 -21q1 -5 3.5 -23t5.5 -42t6.5 -51.5t7 -52t6.5 -43t4 -24.5q4 -18 11 -19t12 8
q2 4 6.5 16t9 29.5t8 38t3.5 41.5t-1 34.5t-2.5 21t-2.5 11.5t-2 7q-2 6 -8 10.5t-16 -9.5q-5 -8 -8.5 -9t-6 2t-4 8.5t-2.5 10.5t-1 24.5t6 40.5t19.5 38t39.5 17q29 0 44 -20.5t21 -46.5t6.5 -49t0.5 -29z" />
    <glyph glyph-name="x" unicode="x" horiz-adv-x="329"
d="M318 59q0 -13 -5 -25.5t-13 -22.5t-17.5 -16t-19.5 -6q-20 0 -44 25.5t-38 63.5q-5 15 -9 19t-12 -19t-17 -44t-20 -31t-26.5 -15t-32.5 8q-11 8 -16.5 10t-10.5 -3t-8.5 -5.5t-10.5 13.5q-3 7 -4.5 17.5t-0.5 22.5t5.5 23t12.5 19q9 8 14 10.5t8.5 2.5t6 -1t6.5 0
q15 3 21 17q1 4 6.5 23t11 41.5t10 42t5.5 22.5q2 6 2.5 14t-2.5 15q-2 3 -5.5 14t-7.5 23t-8 23t-6 16q-5 8 -11.5 9t-13.5 -8q-7 -8 -11 -6.5t-9 10.5q-9 16 -10.5 39t4 44t18.5 36t33 15q4 0 9.5 -0.5t12.5 -6t16.5 -18t22.5 -36.5q6 -11 9.5 -15t14.5 15q5 9 10 20
t10.5 20t12 15t15.5 6q17 0 25.5 -10t17.5 -10q8 0 9 7.5t9 7.5q4 0 7 -5.5t5 -14t3 -17t1 -14.5t-1 -15.5t-4 -19t-9.5 -17.5t-16.5 -11q-8 -2 -14 -1.5t-14 -14.5q-4 -7 -8 -17.5t-7.5 -21.5t-6 -20t-3.5 -13q-2 -8 -2.5 -14.5t1.5 -15.5q1 -5 6 -22t10.5 -36.5t10.5 -37
t7 -23.5t5 -11t7 -8t8 -2t9 8q10 14 14.5 11t9.5 -13q4 -10 8.5 -24.5t4.5 -40.5z" />
    <glyph glyph-name="y" unicode="y" horiz-adv-x="331"
d="M325 -93q0 -17 -7.5 -36t-20.5 -35t-29 -26.5t-34 -10.5t-36 5t-33 11.5t-26.5 13t-16.5 9.5q-11 6 -20 3t-9 -17q0 -6 -3 -12.5t-8 -9.5t-12 -1.5t-14 10.5t-11 20t-6 21t-2.5 17.5t-0.5 10.5t2.5 15t9 25.5t18.5 24.5t31 11t38.5 -6t35 -13.5t27 -14.5t15.5 -9
q4 -3 10 -2.5t11 3.5t8 8.5t0 12.5t-8 19.5t-10.5 25.5t-9.5 24.5t-4 17.5v14.5t-1.5 14t-5.5 5.5t-14 -12q-20 -23 -42 -39.5t-37 -16.5q-8 0 -18.5 4.5t-20 16t-16 32.5t-6.5 54v74.5t-0.5 79.5t-0.5 67v36q0 14 -4.5 19t-10.5 3q-7 -3 -13 0t-6 14q0 6 1.5 23t7.5 36
t17.5 33.5t32.5 14.5q11 0 22.5 -4.5t21 -16.5t15.5 -33.5t6 -56.5v-72.5t-0.5 -70.5t-0.5 -57.5v-33.5t2.5 -18t7.5 -15t12.5 -6.5t17.5 9.5q20 20 26.5 34t6.5 37v36.5t-0.5 50.5t-0.5 47v26q0 10 -4.5 19t-15.5 4q-12 -6 -16 -3.5t-4 12.5q0 5 0.5 23t6 38t18.5 35.5
t39 15.5q25 0 38.5 -15t19.5 -34.5t6.5 -38.5t0.5 -28v-27.5v-50.5t0.5 -62t0.5 -62.5v-51.5v-29q0 -21 1.5 -39t7.5 -39q5 -20 11 -48.5t6 -62.5z" />
    <glyph glyph-name="z" unicode="z" horiz-adv-x="325"
d="M308 443q-3 -7 -14.5 -32t-27.5 -57.5t-33.5 -69t-32.5 -68t-25.5 -53t-11.5 -24.5q-4 -8 -3 -12.5t11 -5.5q9 -1 17 -5l14 -7q3 -1 8.5 -1t11 2.5t9.5 9t4 18.5q0 7 -3 11t-6.5 6t-5 4.5t1.5 8.5q5 11 18.5 11t22.5 -3q4 -2 11 -6.5t13.5 -14.5t11 -26.5t4.5 -41.5
t-9.5 -44t-23.5 -32t-29.5 -19.5t-27.5 -6.5t-25.5 3t-25.5 7.5t-21.5 9t-12.5 7.5q-8 5 -17.5 4.5t-17.5 -8.5t-19.5 -14t-26.5 -6q-8 0 -16 5.5t-12.5 16.5t-3 27t12.5 38l19.5 39l27 54t30 59.5t28 56t21 42.5t9.5 20q8 16 -5 17q-8 0 -23.5 4.5t-23.5 7.5t-20.5 -3
t-12.5 -21q0 -14 2.5 -17t2.5 -9t-9 -10.5t-20 3.5q-6 3 -13 8.5t-13 15t-10.5 24t-4.5 37.5t8 40.5t21 29.5t28 18.5t30 6.5q17 0 34 -5t32.5 -11.5t28 -11.5t21.5 -5q8 0 12.5 2t7 4.5t4.5 5.5t6 5q7 5 15 9t24 4t24 -15t-1 -37z" />
    <glyph glyph-name="braceleft" unicode="{" horiz-adv-x="309"
d="M305 -112q0 -23 -9.5 -40t-23 -27.5t-28.5 -15.5t-26 -5q-7 0 -21 5.5t-31 22t-35.5 47.5t-34 81t-27 123t-13.5 174q0 5 -5.5 15t-13.5 20.5t-16.5 20t-14.5 13.5q5 1 13.5 10t16.5 20t14 21t6 15q2 101 12 171t24 115.5t30.5 71t33 37.5t30 14.5t22.5 2.5
q19 0 35.5 -8.5t28.5 -23.5t19 -34.5t7 -40.5q0 -43 -16.5 -69.5t-45.5 -26.5q-14 0 -24.5 8t-17 19.5t-9.5 24t-3 20.5q0 17 6.5 24.5t12.5 7.5t9.5 -9.5t11.5 -9.5t9.5 3.5t1.5 9.5t-6 18.5t-20 12.5q-4 0 -10.5 0.5t-14 -6.5t-15 -24t-14 -52.5t-11 -92t-5.5 -142.5
q0 -5 -6.5 -18.5t-18 -28.5t-26 -27t-29.5 -14q14 -4 28.5 -16t26 -26t18.5 -26t7 -16q1 -87 6.5 -147.5t12.5 -100t15.5 -61.5t16.5 -32.5t14.5 -12.5t10.5 -2q11 0 16 2.5t5 16.5t-8.5 16t-16.5 -9q-4 -5 -7.5 -4t-6 5.5t-3.5 11t0 12.5t4.5 16t10 19t16 16t23.5 7
q28 0 43.5 -27.5t15.5 -74.5z" />
    <glyph glyph-name="bar" unicode="|" horiz-adv-x="189"
d="M155 -81q0 -9 -2 -29t-7 -40t-13 -35.5t-18 -15.5q-20 0 -31 13t-16 31.5t-6 38.5t-1 34v42v87v116.5t0.5 131t0.5 130v114t0.5 82.5t0.5 35q1 14 -4 19.5t-11 2.5t-13 -1t-6 12q1 4 2 23t6.5 40t17.5 38t35 17q7 0 13.5 -3.5t11.5 -14.5t8 -31.5t3 -54.5v-57.5t-0.5 -95
t-1 -119.5t-0.5 -130t-0.5 -126t-1 -109t-0.5 -78.5v-33.5q0 -12 5 -20t13 -3t11.5 6t3.5 -16z" />
    <glyph glyph-name="braceright" unicode="}" horiz-adv-x="309"
d="M303 322q-6 -4 -14.5 -13.5t-16.5 -20t-13.5 -20.5t-5.5 -15q-3 -101 -14 -174t-26.5 -123t-34 -81t-35.5 -47.5t-31 -22t-21 -5.5q-11 0 -26 5t-28.5 15.5t-23 27.5t-9.5 40q0 47 15.5 74.5t43.5 27.5q14 0 23.5 -7t16 -16t10 -19t4.5 -16t0 -12.5t-3.5 -11t-6 -5.5
t-7.5 4q-8 11 -16.5 9t-8.5 -16t5 -16.5t16 -2.5q4 0 10.5 2t14.5 12.5t16.5 32.5t15.5 61.5t12.5 100t6.5 147.5q0 4 7 16t18.5 26t26 26t28.5 16q-15 2 -29.5 14t-26 27t-18 28.5t-6.5 18.5q-1 86 -5.5 142.5t-11 92t-14 52.5t-15 24t-14 6.5t-10.5 -0.5q-14 0 -20 -12.5
t-6 -18.5t1.5 -9.5t9.5 -3.5t11.5 9.5t9.5 9.5t12.5 -7.5t6.5 -24.5q0 -8 -3 -20.5t-9.5 -24t-17 -19.5t-24.5 -8q-29 0 -45.5 26.5t-16.5 69.5q0 21 6.5 40.5t18.5 34.5t28.5 23.5t36.5 8.5q8 0 22 -2.5t30.5 -14.5t33 -37.5t30.5 -71t24 -115.5t12 -171q0 -5 6 -15t14 -21
t16.5 -20t13.5 -10z" />
    <glyph glyph-name="asciitilde" unicode="~" horiz-adv-x="466"
d="M418 399q21 -19 23.5 -34.5t-5.5 -23.5t-25 -5.5t-35 19.5q-7 6 -15 15.5t-28 28.5q-7 6 -16.5 7.5t-18.5 0.5t-16 -3.5t-9 -4.5q-17 -13 -31.5 -28t-31.5 -29q-7 -6 -18 -9.5t-24 -4t-25.5 3t-22.5 11.5q-10 7 -21 16t-21 17.5t-17 15t-9 8.5q-21 19 -23.5 34.5
t5.5 23.5t25 5.5t35 -19.5q7 -6 13 -12.5t23 -22.5q10 -9 30.5 -12.5t35.5 8.5q10 8 15.5 12t10 7.5t9.5 8t13 13.5q24 26 57 27t60 -23q18 -16 35.5 -31t21.5 -20z" />
    <glyph glyph-name="exclamdown" unicode="&#xa1;" horiz-adv-x="150"
d="M139 522q0 -32 -13 -55t-36 -23q-18 0 -30.5 18t-12.5 59q0 40 15.5 59t32.5 19t30.5 -22.5t13.5 -54.5zM135 321q0 -22 -0.5 -58t-0.5 -77t-1 -83t-1 -76.5t-0.5 -58t-0.5 -26.5q0 -5 -2 -16t-7 -22t-13.5 -20t-20.5 -9q-20 0 -30 19.5t-10 47.5q0 9 0.5 37.5t1 65.5
t1 78t1 77t1 61t0.5 31q0 17 -0.5 22t-2.5 5q-3 0 -6 -2.5t-7 -2.5t-12.5 13.5t-8.5 36.5q0 12 5 23t13 20t18 14.5t19 5.5q10 0 21 -4t20.5 -16t16 -32.5t6.5 -53.5z" />
    <glyph glyph-name="cent" unicode="&#xa2;" horiz-adv-x="275"
d="M264 370q0 -27 -6.5 -45.5t-15.5 -29.5t-18.5 -15.5t-15.5 -4.5t-14.5 4t-16 11.5t-13 19.5t-5.5 28q0 4 3.5 8t8 8.5t8.5 9t4 8.5q0 9 -2.5 19.5t-19.5 10.5t-33.5 -42t-16.5 -116t18 -113t40 -39q11 0 19.5 7t14.5 16.5t9 19t3 14.5q0 10 7.5 15.5t15.5 -8.5
q7 -15 10.5 -27.5t3.5 -25.5q0 -6 -3.5 -21.5t-11.5 -32.5t-22 -33t-35 -23q0 -11 -0.5 -19t-0.5 -15q-1 -14 4 -19.5t11 -2.5t13 1.5t6 -11.5q-1 -5 -2 -24t-6.5 -40t-18 -37.5t-34.5 -16.5q-7 0 -13 3.5t-11 14.5t-8 31.5t-3 54.5q0 35 0.5 53t1.5 27q-45 16 -72 76.5
t-27 172.5q0 61 10.5 106.5t28.5 76t41 47.5t49 21q0 11 0.5 20t0.5 16q1 14 -4 19.5t-11 2.5q-5 -3 -12.5 -1.5t-5.5 11.5q0 4 1 23t6.5 40t17.5 38t35 17q7 0 13.5 -3.5t11.5 -14.5t8 -31.5t3 -54.5q0 -27 -0.5 -44t-1 -27t-1.5 -15t-1 -9q23 -15 39 -43.5t16 -66.5z" />
    <glyph glyph-name="sterling" unicode="&#xa3;" horiz-adv-x="435"
d="M423 108q0 -32 -10.5 -54.5t-27 -37t-35.5 -21t-36 -6.5q-29 0 -59.5 13.5t-57.5 27.5q-9 5 -12 6.5t-9 -9.5v-1q-11 -11 -22 -20t-28 -15q-24 -9 -44 -3t-35 20t-23.5 34t-8.5 39q0 21 5.5 39.5t15 32.5t23 22.5t30.5 8.5q16 0 24.5 -1.5t14.5 -3.5t10.5 -4.5t12.5 -4.5
q4 -2 4.5 3.5t-0.5 10.5q-1 11 -3 22.5t-4 22.5q-2 8 -4 15t-4 15q-21 1 -44 1t-49 -2q-23 -1 -34.5 8.5t-12 21.5t10.5 22t34 11q19 1 35.5 1.5t32.5 -0.5q-21 43 -40 85.5t-19 87.5q0 41 13 79.5t36 68.5t56 48t73 18t70 -16t49.5 -40.5t29 -54t9.5 -55.5q0 -22 -4.5 -51
t-15.5 -55t-30 -44t-47 -18q-31 0 -50.5 19.5t-26.5 48.5q-3 11 1 25.5t11.5 28t16 23t14.5 9.5t8 -4.5t3 -10t2 -10t4 -4.5q9 0 18.5 7.5t9.5 24.5q0 29 -15.5 51.5t-54.5 22.5q-20 0 -35.5 -11.5t-26.5 -28.5t-16.5 -36.5t-5.5 -34.5q0 -48 20 -91t38 -84q29 -1 58.5 -1.5
t65.5 0.5q28 1 41 -8t12.5 -20.5t-14 -21.5t-38.5 -11q-29 -1 -55 -1h-49q3 -15 3 -30v-14t-1 -21t-3.5 -24.5t-7.5 -24.5q-2 -6 -3 -7t6 -6q9 -7 22 -12t25.5 -8t24 -4.5t17.5 -1.5q11 0 18.5 9t7.5 19t-2.5 15t-5.5 7.5t-6 4t-5 4.5q-3 4 0.5 12.5t10.5 17t15 14.5t13 6
q15 0 27.5 -12t20.5 -28.5t12.5 -34.5t4.5 -30zM129 85q0 7 -11.5 12t-22.5 5q-5 0 -14 -3t-9 -17q0 -17 12 -20t24 1q8 3 14.5 9t6.5 13z" />
    <glyph glyph-name="currency" unicode="&#xa4;" horiz-adv-x="542"
d="M530 121q0 -25 -11.5 -49t-30 -42.5t-43 -30t-49.5 -11.5q-48 0 -87.5 20.5t-68.5 56t-48 84t-26 104.5h-53t-50 -1q-23 -1 -34.5 8.5t-12 21.5t10.5 22t34 11q24 1 49 1h51q0 3 -0.5 6.5t-0.5 7.5q0 29 3 58q-26 1 -51 0.5t-49 -1.5q-23 -1 -34.5 8.5t-12 21.5t10.5 22
t34 11q26 2 53.5 1.5t55.5 -0.5q8 51 24.5 97.5t41.5 82t59.5 56.5t79.5 21t73.5 -13t44.5 -31.5t22 -38.5t6 -35q0 -11 -1.5 -25.5t-6 -27t-13.5 -20.5t-23 -8q-12 1 -12 14v21q0 3 -1.5 12t-10 19t-26.5 18t-52 8q-43 0 -73.5 -41.5t-42.5 -110.5q42 -1 81.5 -1.5
t77.5 0.5q28 1 41 -8t12.5 -20.5t-14 -21.5t-38.5 -11q-39 -2 -81 -1.5t-85 1.5q0 -5 -0.5 -10t-0.5 -10q0 -14 0.5 -27t1.5 -26q42 -2 83.5 -2.5t80.5 1.5q28 1 41 -8t12.5 -20.5t-14 -21.5t-38.5 -11q-37 -2 -76.5 -2t-80.5 1q13 -63 43.5 -101.5t85.5 -38.5q11 0 26 5
t15 15q0 9 -1 12.5t-2.5 6t-2.5 5.5t-1 9q0 8 5 15t12 12.5t15.5 8.5t15.5 3q14 0 24.5 -8.5t18 -21t11 -26.5t3.5 -26z" />
    <glyph glyph-name="yen" unicode="&#xa5;" horiz-adv-x="401"
d="M405 32q-16 -1 -31 -1h-29q-6 -43 -17 -84.5t-30 -74t-47 -52.5t-68 -20q-55 0 -85.5 13.5t-44.5 31t-17 34t-3 22.5t2.5 24.5t9.5 38.5t20 35.5t34 15.5t32.5 -9t16.5 -20t5.5 -22t0.5 -14t-5 -5t-11.5 -4.5t-11.5 -6.5t-5 -11q0 -15 10.5 -22.5t48.5 -7.5q19 0 33 9.5
t24 24t16.5 32.5t10.5 35q2 6 2.5 16t1.5 22q-38 1 -76 1.5t-83 -1.5q-23 -1 -34.5 8.5t-12 21.5t10.5 22t34 11q47 2 86 1.5t77 -2.5v29q-38 1 -76.5 1.5t-84.5 -1.5q-23 -1 -34.5 8.5t-12 21.5t10.5 22t34 11q47 2 85.5 1.5t76.5 -2.5q0 24 -0.5 40.5t-0.5 20.5
q0 21 -11 7q-5 -6 -15.5 -15t-23.5 -16.5t-26 -13t-22 -5.5t-27 6t-36 23.5t-31 49.5t-13 83t2 85t4.5 55.5t4.5 33.5t2 20q0 16 -6.5 24t-11.5 8q-6 0 -8 -6t-2.5 -13.5t-2 -13.5t-5.5 -6q-2 0 -7.5 1t-11.5 8t-10.5 22t-4.5 42t8 45t19.5 28t23.5 14t20 4t21 -2.5
t26 -14.5t22 -36.5t9 -67.5q0 -87 -4.5 -143t-4.5 -70q0 -7 2 -18t7 -21.5t13.5 -18t21.5 -7.5t23 7t18 17.5t13.5 22.5t8.5 23q3 10 5.5 37t5 58t3.5 59t1 42q0 13 4.5 35t13.5 42t23 35t34 15q19 0 30 -12t15.5 -28t5.5 -32.5t1 -25.5t-1 -19.5t-3 -19.5t-5 -15t-6 -6
q-7 0 -12.5 10.5t-11.5 10.5q-10 0 -10 -33q0 -5 0.5 -26t0.5 -50t1 -62t1 -62.5t0.5 -51.5t0.5 -28q0 -5 1 -25t2 -52q12 0 24.5 0.5t26.5 0.5q28 1 41 -8t12.5 -20.5t-14 -21.5t-38.5 -11q-14 -1 -27 -1h-26q0 -8 -0.5 -15t-0.5 -15q12 0 25.5 0.5t27.5 0.5q28 1 41 -8
t12.5 -20.5t-14 -21.5t-38.5 -11z" />
    <glyph glyph-name="section" unicode="&#xa7;" horiz-adv-x="457"
d="M447 279q0 -39 -6 -69t-16.5 -53.5t-25 -41.5t-32.5 -34q18 -14 32.5 -42.5t14.5 -81.5q0 -40 -12 -69.5t-31.5 -49t-43 -29t-45.5 -9.5q-16 0 -31.5 5t-30 11.5t-27.5 11.5t-25 5t-16 -3.5t-4 -8t2 -9t2 -7.5q0 -5 -6 -11t-12 -6q-3 0 -12.5 2.5t-19 11.5t-17.5 25.5
t-8 44.5t10 44t23 24t25 10t15 2t20 -6t38 -13t41 -13t29 -6q18 0 28 13.5t10 30.5t-10.5 28.5t-36.5 19.5t-57 13.5t-51 9.5q-17 3 -41 10.5t-46 28.5t-38 59t-16 103q0 39 5.5 69t16 53t25.5 41.5t33 34.5q-18 14 -32.5 42.5t-14.5 81.5q0 40 12 69.5t31.5 49t42.5 29
t46 9.5q16 0 31.5 -5t30 -11.5t27.5 -11.5t25 -5t16 3.5t4 8t-2 9t-2 7.5q0 5 6 11t12 6q3 0 12.5 -2.5t19 -11.5t17.5 -25.5t8 -44.5t-10 -44t-23 -24t-25 -10t-15 -2t-20 6t-38 13t-41 13t-29 6q-18 0 -28 -13.5t-10 -30.5t10.5 -28.5t36.5 -19.5t57 -13.5t51 -9.5
q16 -3 40.5 -10.5t46.5 -28.5t38 -59t16 -103zM357 275q0 31 -9.5 49.5t-22 28.5t-25.5 14t-20 6q-4 1 -15 3.5t-26 5.5q-24 -2 -47.5 -8.5t-41.5 -22t-29 -44t-11 -73.5q0 -31 9.5 -49.5t22 -28.5t25.5 -14t20 -6q4 -1 15 -3.5t26 -5.5q24 2 47.5 8.5t41.5 22t29 44
t11 73.5z" />
    <glyph glyph-name="copyright" unicode="&#xa9;" horiz-adv-x="710"
d="M679 452q0 -66 -25 -124.5t-68.5 -102t-101.5 -68.5t-124 -25t-124.5 25t-102 68.5t-68.5 101.5t-25 124t25 124.5t68.5 102t101.5 68.5t124 25t124.5 -25t102 -68.5t68.5 -101.5t25 -124zM631 451q0 56 -21.5 105.5t-58.5 86.5t-86.5 58.5t-105.5 21.5t-105.5 -21.5
t-86 -58.5t-58 -86.5t-21.5 -105.5t21.5 -105.5t58 -86t86 -58t105.5 -21.5t105.5 21.5t86.5 58t58.5 86t21.5 105.5zM452 541q0 -19 -5 -39t-14.5 -36t-23 -26.5t-30.5 -10.5q-10 0 -18 5t-13.5 13t-8.5 17.5t-3 18.5q0 7 1 15.5t4 16t8.5 12t14.5 4.5q8 -1 7 -8.5t0 -12.5
q0 -8 7 -8q14 0 17.5 12t3.5 26q0 23 -11.5 41.5t-33.5 18.5q-32 0 -52.5 -39.5t-20.5 -101.5q0 -33 4 -61t14 -48.5t26 -32t39 -11.5q7 0 16 3t9 9q0 11 -2.5 11.5t-2.5 8.5q0 10 10.5 16.5t18.5 6.5t14.5 -5t11 -12.5t7 -16t2.5 -15.5q0 -15 -7 -29.5t-18 -25.5t-26 -18
t-30 -7q-34 0 -60 16.5t-44 44.5t-27.5 65.5t-9.5 79.5q0 40 7 80t22 72.5t39.5 53t59.5 20.5q23 0 41.5 -11t31 -29t19 -40t6.5 -43z" />
    <glyph glyph-name="guillemotleft" unicode="&#xab;" horiz-adv-x="465"
d="M403 395q-17 -18 -42.5 -44t-54.5 -54q34 -35 59 -61t30 -31q21 -19 23.5 -34.5t-6 -23.5t-25 -5.5t-34.5 19.5q-5 4 -20.5 19.5t-36 35.5t-42 42t-37.5 38l41.5 41.5t44.5 45t36.5 37.5t17.5 18q15 16 30 18t24 -6t8.5 -23t-16.5 -32zM231 395q-17 -18 -42.5 -44
t-54.5 -54q34 -35 59 -61t30 -31q21 -19 23.5 -34.5t-6 -23.5t-25 -5.5t-34.5 19.5q-5 4 -20.5 19.5t-36 35.5t-42 42t-37.5 38l41.5 41.5t44.5 45t36.5 37.5t17.5 18q15 16 30 18t24 -6t8.5 -23t-16.5 -32z" />
    <glyph glyph-name="registered" unicode="&#xae;" horiz-adv-x="710"
d="M679 452q0 -66 -25 -124.5t-68.5 -102t-101.5 -68.5t-124 -25t-124.5 25t-102 68.5t-68.5 101.5t-25 124t25 124.5t68.5 102t101.5 68.5t124 25t124.5 -25t102 -68.5t68.5 -101.5t25 -124zM631 451q0 56 -21.5 105.5t-58.5 86.5t-86.5 58.5t-105.5 21.5t-105.5 -21.5
t-86 -58.5t-58 -86.5t-21.5 -105.5t21.5 -105.5t58 -86t86 -58t105.5 -21.5t105.5 21.5t86.5 58t58.5 86t21.5 105.5zM498 323q0 -20 -11.5 -39.5t-25.5 -19.5q-13 0 -25.5 14t-17.5 46q-4 32 -5 58.5t-4 43.5q-2 6 -4 10t-7 10q-4 5 -8.5 7t-4.5 -6v-137q0 -17 -4 -36
t-13 -36t-24 -28t-36 -11q-12 0 -23.5 3t-21.5 10.5t-16 20t-6 30.5q0 17 4 28t10 17t12 8.5t10 2.5q11 0 18 -8t8 -13t0.5 -7.5t-3.5 -5.5t-4 -12t9 -9q11 0 20.5 13t9.5 30v28t-0.5 49.5t-0.5 48v23.5v7t6 5q6 2 17 7t13 7q2 1 6.5 0t8.5 1q2 1 2 2.5t-0.5 3.5t0 4t4.5 4
q8 5 11 0t10 -2q8 4 13.5 22t5.5 29q0 18 -4 36t-13.5 31.5t-26.5 22t-43 8.5q-19 0 -38 -16.5t-19 -48.5q0 -17 4 -25.5t9.5 -12t11 -3.5h8.5q5 0 13 5t8 17t-1.5 16t-4.5 4q-2 0 -6 -1t-7 0q-2 2 -1.5 14.5t5.5 17.5q9 11 24 11q4 0 11 -2.5t14.5 -9t13 -19t5.5 -31.5
q0 -20 -7 -35t-17 -25t-22.5 -15.5t-22.5 -5.5q-11 0 -26.5 5.5t-29.5 17.5t-24.5 31t-10.5 46q0 28 9.5 50.5t25 37.5t36 23t42.5 8q39 0 66 -12t44 -32.5t24.5 -47t7.5 -56.5q0 -23 -8 -42t-17 -33t-15.5 -23t-4.5 -10q8 -5 14 -13.5t6 -24.5q0 -19 1 -37t9 -18t10 7t5 7
t6 -10.5t3 -29.5z" />
    <glyph glyph-name="degree" unicode="&#xb0;" horiz-adv-x="412"
d="M353 467q0 -30 -11 -56t-30.5 -45.5t-45.5 -30.5t-56 -11t-56 11t-45.5 30.5t-30.5 45.5t-11 56t11 56t30.5 45.5t45.5 30.5t56 11t56 -11t45.5 -30.5t30.5 -45.5t11 -56zM313 467q0 21 -8 40t-22 33t-33 22t-40 8t-40 -8t-33 -22t-22 -33t-8 -40t8 -40t22 -33t33 -22
t40 -8t40 8t33 22t22 33t8 40z" />
    <glyph glyph-name="mu" unicode="&#xb5;" horiz-adv-x="344"
d="M333 107q0 -9 -2 -28.5t-8 -40t-18.5 -35.5t-33.5 -15q-15 0 -25.5 8.5t-17 19t-9.5 20.5t-4 14t-2 8.5t-3 6.5t-6.5 -1t-11.5 -13t-16 -20.5t-19 -19.5t-21 -15t-22 -7q-1 -46 -2 -89.5t1 -100.5q1 -23 -8.5 -34.5t-21.5 -12t-22 10.5t-11 34q-2 41 -0.5 68t4 51t4 50
t0.5 66q0 1 -1 9t-2 17t-2.5 17t-1.5 9v38v52.5v57.5v53v40.5v19.5q0 4 -0.5 9t-2.5 9t-5.5 6t-8.5 -1q-11 -6 -15 -0.5t-2 13.5q0 4 1.5 22t8 38.5t19.5 36.5t37 16q23 0 40.5 -21t17.5 -79v-69.5t-0.5 -78t-0.5 -66.5v-35t2 -15.5t7 -15.5t13 -6t21 14q13 13 19 24
t8.5 19.5t2.5 15v11.5t-0.5 29.5t-0.5 52.5t-0.5 52t-0.5 28q0 8 -3 15t-15 2q-6 -2 -9 -0.5t-4 4.5t-1 6.5v5.5t1 19t7 37t18.5 36t35.5 16t35 -16t17.5 -36.5t6.5 -39t1 -22.5v-240q0 -30 15 -25q4 1 7 3.5t5 2.5t3.5 -3t1.5 -12z" />
    <glyph glyph-name="paragraph" unicode="&#xb6;" horiz-adv-x="487"
d="M471 37q0 -7 -0.5 -26.5t-6 -39.5t-17.5 -36t-34 -16q-23 0 -36 15.5t-19 36t-7.5 40t-1.5 27.5v44.5t0.5 95.5t1 120.5t1 120t0.5 93.5v42q0 6 -0.5 15t-2.5 18t-5 15.5t-7 6.5h-38q-13 0 -18 -17t-7 -39q0 -6 -0.5 -29.5t-0.5 -59t-0.5 -79t-1 -89t-1 -89.5t-1 -79.5
t-1 -60t-1.5 -30.5q-2 -12 -4.5 -32t-9 -39t-18 -33t-32.5 -14t-33.5 15t-18.5 33.5t-8 35.5t-2 21v9t2 9t5.5 4.5t10.5 -4.5t10.5 -5t5.5 3t3 7.5t1 7.5q0 2 0.5 14.5t1 29.5t1 36.5t0.5 36.5v29v14q-1 6 -4 12.5t-17 -2.5q-13 -8 -21.5 -13t-22.5 -5q-5 0 -14.5 1
t-20.5 7.5t-23 21t-22 42t-16 70.5t-6 107q0 75 9 125t25 80t36 42.5t43 12.5q19 0 32 -5.5t25 -23.5q5 -8 10.5 -7t11.5 8q5 7 17 13.5t28 6.5h125q9 0 19.5 -4t19.5 -13.5t15.5 -24.5t6.5 -37v-60t-0.5 -104.5t-0.5 -126t-0.5 -123.5t-0.5 -96.5v-46.5q0 -20 4 -25.5
t12 -0.5q8 4 13.5 5t5.5 -14zM187 544q0 8 -2.5 18.5t-7.5 19.5t-11.5 15.5t-13.5 6.5q-16 0 -22.5 -16.5t-12.5 -40.5q-3 -12 -4 -38t-1 -53t0.5 -50t1.5 -30q1 -14 8.5 -30.5t22.5 -16.5q8 0 14.5 5t11 12.5t7 15.5t3.5 14t2 30t2 52t1.5 53t0.5 33z" />
    <glyph glyph-name="periodcentered" unicode="&#xb7;"
d="M99 288q0 -29 -13.5 -49t-25.5 -20q-14 0 -28.5 20.5t-14.5 48.5q0 26 13 47t30 21q6 0 13 -6t12.5 -15.5t9.5 -22t4 -24.5z" />
    <glyph glyph-name="guillemotright" unicode="&#xbb;" horiz-adv-x="465"
d="M429 296q-16 -16 -37.5 -38t-42 -42t-36.5 -35.5t-20 -19.5q-18 -17 -34.5 -19.5t-25 5.5t-6 23.5t23.5 34.5q5 5 30 31t59 61q-29 28 -54.5 54t-42.5 44q-16 17 -16.5 32t8.5 23t24 6t30 -18q2 -2 17.5 -18t36.5 -37.5t44.5 -45zM257 296q-16 -16 -37.5 -38t-42 -42
t-36.5 -35.5t-20 -19.5q-18 -17 -34.5 -19.5t-25 5.5t-6 23.5t23.5 34.5q5 5 30 31t59 61q-29 28 -54.5 54t-42.5 44q-16 17 -16.5 32t8.5 23t24 6t30 -18q2 -2 17.5 -18t36.5 -37.5t44.5 -45z" />
    <glyph glyph-name="afii10023" unicode="&#x401;" horiz-adv-x="453"
d="M361 824q0 -33 -14.5 -51.5t-34.5 -18.5q-10 0 -18.5 6.5t-15 16.5t-10.5 22t-4 23q0 12 3.5 24t10 21.5t15.5 16t19 6.5q20 0 34.5 -16.5t14.5 -49.5zM231 824q0 -33 -14.5 -51.5t-34.5 -18.5q-10 0 -18.5 6.5t-15 16.5t-10.5 22t-4 23q0 12 3.5 24t10 21.5t15.5 16
t19 6.5q20 0 34.5 -16.5t14.5 -49.5zM449 174q0 -39 -17 -73t-44.5 -59t-63.5 -39.5t-75 -14.5q-47 0 -88.5 14.5t-72 43t-48.5 70.5t-18 96q0 70 35 124t89 85q15 8 6 16q-19 16 -35.5 48.5t-16.5 69.5q0 48 19 78t45 46.5t53.5 22.5t44.5 6q25 0 49 -8t42.5 -23.5
t30 -37.5t11.5 -50q0 -13 -3 -28.5t-10 -28.5t-18.5 -21.5t-27.5 -8.5q-15 0 -30 11.5t-15 27.5q0 7 9.5 14t9.5 21q0 18 -15.5 30.5t-32.5 12.5q-27 0 -50 -18t-23 -46q0 -45 28 -74.5t71 -29.5q11 0 16 -8.5t5 -19.5q0 -17 -5.5 -30.5t-19.5 -14.5q-16 -2 -45.5 -8
t-58.5 -23t-50.5 -49t-21.5 -86q0 -30 12 -55t32.5 -43.5t48 -29t58.5 -10.5q17 0 35.5 7t33.5 19t25 28t10 34q0 9 -2 18.5t-7 17.5t-13.5 13t-20.5 5q-11 0 -15.5 -8t-4.5 -19q0 -12 5.5 -16t6.5 -12q-6 -8 -13.5 -15t-18.5 -7q-14 0 -25 8t-18.5 20t-11.5 26t-4 26
q0 19 7 38.5t19.5 35.5t30 26.5t37.5 10.5q31 0 56 -14.5t42 -37t26.5 -50.5t9.5 -54z" />
    <glyph glyph-name="afii10053" unicode="&#x404;" horiz-adv-x="432"
d="M121 319q3 -47 11.5 -87.5t25 -71t41.5 -48t59 -17.5q16 0 30.5 11.5t22 26.5t5.5 30t-19 21q-8 3 -10.5 -1t-4.5 -8q0 -3 -0.5 -8t-2 -9.5t-4.5 -7.5t-9 -2q-14 1 -21.5 9t-10.5 19.5t-2.5 23.5t1.5 21q3 12 10.5 24.5t19 22t26.5 14.5t31 3q28 -5 47.5 -23t30 -42.5
t13 -53.5t-2.5 -56q-7 -24 -21.5 -46t-34 -39t-43.5 -27t-50 -10q-56 0 -100 27.5t-74 74t-46 109t-16 131.5q0 66 12 133.5t37.5 122t66 88.5t98.5 34q27 0 51 -10t44 -27t34.5 -39t21.5 -46q5 -27 2.5 -56t-13 -53.5t-30 -42.5t-47.5 -23q-16 -2 -31 3t-26.5 14.5t-19 22
t-10.5 24.5q-1 9 -1.5 21t2.5 23.5t10.5 19.5t21.5 9q12 1 13.5 -9.5l2.5 -17.5q2 -4 4.5 -8t10.5 -1q17 6 19 21t-5.5 30t-22 26.5t-30.5 11.5q-25 0 -45.5 -14.5t-35.5 -40.5t-24 -63t-12 -82h117q11 0 16 -12q5 -18 4.5 -29t-1.5 -31q-1 -3 -4.5 -6.5t-6.5 -3.5h-125z
" />
    <glyph glyph-name="uni0406" unicode="&#x406;" horiz-adv-x="370"
d="M363 627q0 -7 -4 -18t-10 -21t-14 -17.5t-15 -7.5t-9.5 6.5t-5 14t-7 14t-14.5 6.5q-18 0 -37.5 -8t-39.5 -17t-42 -17t-44 -8q-23 0 -40.5 8.5t-30 22.5t-19 33t-6.5 39q0 32 14 55.5t43 34.5q10 4 21.5 0.5t17.5 -12.5q10 -14 10 -21t-4 -10.5t-9 -6t-5 -8.5t7 -11.5
t13 -5.5q7 0 24.5 6t39 12.5t45.5 12.5t44 6q18 0 32 -7t24 -18.5t15.5 -26t5.5 -30.5zM322 165q0 -33 -13 -65t-36.5 -57t-56 -40t-70.5 -15q-30 0 -54 14t-41 36t-26 48.5t-9 52.5q0 15 4.5 34.5t13.5 36.5t23 29t34 12q13 0 24 -6t19 -15.5t12 -21t4 -22.5q0 -8 -7 -7.5
t-17 -2.5q-8 -3 -11 -12t-3 -17q0 -18 13 -34t33 -16q23 0 36.5 14.5t20.5 34.5t9 42t2 36q0 54 -8.5 106.5t-8.5 105.5q0 13 1.5 37t7.5 48t17.5 41.5t31.5 17.5q8 0 16.5 -3.5t11.5 -14.5q3 -9 -1 -19t-4 -20q0 -56 5 -102.5t11 -88.5t11 -82.5t5 -84.5z" />
    <glyph glyph-name="afii10056" unicode="&#x407;" horiz-adv-x="370"
d="M325 824q0 -33 -14.5 -51.5t-34.5 -18.5q-10 0 -18.5 6.5t-15 16.5t-10.5 22t-4 23q0 12 3.5 24t10 21.5t15.5 16t19 6.5q20 0 34.5 -16.5t14.5 -49.5zM195 824q0 -33 -14.5 -51.5t-34.5 -18.5q-10 0 -18.5 6.5t-15 16.5t-10.5 22t-4 23q0 12 3.5 24t10 21.5t15.5 16
t19 6.5q20 0 34.5 -16.5t14.5 -49.5zM369 627q0 -7 -4 -18t-10 -21t-14 -17.5t-15 -7.5t-9.5 6.5t-5 14t-7 14t-14.5 6.5q-18 0 -37.5 -8t-39.5 -17t-42 -17t-44 -8q-23 0 -40.5 8.5t-30 22.5t-19 33t-6.5 39q0 32 14 55.5t43 34.5q10 4 21.5 0.5t17.5 -12.5q10 -14 10 -21
t-4 -10.5t-9 -6t-5 -8.5t7 -11.5t13 -5.5q7 0 24.5 6t39 12.5t45.5 12.5t44 6q18 0 32 -7t24 -18.5t15.5 -26t5.5 -30.5zM328 165q0 -33 -13 -65t-36.5 -57t-56 -40t-70.5 -15q-30 0 -54 14t-41 36t-26 48.5t-9 52.5q0 15 4.5 34.5t13.5 36.5t23 29t34 12q13 0 24 -6
t19 -15.5t12 -21t4 -22.5q0 -8 -7 -7.5t-17 -2.5q-8 -3 -11 -12t-3 -17q0 -18 13 -34t33 -16q23 0 36.5 14.5t20.5 34.5t9 42t2 36q0 54 -8.5 106.5t-8.5 105.5q0 13 1.5 37t7.5 48t17.5 41.5t31.5 17.5q8 0 16.5 -3.5t11.5 -14.5q3 -9 -1 -19t-4 -20q0 -56 5 -102.5
t11 -88.5t11 -82.5t5 -84.5z" />
    <glyph glyph-name="afii10062" unicode="&#x40e;" horiz-adv-x="401"
d="M395 612q0 -9 -1 -19.5t-3 -19.5t-5 -15t-6 -6q-7 0 -12.5 10.5t-11.5 10.5q-10 0 -10 -33q0 -5 0.5 -26t0.5 -50t1 -62t1 -62.5t0.5 -51.5t0.5 -28q0 -7 2 -36.5t0.5 -71t-9 -87.5t-26 -85t-51 -64.5t-83.5 -25.5q-55 0 -85.5 21.5t-44.5 48t-17 51t-3 30.5t2.5 24.5
t9.5 38.5t20 35.5t34 15.5t32.5 -9t16.5 -20t5.5 -22t0.5 -14t-5 -5t-11.5 -4.5t-11.5 -6.5t-5 -11q0 -8 2 -19.5t8.5 -23t18 -19.5t30.5 -8t33 7.5t24 20.5t16.5 29.5t10.5 33.5t5 42.5t1 50t-1 44.5t-1 25q0 21 -11 7q-5 -6 -16 -15t-23.5 -16.5t-25.5 -13t-22 -5.5t-27 6
t-36 23.5t-31 49.5t-13 83t2 85t4.5 55.5t4.5 33.5t2 20q0 16 -6.5 24t-11.5 8q-6 0 -8 -6t-2.5 -13.5t-2 -13.5t-5.5 -6q-2 0 -7.5 1t-11.5 8t-10.5 22t-4.5 42t8 45t19.5 28t23.5 14t20 4t21 -2.5t26 -14.5t22 -36.5t9 -67.5q0 -88 -4.5 -143.5t-4.5 -69.5q0 -7 2 -18
t7 -21.5t13.5 -18t21.5 -7.5q12 0 22.5 7t18.5 17.5t13.5 22.5t8.5 23q3 10 5.5 37t5 57.5t3.5 59t1 42.5q0 13 4.5 35t13.5 42t23 35t34 15q19 0 30 -12t15.5 -28t5.5 -32.5t1 -25.5zM173 878q13 0 24.5 -7.5t14.5 -19.5q6 -21 9.5 -22.5t8.5 -1.5q19 0 23 24q5 24 29 24
t25 -29q0 -42 -30.5 -67.5t-75.5 -25.5q-37 0 -61 19t-24 48q0 22 15.5 40t41.5 18z" />
    <glyph glyph-name="afii10017" unicode="&#x410;" horiz-adv-x="446"
d="M431 74q0 -11 -3.5 -25t-11 -27.5t-19.5 -22.5t-30 -9q-20 0 -33 13.5t-21.5 34t-13 45t-7.5 46t-4.5 37t-4.5 18.5q-3 2 -11 3.5t-17.5 2t-18 0.5h-11.5h-9.5t-11.5 -0.5t-10.5 -2t-5.5 -4.5q-4 -12 -11.5 -46.5t-19 -80t-28 -95.5t-39 -92t-53 -69t-68.5 -27
q-20 0 -38.5 8t-32.5 22t-22 32t-8 38q0 14 3 31t9.5 31.5t18 24t29.5 9.5q14 0 30 -12.5t16 -26.5q0 -7 -3 -13t-3 -13q0 -8 7 -13t14 -5q13 0 27 18.5t27 47t24.5 63t20.5 67t14 58.5t5 37q0 3 -4.5 3.5t-7.5 0.5q-5 0 -8.5 -4t-8 -8.5t-10.5 -8t-14 -3.5
q-21 0 -30.5 18.5t-9.5 36.5q0 21 13 39t35 20q8 1 20 0t20 -1t14.5 1t11.5 8q6 9 5.5 30t0 42.5t5.5 37.5t23 16q19 0 26 -18.5t9 -41t1.5 -43t3.5 -24.5q5 -6 15.5 -8t18.5 -2h16t16 2t12 6t5 12v130q0 42 -1.5 77.5t-8.5 62t-21 41.5t-39 15q-35 0 -54.5 -16t-19.5 -34
q0 -7 1.5 -15.5t8.5 -10.5q4 -1 5 3t2 9.5t3 10.5t8 5q14 0 22.5 -8t13 -19.5t6 -24.5t1.5 -23q0 -26 -20 -46t-49 -20q-24 0 -40.5 11.5t-27.5 29t-16 38.5t-5 41q0 29 13.5 58.5t36 53t52 38.5t61.5 15q35 0 64.5 -14t50.5 -39.5t33 -60t12 -75.5q0 -75 0.5 -147.5
t0.5 -147.5v-33.5t2 -32t5.5 -24t11.5 -9.5q6 0 9 8t9 8q5 0 8 -7t5 -17t2.5 -22.5t0.5 -22.5z" />
    <glyph glyph-name="afii10018" unicode="&#x411;" horiz-adv-x="605"
d="M239 580q23 4 42.5 1t21.5 -18v-121q51 6 102 -11.5t91.5 -53t66 -85.5t25.5 -107q0 -62 -19.5 -113.5t-55 -88t-85 -56.5t-110.5 -20q-47 0 -87.5 15t-70.5 42.5t-47.5 65.5t-17.5 85q0 87 46.5 134.5t122.5 47.5q46 0 72.5 -30t34.5 -73q3 -17 0.5 -35t-9 -33.5
t-17.5 -27t-25 -15.5q-12 -4 -23 -2t-19.5 7.5t-14 13.5t-8.5 17q-3 10 3 17.5t8 15.5q2 12 -3 22.5t-13 10.5q-30 0 -42.5 -22.5t-12.5 -48.5q0 -20 10.5 -38.5t27 -33t36.5 -23t40 -8.5q31 0 63 8.5t57 27t41 47t16 68.5q0 47 -15 83.5t-39.5 61.5t-56.5 37t-65 9
q-6 0 -7 -5.5t-1 -12.5t-1.5 -13t-10.5 -7q-7 -1 -18 -1.5t-22.5 0t-20.5 2t-12 5.5q-6 8 -4.5 18.5t1.5 20.5v205q2 8 8.5 11t16.5 4zM473 700q3 0 12 -2t19 -8.5t19.5 -19t13.5 -33.5q4 -20 -1 -37t-14 -29t-21 -19t-24 -9q-42 -7 -83 8.5t-80 33.5t-75.5 29.5t-72.5 -2.5
q-14 -5 -25.5 -21.5t-16 -35.5t0.5 -35t24 -22q5 -2 7.5 1t4 6.5t2.5 7.5t4 4q6 2 15.5 -8.5t17.5 -47.5q3 -16 -1.5 -30.5t-12 -26t-16 -19.5t-14.5 -8q-6 -2 -24.5 -1.5t-39.5 12t-41 39.5t-31 83q-9 50 5 86t37.5 60t48 35.5t37.5 14.5q62 11 106.5 -0.5t78.5 -28
t63 -29.5t58 -5q7 1 8 5t-1 8.5t-4 9.5t-3 9q-2 8 5 15.5t14 9.5z" />
    <glyph glyph-name="afii10019" unicode="&#x412;" horiz-adv-x="520"
d="M509 185q0 -62 -19.5 -113.5t-55 -88t-85 -56.5t-110.5 -20q-47 0 -87.5 15t-70.5 42.5t-47.5 66t-17.5 84.5q0 86 46.5 134t122.5 48q46 0 72.5 -30t34.5 -73q3 -18 0.5 -35.5t-9 -33t-17.5 -27t-25 -15.5q-25 -8 -42.5 5.5t-22.5 30.5q-3 10 3 17.5t8 15.5
q2 12 -3 22.5t-13 10.5q-15 0 -25.5 -6.5t-17 -16.5t-9.5 -22.5t-3 -25.5q0 -20 10.5 -38.5t27 -33t36.5 -23t40 -8.5q31 0 63 8.5t57 27t41 47t16 68.5q0 33 -4 57t-13.5 42.5t-25.5 32.5t-41 28q-12 7 -21.5 9.5t-18 3.5t-16.5 2t-18 4q-5 2 -10 7t-8 5q-6 0 -7 -5.5
t-1 -12.5t-1.5 -13t-10.5 -7q-6 -1 -17.5 -1.5t-23 -0.5t-20.5 2t-12 6q-6 8 -4.5 18.5t1.5 20.5v147q-25 2 -38 25t-14 49q-1 33 14 57t39 39.5t54 23t59 7.5q44 0 81 -12t64 -34.5t42.5 -56t15.5 -75.5q0 -31 -7 -52t-17 -34.5t-20 -21.5t-16 -12q-5 -4 -8.5 -6.5
t-3.5 -6.5q0 -7 8 -10.5t14 -8.5q22 -18 42 -36.5t34 -41t22.5 -51t8.5 -64.5zM346 523q0 20 -9 36t-24 27.5t-34.5 18t-41.5 6.5q-8 0 -22 -4.5t-16 -13.5q10 -1 16.5 -4t8.5 -11v-136q0 -9 1.5 -12t4 -3t6 1.5t7.5 2.5q18 5 36.5 13.5t33 20t24 26.5t9.5 32z" />
    <glyph glyph-name="afii10020" unicode="&#x413;" horiz-adv-x="383"
d="M424 641q0 -21 -7.5 -37.5t-19 -28t-24.5 -18t-25 -6.5q-24 0 -50.5 8.5t-52.5 19t-50 19.5t-42 9q-11 0 -20 -6t-16 -14.5t-10.5 -18t-3.5 -16.5t0.5 -15.5t2 -16t4.5 -12.5t9 -5q11 0 13.5 8t8.5 8t13.5 -12t7.5 -50q0 -16 -8 -29.5t-18.5 -23.5t-22 -16t-17.5 -6
t-21 3.5t-30.5 19t-27 47t-11.5 86.5q0 51 19.5 84.5t45.5 53t51.5 27t38.5 7.5q33 0 57.5 -7.5t45 -16.5t39.5 -16.5t41 -7.5q7 0 8.5 3.5t0.5 8.5t-2.5 10t-1.5 9q0 8 8 14.5t15 6.5q3 0 11.5 -3.5t17.5 -12t16 -22.5t7 -35zM311 77q-1 -16 -7.5 -49.5t-24 -67.5
t-50 -59.5t-84.5 -25.5q-37 0 -59.5 16t-35 37t-17 42t-4.5 30t4.5 27t12 36t17.5 31t21 13q23 0 41.5 -11.5t18.5 -22.5q0 -5 -2.5 -9t-6 -7.5t-6 -8.5t-2.5 -13q0 -16 7.5 -25.5t21.5 -9.5q7 0 17.5 5t20.5 15t18.5 23t11.5 30q5 29 2.5 74t-11.5 124q-5 39 -9.5 73.5
t-7.5 64.5t-2 56t7 47q10 35 25 42t24 4q20 -6 27 -14t3 -36q-8 -44 -3 -96t16 -130t14.5 -127t1.5 -78z" />
    <glyph glyph-name="afii10021" unicode="&#x414;" horiz-adv-x="482"
d="M473 344q0 -174 -58 -265.5t-168 -91.5q-9 0 -25.5 2.5t-34 5t-32.5 5t-21 2.5q-14 0 -23.5 -6.5t-9.5 -21.5q0 -9 5 -16t5 -18q-7 -6 -16.5 -10.5t-19.5 -4.5q-20 0 -33.5 10t-21.5 25t-11 33t-3 34q0 41 29 64t71 25q13 0 26.5 -0.5t27.5 -0.5q2 0 6 5.5t4 15.5v182
q0 8 0.5 9.5t7.5 6.5q11 8 31 17t31 14q7 3 9 -4q1 -3 0 -7v-50.5t-0.5 -64t-0.5 -60v-37.5q0 -11 2.5 -21.5t13.5 -11.5q22 -1 43.5 12.5t37.5 41.5t26 69t10 94q0 60 -10 110.5t-30 87t-51 57.5t-73 21q-46 0 -75 -26t-29 -74q0 -12 12 -27t27 -15q5 0 9 7t4 12
q0 11 -4.5 16.5t-4.5 13.5q0 14 16 22.5t28 8.5q16 0 26.5 -8t17 -20t9 -26t2.5 -26q0 -21 -7 -41t-20 -35.5t-31.5 -25t-41.5 -9.5q-31 0 -56.5 14.5t-43.5 37t-28 50t-10 53.5q0 42 15 79t41 65t62.5 44.5t79.5 16.5q65 0 113.5 -29t80.5 -78.5t48 -116t16 -141.5z" />
    <glyph glyph-name="afii10022" unicode="&#x415;" horiz-adv-x="453"
d="M443 174q0 -39 -17 -73t-44.5 -59t-63.5 -39.5t-75 -14.5q-47 0 -88.5 14.5t-72 43t-48.5 70.5t-18 96q0 70 35 124t89 85q15 8 6 16q-19 16 -35.5 48.5t-16.5 69.5q0 48 19 78t45 46.5t53.5 22.5t44.5 6q25 0 49 -8t42.5 -23.5t30 -37.5t11.5 -50q0 -13 -3 -28.5
t-10 -28.5t-18.5 -21.5t-27.5 -8.5q-15 0 -30 11.5t-15 27.5q0 7 9.5 14t9.5 21q0 18 -15.5 30.5t-32.5 12.5q-27 0 -50 -18t-23 -46q0 -45 28 -74.5t71 -29.5q11 0 16 -8.5t5 -19.5q0 -17 -5.5 -30.5t-19.5 -14.5q-16 -2 -45.5 -8t-58.5 -23t-50.5 -49t-21.5 -86
q0 -30 12 -55t32.5 -43.5t48 -29t58.5 -10.5q17 0 35.5 7t33.5 19t25 28t10 34q0 9 -2 18.5t-7 17.5t-13.5 13t-20.5 5q-11 0 -15.5 -8t-4.5 -19q0 -12 5.5 -16t6.5 -12q-6 -8 -13.5 -15t-18.5 -7q-14 0 -25 8t-18.5 20t-11.5 26t-4 26q0 19 7 38.5t19.5 35.5t30 26.5
t37.5 10.5q31 0 56 -14.5t42 -37t26.5 -50.5t9.5 -54z" />
    <glyph glyph-name="afii10024" unicode="&#x416;" horiz-adv-x="637"
d="M352 538q-1 -17 -1 -38.5t-1 -47.5q1 -36 11 -36.5t24 18.5q12 22 18.5 39.5t11.5 34.5q7 24 13 61.5t19 73t35.5 61.5t62.5 26q19 0 33.5 -8t24.5 -21t15 -30t4 -35q-1 -11 -4.5 -24.5t-10 -25t-16.5 -19.5t-23 -8q-5 0 -10.5 1t-6.5 6q-2 12 -2 18.5v9t-0.5 2.5h-3.5
q-13 0 -20.5 -22.5t-15 -53.5t-17 -64t-25.5 -54q-4 -7 2 -13q5 -6 10.5 -13t10.5 -15q9 -14 17 -30.5t14 -37.5q2 -8 6.5 -34.5t10.5 -54.5q5 -24 11.5 -42t13.5 -18q6 0 8.5 2t4.5 5q2 4 1 10t-2 11.5t0.5 8t8.5 1.5q13 -3 21.5 -13t13 -23.5t6 -29t1.5 -28.5
q0 -15 -6.5 -30.5t-17.5 -28t-26 -20.5t-31 -8q-28 0 -45 23t-27.5 57.5t-16 74.5t-11.5 75.5t-14.5 59.5t-23.5 26q-8 3 -17.5 -2.5t-17.5 -17.5t-13.5 -30t-4.5 -41q0 -42 1.5 -68t11.5 -26t15.5 7.5t11.5 19.5q4 8 7.5 -5t4.5 -36t-3 -50t-14 -48q-10 -19 -28.5 -28.5
t-39.5 -9.5t-39.5 9.5t-28.5 28.5q-11 21 -16 48t-6 49.5t2 35.5t8 6q4 -5 10.5 -16t16.5 -11t11 22.5t3 71.5q1 23 -4 41t-13 30t-17 17.5t-15 2.5q-20 -8 -33 -32.5t-21.5 -59t-13.5 -76.5t-9 -86q-5 -54 -10.5 -108t-20 -96.5t-41 -69.5t-74.5 -27q-41 0 -67 28t-28 68
q0 16 3.5 33.5t11.5 32t21 24t33 9.5q6 0 7.5 -2.5t1 -7t-2.5 -9.5t-3 -11q-2 -14 0 -24.5t7.5 -17t12 -9.5t13.5 -1q9 2 15 22.5t11 53.5t9.5 75t10.5 87t14.5 89t20.5 82t28.5 65.5t39.5 39.5q3 2 2.5 5.5t-2.5 7.5q-16 21 -25.5 54t-17 64t-15 53.5t-20.5 22.5h-3.5
t-0.5 -2.5v-9t-2 -18.5q-1 -5 -6.5 -6t-10.5 -1q-14 0 -23.5 8t-16 19.5t-10 25t-4.5 24.5q-1 18 4 35t15 30t24.5 21t33.5 8q40 0 62.5 -26t35.5 -61.5t19 -73t13 -61.5q5 -17 11.5 -34.5t18.5 -39.5q14 -19 24 -18.5t11 36.5l-2 94q0 16 -5.5 27.5t-11.5 11.5q-3 0 -4 -4
t-2.5 -8.5t-3 -8.5t-4.5 -4t-5.5 5.5t-4.5 14.5t-3.5 19.5t-1.5 19.5t3.5 25t13 32t25.5 27.5t41 11.5q24 0 40.5 -11.5t26 -27.5t13.5 -32t4 -25t-1.5 -19.5t-3.5 -19.5t-4.5 -14.5t-5.5 -5.5t-5 4t-3.5 8.5t-3.5 8.5t-5 4q-5 0 -13 -15.5t-8 -31.5z" />
    <glyph glyph-name="afii10025" unicode="&#x417;" horiz-adv-x="453"
d="M366 555q-1 -37 -17 -69.5t-35 -48.5q-10 -8 6 -16q54 -31 88 -85t34 -124q0 -54 -18 -96t-48.5 -70.5t-72 -43t-88.5 -14.5q-39 0 -75 14.5t-63.5 39.5t-44.5 59t-17 73q0 26 9.5 54t26.5 50.5t42 37t56 14.5q20 0 37.5 -10.5t30 -26.5t19.5 -35.5t7 -38.5q0 -12 -4 -26
t-11.5 -26t-18.5 -20t-25 -8q-11 0 -18.5 7t-13.5 15q1 8 6.5 12t5.5 16q0 11 -4.5 19t-15.5 8q-25 0 -34 -18t-9 -36t10 -34t25 -28t33.5 -19t35.5 -7q31 0 57 10.5t45 29t29.5 43.5t10.5 55q0 54 -20 86t-47.5 49t-55.5 23t-44 8q-14 1 -19.5 14.5t-5.5 30.5q0 11 5 19.5
t16 8.5q43 0 71 29.5t28 75.5q0 17 -10 30.5t-28 13.5q-9 0 -27.5 -6t-37 -13t-34 -13t-18.5 -6t-15 2t-25 10t-23 24t-10 44t8 44.5t17.5 25.5t19 11.5t12.5 2.5q6 0 12 -6t6 -11q0 -3 -2 -7.5t-2 -9t4 -8t16 -3.5t23.5 5t23.5 11.5t26 11.5t30 5q22 0 45 -8.5t41 -27.5
t29 -49.5t10 -73.5z" />
    <glyph glyph-name="afii10026" unicode="&#x418;" horiz-adv-x="456"
d="M390 581q-8 0 -12 -16t-5.5 -37t-1.5 -42v-31v-95q0 -2 -1 -19.5t-1 -43t0.5 -54.5t4 -53.5t9.5 -41t16 -16.5q5 0 7.5 4t5 9.5t5.5 9.5t9 4q7 0 11 -6.5t6 -16.5t2 -20.5v-17.5q0 -17 -3.5 -36t-11.5 -36t-21.5 -28t-34.5 -11q-20 0 -36 15t-27 36t-17 44t-6 40v222
q0 6 -1.5 9.5t-6.5 -3.5q-11 -15 -28.5 -39.5t-34.5 -51.5t-29.5 -54t-13.5 -48q0 -4 -0.5 -13t-0.5 -19v-19.5v-14.5q-1 -26 -2.5 -59.5t-6 -69t-13.5 -69t-25 -60t-40 -43t-58 -16.5q-20 0 -34.5 10.5t-25 27t-15.5 35.5t-5 36q0 16 3.5 33.5t11.5 32t21 24t33 9.5
q6 0 7.5 -2.5t0.5 -7t-3 -9.5t-2 -11q0 -7 2.5 -16t11.5 -9q13 0 22 25.5t16 65.5t11 89.5t6 97t3 88.5t1 63v87q0 10 -0.5 33t-3.5 45.5t-9.5 40t-17.5 17.5q-4 0 -6 -5t-4 -11.5t-5 -11.5t-9 -5t-10.5 10t-7.5 23t-4.5 25.5t-1.5 18.5q0 13 4 28.5t11.5 29t19 22.5t27.5 9
q23 0 41 -16t30.5 -39t19 -48t6.5 -43l-2 -214q0 -8 1.5 -13.5t8.5 3.5q12 15 25.5 33.5t27 39t25.5 41t20 38.5q9 20 9 43.5v43.5q5 58 25.5 91.5t58.5 33.5q13 0 23.5 -7t17.5 -18t10.5 -24t3.5 -24q0 -6 -1 -16t-3.5 -20.5t-7.5 -18t-12 -7.5q-6 0 -7 5t-6 5z" />
    <glyph glyph-name="afii10027" unicode="&#x419;" horiz-adv-x="504"
d="M187 878q13 0 24.5 -7.5t14.5 -19.5q6 -21 9.5 -22.5t8.5 -1.5q19 0 23 24q5 24 29 24t25 -29q0 -42 -30.5 -67.5t-75.5 -25.5q-37 0 -61 19t-24 48q0 22 15.5 40t41.5 18zM384 581q-8 0 -12 -16t-5.5 -37t-1.5 -42v-31v-95q0 -2 -1 -19.5t-1 -43t0.5 -54.5t4 -53.5
t9.5 -41t16 -16.5q5 0 7.5 4t5 9.5t5.5 9.5t9 4q7 0 11 -6.5t6 -16.5t2 -20.5v-17.5q0 -17 -3.5 -36t-11.5 -36t-21.5 -28t-34.5 -11q-20 0 -36 15t-27 36t-17 44t-6 40v222q0 6 -1.5 9.5t-6.5 -3.5q-11 -15 -28.5 -39.5t-34.5 -51.5t-29.5 -54t-13.5 -48q0 -4 -0.5 -13
t-0.5 -19v-19.5v-14.5q-1 -26 -2.5 -59.5t-6 -69t-13.5 -69t-25 -60t-40 -43t-58 -16.5q-20 0 -34.5 10.5t-25 27t-15.5 35.5t-5 36q0 16 3.5 33.5t11.5 32t21 24t33 9.5q6 0 7.5 -2.5t0.5 -7t-3 -9.5t-2 -11q0 -7 2.5 -16t11.5 -9q13 0 22 25.5t16 65.5t11 89.5t6 97
t3 88.5t1 63v87q0 10 -0.5 33t-3.5 45.5t-9.5 40t-17.5 17.5q-4 0 -6 -5t-4 -11.5t-5 -11.5t-9 -5t-10.5 10t-7.5 23t-4.5 25.5t-1.5 18.5q0 13 4 28.5t11.5 29t19 22.5t27.5 9q23 0 41 -16t30.5 -39t19 -48t6.5 -43l-2 -214q0 -8 1.5 -13.5t8.5 3.5q12 15 25.5 33.5t27 39
t25.5 41t20 38.5q9 20 9 43.5v43.5q5 58 25.5 91.5t58.5 33.5q13 0 23.5 -7t17.5 -18t10.5 -24t3.5 -24q0 -6 -1 -16t-3.5 -20.5t-7.5 -18t-12 -7.5q-6 0 -7 5t-6 5z" />
    <glyph glyph-name="afii10028" unicode="&#x41a;" horiz-adv-x="468"
d="M442 74q0 -15 -6.5 -30.5t-17.5 -28t-26 -20.5t-31 -8q-29 0 -45.5 23t-27 57.5t-16 74.5t-11.5 75.5t-14.5 59.5t-23.5 26q-6 1 -12.5 -3t-11 -9.5t-7.5 -11.5t-3 -9q0 -36 -2.5 -85t-7.5 -108.5t-12 -106t-17 -77.5q-7 -23 -20 -43t-29.5 -35t-35.5 -24t-38 -9
q-20 0 -34.5 10t-24 26t-14 34.5t-4.5 35.5q0 11 3 26t10 28.5t17 23t25 9.5q20 0 20.5 -7t-4 -16t-6 -18.5t15.5 -15.5t30.5 12.5t22.5 51.5t14 84.5t5 93.5q0 31 0.5 68t0.5 75.5v76.5t-1 71v30.5t-2 39t-7 33.5t-15 14q-7 0 -7.5 -4t-0.5 -9t-1.5 -9t-10.5 -4
q-8 0 -13.5 9t-10 21t-6.5 24.5t-2 19.5q0 14 4 30t12.5 30t21.5 23.5t30 9.5q29 0 47.5 -24.5t29.5 -58t15 -68t4 -53.5q0 -20 0.5 -37t0.5 -40q0 -13 2 -13t7 5q13 12 19 34.5t11 39.5q7 24 13.5 61.5t19 73t35 61.5t62.5 26q18 0 33 -8t25.5 -21t15 -30t3.5 -35
q-1 -11 -4.5 -24.5t-10 -25t-16.5 -19.5t-23 -8q-5 0 -10.5 1t-6.5 6q-2 12 -2 18.5v9t-0.5 2.5h-3.5q-13 0 -20.5 -22.5t-15 -53.5t-17 -64t-25.5 -54q-2 -4 -1 -7.5t3 -5.5q13 -16 27.5 -39t24.5 -57q2 -7 6 -31t9.5 -50.5t12 -47t14.5 -20.5q12 0 13.5 6.5t0 14
t-1.5 13.5t9 4q14 -3 22 -13t12.5 -23.5t6 -29t1.5 -28.5z" />
    <glyph glyph-name="afii10029" unicode="&#x41b;" horiz-adv-x="412"
d="M-59 -73q1 -7 -2.5 -13t-3.5 -13q0 -8 7 -13t14 -5q11 0 22.5 10.5t22 28t20.5 41t19 49.5q13 37 22.5 78.5t16 83t10.5 82t7 76.5q2 32 8.5 51.5t24.5 19.5q19 0 28 -24.5t11 -59t-1.5 -73t-7.5 -65.5q-4 -17 -11.5 -53.5t-19.5 -82.5t-29 -94.5t-40.5 -88.5t-54 -66
t-68.5 -26q-20 0 -38.5 8t-32.5 22t-22 32t-8 38q0 14 3 31.5t9.5 32.5t18 25t29.5 10q14 0 29 -7.5t17 -34.5zM246 416q0 42 -1.5 77.5t-8 62t-21 41.5t-39.5 15q-35 0 -54.5 -16t-19.5 -34q0 -7 1.5 -15.5t8.5 -10.5q4 -1 5 3t2 9.5t3 10.5t8 5q14 0 22.5 -8t13 -19.5
t6 -24.5t1.5 -23q0 -26 -20 -46t-49 -20q-24 0 -40.5 11.5t-27.5 29t-16 38.5t-5 41q0 29 13.5 58.5t36 53t52 38.5t61.5 15q35 0 64.5 -14t50.5 -39.5t33 -60t12 -75.5q0 -75 0.5 -147.5t0.5 -147.5v-33.5t2 -32t5.5 -24t11.5 -9.5q6 0 9 8t9 8q5 0 8 -7t5 -17t2.5 -22.5
t0.5 -22.5q0 -11 -3.5 -25t-11 -27.5t-19.5 -22.5t-30 -9q-30 0 -47 26t-25.5 59.5t-10 65t-1.5 43.5z" />
    <glyph glyph-name="afii10030" unicode="&#x41c;" horiz-adv-x="600"
d="M572 79q0 -24 -7.5 -41.5t-18 -29t-22 -17t-18.5 -5.5q-5 0 -13.5 1t-18 8t-19 24.5t-17.5 49.5t-13 83t-5 126q0 37 0.5 76t5 75t15.5 67t31 53q3 3 9 7t12 4.5t10.5 -4t4.5 -18.5q0 -10 -0.5 -38t-1 -65t-1 -78.5t-1 -78t-1 -62.5t-0.5 -33q0 -20 4 -35.5t15 -15.5
q5 0 8.5 4.5t6.5 9.5t5.5 9.5t5.5 4.5q6 0 15 -17t9 -64zM586 623q0 -20 -4.5 -34.5t-10.5 -24.5t-13 -17t-12 -11q-11 -9 -18 -5.5t-4 13.5t-1 25t-24 15q-21 0 -42.5 -27.5t-39 -62.5t-29.5 -67t-14 -41q-4 -16 -4 -23t1 -13q0 -3 2.5 -27.5t5 -54.5t4.5 -58.5t2 -38.5
q0 -32 -3.5 -63t-10.5 -56.5t-16.5 -41t-22.5 -15.5t-21.5 16t-14 41.5t-7.5 56.5t-2 61q0 6 2.5 31.5t5.5 54t6 53t4 27.5q2 7 0.5 14.5t-3.5 14.5q-25 106 -64.5 160.5t-74.5 54.5q-11 0 -16 -3.5t-7 -9t-1.5 -11t2.5 -8.5q2 -4 9 -9t7 -10q0 -8 -13 -16t-22 -8
q-13 0 -23.5 8t-18 21t-12 29.5t-4.5 34.5t7 37t20 35.5t30 27t38 10.5q34 0 63 -22t51 -51t36 -57.5t20 -41.5q5 -12 8.5 -12t8.5 11q4 8 16.5 36t33.5 58.5t49 54.5t62 24q28 0 43.5 -11.5t23.5 -26.5t10 -29t2 -18zM250 263q0 -114 -15.5 -188.5t-37.5 -119t-47 -62
t-44 -17.5q-38 0 -64 24t-26 75q0 15 5 31t13.5 29t19.5 21.5t22 8.5q17 0 17.5 -7.5t-4.5 -14.5q-2 -3 -4 -10.5t-1 -14.5t6.5 -12.5t18.5 -5.5t21.5 12t14.5 28t9 32t4 24q3 18 4.5 54.5t2.5 81t1.5 92.5t0.5 88v67.5v32.5q0 7 -0.5 16.5t1 17t6 10t13.5 -5.5
q41 -35 52 -108t11 -179z" />
    <glyph glyph-name="afii10031" unicode="&#x41d;" horiz-adv-x="576"
d="M357 640q0 -7 -4 -18t-10 -21t-14 -17.5t-15 -7.5t-9.5 6.5t-5 14t-7 14t-14.5 6.5q-18 0 -37.5 -8t-39.5 -17t-42 -17t-44 -8q-45 0 -70.5 27.5t-25.5 68.5q0 32 14 55.5t43 34.5q10 4 21.5 0.5t17.5 -12.5q12 -17 12 -24.5t-4.5 -10.5t-10 -4t-5.5 -7t7 -11.5t13 -5.5
q7 0 24.5 6t39 12.5t45.5 12.5t44 6q35 0 56 -21.5t21 -53.5zM301 291q3 -23 5 -55.5t2 -57.5q0 -33 -12 -65t-34 -57t-53 -40t-69 -15q-30 0 -54 14t-41 36t-26 48.5t-9 52.5q0 15 4.5 34.5t13.5 36.5t23 29t34 12q13 0 24 -6t19 -15.5t12 -21t4 -22.5q0 -8 -7 -7.5
t-17 -2.5q-8 -3 -11 -12t-3 -17q0 -18 13 -34t33 -16q23 0 36.5 14.5t20.5 34.5t9 42t2 36q0 54 -8.5 106t-8.5 106q0 13 1.5 37t7.5 48t17.5 41.5t31.5 17.5q8 0 16.5 -3.5t11.5 -14.5q3 -9 -1 -19t-4 -20q0 -26 1.5 -46t3.5 -42q0 -9 2.5 -19t16.5 -10h86q10 0 14 6t4 15
v121q0 16 4 42.5t14 52t26 44t40 18.5q13 0 23.5 -7t17.5 -18t10.5 -24t3.5 -24q0 -6 -1 -16t-3.5 -20.5t-7.5 -18t-12 -7.5q-6 0 -7 5t-6 5q-8 0 -12 -16t-5.5 -37t-1.5 -42v-31v-95q0 -2 -1 -19.5t-1 -43t0.5 -54.5t4 -53.5t9.5 -41t16 -16.5q5 0 7.5 4t5 9.5t5.5 9.5t9 4
q7 0 11 -6.5t6 -16.5t2 -20.5v-17.5q0 -17 -3.5 -36t-11.5 -36t-21.5 -28t-34.5 -11q-20 0 -36 15t-27 36t-17 44t-6 40v162q0 14 -2 18.5t-16 4.5h-65q-16 0 -22 -6.5t-6 -21.5z" />
    <glyph glyph-name="afii10032" unicode="&#x41e;" horiz-adv-x="426"
d="M413 302q0 -95 -23.5 -156t-56 -96.5t-66.5 -49t-56 -13.5q-56 0 -93 35t-60 90t-32.5 121t-9.5 128q0 32 5 70t15.5 76.5t28.5 74.5t43.5 64t60 45t79.5 17q19 0 39.5 -6.5t37.5 -18.5t28 -28.5t11 -36.5q0 -22 -4.5 -35t-11.5 -20t-15 -9.5t-14 -2.5q-17 0 -32.5 7.5
t-15.5 22.5q0 11 -8.5 19t-23.5 8q-33 0 -57.5 -20t-41.5 -53.5t-25.5 -79t-8.5 -96.5q0 -115 27 -178.5t78 -63.5q53 0 80 47.5t27 124.5q0 66 -15 98.5t-27 41.5q-6 4 -11 3.5t-8 -3.5t-4 -7.5t1 -6.5q5 -5 11.5 -11t-2.5 -21t-18.5 -22.5t-16.5 -9.5q-3 -1 -14 0t-22 8.5
t-20 24t-9 46.5t8.5 52t22 36t30 21t31.5 7t41.5 -10t52.5 -37t45 -74.5t19 -122.5z" />
    <glyph glyph-name="afii10033" unicode="&#x41f;" horiz-adv-x="612"
d="M351 -23q-7 -38 -21.5 -73.5t-39 -61.5t-59.5 -38.5t-82 -4.5q-29 5 -49.5 21t-32.5 38.5t-16 49t1 53.5q3 15 10.5 33t19.5 33t27 24t32 6q21 -4 33.5 -23.5t8.5 -39.5q-2 -12 -7.5 -13t-11.5 -0.5t-11 -3t-8 -20.5q-4 -18 3 -32t25 -17q19 -3 32 5t21.5 23t13.5 35
t8 41q7 42 6.5 98t-3 116t-3.5 118.5t7 104.5q9 51 32 80.5t47 25.5q11 -2 19.5 -9t6.5 -21q-3 -17 -12.5 -34.5t-13.5 -37.5q-9 -48 -3.5 -107t13.5 -122t12.5 -126.5t-5.5 -120.5zM464 338q1 -33 6 -70.5t13.5 -70t18 -54t19.5 -22.5q5 0 8 3.5t6 8t6 8.5t9 3q7 0 10.5 -7
t4.5 -16t0.5 -19t-1.5 -17q-2 -16 -7 -34t-14.5 -33t-24 -24.5t-35.5 -7.5q-27 2 -45.5 31.5t-29.5 79t-14.5 115t0.5 139.5q3 40 13 71t23 47t26.5 15t23.5 -23q-10 -12 -14 -46.5t-2 -76.5zM534 650q3 0 11.5 -3.5t17.5 -12t16 -22.5t7 -35t-7.5 -36.5t-19 -25.5
t-24.5 -15t-25 -5q-43 1 -80.5 23.5t-72.5 47.5t-69 43t-71 11q-15 -3 -29 -17t-22 -31.5t-6.5 -34.5t19.5 -26q5 -3 8 -0.5t5 6l4 7t5 3.5q6 0 13.5 -12t7.5 -50q0 -16 -6.5 -29.5t-16 -23.5t-19.5 -16t-16 -6t-24 3.5t-37 19t-33.5 46.5t-14.5 87q0 51 20.5 84t47.5 52
t53.5 26t39.5 7q63 0 104.5 -19t72.5 -41.5t56.5 -40.5t56.5 -16q7 0 8.5 3.5t0.5 8.5t-2.5 10t-1.5 9q0 8 8 14.5t15 6.5z" />
    <glyph glyph-name="afii10034" unicode="&#x420;" horiz-adv-x="456"
d="M441 462q0 -52 -15 -90t-35 -63.5t-39 -38t-26 -12.5q-30 0 -46 30q-5 9 -8.5 12t-3.5 -9v-229q0 -27 -6.5 -59.5t-21.5 -60.5t-39.5 -46.5t-60.5 -18.5q-20 0 -40 5t-36 17.5t-26.5 33t-10.5 50.5q0 29 7 47t17 28.5t20.5 14.5t16.5 4q9 0 16.5 -4t13.5 -9.5t9.5 -11.5
t3.5 -10q1 -8 0.5 -12.5t-5.5 -9.5q-3 -3 -5 -8.5t-2 -11t3.5 -10t12.5 -4.5t17.5 6t16 15.5t12 22.5t4.5 27v26t-0.5 47t-0.5 56.5t-0.5 55.5t-0.5 43.5v20.5v11t10 8q5 2 12.5 5.5l15 7t13.5 6.5l8 4q4 2 11.5 0t14.5 2q3 2 3 4.5t-1 5.5t0.5 6.5t7.5 7.5t10 3t7.5 -3.5
t7.5 -4t10 1.5t11.5 13.5t10 23t7 26t2.5 22.5q0 30 -6 59.5t-22.5 52t-44.5 36.5t-71 14q-16 0 -33 -5.5t-30.5 -18t-22.5 -33.5t-9 -51q0 -28 6.5 -42t15.5 -20t18 -6h14q9 0 22.5 8.5t13.5 28.5t-2.5 26.5t-7.5 6.5t-11 -1.5t-11 0.5q-2 1 -2.5 8t0 15.5t3 17t6.5 12.5
q16 18 40 18q6 0 18 -4t24.5 -15t21.5 -31t9 -53t-11.5 -58t-28.5 -42.5t-37 -26.5t-38 -9t-44 9t-50 29.5t-41 52t-17 76.5q0 48 15.5 84.5t42 62t60.5 38.5t70 13q65 0 110 -20t73.5 -53.5t41 -78.5t12.5 -94z" />
    <glyph glyph-name="afii10035" unicode="&#x421;" horiz-adv-x="404"
d="M394 503q0 -32 -8 -65.5t-24 -60.5t-38.5 -44t-50.5 -17q-17 0 -30 8.5t-23 22t-15 29.5t-5 31q0 11 2 25t7 26.5t14.5 20.5t23.5 7q12 -1 11.5 -14t-0.5 -21q0 -5 2 -9t10 -4q23 0 29.5 19.5t6.5 42.5q0 19 -5 37t-14.5 32.5t-23.5 23t-32 8.5q-27 0 -49.5 -17t-39 -48
t-25.5 -74t-9 -95q0 -54 7 -101t23.5 -81.5t43 -54t65.5 -19.5q11 0 26 5t15 15q0 9 -1 12.5t-2.5 6t-2.5 5.5t-1 9q0 8 5 15t12 12.5t15.5 8.5t15.5 3q14 0 24.5 -8.5t18 -21t11 -26.5t3.5 -26q0 -25 -11.5 -49t-30 -42.5t-43 -30t-49.5 -11.5q-56 0 -100 27.5t-74 74
t-46 109t-16 131.5q0 66 12 133.5t37.5 122t66 88.5t98.5 34q39 0 69.5 -18.5t51.5 -48t32 -66t11 -72.5z" />
    <glyph glyph-name="afii10036" unicode="&#x422;" horiz-adv-x="666"
d="M312 -23q-6 -34 -18.5 -66.5t-33 -58t-49 -41t-67.5 -15.5q-33 0 -58 10.5t-42 29t-25.5 43t-8.5 52.5q0 11 4.5 32.5t14.5 42.5t26 36.5t39 15.5q22 0 36.5 -17.5t14.5 -37.5q0 -15 -4.5 -19t-9.5 -4h-8q-5 0 -11.5 -6t-6.5 -30q0 -16 9.5 -26.5t29.5 -10.5q24 0 38 20
t21.5 50.5t9.5 65.5t2 65q0 55 -3 116t-3 118q0 46 5 85t15.5 67.5t25.5 44.5t35 16q11 0 21 -7t10 -18q0 -18 -11 -37t-15 -40q-3 -15 -4 -30.5t-1 -32.5q0 -37 4.5 -78t9.5 -83.5t9.5 -85.5t4.5 -84q0 -21 -1 -41.5t-5 -40.5zM546 301q1 -33 6.5 -65.5t14 -58t19 -41.5
t20.5 -16q4 0 7 3.5t6 8t6 8t9 3.5q10 0 13 -10.5t3 -22.5q0 -13 -1.5 -33t-8 -39t-20 -32.5t-37.5 -13.5q-20 0 -38.5 14.5t-33 45t-23.5 76.5t-9 109q0 89 16.5 139t46.5 50q15 0 25 -23q-8 -11 -15 -38t-7 -62q0 -5 0.5 -0.5t0.5 -1.5zM572 554q0 5 -2 11t-2 11
q0 8 8 14.5t15 6.5q3 0 11.5 -3.5t17.5 -12t16 -22.5t7 -35t-7.5 -36.5t-19 -25.5t-24.5 -15t-25 -5q-27 1 -50 12t-48 22q-36 16 -73.5 39.5t-73.5 45t-68.5 36.5t-58.5 15q-12 0 -25 -4t-24 -12.5t-18.5 -21.5t-7.5 -30q0 -8 5.5 -21t18.5 -13q7 0 10 8.5t8 8.5
q6 0 13.5 -12t7.5 -50q0 -16 -6.5 -29.5t-16 -23.5t-19.5 -16t-16 -6t-24 3.5t-37 19t-33.5 46.5t-14.5 87q0 51 20.5 84t47.5 52t53.5 26t39.5 7q48 0 82.5 -12.5t63.5 -26.5q32 -15 64.5 -37.5t63 -43t58 -35.5t49.5 -15q14 0 14 9zM438 450q-10 23 -25 23
q-20 0 -31.5 -26.5t-19.5 -72.5q-5 -29 -7.5 -62t-3.5 -67.5t0 -69.5t3 -68q1 -23 4 -43t9 -35.5t17 -25.5t29 -11q20 1 30 11.5t12.5 28t-0.5 41t-8 50.5q-5 28 -11.5 59t-11.5 61t-7.5 57.5t-0.5 49.5q0 35 7 62t15 38z" />
    <glyph glyph-name="afii10037" unicode="&#x423;" horiz-adv-x="401"
d="M395 612q0 -9 -1 -19.5t-3 -19.5t-5 -15t-6 -6q-7 0 -12.5 10.5t-11.5 10.5q-10 0 -10 -33q0 -5 0.5 -26t0.5 -50t1 -62t1 -62.5t0.5 -51.5t0.5 -28q0 -7 2 -36.5t0.5 -71t-9 -87.5t-26 -85t-51 -64.5t-83.5 -25.5q-55 0 -85.5 21.5t-44.5 48t-17 51t-3 30.5t2.5 24.5
t9.5 38.5t20 35.5t34 15.5t32.5 -9t16.5 -20t5.5 -22t0.5 -14t-5 -5t-11.5 -4.5t-11.5 -6.5t-5 -11q0 -8 2 -19.5t8.5 -23t18 -19.5t30.5 -8t33 7.5t24 20.5t16.5 29.5t10.5 33.5t5 42.5t1 50t-1 44.5t-1 25q0 21 -11 7q-5 -6 -16 -15t-23.5 -16.5t-25.5 -13t-22 -5.5t-27 6
t-36 23.5t-31 49.5t-13 83t2 85t4.5 55.5t4.5 33.5t2 20q0 16 -6.5 24t-11.5 8q-6 0 -8 -6t-2.5 -13.5t-2 -13.5t-5.5 -6q-2 0 -7.5 1t-11.5 8t-10.5 22t-4.5 42t8 45t19.5 28t23.5 14t20 4t21 -2.5t26 -14.5t22 -36.5t9 -67.5q0 -88 -4.5 -143.5t-4.5 -69.5q0 -7 2 -18
t7 -21.5t13.5 -18t21.5 -7.5q12 0 22.5 7t18.5 17.5t13.5 22.5t8.5 23q3 10 5.5 37t5 57.5t3.5 59t1 42.5q0 13 4.5 35t13.5 42t23 35t34 15q19 0 30 -12t15.5 -28t5.5 -32.5t1 -25.5z" />
    <glyph glyph-name="afii10038" unicode="&#x424;" horiz-adv-x="520"
d="M321 86q2 -26 1.5 -50.5t-0.5 -36.5q0 -8 -0.5 -14.5t-0.5 -12.5q-1 -11 -3.5 -31t-9.5 -44t-18.5 -49t-30 -45.5t-44 -33.5t-60.5 -13q-37 0 -59.5 16t-35 37t-17 42t-4.5 30t4.5 26t12 34.5t17.5 31t21 15.5q27 6 42.5 3.5t22 -8.5t4.5 -14.5t-9 -14.5q-8 -8 -12.5 -15
t-4.5 -23t7.5 -25.5t21.5 -9.5q13 0 25.5 10.5t22.5 28.5t16.5 42t6.5 51q0 13 -2 42l-4 58q-16 -30 -44.5 -48.5t-54.5 -18.5q-24 0 -45 11.5t-37 38.5t-26 71.5t-11 110.5q0 46 8 84t22.5 65t35 41.5t44.5 14.5q16 0 30.5 -3.5t25.5 -12.5q3 -4 15 -13l5 11q-1 32 4 50.5
t12.5 28.5t16 12.5t15.5 2.5q20 0 29.5 -10t9.5 -24q0 -16 -3 -28.5t-3 -32.5v-22t2 -27q11 33 38.5 55.5t58.5 22.5q24 0 45 -11.5t37.5 -38.5t26 -71.5t11.5 -110.5q0 -46 -8 -84t-23 -65t-35 -41.5t-44 -14.5q-22 0 -40.5 6.5t-27.5 23.5zM366 627q0 -7 -4 -18t-10 -21
t-14 -17.5t-15 -7.5t-9.5 6.5t-5 14t-7 14t-14.5 6.5q-18 0 -37.5 -8t-39.5 -17t-42 -17t-44 -8q-23 0 -40.5 8.5t-30 22.5t-19 33t-6.5 39q0 14 4 30.5t12.5 30t21.5 22.5t30 9q10 0 17 -5t11.5 -11t7 -12t2.5 -9q0 -5 -3 -7.5t-6 -4.5t-6 -4.5t-3 -6.5q0 -6 7 -11.5
t13 -5.5q7 0 24.5 6t39 12.5t45.5 12.5t44 6q18 0 32 -7t24 -18.5t15.5 -26t5.5 -30.5zM221 225q-4 31 -6.5 51.5t-4.5 38t-4 33.5t-5 38q-8 6 -17 6t-14 -1q-45 -8 -58.5 -48.5t-8.5 -104.5q2 -25 6 -40.5t10 -24.5q10 -17 26 -20t31.5 3t28.5 19.5t18 31.5q-1 5 -1.5 9
t-0.5 9zM317 141q25 -5 43.5 4.5t30 31.5t16.5 53.5t2 70.5q-2 25 -6.5 40.5t-9.5 24.5q-11 18 -25 22t-27 -1.5t-23 -18.5t-13 -29q-5 -27 -3.5 -51t5 -48t7 -48.5t3.5 -50.5z" />
    <glyph glyph-name="afii10039" unicode="&#x425;" horiz-adv-x="468"
d="M459 662q0 -17 -5.5 -32t-13 -26t-16 -17t-13.5 -6q-17 0 -36.5 6t-29.5 6q-14 0 -25.5 -19t-15.5 -40q-2 -11 -4 -28t-4 -34.5t-3 -32.5t-1 -20q0 -11 3.5 -13.5t10.5 -2.5t16.5 0.5t14.5 0.5t13 -3t7 -12t-2.5 -19t-3.5 -17t-9.5 -15t-12.5 -10t-13.5 -1.5t-11.5 -0.5
t-8.5 -3.5t-5.5 -12.5q0 -5 -0.5 -18t-0.5 -29t1.5 -32t5.5 -28t9.5 -26t13 -26t16.5 -20t20 -8t13.5 4t1.5 9.5t-4 11.5t-3 9q0 7 6.5 10t11.5 3q2 0 10 -4.5t16.5 -14t15.5 -24.5t7 -36t-7.5 -40t-18.5 -33t-25 -22t-26 -8t-26 7.5t-26 18t-22 21.5t-14 19q-9 16 -12 18.5
t-14 -16.5q-5 -9 -13 -21t-18.5 -22.5t-23.5 -17.5t-28 -7t-28 6t-23.5 13.5t-18.5 14t-12 6.5t-6 -6.5t-4 -14t-4.5 -13.5t-6.5 -6q-5 0 -12.5 3t-15.5 11.5t-13.5 23t-5.5 37.5t7 40t17.5 28.5t22.5 17.5t21 6t18 -4t18.5 -9.5t20 -9.5t21.5 -4t18.5 8t12 18.5t6.5 21
t3 14.5t3.5 21.5t5.5 37.5t5.5 37.5t2.5 20.5q1 7 -3.5 13.5t-13.5 5.5t-17 -1.5t-14 0.5t-11 4.5t-5 10.5t3.5 17t6.5 18t8.5 15.5t10.5 9.5t11 2t11 1t9 3.5t6 9.5q1 3 1 17.5t-1 33t-4 37.5t-8 32q-21 50 -44 50q-11 0 -16 -7t-5 -12t10 -12.5t10 -16.5t-14.5 -20.5
t-26.5 -11.5q-6 0 -17 4.5t-22 15t-19 28t-8 43.5t10.5 48t26.5 37.5t34.5 24.5t34.5 9t29 -6.5t23.5 -17t18.5 -22.5t13 -23t8 -14t5.5 -1.5t4.5 6.5t5 10t8 15.5t12.5 21t18.5 18.5t25 8q29 0 48 -9.5t26 -9.5q3 0 4 4t1.5 9.5t2 9.5t5.5 4t12 -2.5t16 -9t14 -17.5t6 -28z
" />
    <glyph glyph-name="afii10040" unicode="&#x426;" horiz-adv-x="493"
d="M390 131q6 0 8.5 5t4 11.5t3 11.5t6.5 5q5 4 23 -16t31 -58q5 -12 6.5 -30.5t1 -38.5t-2.5 -37.5t-5 -27.5q-10 -35 -25 -56.5t-33.5 -32.5t-39 -14.5t-40.5 -3.5q-77 4 -50 -59q-30 1 -46.5 17t-22 38.5t0 47t20 44.5t37 30t51.5 4q20 -5 33 -6.5t21 0t13 6.5t10 13
q13 20 12.5 42.5t-7.5 52.5q3 -30 -13 -53t-36.5 -29t-38.5 10t-21 63q0 12 -1.5 14t-8.5 -14q-3 -8 -12 -23t-21 -30t-26.5 -26.5t-29.5 -11.5t-32 7t-31.5 26t-23 52t-6.5 85q1 48 4.5 107t7.5 111.5t7 90.5t5 45q1 7 0 19t-5 23.5t-10.5 20t-15.5 8.5q-14 0 -16.5 -6.5
t-1.5 -14.5t10 -14.5t9 -16.5t-12 -16t-20 -6q-4 0 -13 4t-18.5 15t-16.5 30t-7 49t10 51t24 34.5t29.5 19.5t27.5 6t29 -4.5t33 -17.5t27.5 -37t11.5 -64q0 -26 -1 -62.5t-3 -76.5t-4 -80.5t-4 -75t-3 -60t-1 -34.5q-1 -29 7 -45.5t24 -16.5t37 25.5t30 79.5q3 18 4.5 48.5
t2.5 67t1 74.5v70.5t0.5 56.5t1.5 31q1 11 3.5 32t9.5 41.5t20 35.5t36 15q22 0 36.5 -11t22 -26.5t10.5 -31.5t3 -25t-1.5 -19.5t-3.5 -19.5t-5 -14.5t-6 -5.5t-6 4t-6 8.5t-6 8.5t-6 4q-6 0 -10 -11.5t-4 -27.5q0 -5 -0.5 -31t-1 -62t-1.5 -77.5t-1.5 -78t-1 -63.5
t-0.5 -34q0 -10 1 -22t3 -22t5.5 -17t9.5 -7z" />
    <glyph glyph-name="afii10041" unicode="&#x427;" horiz-adv-x="576"
d="M321 273q-3 11 -7 13.5t-11 -13.5q-3 -8 -12 -21.5t-21 -27t-26.5 -23.5t-29.5 -10t-32 5.5t-31.5 23t-23 49t-6.5 83.5q0 13 1 35t2 46.5t1.5 50t-2 46t-8 32.5t-15.5 11q-14 -2 -16.5 -7.5t-1.5 -13.5t10 -14.5t9 -16.5t-12 -16t-20 -6q-4 0 -13 4t-18.5 15t-16.5 30
t-7 49t10 51t24 34.5t29.5 19.5t27.5 6q9 0 21 -2t24.5 -8.5t24.5 -18t20 -30.5q14 -33 13 -68t-1 -79q1 -28 1 -55.5t-1 -46.5q-1 -29 12 -47t36 -15q16 2 37.5 26.5t30.5 78.5q3 22 7 49t9.5 55t11.5 54t13 46q3 5 8 15.5t12.5 21t18.5 18.5t25 8q29 0 48 -9.5t26 -9.5
q3 0 4 4t1.5 9.5t2 9.5t5.5 4t12 -2.5t16 -9t14 -17.5t6 -28t-5.5 -32t-13 -26t-16 -17t-13.5 -6q-17 0 -36.5 6t-29.5 6q-16 0 -25.5 -27t-14.5 -68t-6.5 -89.5t-0.5 -91.5t3 -75t3 -39q2 -12 5 -26t8 -26t12.5 -20t18.5 -8t13.5 4t1.5 9.5t-4 11.5t-3 9q0 7 6.5 10t11.5 3
q2 0 10 -4.5t16.5 -14t15.5 -24.5t7 -36t-7.5 -40t-18.5 -33t-25 -22t-26 -8q-50 0 -73.5 28t-34 70.5t-13 92.5t-8.5 95z" />
    <glyph glyph-name="afii10042" unicode="&#x428;" horiz-adv-x="661"
d="M351 715q26 0 43 -11.5t27.5 -27.5t14.5 -32.5t4 -25.5t-1.5 -19.5t-3.5 -19.5t-5 -14.5t-6 -5.5t-5 4t-4 8.5t-4 8.5t-5 4q-6 0 -10 -11.5t-4 -27.5v-27v-54.5t-0.5 -71t-0.5 -75t-0.5 -68t-0.5 -49.5q-1 -29 7 -45.5t24 -16.5t37 25.5t30 79.5q3 18 4.5 48.5t2.5 67
t1 74.5v70.5t0.5 56t1.5 31.5q1 11 3.5 32t9.5 41.5t20 35.5t36 15q22 0 36.5 -11t22 -26.5t10.5 -31.5t3 -25t-1.5 -19.5t-3.5 -19.5t-5 -14.5t-6 -5.5t-6 4t-6 8.5t-6 8.5t-6 4q-6 0 -10 -11.5t-4 -27.5q0 -5 -0.5 -31t-1 -62t-1.5 -77.5t-1.5 -78t-1 -63.5t-0.5 -34
q0 -10 1 -22t3 -22t5.5 -17t9.5 -7t8.5 5t4 11.5t3 11.5t6.5 5t9 -9t6 -23t3 -30t0 -31q-2 -15 -8 -29.5t-14 -26.5t-17.5 -19.5t-17.5 -7.5t-18 3.5t-20 12.5t-19.5 25t-16.5 41q-3 11 -7 13.5t-11 -13.5q-10 -31 -29.5 -55t-60.5 -24q-26 0 -49 15.5t-32 60.5
q-3 11 -7 13.5t-11 -13.5q-3 -8 -12 -21.5t-21 -27t-26.5 -23.5t-29.5 -10t-32 5.5t-31.5 23t-23 49t-6.5 83.5q1 48 3 107t3.5 111.5t3 90.5t3.5 45q1 7 0 19t-5 23.5t-10.5 20t-15.5 8.5q-14 0 -16.5 -6.5t-1.5 -14.5t10 -14.5t9 -16.5t-12 -16t-20 -6q-4 0 -13 4
t-18.5 15t-16.5 30t-7 49t10 51t24 34.5t29.5 19.5t27.5 6t29 -4.5t33 -17.5t27.5 -37t11.5 -64q0 -26 -0.5 -62.5t-1 -76.5t-1 -80.5t-1 -75t-1 -60t-0.5 -34.5q-1 -29 7 -45.5t24 -16.5t37 25.5t30 79.5q4 22 5.5 61.5t2 83.5t0.5 87v73q0 16 -4 27.5t-10 11.5
q-3 0 -4.5 -4t-3 -8.5t-3 -8.5t-4.5 -4t-6 5.5t-5 14.5t-3.5 19.5t-1.5 19.5t4 25.5t13.5 32.5t27 27.5t44.5 11.5z" />
    <glyph glyph-name="afii10043" unicode="&#x429;" horiz-adv-x="710"
d="M606 134q6 0 8.5 5t4 11.5t3 11.5t6.5 5q5 4 23 -16t31 -58q5 -12 6.5 -30.5t1 -38.5t-2.5 -37.5t-5 -27.5q-10 -35 -25 -57.5t-33.5 -35t-39 -16.5t-40.5 -4q-77 4 -50 -59q-30 1 -46.5 17.5t-22 39.5t0 48.5t20 46t37 31.5t51.5 4q20 -5 32.5 -6.5t20 0t11.5 6.5t9 13
q13 20 12.5 42.5t-7.5 52.5q3 -30 -12.5 -53t-35 -29t-37 10t-20.5 63q-3 11 -7 13.5t-11 -13.5q-10 -31 -29.5 -55t-60.5 -24q-26 0 -49 15.5t-32 60.5q-3 11 -7 13.5t-11 -13.5q-3 -8 -12 -21.5t-21 -27t-26.5 -23.5t-29.5 -10t-32 5.5t-31.5 23t-23 49t-6.5 83.5
q1 48 3 107t3.5 111.5t3 90.5t3.5 45q1 7 0 19t-5 23.5t-10.5 20t-15.5 8.5q-14 0 -16.5 -6.5t-1.5 -14.5t10 -14.5t9 -16.5t-12 -16t-20 -6q-4 0 -13 4t-18.5 15t-16.5 30t-7 49t10 51t24 34.5t29.5 19.5t27.5 6t29 -4.5t33 -17.5t27.5 -37t11.5 -64q0 -26 -0.5 -62.5
t-1 -76.5t-1 -80.5t-1 -75t-1 -60t-0.5 -34.5q-1 -29 7 -45.5t24 -16.5t37 25.5t30 79.5q4 22 5.5 61.5t2 83.5t0.5 87v73q0 16 -4 27.5t-10 11.5q-3 0 -4.5 -4t-3 -8.5t-3 -8.5t-4.5 -4t-6 5.5t-5 14.5t-3.5 19.5t-1.5 19.5t4 25.5t13.5 32.5t27 27.5t44.5 11.5
q26 0 43 -11.5t27.5 -27.5t14.5 -32.5t4 -25.5t-1.5 -19.5t-3.5 -19.5t-5 -14.5t-6 -5.5t-5 4t-4 8.5t-4 8.5t-5 4q-6 0 -10 -11.5t-4 -27.5v-27v-54.5t-0.5 -71t-0.5 -75t-0.5 -68t-0.5 -49.5q-1 -29 7 -45.5t24 -16.5t37 25.5t30 79.5q3 18 4.5 48.5t2.5 67t1 74.5v70.5
t0.5 56t1.5 31.5q1 11 3.5 32t9.5 41.5t20 35.5t36 15q22 0 36.5 -11t22 -26.5t10.5 -31.5t3 -25t-1.5 -19.5t-3.5 -19.5t-5 -14.5t-6 -5.5t-6 4t-6 8.5t-6 8.5t-6 4q-6 0 -10 -11.5t-4 -27.5q0 -5 -0.5 -31t-1 -62t-1.5 -77.5t-1.5 -78t-1 -63.5t-0.5 -34q0 -30 5 -50
t22 -18z" />
    <glyph glyph-name="afii10044" unicode="&#x42a;" horiz-adv-x="578"
d="M331 74q23 -1 45.5 9t40.5 29.5t29.5 49t12.5 68.5q2 64 -14.5 100t-30.5 44q-6 3 -11.5 2t-9.5 -4t-5 -7t2 -5q3 -3 6.5 -5t5.5 -5.5t2 -8.5t-6 -13q-11 -16 -30 -24t-38 -4.5t-33.5 20.5t-15.5 52q-1 30 9 50.5t25.5 34t34.5 20t36 6.5t46 -8.5t57 -33t48 -70
t19 -118.5q-1 -54 -10 -92.5t-22.5 -66t-31.5 -46t-37 -30.5q-24 -16 -62 -24t-72 -9q-28 2 -53 9.5t-45 20.5q-30 20 -50 52.5t-30.5 72t-12.5 83t5 86.5q9 59 30.5 130t51.5 133q-21 9 -39.5 15.5t-35.5 5.5q-19 -1 -29 -15t-10 -23q2 -19 10 -19q4 0 5.5 2.5t2.5 5
t2.5 4.5t6.5 2q9 1 12 -6.5t4 -17.5q0 -5 -2.5 -15.5t-9 -22t-17.5 -20.5t-29 -10t-31.5 7.5t-22.5 22t-14.5 30t-6.5 32.5t4 39.5t17 46t32.5 39t50.5 19.5q21 2 39.5 -2t36.5 -11.5t34.5 -17t33.5 -18.5q21 29 44 46t49 19q11 1 27 -2.5t31.5 -12.5t27 -24.5t13.5 -40.5
q1 -25 -6 -44t-18 -32.5t-24.5 -20.5t-25.5 -8q-22 -1 -42.5 3t-40.5 11q-23 -49 -42.5 -110.5t-26.5 -122.5q-5 -42 -2 -81t15 -71t34.5 -53t56.5 -27zM384 622q3 1 5 5.5t1.5 8t-5.5 6t-17 -0.5q-17 -5 -33 -28q12 -2 24 -1t25 10z" />
    <glyph glyph-name="afii10045" unicode="&#x42b;" horiz-adv-x="646"
d="M57 589q-5 0 -6 -5t-7 -5q-8 0 -12.5 7.5t-7 18t-3.5 20.5t-1 16q0 11 3.5 24t10.5 24t17 18t24 7q24 0 40.5 -14.5t27 -37.5t15.5 -51t5 -54v-121v-80q0 -54 -0.5 -102t4.5 -77q1 -12 6.5 -29t14 -32t21 -25.5t27.5 -10.5q21 -1 41 12.5t35.5 37.5t25 57t9.5 72
q0 66 -16 98.5t-28 41.5q-12 8 -19.5 -0.5t-2.5 -13.5t11.5 -11t-2.5 -21t-18.5 -22.5t-16.5 -9.5q-3 -1 -14 0t-22 8.5t-20 24t-9 46.5t8.5 50t22 32t30 17t31.5 5t41.5 -8t52.5 -33t45 -70.5t19 -120.5q0 -95 -20.5 -151.5t-49.5 -86t-60 -38.5t-53 -9q-40 -3 -71.5 6.5
t-54 27.5t-36 43t-19.5 54q-3 19 -4.5 53.5t-1.5 74.5t0.5 81t1.5 73t2 50t2 13v31t-1.5 42t-5.5 37t-12 16zM565 -9q-8 0 -18 3.5t-20.5 12.5t-20.5 25t-17 41q-2 20 -3.5 64.5t-1.5 99.5v114.5t1 110t2 86t2 43.5q1 11 2.5 32t7 41.5t17.5 35.5t35 15q22 0 36.5 -11
t22 -26.5t10.5 -31.5t3 -25t-1.5 -19.5t-3.5 -19.5t-5 -14.5t-6 -5.5t-6 4t-6 8.5t-6 8.5t-6 4q-6 0 -10 -11.5t-4 -27.5q0 -5 -0.5 -31t-1 -62t-1.5 -77.5t-1.5 -78t-1 -63.5t-0.5 -34q0 -10 1 -22t3 -22t5.5 -17t9.5 -7t8.5 5t4 11.5t3 11.5t6.5 5t9 -9t6 -23t3 -30t0 -31
q-2 -15 -8 -29.5t-14 -26.5t-17.5 -19.5t-17.5 -7.5z" />
    <glyph glyph-name="afii10046" unicode="&#x42c;" horiz-adv-x="461"
d="M57 589q-5 0 -6 -5t-7 -5q-8 0 -12.5 7.5t-7 18t-3.5 20.5t-1 16q0 11 3.5 24t10.5 24t17 18t24 7q24 0 40.5 -14.5t27 -37.5t15.5 -51t5 -54v-121v-80q0 -54 -0.5 -102t4.5 -77q1 -12 6.5 -29t14 -32t21 -25.5t27.5 -10.5q21 -1 41 12.5t35.5 37.5t25 57t9.5 72
q0 66 -16 98.5t-28 41.5q-12 8 -19.5 -0.5t-2.5 -13.5t11.5 -11t-2.5 -21t-18.5 -22.5t-16.5 -9.5q-3 -1 -14 0t-22 8.5t-20 24t-9 46.5t8.5 49.5t22 31.5t30 16.5t31.5 4.5t41.5 -8t52.5 -32t45 -69.5t19 -120.5q0 -95 -20.5 -151.5t-49.5 -86t-60 -38.5t-53 -9
q-40 -3 -71.5 6.5t-54 27.5t-36 43t-19.5 54q-3 19 -4.5 53.5t-1.5 74.5t0.5 81t1.5 73t2 50t2 13v31t-1.5 42t-5.5 37t-12 16z" />
    <glyph glyph-name="afii10047" unicode="&#x42d;" horiz-adv-x="432"
d="M183 319q-3 0 -6.5 3.5t-4.5 6.5q-1 20 -1.5 31t4.5 29q5 12 16 12h117q-3 45 -12 82t-24 63t-35.5 40.5t-45.5 14.5q-16 0 -30.5 -11.5t-22 -26.5t-5.5 -30t19 -21q8 -3 10.5 1t4.5 8l2.5 17.5t13.5 9.5q14 -1 21.5 -9t10.5 -19.5t2.5 -23.5t-1.5 -21
q-3 -12 -10.5 -24.5t-19 -22t-26.5 -14.5t-31 -3q-28 5 -47.5 23t-30 42.5t-13 53.5t2.5 56q7 24 21.5 46t34.5 39t44 27t51 10q58 0 98.5 -34t66 -88.5t37.5 -122t12 -133.5q0 -69 -16 -131.5t-46 -109t-74 -74t-100 -27.5q-26 0 -50 10t-43.5 27t-34 39t-21.5 46
q-5 27 -2.5 56t13 53.5t30 42.5t47.5 23q16 2 31 -3t26.5 -14.5t19 -22t10.5 -24.5q1 -9 1.5 -21t-2.5 -23.5t-10.5 -19.5t-21.5 -9q-6 -1 -9 2t-4.5 7.5t-2 9.5t-0.5 8q-2 4 -4.5 8t-10.5 1q-17 -6 -19 -21t5.5 -30t22 -26.5t30.5 -11.5q34 0 59 17.5t41.5 48t25 71
t11.5 87.5h-125z" />
    <glyph glyph-name="afii10048" unicode="&#x42e;" horiz-adv-x="785"
d="M357 640q0 -7 -4 -18t-10 -21t-14 -17.5t-15 -7.5t-9.5 6.5t-5 14t-7 14t-14.5 6.5q-18 0 -37.5 -8t-39.5 -17t-42 -17t-44 -8q-45 0 -70.5 27.5t-25.5 68.5q0 32 14 55.5t43 34.5q10 4 21.5 0.5t17.5 -12.5q10 -14 10 -21t-4 -10.5t-9 -6t-5 -8.5t7 -11.5t13 -5.5
q7 0 24.5 6t39 12.5t45.5 12.5t44 6q35 0 56 -21.5t21 -53.5zM369 296q0 14 -2 18.5t-16 4.5h-22q-16 0 -22 -6.5t-6 -21.5q3 -23 5 -55.5t2 -57.5q0 -33 -12 -65t-34 -57t-53 -40t-69 -15q-30 0 -54 14t-41 36t-26 48.5t-9 52.5q0 15 4.5 34.5t13.5 36.5t23 29t34 12
q13 0 24 -6t19 -15.5t12 -21t4 -22.5q0 -8 -7 -7.5t-17 -2.5q-8 -3 -11 -12t-3 -17q0 -18 13 -34t33 -16q23 0 36.5 14.5t20.5 34.5t9 42t2 36q0 54 -8.5 106t-8.5 106q0 13 1.5 37t7.5 48t17.5 41.5t31.5 17.5q8 0 16.5 -3.5t11.5 -14.5q3 -9 -1 -19t-4 -20q0 -26 1.5 -46
t3.5 -42q0 -9 2.5 -19t16.5 -10h43q10 0 13.5 6t4.5 15q4 47 19.5 96.5t43.5 90t69 66.5t96 26q19 0 39.5 -6.5t37.5 -18.5t28 -28.5t11 -36.5q0 -22 -4.5 -35t-11.5 -20t-15 -9.5t-14 -2.5q-17 0 -32.5 7.5t-15.5 22.5q0 11 -8.5 19t-23.5 8q-33 0 -57.5 -20t-41.5 -53.5
t-25.5 -79t-8.5 -96.5q0 -115 27 -178.5t78 -63.5q54 0 80.5 47t26.5 125q0 66 -15 98.5t-27 41.5q-12 8 -19.5 -0.5t-2.5 -13.5t11.5 -11t-2.5 -21t-18.5 -22.5t-16.5 -9.5q-3 -1 -14 0t-22 8.5t-20 24t-9 46.5t8.5 52t22 36t30 21t31.5 7t41.5 -10t52.5 -37t45 -74.5
t19 -122.5q0 -95 -23.5 -156t-56 -96.5t-66.5 -49t-56 -13.5q-46 0 -80.5 25.5t-58 67.5t-36.5 95.5t-16 109.5z" />
    <glyph glyph-name="afii10049" unicode="&#x42f;" horiz-adv-x="490"
d="M107 -225q-62 0 -95.5 34.5t-36.5 84.5q-1 8 1.5 27t10.5 38.5t22.5 34t37.5 14.5q27 0 40 -19.5t15 -39.5q1 -6 0.5 -11t-6.5 -5q-2 0 -6.5 0.5t-9.5 0.5q-11 -1 -14.5 -13t-2.5 -20q1 -17 13 -24.5t32 1.5q11 7 17.5 18.5t10.5 25t5.5 27t3.5 23.5q7 47 3.5 95t3.5 94
q1 7 3 19.5t5.5 26.5t9 27.5t12.5 23.5q-36 13 -67 36t-52.5 54.5t-31 71.5t-3.5 86q17 101 81.5 161t172.5 60q39 0 72 -13.5t57.5 -37.5t39.5 -57t17 -73q4 -44 -13 -76t-45.5 -51.5t-63 -26t-64.5 1.5t-51 30.5t-23 61.5q-1 18 4 34.5t14 30t22 21.5t29 8
q19 0 34.5 -14.5t15.5 -29.5q0 -10 -6.5 -17.5t-6.5 -17.5q0 -11 4.5 -18.5t12.5 -7.5q30 0 42.5 22.5t12.5 48.5q-1 17 -8.5 33.5t-20.5 29.5t-30 21.5t-36 8.5q-26 0 -52.5 -7.5t-49 -22.5t-40 -37t-26.5 -50q-10 -44 -1 -80.5t31.5 -62.5t55 -40.5t69.5 -12.5q3 0 6 0.5
t6 0.5q0 12 0.5 18t7.5 11q11 8 31 17t31 14q8 3 9 -4q0 -1 0.5 -14.5t0.5 -29.5t-0.5 -29.5t-0.5 -14.5q-1 -28 0 -47t1 -25q0 -10 1 -24.5t3 -27.5t5.5 -22t9.5 -9t8.5 5t4 11.5t3 11.5t6.5 5q4 0 7.5 -7t6 -17.5t4 -24.5t1.5 -27q0 -16 -5 -33.5t-13.5 -32.5t-19 -24.5
t-20.5 -9.5q-8 0 -19 3.5t-22 12.5t-21.5 25t-17.5 41q-2 21 -3 65.5t-1 101.5q-7 -1 -6 -1.5t-6 -0.5q-17 0 -25.5 -22t-12 -56t-3 -75t1.5 -79t0.5 -68t-5.5 -42q-3 -22 -13.5 -43.5t-26.5 -39.5t-37.5 -29.5t-47.5 -14.5z" />
    <glyph glyph-name="afii10065" unicode="&#x430;" horiz-adv-x="330"
d="M321 97q0 -8 -1 -25.5t-7 -36t-19 -32.5t-37 -14q-17 0 -28 6t-17.5 13.5t-9 14t-3.5 8.5q-1 4 -4 8t-11 -5q-4 -5 -11 -12.5t-17 -14.5t-22.5 -12.5t-27.5 -5.5q-17 0 -33.5 8.5t-29 24t-20.5 37t-8 48.5q0 56 22 98.5t70 71.5q24 14 37 20.5t20 8.5t9.5 2t4.5 1
q5 2 8.5 5t3.5 10q0 3 -0.5 9.5t-0.5 13t-0.5 12.5t-0.5 9q0 5 -7.5 16t-18.5 11q-20 0 -34 -26q-8 -14 -11.5 -20.5t-7.5 -11.5t-11.5 -10.5t-20.5 -5.5q-14 0 -25.5 13.5t-11.5 35.5q0 11 5 31.5t19.5 41t39.5 36t65 15.5q10 0 28.5 -3t36.5 -15t31.5 -35t13.5 -62v-81
t0.5 -77t0.5 -59.5v-28.5q0 -8 4 -17t12 -9t16.5 2t8.5 -12zM191 220q0 6 -3 10.5t-17 -0.5q-21 -8 -33.5 -20t-19.5 -24.5t-9 -23.5t-2 -15q0 -5 0.5 -12t3 -14.5t8 -12.5t14.5 -5t17.5 5t15 11t11.5 12t7 8q5 5 6 10t1 10v61z" />
    <glyph glyph-name="afii10066" unicode="&#x431;" horiz-adv-x="287"
d="M273 248q0 -81 -14.5 -132t-35.5 -79.5t-44 -38.5t-41 -10q-15 0 -32.5 6t-34.5 23t-31 48.5t-21 82.5v28.5v38t0.5 36.5t1.5 25q5 63 18.5 99t31 54.5t35 23.5t30.5 5q10 -2 24 -6q-5 10 -14.5 19.5t-25.5 23.5q-29 24 -41 60t-7 70t28 60.5t63 32.5q5 1 9.5 1h9.5
q10 0 14.5 6.5t7 14t5 14t9.5 6.5t15 -7.5t14 -17.5t10 -21t4 -18q0 -29 -9.5 -46t-25 -26t-34 -11.5t-36.5 -0.5q-3 0 -4 -3.5t-2 -7.5q-2 -13 2.5 -23t12.5 -19t18.5 -18.5t21.5 -20.5q18 -20 31 -39.5t21.5 -44.5t12 -57.5t3.5 -78.5v-52zM182 233v19.5t-0.5 28.5
t-0.5 28.5v18.5q0 15 -11.5 30t-31.5 13q-22 0 -29 -27t-8 -64v-25v-35v-34.5v-24.5q1 -37 11 -52.5t33 -15.5q9 0 15 6t9.5 14t5.5 16t2 13q2 19 3.5 43t1.5 48z" />
    <glyph glyph-name="afii10067" unicode="&#x432;" horiz-adv-x="293"
d="M100 244v-30.5v-28.5t0.5 -22t0.5 -11q1 -4 3 -10.5t6 -13t10.5 -11.5t16.5 -5t16.5 5.5t11 13t6.5 14.5t3 11q2 6 2.5 33t0.5 56v25.5v39t-0.5 38t-0.5 22.5q-3 30 -13 41.5t-26 11.5q-8 0 -14.5 -5.5t-11 -13t-7.5 -15t-3 -11.5v-19t-0.5 -39t-0.5 -43.5v-32.5z
M272 352v-105q-3 -73 -19.5 -122t-39 -78.5t-46.5 -42.5t-41 -14q-7 0 -23 1t-33 9.5t-32 27t-19 53.5v161l1 368q3 45 28.5 65.5t55.5 24.5t57.5 -5t35.5 -23q12 -12 18 -34.5t3.5 -48t-14.5 -52t-37 -45.5q16 4 33.5 0.5t32.5 -19t25.5 -45t13.5 -76.5zM92 501
q20 15 32 35t15.5 38.5t-1.5 33t-19 17.5q-26 0 -26 -35z" />
    <glyph glyph-name="afii10068" unicode="&#x433;" horiz-adv-x="298"
d="M109 290q21 10 34 18.5t19.5 16t8.5 15.5t2 18q0 4 -1 11t-4 13.5t-7.5 11t-11.5 4.5q-11 0 -21 -12t-20.5 -26.5t-22.5 -26.5t-25 -12q-17 0 -30 12t-13 50q0 27 13 48.5t31.5 36.5t38 22.5t32.5 7.5q40 0 65.5 -17.5t39.5 -41t19 -47.5t5 -36q0 -27 -4.5 -48t-16 -38
t-30 -31.5t-45.5 -28.5q-21 -11 -34.5 -19t-21 -15.5t-10.5 -17t-3 -22.5q0 -17 8.5 -26t17.5 -9q7 0 14 5q4 3 13.5 11t21.5 16.5t25.5 15.5t25.5 7q16 0 27.5 -9t18 -21t9.5 -24t3 -19q0 -20 -5.5 -34.5t-12.5 -23.5t-13.5 -13.5t-8.5 -4.5q-5 0 -7 4.5t-3 10t-2.5 10
t-5.5 4.5t-7 -1.5t-6 -3.5t-9.5 -8.5t-17.5 -14t-25.5 -13.5t-32.5 -6q-32 0 -54 16.5t-35 39t-18.5 47t-5.5 39.5q0 19 2.5 40t12.5 42t29.5 41t53.5 36z" />
    <glyph glyph-name="afii10069" unicode="&#x434;" horiz-adv-x="280"
d="M100 270v-23v-31.5v-31.5v-23q1 -37 11 -52.5t33 -15.5q9 0 15 6t9.5 14t5.5 16t2 13q1 20 1.5 45t0 51.5t-1 52.5t-0.5 47q0 7 -2.5 16t-7 16.5t-12 12t-17.5 3.5q-11 0 -18 -11t-11 -28.5t-6 -38t-2 -38.5zM166 463q0 18 -2.5 36t-6.5 33.5t-8 28.5t-7 20
q-12 23 -29.5 30.5t-34 3t-28.5 -18.5t-13 -34q-17 12 -22 35.5t0.5 47t21.5 42.5t41 23q24 3 41.5 0.5t30 -9t22 -17t18.5 -23.5q20 -31 33.5 -78.5t22 -97.5t12 -96t3.5 -74q1 -99 -8.5 -162.5t-26.5 -99.5t-40 -50t-49 -15q-15 0 -32.5 5.5t-34.5 23t-31 49t-21 82.5
v31.5v42.5t0.5 41.5t1.5 28.5q5 62 18.5 98t31 54.5t35 23.5t30.5 5q5 -1 14.5 -4.5t16.5 -5.5z" />
    <glyph glyph-name="afii10070" unicode="&#x435;" horiz-adv-x="277"
d="M259 335q0 -72 -25.5 -115t-62.5 -43q-13 0 -27 3.5t-19 7.5q-10 9 -9 -6q1 -4 4 -17t9.5 -27.5t16.5 -25.5t24 -11q15 0 24 7.5t14.5 16.5t7.5 17.5t3 10.5q1 1 2.5 4t3.5 5t4 2t5 -5t5.5 -8t4.5 -9t3.5 -18.5t1.5 -35.5t-10 -41.5t-25 -31.5t-33 -20t-33 -7t-37 9.5
t-42 39.5t-34.5 85t-14.5 145q0 49 7.5 91t22.5 72.5t38.5 47.5t55.5 17q7 0 26 -3.5t38.5 -19.5t35 -48t15.5 -89zM176 336q0 29 -9 44.5t-23 15.5t-23 -15t-9 -47q0 -31 8.5 -51t22.5 -20t23.5 22t9.5 51z" />
    <glyph glyph-name="afii10072" unicode="&#x436;" horiz-adv-x="480"
d="M275 391q0 -37 0.5 -54.5t2 -24t4 -5.5t5.5 1t10.5 4.5t16.5 10.5t17.5 12.5t12.5 10.5q3 3 6 12t3 18q0 14 -6 17.5t-13 4.5t-13 3t-6 13q0 5 4.5 18.5t13.5 28t22 25.5t31 11t30.5 -10t21 -24t12.5 -31t4 -30q0 -28 -12.5 -57.5t-44.5 -65.5q-5 -8 -7.5 -11t-2.5 -7
q0 -2 0.5 -3.5l1.5 -4.5q3 -16 8 -39t11.5 -44t13.5 -36t14 -15q4 0 8.5 5t9.5 5q6 0 9 -13q1 -4 1 -11v-16q0 -14 -2 -31.5t-8 -32.5t-16.5 -25.5t-28.5 -10.5q-15 0 -28.5 13.5t-24 34.5t-19 46t-15 47.5t-10 40t-4.5 23.5q-6 16 -16 16q-11 0 -13 -13.5t-2 -27.5
q0 -23 1 -38.5t9 -15.5q5 0 9.5 2t6.5 2q3 0 5 -5t2 -20q0 -12 -3.5 -30t-12 -34.5t-22.5 -28.5t-35 -12t-34 12t-20.5 28.5t-10 34.5t-2.5 30q0 15 2 20t5 5q2 0 6.5 -2t9.5 -2q8 0 9 15.5t1 38.5q0 14 -2 27.5t-13 13.5q-10 0 -16 -16q-1 -6 -4.5 -23.5t-10 -40t-15 -47.5
t-19 -46t-24 -34.5t-28.5 -13.5q-18 0 -28.5 10.5t-16.5 25.5t-8 32.5t-2 31.5v16t1 11q3 13 9 13q5 0 9.5 -5t8.5 -5q7 0 14 15t13.5 36t11.5 44t8 39l1.5 4.5t0.5 3.5q0 4 -2.5 7t-7.5 11q-32 36 -44.5 65.5t-12.5 57.5q0 13 4 30t12.5 31t21 24t30.5 10t31 -11t22 -25.5
t13.5 -28t4.5 -18.5q0 -11 -6 -13t-13 -3t-13 -4.5t-6 -17.5q0 -9 3 -18t6 -12q4 -4 12.5 -10.5t17.5 -12.5t16.5 -10.5t10.5 -4.5t5.5 -1t4 5.5t2 24t0.5 54.5q-4 0 -11.5 -3t-9.5 -3t-4 1.5t-2 15.5q0 11 2.5 27t9 31t18 26t29.5 11t30.5 -11t20 -26t10.5 -31t3 -27
q0 -14 -2 -15.5t-4 -1.5t-9 3t-11 3z" />
    <glyph glyph-name="afii10073" unicode="&#x437;" horiz-adv-x="306"
d="M111 284q31 4 48 14.5t24 22.5t8 22.5t1 14.5t-1 11t-4 13.5t-7.5 11t-11.5 4.5q-14 0 -25.5 -13t-25.5 -38q-8 -15 -18 -20.5t-21 -5.5q-17 0 -29.5 12.5t-12.5 49.5q0 27 13 48.5t31.5 36.5t38 22.5t32.5 7.5q40 0 65.5 -17.5t39.5 -41t19 -47.5t5 -36q0 -34 -16 -62.5
t-51 -40.5q44 -23 62 -57t18 -65q0 -15 -5.5 -39.5t-18.5 -47t-35 -39t-54 -16.5q-18 0 -34 6t-28 13.5t-20 14t-11 8.5t-6 3.5t-7 1.5t-5.5 -4.5t-2.5 -10t-3 -10t-7 -4.5q-2 0 -8.5 4.5t-13.5 13.5t-12.5 23.5t-5.5 34.5q0 7 3 19t9.5 24t17.5 21t28 9q12 0 27 -7
t28.5 -15.5t24 -16.5t14.5 -11q7 -5 14 -5q9 0 17.5 8t8.5 29q0 12 -4 25t-14 23.5t-28.5 17.5t-46.5 7q-14 0 -19.5 14t-5.5 31q0 11 5 19.5t16 8.5z" />
    <glyph glyph-name="afii10074" unicode="&#x438;" horiz-adv-x="344"
d="M333 107q0 -9 -2 -28.5t-8 -40t-18.5 -35.5t-33.5 -15q-15 0 -25.5 8.5t-17 19t-9.5 20.5t-4 14t-2 8.5t-3 6.5t-6.5 -1t-11.5 -13t-16.5 -21t-20.5 -20.5t-22.5 -15.5t-23.5 -6q-23 0 -39.5 26.5t-18.5 69.5v38v52.5v57.5v53v40.5v19.5q0 4 -0.5 9t-2.5 9t-5.5 6
t-8.5 -1q-11 -6 -15 -0.5t-2 13.5q0 4 1.5 22t8 38.5t19.5 36.5t37 16q23 0 40.5 -21t17.5 -79v-69.5t-0.5 -78t-0.5 -66.5v-35t2 -15.5t7 -15.5t13 -6t21 14q13 13 19 24t8.5 19.5t2.5 15v11.5t-0.5 29.5t-0.5 52.5t-0.5 52t-0.5 28q0 8 -3 15t-15 2q-6 -2 -9 -0.5t-4 4.5
t-1 6.5v5.5t1 19t7 37t18.5 36t35.5 16t35 -16t17.5 -36.5t6.5 -39t1 -22.5v-240q0 -30 15 -25q4 1 7 3.5t5 2.5t3.5 -3t1.5 -12z" />
    <glyph glyph-name="afii10075" unicode="&#x439;" horiz-adv-x="344"
d="M333 107q0 -9 -2 -28.5t-8 -40t-18.5 -35.5t-33.5 -15q-23 0 -34 12t-16.5 27t-7.5 27t-6 12q-3 0 -13 -12t-23.5 -27t-29.5 -27t-32 -12q-23 0 -39.5 26.5t-18.5 69.5v261q0 6 -2 15.5t-10 9.5q-3 0 -7.5 -2.5t-7.5 -2.5q-8 0 -8 10q0 4 1 6q0 4 1.5 22t8 38.5
t19.5 36.5t37 16q23 0 40.5 -21t17.5 -79v-69.5t-0.5 -78t-0.5 -66.5v-35q0 -9 4.5 -23t15.5 -14q9 0 23 14q20 21 25 36t5 26v8v52t-0.5 59.5t-3 49t-8.5 20.5q-2 0 -6.5 -1.5t-7.5 -1.5q-7 0 -7.5 6.5t-0.5 10.5q0 2 1 19t7 37t18.5 36t35.5 16q22 0 34.5 -16t18 -36.5
t6.5 -39t1 -22.5v-240q0 -26 11 -26q5 0 9.5 3.5t7.5 3.5q4 0 4 -15zM119 692q15 0 24 -8t14 -17.5t8.5 -17.5t6.5 -8q13 0 18 7.5t9 16.5t9.5 16.5t19.5 7.5q25 0 25 -29q0 -42 -30.5 -67.5t-75.5 -25.5q-37 0 -61 19t-24 48q0 22 15.5 40t41.5 18z" />
    <glyph glyph-name="afii10076" unicode="&#x43a;" horiz-adv-x="342"
d="M328 115q1 -4 1 -11v-16q0 -14 -2 -31.5t-8 -32.5t-16.5 -25.5t-28.5 -10.5q-15 0 -28.5 13.5t-24 34.5t-19 46t-15 47.5t-10 40t-4.5 23.5q-6 16 -16 16q-11 0 -13 -13.5t-2 -27.5q0 -23 1 -38.5t9 -15.5q5 0 9.5 2t6.5 2q3 0 5 -5t2 -20q0 -12 -2.5 -30t-10 -34.5
t-20.5 -28.5t-34 -12q-20 0 -31 13t-17 30t-7.5 34t-1.5 26v25.5v48t0.5 58.5t0.5 57.5v45.5v22q0 8 -2.5 18t-9.5 10q-3 0 -8.5 -3t-8.5 -3q-5 0 -6.5 7.5t-1.5 12.5q0 9 2.5 27t10 36t20.5 31.5t35 13.5q7 0 16.5 -4.5t18.5 -15.5t15.5 -29.5t7.5 -45.5q0 -37 0.5 -56.5
t1.5 -28.5t3.5 -10t5.5 -1q2 0 9.5 4.5t16.5 10.5t18 12.5t13 10.5q3 3 6 12t3 18q0 14 -6 17.5t-13 4.5t-13 3t-6 13q0 5 4.5 18.5t13.5 28t22 25.5t31 11t30.5 -10t21 -24t12.5 -31t4 -30q0 -28 -12.5 -57.5t-44.5 -65.5q-5 -8 -7.5 -11t-2.5 -7q0 -2 0.5 -3.5l1.5 -4.5
q4 -15 9 -38t11 -44.5t12.5 -36.5t14.5 -15q4 0 8.5 5t9.5 5q6 0 9 -13z" />
    <glyph glyph-name="afii10077" unicode="&#x43b;" horiz-adv-x="359"
d="M64 162q4 66 9.5 115.5t13 85t18 59t24.5 37.5q16 17 37 26.5t42 8.5q31 -2 54 -20t23 -45q0 -17 -6.5 -23t-17.5 -7.5t-24.5 -2.5t-26.5 -7t-25.5 -20.5t-20.5 -43.5q0 -2 -1.5 -19t-4 -46.5t-6.5 -69t-9 -86.5q-1 -7 -6 -25.5t-15 -37.5t-24.5 -33.5t-33.5 -14.5
q-18 0 -29 9.5t-17.5 23.5t-8.5 30t-2 29q0 23 3 31t7 8q6 0 12 -2.5t12 -3.5q5 0 12 7t11 37zM224 71q-8 54 -10 111t-4 105q1 10 1 28t4.5 36t15 31t32.5 13q15 0 24.5 -7.5t15 -19t7.5 -24t2 -22.5q0 -13 -1.5 -17t-3.5 -4q-3 0 -2.5 6.5t-4.5 6.5t-7.5 -6.5t-2.5 -25.5
q0 -27 1 -56t4 -52t8 -38t12 -15q4 0 8.5 2.5t7.5 2.5q6 0 8.5 -9.5t2.5 -32.5q0 -13 -2.5 -28t-8.5 -28t-16.5 -22t-26.5 -9q-8 0 -17 2.5t-18 10t-17 22.5t-12 39z" />
    <glyph glyph-name="afii10078" unicode="&#x43c;" horiz-adv-x="502"
d="M347 67q-8 51 -10 105t-4 99q1 9 1 26.5t4.5 34t15 29t32.5 12.5q15 0 24.5 -7t15 -17.5t7.5 -22.5t2 -22q0 -20 -5 -20q-3 0 -2.5 6.5t-4.5 6.5t-7.5 -6t-2.5 -24q0 -26 1 -53t4 -49.5t8 -36.5t12 -14q4 0 8.5 2.5t7.5 2.5q6 0 8.5 -9t2.5 -31q0 -12 -2.5 -26.5
t-8.5 -26.5t-16.5 -20.5t-26.5 -8.5q-7 0 -16.5 2.5t-18.5 10t-17 21t-12 36.5zM254 -1q-15 0 -25 12.5t-16.5 31t-9.5 41.5t-3 44q0 7 1.5 26.5t3.5 40t3.5 37t1.5 18.5v2q0 2 -1 3t-3 9q0 11 -10 33.5t-25 44.5t-33 38.5t-35 16.5q-22 0 -35 -32q0 -1 0.5 -1.5t0.5 -1.5
q0 -2 -2 -2q3 0 -4.5 2t-17 9.5t-18 21t-8.5 36.5q0 11 7 23t19 22.5t28.5 17.5t35.5 7q16 0 34 -6.5t36 -20.5q22 -18 34 -36.5t19 -33.5t10.5 -24.5t8.5 -9.5h1h1q3 0 7 8q3 7 13.5 27.5t28 42t41 38t52.5 16.5q21 0 37.5 -7.5t28 -19t18 -24.5t6.5 -23q-2 -21 -10 -34
t-16.5 -19.5t-15 -9l-6.5 -2.5q-2 0 -2 3v1q0 1 1 2q-13 31 -35 31q-17 0 -35 -15.5t-33 -36.5t-25 -43t-10 -35q0 -9 -2 -11t-2 -4v-3q0 -2 1.5 -18.5t3.5 -37t3.5 -40t1.5 -26.5q0 -21 -3 -44t-9.5 -41.5t-16.5 -31t-25 -12.5h4zM159 62q-5 -23 -12.5 -36.5t-16.5 -21
t-18 -10t-17 -2.5q-16 0 -26.5 8.5t-16.5 20.5t-8.5 26.5t-2.5 26.5q0 22 2.5 31t8.5 9q3 0 7.5 -2.5t8.5 -2.5q7 0 12 14t8 36.5t4 49.5t1 53q0 18 -3 24t-8 6q-4 0 -3.5 -6.5t-2.5 -6.5q-5 0 -5 20q0 10 2 22t7.5 22.5t15 17.5t24.5 7q22 0 32.5 -12.5t15 -29t4.5 -34
t1 -26.5q-2 -45 -4 -99t-10 -105z" />
    <glyph glyph-name="afii10079" unicode="&#x43d;" horiz-adv-x="371"
d="M227 316q1 22 0 33t-3 15.5t-4.5 4t-5.5 -1.5q-6 -3 -13 -1t-6 12q1 4 2 23t6.5 40t17.5 38t35 17q7 0 18.5 -3.5t22 -14.5t18 -31.5t7.5 -54.5t-0.5 -75t-1.5 -77.5t-1.5 -63.5t-0.5 -33q0 -12 5 -20t13 -3t11.5 6t3.5 -16q0 -9 -2 -29t-8 -40t-18 -35.5t-32 -15.5
t-32.5 13t-19.5 31.5t-9.5 38.5t-2.5 34v16.5v17.5v24.5v37.5q1 10 0 15t-4.5 7t-10.5 2h-18h-29q-9 -1 -15 -1.5t-9.5 -2.5t-4.5 -7.5t0 -15.5q-1 -20 -1.5 -37t-0.5 -21q0 -12 5 -20t13 -3t11.5 6t3.5 -16q0 -9 -2 -29t-8 -40t-18 -35.5t-32 -15.5t-32.5 13t-19.5 31.5
t-9.5 38.5t-2.5 34v30t0.5 45t0.5 52t0.5 50t0.5 40v21q1 14 -4 19.5t-11 2.5t-13 -1t-6 12q1 4 2 23t6.5 40t17.5 38t35 17q7 0 18.5 -3.5t22 -14.5t18 -31.5t7.5 -54.5q0 -15 -1 -35t-1 -37q-2 -21 4 -23.5t25 -3.5h29h18t10.5 2t4.5 6.5t0 15.5z" />
    <glyph glyph-name="afii10080" unicode="&#x43e;" horiz-adv-x="287"
d="M273 248q0 -81 -14.5 -132t-35.5 -79.5t-44 -38.5t-41 -10t-39.5 9t-40.5 36t-32 78t-13 135t15.5 133.5t37 75t44 33t37.5 7.5q16 0 38 -8.5t41.5 -34.5t33 -74.5t13.5 -129.5zM177 336q0 32 -9.5 47t-23.5 15q-11 0 -17.5 -6.5t-10 -16t-5 -20t-2.5 -18.5t-1.5 -35
t-0.5 -58.5t0.5 -60.5t0.5 -40q0 -23 9.5 -36.5t27.5 -13.5q9 0 15 6t9.5 14t5.5 16t2 13v194z" />
    <glyph glyph-name="afii10081" unicode="&#x43f;" horiz-adv-x="346"
d="M333 102q0 -6 -1 -24.5t-7 -38t-19 -35t-36 -15.5q-14 0 -25.5 5.5t-19.5 19.5t-12.5 37.5t-4.5 58.5v232q0 4 -1 12t-4 13t-9 6t-16 -8q-9 -9 -15 -14.5t-10 -11t-5.5 -12t-2.5 -18.5q-1 -11 -1 -36v-51.5v-49.5v-30q0 -32 15 -22q4 2 7.5 4t6.5 2t4.5 -4t1.5 -14
t-1.5 -29.5t-8.5 -39.5t-20 -35t-35 -15q-23 0 -35 14.5t-17.5 34t-6.5 39.5t-1 30v210q0 7 -0.5 17t-2 18.5t-5 13t-10.5 1.5q-14 -6 -15.5 2t-1.5 15q0 3 1 21t7.5 38t19.5 36t37 16q14 0 31 -9.5t26 -43.5q3 -10 6 -11.5t11 5.5q4 4 12.5 13.5t20 19.5t26 18t29.5 8
t25.5 -8.5t17 -20.5t9 -25.5t2.5 -23.5v-29t-0.5 -51.5t-1 -63t-1 -62.5t-0.5 -50.5v-26.5q0 -16 6.5 -20.5t14.5 -0.5q7 3 11 1.5t4 -12.5z" />
    <glyph glyph-name="afii10082" unicode="&#x440;" horiz-adv-x="324"
d="M310 260q0 -81 -10 -133.5t-25 -83.5t-32 -43t-32 -12q-30 0 -41.5 10t-16.5 14q-2 2 -4.5 4t-4.5 1.5t-3.5 -4.5t-1.5 -13q0 -19 -1 -33.5t1 -25.5q1 -11 5.5 -18.5t9.5 -2.5q3 2 7 3.5t8 1t6.5 -4t1.5 -11.5t-3.5 -26.5t-9 -37t-19 -32.5t-33.5 -14t-33 16t-17.5 37
t-6.5 41t-1 27v413q0 7 -1 14.5t-3.5 13.5t-6.5 8.5t-10 -0.5q-13 -6 -15.5 -1t-2.5 14q0 4 1 22t7 38t19 36t37 16q23 0 33.5 -10.5t14.5 -19.5q5 -8 9 -10t12 7q8 10 25 22.5t34 12.5q8 0 25 -6.5t34.5 -30.5t30.5 -71t13 -128zM216 317q-1 29 -8 45.5t-27 16.5
q-10 0 -16.5 -7t-11 -17t-7 -20t-3.5 -16t-1.5 -29t-1 -49.5t0 -51t0.5 -34.5q1 -20 15.5 -33t21.5 -13q8 0 18 8.5t17 34.5q3 13 4 35t1 46t-1 46.5t-1 37.5z" />
    <glyph glyph-name="afii10083" unicode="&#x441;" horiz-adv-x="275"
d="M264 370q0 -27 -6.5 -45.5t-15.5 -29.5t-18.5 -15.5t-15.5 -4.5t-14.5 4t-16 11.5t-13 19.5t-5.5 28q0 4 3.5 8t8 8.5t8.5 9t4 8.5q0 9 -2.5 19.5t-19.5 10.5t-33.5 -42t-16.5 -116t18 -113t40 -39q11 0 19.5 7t14.5 16.5t9 19t3 14.5q0 10 7.5 15.5t15.5 -8.5
q7 -15 10.5 -27.5t3.5 -25.5q0 -7 -4.5 -25.5t-16 -38.5t-30.5 -35.5t-49 -15.5q-60 0 -96 61.5t-36 192.5q0 65 12 113t32.5 79t46.5 46t54 15q18 0 35.5 -9t31.5 -25.5t23 -39.5t9 -51z" />
    <glyph glyph-name="afii10084" unicode="&#x442;" horiz-adv-x="524"
d="M510 107q0 -5 -1 -24t-7 -40t-18.5 -38t-34.5 -17q-17 0 -29.5 9t-20.5 24t-12 35.5t-4 43.5t-1 60.5l-2 75t-2 68t-1 39.5t-2 19t-6 16t-11.5 6t-17.5 -10q-22 -19 -27 -31t-5 -29q0 -14 -0.5 -41t-0.5 -54.5t-0.5 -49.5t-0.5 -27q0 -11 5.5 -19t14.5 -3t14 0.5t5 -12.5
q0 -5 -1.5 -24t-7.5 -40.5t-19 -38.5t-36 -17t-36.5 17t-20.5 40t-9 46t-2 35v42t-0.5 64.5t-0.5 61v33.5t-1 16.5t-5 19.5t-11.5 11.5t-19.5 -8.5t-18 -19t-8.5 -14t-2.5 -10.5v-7.5v-169q0 -3 0.5 -9t2.5 -11.5t6 -8t10 1.5q8 5 14 6.5t7 -13.5q0 -8 -1 -28t-7 -41.5
t-20 -38t-39 -16.5q-20 0 -32 12t-19 31.5t-9.5 43.5t-2.5 49q0 24 -0.5 60t-0.5 70.5t-0.5 60t-0.5 30.5q0 9 -4.5 17t-14.5 3q-22 -8 -19 16q0 6 2 24.5t9 38.5t20 35.5t36 15.5q26 0 37.5 -13.5t20.5 -36.5q3 -8 5.5 -10t4.5 -1t4 3t4 3q1 1 10.5 10t22.5 19t27 18t26 8
q23 0 34.5 -9.5t22.5 -42.5q2 -7 7.5 -7.5t10.5 4.5q3 2 11 11t20 18.5t26 17.5t28 8q29 0 46 -24t17 -68v-38.5t0.5 -50.5t1 -54.5t1 -51t0.5 -40v-20.5q0 -6 0.5 -12.5t2.5 -11t6 -6.5t10 2q13 8 16.5 2t3.5 -15z" />
    <glyph glyph-name="afii10085" unicode="&#x443;" horiz-adv-x="331"
d="M325 -93q0 -17 -7.5 -36t-20.5 -35t-29 -26.5t-34 -10.5t-36 5t-33 11.5t-26.5 13t-16.5 9.5q-11 6 -20 3t-9 -17q0 -6 -3 -12.5t-8 -9.5t-12 -1.5t-14 10.5t-11 20t-6 21t-2.5 17.5t-0.5 10.5t2.5 15t9 25.5t18.5 24.5t31 11t38.5 -6t35 -13.5t27 -14.5t15.5 -9
q4 -3 10 -2.5t11 3.5t8 8.5t0 12.5t-8 19.5t-10.5 25.5t-9.5 24.5t-4 17.5v14.5t-1.5 14t-5.5 5.5t-14 -12q-20 -23 -42 -39.5t-37 -16.5q-8 0 -18.5 4.5t-20 16t-16 32.5t-6.5 54v74.5t-0.5 79.5t-0.5 67v36q0 14 -4.5 19t-10.5 3q-7 -3 -13 0t-6 14q0 6 1.5 23t7.5 36
t17.5 33.5t32.5 14.5q11 0 22.5 -4.5t21 -16.5t15.5 -33.5t6 -56.5v-72.5t-0.5 -70.5t-0.5 -57.5v-33.5t2.5 -18t7.5 -15t12.5 -6.5t17.5 9.5q20 20 26.5 34t6.5 37v36.5t-0.5 50.5t-0.5 47v26q0 10 -4.5 19t-15.5 4q-12 -6 -16 -3.5t-4 12.5q0 5 0.5 23t6 38t18.5 35.5
t39 15.5q25 0 38.5 -15t19.5 -34.5t6.5 -38.5t0.5 -28v-27.5v-50.5t0.5 -62t0.5 -62.5v-51.5v-29q0 -21 1.5 -39t7.5 -39q5 -20 11 -48.5t6 -62.5z" />
    <glyph glyph-name="afii10086" unicode="&#x444;" horiz-adv-x="441"
d="M176 321q0 8 -2 18.5t-6.5 19.5t-10.5 15.5t-13 6.5q-16 0 -22.5 -16.5t-12.5 -40.5q-3 -12 -4.5 -37.5t-1.5 -53t1 -50.5t2 -30q2 -14 8.5 -31t22.5 -17q8 0 14.5 5t11.5 12.5t8 16t4 14.5t1.5 30t0.5 52t-0.5 53t-0.5 33zM259 3q1 -21 1.5 -56t-5 -68t-18.5 -57
t-38 -24q-26 0 -40 16t-21 36t-8.5 38t-1.5 22q0 3 1.5 10t4 12.5t6 7t7.5 -4.5q18 -28 25 0v7v14.5v18v17.5q-1 6 -3 12t-16 -2q-13 -8 -21.5 -13t-22.5 -5q-7 0 -22.5 3t-31.5 26t-28 74t-12 146q0 75 6 125t17 80t28 42.5t40 12.5q19 0 27.5 -6t20.5 -23q5 -8 9 -7t10 8
l-2 154q0 13 4.5 29t13 30t21 23.5t27.5 9.5q16 0 25.5 -2t15 -5t9 -5t7.5 -2q7 0 12.5 9.5t12.5 9.5q3 0 4.5 -6.5t2 -15t0.5 -17.5v-14v-18t-2.5 -26.5t-9.5 -23.5t-21 -10q-20 0 -26 -9t-6 -19q0 -5 -1.5 -29t-1.5 -52q6 -7 10 -8t9 7q12 17 20.5 23t27.5 6
q22 0 40 -12.5t30.5 -42.5t19 -80t6.5 -125q0 -63 -6 -106.5t-15.5 -71t-21 -42t-22.5 -21t-20 -7.5t-14 -1q-14 0 -22.5 5t-21.5 13q-14 8 -16.5 2t-2.5 -12zM255 332v-33v-53t0.5 -52t1.5 -30t4 -14.5t7.5 -16t11 -12.5t14.5 -5q16 0 22.5 17t8.5 31q1 7 2 30t1 50.5
t-1.5 53t-4.5 37.5q-6 24 -12.5 40.5t-22.5 16.5q-8 0 -13.5 -6.5t-10 -15.5t-6.5 -19.5t-2 -18.5z" />
    <glyph glyph-name="afii10087" unicode="&#x445;" horiz-adv-x="329"
d="M318 59q0 -13 -5 -25.5t-13 -22.5t-17.5 -16t-19.5 -6q-20 0 -44 25.5t-38 63.5q-5 15 -9 19t-12 -19t-17 -44t-20 -31t-26.5 -15t-32.5 8q-11 8 -16.5 10t-10.5 -3t-8.5 -5.5t-10.5 13.5q-3 7 -4.5 17.5t-0.5 22.5t5.5 23t12.5 19q9 8 14 10.5t8.5 2.5t6 -1t6.5 0
q15 3 21 17q1 4 6.5 23t11 41.5t10 42t5.5 22.5q2 6 2.5 14t-2.5 15q-2 3 -5.5 14t-7.5 23t-8 23t-6 16q-5 8 -11.5 9t-13.5 -8q-7 -8 -11 -6.5t-9 10.5q-9 16 -10.5 39t4 44t18.5 36t33 15q4 0 9.5 -0.5t12.5 -6t16.5 -18t22.5 -36.5q6 -11 9.5 -15t14.5 15q5 9 10 20
t10.5 20t12 15t15.5 6q17 0 25.5 -10t17.5 -10q8 0 9 7.5t9 7.5q4 0 7 -5.5t5 -14t3 -17t1 -14.5t-1 -15.5t-4 -19t-9.5 -17.5t-16.5 -11q-8 -2 -14 -1.5t-14 -14.5q-4 -7 -8 -17.5t-7.5 -21.5t-6 -20t-3.5 -13q-2 -8 -2.5 -14.5t1.5 -15.5q1 -5 6 -22t10.5 -36.5t10.5 -37
t7 -23.5t5 -11t7 -8t8 -2t9 8q10 14 14.5 11t9.5 -13q4 -10 8.5 -24.5t4.5 -40.5z" />
    <glyph glyph-name="afii10088" unicode="&#x446;" horiz-adv-x="383"
d="M234 -39q17 2 32 1.5t26 4.5t16 20.5t2 50.5q-7 -17 -17.5 -33.5t-29.5 -16.5q-15 0 -24.5 8.5t-14.5 19t-6.5 20.5t-2.5 14t-2 8.5t-3 6.5t-6.5 -1t-11.5 -13t-16.5 -21t-20.5 -20.5t-22.5 -15.5t-23.5 -6q-23 0 -39.5 26.5t-18.5 69.5v261q0 7 -3.5 18t-13.5 5
q-11 -6 -15 -0.5t-2 13.5q0 4 1.5 22t8 38.5t19.5 36.5t37 16q23 0 40.5 -21t17.5 -79v-69.5t-0.5 -78t-0.5 -66.5v-35t2 -15.5t7 -15.5t13 -6t21 14q13 13 19 23.5t8.5 19.5t2.5 15.5v11.5t-0.5 29.5t-0.5 52.5t-0.5 52t-0.5 28q0 8 -3 15t-15 2q-12 -4 -13 4t-1 12
q0 2 1 19t7 37t18.5 36t35.5 16q22 0 34.5 -16t18 -36.5t6.5 -39t1 -22.5v-240q0 -8 1.5 -16t5 -12.5t9 -3.5t13.5 11q19 -8 28.5 -32t12.5 -53t0.5 -58t-9.5 -47q-8 -21 -17 -34t-20.5 -20.5t-26 -11t-32.5 -4.5q-17 0 -33.5 -1t-27.5 -5t-14.5 -12.5t4.5 -23.5
q-22 7 -33 21.5t-13.5 31.5t2.5 34t16.5 30.5t28.5 21t38 4.5z" />
    <glyph glyph-name="afii10089" unicode="&#x447;" horiz-adv-x="344"
d="M215 205q-1 4 -2 8.5t-3 6.5t-6.5 -1t-11.5 -13t-16.5 -21t-20.5 -20.5t-22.5 -15.5t-23.5 -6q-23 0 -39.5 26.5t-18.5 69.5v106q0 7 -3.5 18t-13.5 5q-11 -6 -15 -0.5t-2 13.5q0 4 1.5 22t8 38.5t19.5 36.5t37 16q23 0 40.5 -21t17.5 -79v-45t-0.5 -25t-0.5 -13.5v-10.5
t2 -15.5t7 -15.5t13 -6t21 14q13 13 19 23.5t8 19t2 15v11.5q0 4 -0.5 9.5t-3 10t-6 6.5t-9.5 -1q-12 -4 -13 4t-1 12q0 2 1 19t7 37t18.5 36t35.5 16q22 0 34.5 -16t18 -36.5t6.5 -39t1 -22.5v-240q0 -30 15 -25q4 1 7 3t5 2.5t3.5 -2.5t1.5 -12t-2 -28.5t-8 -40
t-18.5 -35.5t-33.5 -15q-15 0 -25.5 8.5t-17 19t-9.5 20.5t-4 14q-2 11 -2 38v54t1 46.5t1 16.5z" />
    <glyph glyph-name="afii10090" unicode="&#x448;" horiz-adv-x="510"
d="M212 49q-1 4 -2 8.5t-3 6.5t-6.5 -1t-11.5 -13t-16.5 -21t-20.5 -20.5t-22.5 -15.5t-23.5 -6q-23 0 -39.5 26.5t-18.5 69.5v261q0 7 -3.5 18t-13.5 5q-11 -6 -15 -0.5t-2 13.5q0 4 1.5 22t8 38.5t19.5 36.5t37 16q23 0 40.5 -21t17.5 -79v-69.5t-0.5 -78t-0.5 -66.5v-35
t2 -15.5t7 -15.5t13 -6t21 14q13 13 19 23.5t8.5 19.5t2.5 15.5v11.5l-2 152q0 7 -3.5 18t-13.5 5q-11 -6 -15 -0.5t-2 13.5q0 4 1.5 22t8 38.5t19.5 36.5t37 16q23 0 40.5 -21t17.5 -79v-69.5t-0.5 -78t-0.5 -66.5v-35t2 -15.5t7 -15.5t13 -6t21 14q13 13 19 23.5t8.5 19.5
t2.5 15.5v11.5t-0.5 29.5t-0.5 52.5t-0.5 52t-0.5 28q0 8 -3 15t-15 2q-12 -4 -13 4t-1 12q0 2 1 19t7 37t18.5 36t35.5 16q22 0 34.5 -16t18 -36.5t6.5 -39t1 -22.5v-240q0 -30 15 -25q4 1 7 3t5 2.5t3.5 -2.5t1.5 -12t-2 -28.5t-8 -40t-18.5 -35.5t-33.5 -15
q-15 0 -25.5 8.5t-17 19t-9.5 20.5t-4 14t-2 8.5t-3 6.5t-6.5 -1t-11.5 -13t-16.5 -21t-20.5 -20.5t-22.5 -15.5t-23.5 -6q-17 0 -32.5 20t-21.5 43z" />
    <glyph glyph-name="afii10091" unicode="&#x449;" horiz-adv-x="544"
d="M372 48q-1 4 -2 8.5t-3 6.5t-6.5 -1t-11.5 -13t-16.5 -21t-20.5 -20.5t-22.5 -15.5t-23.5 -6q-17 0 -32.5 20t-21.5 43q-1 4 -2 8.5t-3 6.5t-6.5 -1t-11.5 -13t-16.5 -21t-20.5 -20.5t-22.5 -15.5t-23.5 -6q-23 0 -39.5 26.5t-18.5 69.5v261q0 7 -3.5 18t-13.5 5
q-11 -6 -15 -0.5t-2 13.5q0 4 1.5 22t8 38.5t19.5 36.5t37 16q23 0 40.5 -21t17.5 -79v-69.5t-0.5 -78t-0.5 -66.5v-35t2 -15.5t7 -15.5t13 -6t21 14q13 13 19 23.5t8.5 19.5t2.5 15.5v11.5l-2 152q0 7 -3.5 18t-13.5 5q-11 -6 -15 -0.5t-2 13.5q0 4 1.5 22t8 38.5
t19.5 36.5t37 16q23 0 40.5 -21t17.5 -79v-69.5t-0.5 -78t-0.5 -66.5v-35t2 -15.5t7 -15.5t13 -6t21 14q13 13 19 23.5t8.5 19.5t2.5 15.5v11.5t-0.5 29.5t-0.5 52.5t-0.5 52t-0.5 28q0 8 -3 15t-15 2q-12 -4 -13 4t-1 12q0 2 1 19t7 37t18.5 36t35.5 16q22 0 34.5 -16
t18 -36.5t6.5 -39t1 -22.5v-240q0 -8 1.5 -16t5 -12.5t9 -3.5t13.5 11q19 -8 28.5 -32t12.5 -53t0.5 -58t-9.5 -47q-8 -21 -17 -34t-20.5 -20.5t-26 -11t-32.5 -4.5q-17 0 -33.5 -1t-27.5 -5t-14.5 -12.5t4.5 -23.5q-22 7 -33 21.5t-13.5 31.5t2.5 34t16.5 30.5t28.5 21
t38 4.5q17 2 32 1.5t26 4.5t16 20.5t2 50.5q-7 -17 -17.5 -33.5t-29.5 -16.5q-15 0 -24.5 8.5t-14.5 19t-6.5 20.5t-2.5 14z" />
    <glyph glyph-name="afii10092" unicode="&#x44a;" horiz-adv-x="349"
d="M185 272v7q0 20 5 33t13.5 21t18 11t18.5 3q22 0 39 -13.5t28.5 -36t17.5 -51.5t6 -60q0 -37 -9 -72.5t-26.5 -63t-43 -44t-57.5 -16.5q-53 0 -83.5 41.5t-30.5 117.5q0 40 11.5 88.5t37.5 105.5q2 8 2 9q0 3 -15 11t-30 8q-8 0 -15 -6.5t-7 -19.5q0 -14 2.5 -17t2.5 -9
q0 -5 -3.5 -9t-8.5 -4l-7.5 2t-16.5 11.5t-16 28.5t-7 53q0 22 7 39t17.5 29t23.5 18t25 6q13 0 26 -4.5t25 -9.5t22.5 -9.5t16.5 -4.5q9 0 13 5t8.5 11t12 11t22.5 5q10 0 16.5 -7.5t6.5 -21.5q0 -9 -3.5 -17.5t-10 -20.5t-15.5 -30t-19 -47q-26 -57 -38 -103t-12 -80
q0 -32 12.5 -54.5t35.5 -22.5q16 0 27.5 7.5t19 19.5t11.5 27t4 30q0 8 -1.5 18t-5 18.5t-8.5 14.5t-11 6q-9 0 -9 -7q0 -2 1 -3q-2 -3 -2 -7q0 -6 3.5 -9.5t3.5 -5.5q-3 -11 -11 -11q-12 0 -26.5 20t-14.5 49q0 8 1 12z" />
    <glyph glyph-name="afii10093" unicode="&#x44b;" horiz-adv-x="460"
d="M165 -13h-8q-34 0 -55.5 13.5t-34 32.5t-17.5 39t-5 34v31t0.5 47t0.5 53.5t0.5 51t0.5 39.5v19q0 20 -11 20q-3 0 -5.5 -1.5t-6.5 -1.5q-11 0 -11 13q1 4 2 23t6.5 40t17.5 38t35 17q7 0 17 -3.5t18 -14.5t14 -31.5t6 -54.5v-47q0 -14 7 -14l6 3t14 6.5t17 6.5t15 3
q3 0 18.5 -4t32.5 -21t31 -52.5t14 -99.5q0 -5 -0.5 -11t-0.5 -11q-7 -46 -18.5 -77.5t-26 -50.5t-32 -27t-36.5 -8h-5zM125 127q1 -4 2.5 -10.5t5.5 -13t10 -11.5t16 -5q18 0 26 12t10.5 27t1.5 28.5t-1 15.5q0 40 -11 54.5t-28 14.5q-8 0 -13.5 -5.5t-10 -13t-6.5 -15
t-2 -11.5v-33v-34zM449 110q0 -9 -2 -29t-8 -40t-18 -35.5t-32 -15.5t-32.5 13t-19.5 31.5t-9.5 38.5t-2.5 34v31t0.5 47t0.5 53.5t0.5 51t0.5 39.5v19q0 20 -11 20q-3 0 -5.5 -1.5t-6.5 -1.5q-11 0 -11 13q1 4 2 23t6.5 40t17.5 38t35 17q7 0 18.5 -3.5t22 -14.5t18 -31.5
t7.5 -54.5t-0.5 -75t-1.5 -77.5t-1.5 -63.5t-0.5 -33q0 -10 3.5 -17.5t8.5 -7.5t10 4t7 4q4 0 4 -16z" />
    <glyph glyph-name="afii10094" unicode="&#x44c;" horiz-adv-x="301"
d="M165 -13q-36 -2 -59.5 11t-37 32.5t-18.5 40.5t-5 35v31t0.5 47t0.5 53.5t0.5 51t0.5 39.5v19q0 20 -11 20q-3 0 -5.5 -1.5t-6.5 -1.5q-11 0 -11 13q1 4 2 23t6.5 40t17.5 38t35 17q7 0 17 -3.5t18 -14.5t14 -31.5t6 -54.5v-47q0 -8 3.5 -12t8.5 1q7 5 22.5 10.5
t23.5 5.5q3 0 12 -1t21 -8t25 -23t24 -46q8 -26 12 -57.5t2 -63.5q-7 -48 -19 -79.5t-27.5 -50.5t-34 -26.5t-37.5 -6.5zM125 127q1 -4 2.5 -10.5t5.5 -13t10 -11.5t16 -5t16.5 5.5t11 13t6.5 14.5t3 11q0 18 0.5 31t-0.5 24q-3 30 -13 41.5t-26 11.5q-8 0 -13.5 -5.5
t-10 -13t-6.5 -15t-2 -11.5q0 -3 0.5 -20.5t-0.5 -46.5z" />
    <glyph glyph-name="afii10095" unicode="&#x44d;" horiz-adv-x="290"
d="M138 -10q-29 -3 -52 7t-39 27t-25 38.5t-9 42.5q0 20 7 33.5t16.5 21.5t19.5 11.5t16 3.5t14.5 -3t17 -8.5t14 -14.5t5.5 -21q0 -3 -4 -6t-8.5 -6t-8.5 -6.5t-4 -6.5q0 -7 3 -14t20 -7q19 0 35.5 35.5t20.5 96.5h-94q-3 0 -6.5 7t-4.5 10q0 10 -1 14.5t-1 8t1 7.5t4 13
q5 12 16 12h86q-5 58 -20 93t-35 34q-17 0 -20 -10t-3 -17q0 -3 4 -6.5t8.5 -6.5t8.5 -6t4 -6q0 -12 -5.5 -21t-14 -14.5t-17 -8.5t-14.5 -3t-16 3.5t-19.5 11.5t-16.5 21.5t-7 33.5q0 21 7 41t21 35.5t34.5 25.5t48.5 11t54 -14t46.5 -46.5t32.5 -79.5t12 -113
q0 -66 -11.5 -113.5t-30 -79t-42 -46.5t-48.5 -15z" />
    <glyph glyph-name="afii10096" unicode="&#x44e;" horiz-adv-x="468"
d="M192 203q1 10 0 15t-4.5 7t-10.5 2h-18h6q-9 -1 -15 -1.5t-9.5 -2.5t-4.5 -7.5t0 -15.5q-1 -20 -1.5 -37t-0.5 -21q0 -12 5 -20t13 -3t11.5 6t3.5 -16q0 -9 -2 -29t-8 -40t-18 -35.5t-32 -15.5t-32.5 13t-19.5 31.5t-9.5 38.5t-2.5 34v30t0.5 45t0.5 52t0.5 50t0.5 40v21
q1 14 -4 19.5t-11 2.5t-13 -1t-6 12q1 4 2 23t6.5 40t17.5 38t35 17q7 0 18.5 -3.5t22 -14.5t18 -31.5t7.5 -54.5q0 -15 -1 -35t-1 -37q-2 -21 4 -23.5t25 -3.5h-6h17.5t9.5 2t4 6.5t2 15.5q8 54 24.5 88t36 52.5t39 25t31.5 6.5q16 0 38 -8.5t41.5 -34.5t33 -74.5
t13.5 -129.5t-14.5 -132t-35.5 -79.5t-44 -38.5t-41 -10q-16 0 -37.5 9t-40.5 33.5t-32 67.5t-12 112zM353 329q0 32 -9.5 47t-23.5 15q-11 0 -17.5 -6.5t-10 -16t-5 -20t-2.5 -18.5t-1.5 -35t-0.5 -58.5t0.5 -60.5t0.5 -40q0 -23 9.5 -36.5t27.5 -13.5q9 0 15 6t9.5 14
t5.5 16t2 13v194z" />
    <glyph glyph-name="afii10097" unicode="&#x44f;" horiz-adv-x="350"
d="M221 63q-5 33 -7.5 68t-4.5 69h-11q-11 -9 -20.5 -29.5t-17.5 -41.5t-13 -38.5t-6 -21.5q-5 -14 -11 -29t-14.5 -27t-20 -20t-25.5 -8q-18 0 -29.5 9.5t-18 23.5t-8.5 30t-2 29q0 23 3 31t7 8q6 0 12 -2.5t12 -3.5q5 0 10 4t10 21q0 1 4 10t11.5 21t18.5 25t25 24
q-21 10 -34.5 24.5t-22 30.5t-12 32t-3.5 29q0 35 14.5 63t36.5 48t49 31t52 13q31 -2 54 -19.5t23 -45.5q0 -16 -10.5 -22.5t-26 -8.5t-34 -3.5t-34 -7t-26 -19t-10.5 -40.5q0 -30 21 -46t45 -22v26q1 10 1 28.5t4.5 36.5t15 31t32.5 13q15 0 24.5 -7.5t15 -19t7.5 -24
t2 -22.5q0 -13 -1.5 -17t-3.5 -4q-3 0 -2.5 6.5t-4.5 6.5t-7.5 -6.5t-2.5 -25.5q0 -27 1 -56t4 -52t8 -38t12 -15q4 0 8.5 2.5t7.5 2.5q6 0 8.5 -9.5t2.5 -32.5q0 -13 -2.5 -28t-8.5 -28t-16.5 -22t-26.5 -9q-8 0 -17 2.5t-18 10t-17 22.5t-12 39z" />
    <glyph glyph-name="afii10071" unicode="&#x451;" horiz-adv-x="277"
d="M248 639q0 -33 -14.5 -51.5t-34.5 -18.5q-10 0 -18.5 6.5t-15 16.5t-10.5 22t-4 23q0 12 3.5 24t10 21.5t15.5 16t19 6.5q20 0 34.5 -16.5t14.5 -49.5zM118 639q0 -33 -14.5 -51.5t-34.5 -18.5q-10 0 -18.5 6.5t-15 16.5t-10.5 22t-4 23q0 12 3.5 24t10 21.5t15.5 16
t19 6.5q20 0 34.5 -16.5t14.5 -49.5zM265 335q0 -72 -25.5 -115t-62.5 -43q-13 0 -27 3.5t-19 7.5q-10 9 -9 -6q1 -4 4 -17t9.5 -27.5t16.5 -25.5t24 -11q15 0 24 7.5t14.5 16.5t7.5 17.5t3 10.5q1 1 2.5 4t3.5 5t4 2t5 -5t5.5 -8t4.5 -9t3.5 -18.5t1.5 -35.5t-10 -41.5
t-25 -31.5t-33 -20t-33 -7t-37 9.5t-42 39.5t-34.5 85t-14.5 145q0 49 7.5 91t22.5 72.5t38.5 47.5t55.5 17q7 0 26 -3.5t38.5 -19.5t35 -48t15.5 -89zM182 336q0 29 -9 44.5t-23 15.5t-23 -15t-9 -47q0 -31 8.5 -51t22.5 -20t23.5 22t9.5 51z" />
    <glyph glyph-name="afii10101" unicode="&#x454;" horiz-adv-x="290"
d="M149 -10q-25 0 -48.5 15t-42 46.5t-30 79t-11.5 113.5q0 65 12 113t32.5 79.5t46.5 46.5t54 14t48.5 -11t34.5 -25.5t21 -35.5t7 -41q0 -20 -7 -33.5t-16.5 -21.5t-19.5 -11.5t-16 -3.5t-14.5 3t-17 8.5t-14 14.5t-5.5 21q0 3 4 6t8.5 6t8.5 6.5t4 6.5q0 7 -3 17t-20 10
q-20 1 -35 -34t-20 -93h86q11 0 16 -12q3 -9 4 -13t1 -7.5t-1 -8t-1 -14.5q-1 -3 -4.5 -10t-6.5 -7h-94q4 -61 20.5 -96.5t35.5 -35.5q17 0 20 7t3 14q0 3 -4 6.5t-8.5 6.5t-8.5 6t-4 6q0 12 5.5 21t14 14.5t17 8.5t14.5 3t16 -3.5t19.5 -11.5t16.5 -21.5t7 -33.5
q0 -21 -9 -42.5t-25 -38.5t-39 -27t-52 -7z" />
    <glyph glyph-name="afii10103" unicode="&#x456;" horiz-adv-x="189"
d="M172 109q0 -9 -1.5 -29t-8 -40t-18.5 -35.5t-32 -15.5t-32.5 13t-19.5 31.5t-9.5 38.5t-2.5 34v30v45t0.5 52t0.5 50t0.5 39.5t0.5 21.5q1 14 -4 19.5t-11 2.5t-13 -1t-6 12q1 4 2 23t6.5 40t17.5 38t35 17q7 0 18.5 -3.5t22 -14.5t18 -31.5t7.5 -54.5t-0.5 -74.5
t-1.5 -77.5t-1.5 -64t-0.5 -33q0 -12 5 -20t13 -3t11.5 6t3.5 -16zM124 639q0 -33 -14.5 -51.5t-34.5 -18.5q-10 0 -18.5 6.5t-15 16.5t-10.5 22t-4 23q0 12 3.5 24t10 21.5t15.5 16t19 6.5q20 0 34.5 -16.5t14.5 -49.5z" />
    <glyph glyph-name="afii10104" unicode="&#x457;" horiz-adv-x="189"
d="M178 109q0 -9 -1.5 -29t-8 -40t-18.5 -35.5t-32 -15.5t-32.5 13t-19.5 31.5t-9.5 38.5t-2.5 34v30v45t0.5 52t0.5 50t0.5 39.5t0.5 21.5q1 14 -4 19.5t-11 2.5t-13 -1t-6 12q1 4 2 23t6.5 40t17.5 38t35 17q7 0 18.5 -3.5t22 -14.5t18 -31.5t7.5 -54.5t-0.5 -74.5
t-1.5 -77.5t-1.5 -64t-0.5 -33q0 -12 5 -20t13 -3t11.5 6t3.5 -16zM203 639q0 -33 -14.5 -51.5t-34.5 -18.5q-10 0 -18.5 6.5t-15 16.5t-10.5 22t-4 23q0 12 3.5 24t10 21.5t15.5 16t19 6.5q20 0 34.5 -16.5t14.5 -49.5zM73 639q0 -33 -14.5 -51.5t-34.5 -18.5
q-10 0 -18.5 6.5t-15 16.5t-10.5 22t-4 23q0 12 3.5 24t10 21.5t15.5 16t19 6.5q20 0 34.5 -16.5t14.5 -49.5z" />
    <glyph glyph-name="afii10110" unicode="&#x45e;" horiz-adv-x="331"
d="M325 -93q0 -17 -7.5 -36t-20.5 -35t-29 -26.5t-34 -10.5t-36 5t-33 11.5t-26.5 13t-16.5 9.5q-11 6 -20 3t-9 -17q0 -6 -3 -12.5t-8 -9.5t-12 -1.5t-14 10.5t-11 20t-6 21t-2.5 17.5t-0.5 10.5t2.5 15t9 25.5t18.5 24.5t31 11t38.5 -6t35 -13.5t27 -14.5t15.5 -9
q4 -3 10 -2.5t11 3.5t8 8.5t0 12.5t-8 19.5t-10.5 25.5t-9.5 24.5t-4 17.5v14.5t-1.5 14t-5.5 5.5t-14 -12q-20 -23 -42 -39.5t-37 -16.5q-8 0 -18.5 4.5t-20 16t-16 32.5t-6.5 54v74.5t-0.5 79.5t-0.5 67v36q0 14 -4.5 19t-10.5 3q-7 -3 -13 0t-6 14q0 6 1.5 23t7.5 36
t17.5 33.5t32.5 14.5q11 0 22.5 -4.5t21 -16.5t15.5 -33.5t6 -56.5v-72.5t-0.5 -70.5t-0.5 -57.5v-33.5t2.5 -18t7.5 -15t12.5 -6.5t17.5 9.5q20 20 26.5 34t6.5 37v36.5t-0.5 50.5t-0.5 47v26q0 10 -4.5 19t-15.5 4q-12 -6 -16 -3.5t-4 12.5q0 5 0.5 23t6 38t18.5 35.5
t39 15.5q25 0 38.5 -15t19.5 -34.5t6.5 -38.5t0.5 -28v-27.5v-50.5t0.5 -62t0.5 -62.5v-51.5v-29q0 -21 1.5 -39t7.5 -39q5 -20 11 -48.5t6 -62.5zM119 692q13 0 24.5 -7.5t14.5 -19.5q6 -21 9.5 -22.5t8.5 -1.5q19 0 23 24q5 24 29 24t25 -29q0 -42 -30.5 -67.5
t-75.5 -25.5q-37 0 -61 19t-24 48q0 22 15.5 40t41.5 18z" />
    <glyph glyph-name="afii10050" unicode="&#x490;" horiz-adv-x="391"
d="M334 732q-3 1 3.5 7t20 10t29.5 3t33 -15q27 -22 30.5 -49t-6 -52t-28 -43.5t-35.5 -23.5q-25 -7 -53 -7.5t-57 1.5t-56 3.5t-49 -2.5t-38 -15.5t-22 -36.5q-3 -13 3.5 -31t18.5 -21q5 -3 10 3.5t6 11.5q3 11 0.5 18t0.5 14q3 15 18.5 19t25.5 1q14 -5 20.5 -16t8.5 -24
t1 -27.5t-4 -27.5q-4 -21 -15 -39t-26 -30.5t-33.5 -17t-36.5 1.5q-26 9 -44 30.5t-28 48.5t-11.5 57.5t5.5 56.5q16 68 56.5 96t99.5 22q52 -6 93.5 -11.5t64.5 0.5q10 3 20 11t13 19.5t-5 25.5t-34 29zM352 166q0 -33 -13 -65t-36.5 -57t-56 -40t-70.5 -15q-30 0 -54 14
t-41 36t-26 48.5t-9 52.5q0 15 4.5 34.5t13.5 36.5t23 29t34 12q13 0 24 -6t19 -15.5t12 -21t4 -22.5q0 -8 -7 -7.5t-17 -2.5q-8 -3 -11 -12t-3 -17q0 -18 13 -34t33 -16q23 0 36.5 14.5t20.5 34.5t9 42t2 36q0 27 -2.5 50.5t-6 46.5t-6 46.5t-2.5 50.5q0 13 1.5 37t7.5 48
t17.5 41.5t31.5 17.5q8 0 16.5 -3.5t11.5 -14.5q3 -9 -1 -19t-4 -20q0 -56 5 -99.5t11 -82.5t11 -76.5t5 -81.5z" />
    <glyph glyph-name="afii10098" unicode="&#x491;" horiz-adv-x="307"
d="M171 363q-9 -6 -14.5 -16.5t-8.5 -22t-3.5 -22.5t-0.5 -18t0.5 -28t0.5 -45.5t0.5 -47t0.5 -31.5q0 -16 6.5 -20.5t14.5 -0.5q7 3 11 1.5t4 -12.5q0 -6 -1 -24.5t-7 -38t-19 -35t-36 -15.5q-14 0 -25.5 5.5t-19.5 19.5t-12.5 37.5t-4.5 58.5q-1 10 -1.5 30.5t-1 45.5
t-1 51.5t-1 49.5t-1 38.5t-0.5 18.5q-1 11 -5 18.5t-12 5.5t-12 0t-6 17q0 7 2.5 25.5t9.5 37.5t20 34t34 15h33.5t16 -0.5t15.5 -0.5h32q16 -2 24.5 6.5t12 20t4 21.5t0.5 13v15.5t5 21.5q5 12 10 12.5t9.5 -5t7.5 -15.5t3 -19q0 -6 5 -20t11 -31t11 -36t5 -36t-4 -34
t-15 -28q-6 -6 -15.5 -7.5t-22 -1.5t-27.5 -1t-32 -7z" />
    <glyph glyph-name="endash" unicode="&#x2013;" horiz-adv-x="577"
d="M511 258q-42 -2 -102.5 -1.5t-124.5 1.5t-124.5 1t-102.5 -1q-23 -1 -34.5 8.5t-12 21.5t10.5 22t34 11q42 1 102.5 0.5t125 -1.5t125 -1.5t102.5 0.5q28 1 41 -8t12.5 -20.5t-14 -21.5t-38.5 -11z" />
    <glyph glyph-name="quoteleft" unicode="&#x2018;"
d="M102 658q0 -25 -5 -39t-12 -20.5t-14 -7.5t-10 -1q-18 0 -29.5 17.5t-11.5 42.5q0 12 2 32.5t6.5 42t13 42t20.5 32.5q7 7 12 7.5t7.5 -2t3 -7t-2.5 -7.5t-6.5 -12.5t-6.5 -20t-5 -19.5t-2 -11t6.5 -4t14 -8t13.5 -19t6 -38z" />
    <glyph glyph-name="quoteright" unicode="&#x2019;"
d="M102 739q0 -12 -2 -32.5t-6.5 -42t-13 -42t-20.5 -32.5q-7 -7 -12 -7.5t-7.5 2t-3 7t2.5 7.5t6.5 12.5t6.5 20t5 19.5t2 11t-6.5 4t-14 8t-13.5 19t-6 38t5 39t12 20.5t14 7.5t10 1q18 0 29.5 -17.5t11.5 -42.5z" />
    <glyph glyph-name="quotesinglbase" unicode="&#x201a;"
d="M102 63q0 -12 -2 -32.5t-6.5 -42t-13 -42t-20.5 -32.5q-7 -7 -12 -7.5t-7.5 2t-3 7t2.5 7.5t6.5 12.5t6.5 20t5 19.5t2 11t-6.5 4t-14 8t-13.5 19t-6 38t5 39t12 20.5t14 7.5t10 1q18 0 29.5 -17.5t11.5 -42.5z" />
    <glyph glyph-name="quotedblleft" unicode="&#x201c;" horiz-adv-x="231"
d="M212 658q0 -25 -5 -39t-12 -20.5t-14 -7.5t-10 -1q-18 0 -29.5 17.5t-11.5 42.5q0 12 2 32.5t6.5 42t13 42t20.5 32.5q7 7 12 7.5t7.5 -2t3 -7t-2.5 -7.5t-6.5 -12.5t-6.5 -20t-5 -19.5t-2 -11t6.5 -4t14 -8t13.5 -19t6 -38zM102 658q0 -25 -5 -39t-12 -20.5t-14 -7.5
t-10 -1q-18 0 -29.5 17.5t-11.5 42.5q0 12 2 32.5t6.5 42t13 42t20.5 32.5q7 7 12 7.5t7.5 -2t3 -7t-2.5 -7.5t-6.5 -12.5t-6.5 -20t-5 -19.5t-2 -11t6.5 -4t14 -8t13.5 -19t6 -38z" />
    <glyph glyph-name="quotedblright" unicode="&#x201d;" horiz-adv-x="231"
d="M212 739q0 -12 -2 -32.5t-6.5 -42t-13 -42t-20.5 -32.5q-7 -7 -12 -7.5t-7.5 2t-3 7t2.5 7.5t6.5 12.5t6.5 20t5 19.5t2 11t-6.5 4t-14 8t-13.5 19t-6 38t5 39t12 20.5t14 7.5t10 1q18 0 29.5 -17.5t11.5 -42.5zM102 739q0 -12 -2 -32.5t-6.5 -42t-13 -42t-20.5 -32.5
q-7 -7 -12 -7.5t-7.5 2t-3 7t2.5 7.5t6.5 12.5t6.5 20t5 19.5t2 11t-6.5 4t-14 8t-13.5 19t-6 38t5 39t12 20.5t14 7.5t10 1q18 0 29.5 -17.5t11.5 -42.5z" />
    <glyph glyph-name="quotedblbase" unicode="&#x201e;" horiz-adv-x="231"
d="M212 63q0 -12 -2 -32.5t-6.5 -42t-13 -42t-20.5 -32.5q-7 -7 -12 -7.5t-7.5 2t-3 7t2.5 7.5t6.5 12.5t6.5 20t5 19.5t2 11t-6.5 4t-14 8t-13.5 19t-6 38t5 39t12 20.5t14 7.5t10 1q18 0 29.5 -17.5t11.5 -42.5zM102 63q0 -12 -2 -32.5t-6.5 -42t-13 -42t-20.5 -32.5
q-7 -7 -12 -7.5t-7.5 2t-3 7t2.5 7.5t6.5 12.5t6.5 20t5 19.5t2 11t-6.5 4t-14 8t-13.5 19t-6 38t5 39t12 20.5t14 7.5t10 1q18 0 29.5 -17.5t11.5 -42.5z" />
    <glyph glyph-name="dagger" unicode="&#x2020;" horiz-adv-x="409"
d="M343 428q-30 -1 -56 -1h-50q0 -53 -0.5 -108.5t-1 -106.5t-0.5 -94t1 -70q1 -23 -8.5 -34.5t-21.5 -12t-22 10.5t-11 34q-1 27 -1 70.5t0.5 95.5t1.5 108t1 109q-27 1 -55.5 1t-62.5 -2q-23 -1 -34.5 8.5t-12 21.5t10.5 22t34 11q35 2 64 1.5t57 -1.5v71t-1 54
q-1 28 8 41t20.5 12.5t21.5 -14t11 -38.5q1 -22 1 -55v-73q47 -1 105 0q28 1 41 -8t12.5 -20.5t-14 -21.5t-38.5 -11z" />
    <glyph glyph-name="daggerdbl" unicode="&#x2021;" horiz-adv-x="409"
d="M343 258q-31 -1 -57 -1h-51q0 -65 -0.5 -120.5t1.5 -88.5q1 -23 -8.5 -34.5t-21.5 -12t-22 10.5t-11 34q-2 34 -1.5 90.5t1.5 122.5q-26 1 -54.5 1t-61.5 -2q-23 -1 -34.5 8.5t-12 21.5t10.5 22t34 11q35 2 63.5 1.5t55.5 -1.5q0 28 0.5 55t0.5 53q-27 1 -55.5 1
t-62.5 -2q-23 -1 -34.5 8.5t-12 21.5t10.5 22t34 11q35 2 64 1.5t57 -1.5v71t-1 54q-1 28 8 41t20.5 12.5t21.5 -14t11 -38.5q1 -22 1 -55v-73q47 -1 105 0q28 1 41 -8t12.5 -20.5t-14 -21.5t-38.5 -11q-30 -1 -56 -1h-50q0 -26 -0.5 -53t-0.5 -55q47 -1 106 0q28 1 41 -8
t12.5 -20.5t-14 -21.5t-38.5 -11z" />
    <glyph glyph-name="bullet" unicode="&#x2022;" horiz-adv-x="512"
d="M404 297q0 -31 -11.5 -58t-31.5 -47t-47 -31.5t-58 -11.5t-58 11.5t-47 31.5t-31.5 47t-11.5 58t11.5 58t31.5 47t47 31.5t58 11.5t58 -11.5t47 -31.5t31.5 -47t11.5 -58z" />
    <glyph glyph-name="ellipsis" unicode="&#x2026;" horiz-adv-x="364"
d="M346 46q0 -29 -13.5 -49t-25.5 -20q-14 0 -28.5 20.5t-14.5 48.5q0 26 13 47t30 21q6 0 13 -6t12.5 -15.5t9.5 -22t4 -24.5zM220 46q0 -29 -13.5 -49t-25.5 -20q-14 0 -28.5 20.5t-14.5 48.5q0 26 13 47t30 21q6 0 13 -6t12.5 -15.5t9.5 -22t4 -24.5zM97 46
q0 -29 -13.5 -49t-25.5 -20q-14 0 -28.5 20.5t-14.5 48.5q0 26 13 47t30 21q6 0 13 -6t12.5 -15.5t9.5 -22t4 -24.5z" />
    <glyph glyph-name="perthousand" unicode="&#x2030;" horiz-adv-x="670"
d="M647 174q0 -66 -12 -102.5t-27.5 -54.5t-30.5 -22t-21 -4q-7 0 -21 4t-28 21.5t-24.5 54t-10.5 101.5t12 101t27.5 53.5t31 21t22.5 3.5t21 -3t27.5 -19.5t23.5 -52.5t10 -102zM209 533q0 -66 -12 -103t-27.5 -55t-30.5 -22t-22 -4q-6 0 -20 4t-28 21.5t-24.5 54
t-10.5 101.5t12 101.5t27.5 54t31 21t22.5 3.5t21 -3t27.5 -20t23.5 -52.5t10 -101.5zM471 702q6 -4 6.5 -10t-5.5 -17t-18 -29t-30 -46q-9 -14 -27.5 -42t-42.5 -64.5t-51.5 -78.5t-54.5 -83.5t-53 -80.5t-46 -69.5t-32.5 -49.5t-14.5 -22q-7 -11 -7 -20t9 -9q9 -1 13 -1.5
t-5 -16.5q-5 -8 -16 -22t-25 -27.5t-28 -21.5t-23 -3q-11 6 -10.5 20.5t7 32.5t16.5 36t18 30q4 6 19 29.5t37.5 57.5t50 75.5t55.5 84.5t55 84t48 73.5t35 53.5l16 24q8 11 7 18.5t-8 8.5q-6 1 -11 6t1 12q3 4 14.5 19.5t27.5 30t35 22t38 -4.5zM444 174q0 -66 -12 -102.5
t-27.5 -54.5t-30.5 -22t-21 -4q-7 0 -21 4t-28 21.5t-24.5 54t-10.5 101.5t12 101t27.5 53.5t31 21t22.5 3.5t21 -3t27.5 -19.5t23.5 -52.5t10 -102zM602 174q0 43 -4.5 67.5t-11 36.5t-13.5 14.5t-11 2.5q-2 0 -9 -1.5t-14.5 -12.5t-13.5 -36t-6 -73q0 -47 5 -72
t11.5 -36.5t13.5 -13.5t10 -2q4 0 11 3.5t14 16.5t12.5 38t5.5 68zM164 532q0 43 -4.5 67.5t-11 36.5t-13.5 15t-12 3q-2 0 -9 -1.5t-14.5 -13t-13 -36.5t-5.5 -73q0 -47 5 -72t11.5 -36.5t13 -13.5t10.5 -2q3 0 10.5 3.5t14.5 16.5t12.5 38t5.5 68zM399 174q0 43 -4.5 67.5
t-11 36.5t-13.5 14.5t-11 2.5q-2 0 -9 -1.5t-14.5 -12.5t-13.5 -36t-6 -73q0 -47 5 -72t11.5 -36.5t13.5 -13.5t10 -2q4 0 11 3.5t14 16.5t12.5 38t5.5 68z" />
    <glyph glyph-name="guilsinglleft" unicode="&#x2039;" horiz-adv-x="286"
d="M231 395q-17 -18 -42.5 -44t-54.5 -54q34 -35 59 -61t30 -31q21 -19 23.5 -34.5t-6 -23.5t-25 -5.5t-34.5 19.5q-5 4 -20.5 19.5t-36 35.5t-42 42t-37.5 38l41.5 41.5t44.5 45t36.5 37.5t17.5 18q15 16 30 18t24 -6t8.5 -23t-16.5 -32z" />
    <glyph glyph-name="guilsinglright" unicode="&#x203a;" horiz-adv-x="291"
d="M257 296q-16 -16 -37.5 -38t-42 -42t-36.5 -35.5t-20 -19.5q-18 -17 -34.5 -19.5t-25 5.5t-6 23.5t23.5 34.5q5 5 30 31t59 61q-29 28 -54.5 54t-42.5 44q-16 17 -16.5 32t8.5 23t24 6t30 -18q2 -2 17.5 -18t36.5 -37.5t44.5 -45z" />
    <glyph glyph-name="afii61352" unicode="&#x2116;" horiz-adv-x="839"
d="M498 625q0 -27 -7 -51t-18 -24q-5 0 -7.5 3.5t-4.5 8t-4 8t-6 3.5q-11 0 -18 -28t-10.5 -66.5t-4.5 -78.5t-1 -64q0 -63 4 -121.5t9.5 -104.5t11 -76t7.5 -36q9 -27 -21 -19q-33 8 -60 34t-45 61q-8 15 -18.5 45.5t-21.5 68t-22 77t-19 73t-13 57t-4 28.5q3 19 -3 20
t-4 -22q0 -8 0.5 -31.5t1 -54.5t0.5 -66v-66v-54.5v-31.5q0 -28 -5.5 -69t-18.5 -79.5t-35.5 -65.5t-56.5 -27q-37 0 -57 15.5t-29 35t-10.5 37.5t-1.5 23t2 18.5t8 27.5t16.5 25t27.5 11q16 0 21.5 -3t5.5 -7t-3.5 -8t-4.5 -6t-2.5 -9.5t-0.5 -15.5t4.5 -14t12.5 -6t16 7.5
t12 19.5t9 26t6 28q2 9 3 42t2.5 77.5t2.5 94.5t1.5 93t0.5 73.5v36.5v20t2 21.5t7 13t14 -4.5t14 -13.5t7.5 -9t3.5 -6.5t3 -6q3 -7 7 -5t-1 15q-2 6 -8.5 17.5t-15.5 22t-20.5 18.5t-23.5 8q-8 0 -15.5 -4.5t-7.5 -17.5q0 -3 3 -6t7 -6t7 -7t3 -10q0 -11 -11 -22.5
t-24 -11.5q-6 0 -16.5 3t-20.5 13t-17.5 27.5t-7.5 47.5q0 29 9.5 50.5t24.5 35.5t34 21t38 7q14 0 30 -4.5t32 -14t30.5 -25.5t25.5 -39q12 -27 23 -59.5t19.5 -62t13.5 -51.5t7 -28q3 -13 7.5 -14t3.5 14q-1 12 1 39.5t5.5 58t7.5 57.5t8 38t10.5 26.5t16 30t22.5 24.5
t30 10q16 0 28.5 -8t20 -20.5t11.5 -27.5t4 -28zM769 106q-42 -2 -71.5 -1.5t-56.5 1.5t-56.5 1t-71.5 -1q-23 -1 -34.5 8.5t-12 21.5t10.5 22t34 11q42 1 71.5 0.5t57 -1.5t57 -1.5t71.5 0.5q28 1 41 -8t12.5 -20.5t-14 -21.5t-38.5 -11zM770 394q0 -50 -8.5 -84
t-21.5 -57.5t-29 -36.5t-31.5 -19.5t-28.5 -8t-20 -1.5t-18.5 1.5t-26 7.5t-29 19t-27 35.5t-20 57t-7.5 83.5t8.5 83t22 56.5t29.5 35.5t32 19t29 7t21 1q7 0 19 -1t26.5 -6.5t28.5 -17.5t25.5 -34.5t18.5 -56.5t7 -83zM702 393q0 49 -7 76.5t-16.5 41t-20.5 16.5t-18 3
q-3 0 -13.5 -1.5t-22 -14t-20 -41.5t-8.5 -83q0 -52 7 -80.5t17 -41.5t20.5 -15t15.5 -2t16 4t22 18.5t19.5 42.5t8.5 77z" />
    <glyph glyph-name="trademark" unicode="&#x2122;" horiz-adv-x="615"
d="M587 382q0 -29 -15 -42.5t-24 -13.5q-5 0 -13.5 2t-17 18t-15 51.5t-6.5 103.5q0 22 0.5 45.5t3 45t9 40.5t18.5 32q2 2 5.5 4.5t7.5 2.5t6.5 -2.5t2.5 -11.5v-23t-0.5 -39t-1 -47t-1 -47t-0.5 -37.5v-19.5q0 -12 2.5 -21.5t8.5 -9.5q7 0 9.5 8.5t6.5 8.5t9 -10t5 -38z
M596 708q0 -24 -9 -35.5t-15 -16.5q-7 -5 -11.5 -3t-2.5 8q2 5 0 14.5t-15 9.5q-12 0 -25 -16.5t-23.5 -37.5t-18 -40.5t-8.5 -24.5q-2 -10 -2 -14t1 -8q0 -2 1 -16.5t2.5 -32.5t3 -35t1.5 -23q0 -19 -2 -38t-6 -34t-10 -24.5t-14 -9.5t-13 10t-8 25t-4.5 33.5t-1.5 36.5
q0 4 1.5 19t3.5 32.5t4 32t2 16.5q2 8 -2 17q-15 63 -39 96t-44 33q-13 0 -14 -7.5t1 -11.5q1 -2 5 -5t4 -6q0 -5 -8 -10t-13 -5q-15 0 -25 17.5t-10 38.5q0 10 4.5 22t12 21.5t18 16t22.5 6.5q21 0 38.5 -13.5t30.5 -30.5t21.5 -34.5t11.5 -24.5q4 -8 6 -8t5 7q2 5 10 22
t20 35t29 32.5t37 14.5q17 0 26.5 -7t14.5 -16t6 -17t1 -11zM274 721q0 -25 -15.5 -39.5t-29.5 -14.5t-30 5.5t-32 11.5t-30 11.5t-25 5.5q-13 0 -21.5 -12.5t-8.5 -20.5q0 -9 1.5 -19.5t8.5 -10.5t8 5t5 5t8 -7t4 -30q0 -9 -4.5 -17.5t-11 -14.5t-13 -9.5t-10.5 -3.5t-13 2
t-18 11.5t-16 28t-7 51.5q0 31 11.5 51t27 32t31 16.5t23.5 4.5q20 0 34.5 -4.5t27 -10t23.5 -10t25 -4.5q8 0 5.5 6.5t-2.5 11.5t4.5 9t8.5 4q2 0 7 -2t10.5 -7.5t9.5 -14t4 -20.5zM394 492q0 -68 -9 -113t-22.5 -71.5t-28.5 -37t-26 -10.5q-23 0 -38.5 14.5t-15.5 44.5
q0 19 11 36.5t25 17.5q10 0 10 -4.5t-3 -8.5q-1 -2 -2 -6t-0.5 -8.5t3.5 -8t11 -3.5t13.5 7t9 17t5 19.5t2.5 14.5q1 10 2 32t2 49t1 55.5v53v40.5v19v10t1 10.5t3.5 6t7.5 -3.5q25 -21 31.5 -64.5t6.5 -107.5zM207 383q-1 -10 -5 -30t-14.5 -40.5t-30 -35.5t-50.5 -15
q-22 0 -35.5 9.5t-21 22.5t-10 25t-2.5 18t2.5 16.5t7 21t10.5 18.5t13 8q14 0 25 -7t11 -14q0 -6 -5.5 -9.5t-5.5 -12.5q0 -21 18 -21q8 0 22.5 11.5t18.5 31.5q3 18 1 44.5t-7 74.5t-10 83.5t3 61.5q6 21 15 25t14 2q13 -3 17 -8t1 -22q-5 -26 -1.5 -57t9.5 -78
q7 -48 9 -77t1 -46z" />
    <glyph glyph-name="glyph199" horiz-adv-x="500"
 />
  </font>
</defs>
</svg>
