<?xml version="1.0" standalone="no"?>
<!DOCTYPE svg PUBLIC "-//W3C//DTD SVG 1.1//EN" "http://www.w3.org/Graphics/SVG/1.1/DTD/svg11.dtd" >
<svg>
<metadata>
Created by FontForge 20120731 at Wed Jul  4 13:38:22 2018
 By convertio
FREE FOR PERSONAL USE
</metadata>
<defs>
<font id="DragonisComing" horiz-adv-x="148" >
  <font-face
    font-family="DragonIsComing"
    font-weight="400"
    font-style="italic"
    font-stretch="normal"
    units-per-em="1000"
    panose-1="2 0 0 0 0 0 0 0 0 0"
    ascent="750"
    descent="-250"
    x-height="183"
    cap-height="342"
    bbox="-281 -158 734 396"
    underline-thickness="50"
    underline-position="-50"
    slope="-12"
    unicode-range="U+0020-FB02"
  />
<missing-glyph horiz-adv-x="119"
 />
    <glyph glyph-name="a_1" unicode="And" horiz-adv-x="564"
d="M280 205c-27 -43 -56 -85 -85 -126c-30 -41 -87 -74 -139 -49c-17 8 -28 33 -26 37c0 2 1 3 2 4c3 1 8 -3 11 -9c2 -4 2 -9 3 -13c4 -4 9 -8 15 -11c44 -22 98 8 126 46c30 41 59 83 85 126c10 15 21 33 23 33v0v0c2 7 5 4 5 4c7 -4 5 -14 5 -14l-17 -50
c-22 -73 -20 -90 -20 -90c1 -9 7 -5 7 -5c5 3 28 33 28 33v0c3 27 9 40 15 58c2 4 8 10 13 11c4 1 3 -6 3 -7c-3 -7 -5 -14 -8 -21c8 14 18 26 32 36c3 3 7 3 10 2c12 2 12 -11 12 -12c-23 -60 -20 -67 -20 -67c2 -8 6 -5 6 -5c4 2 18 16 26 24c0 15 8 31 8 31
c16 39 29 45 29 45c14 9 19 -5 20 -10c15 42 37 85 37 85c3 5 6 4 6 4c6 -4 3 -14 3 -14l-21 -48c-28 -71 -28 -89 -28 -89c1 -8 6 -5 6 -5c6 3 32 31 32 31c6 4 1 -6 1 -6c-1 -4 -27 -29 -27 -29c-14 -9 -19 5 -19 5c-1 4 -2 9 -1 15c-8 -13 -23 -28 -23 -28
c-9 -10 -16 -6 -16 -6c-4 3 -6 7 -6 11c-9 -8 -21 -20 -21 -20c-14 -9 -18 4 -18 4c-6 15 0 37 10 68c1 3 1 6 1 8c-1 -1 -2 -1 -2 -2c-23 -17 -39 -48 -47 -76c-2 -4 -3 -9 -5 -11c-2 -17 -10 -8 -8 8c-7 -9 -22 -27 -22 -27c-14 -10 -19 3 -19 3c-6 11 -4 32 1 56
c-2 -2 -6 -2 -14 -5c-1 -1 -4 0 -5 2c-2 1 1 2 2 2c10 3 7 2 18 5v0c5 22 12 44 18 62c0 -1 -1 -2 -2 -4zM412 169c0 0 -16 -30 -9 -42c0 0 3 -1 14 11c0 0 15 14 25 42c1 6 3 11 4 17c0 4 -1 18 -13 4c0 0 -7 -7 -21 -32zM508 71c1 -1 3 -4 -2 -6c-4 -3 -8 -5 -10 -4v0v0
c-30 36 -125 14 -186 2c-65 -15 -118 -29 -117 -27c0 0 -2 -1 -2 1c0 1 1 1 1 1c19 2 284 98 316 34v-1zM336 228c-11 1 -16 17 -13 22c2 5 4 8 4 10v0c1 0 2 1 6 -1c5 -3 9 -5 8 -6v0v0c-22 -19 32 -12 55 -11c29 2 51 8 51 9c0 0 1 0 2 -1c0 -1 -1 -2 -1 -2
c-5 -4 -35 -12 -66 -16c-16 -2 -29 -6 -46 -4z" />
    <glyph glyph-name="f_1" unicode="ff" horiz-adv-x="135"
d="M178 202c-5 -1 78 3 78 -6c-1 -4 -8 -7 -14 -7h-74c-16 -21 -34 -45 -51 -68c2 -10 2 -20 2 -30c0 -53 -40 -159 -104 -159c-26 0 -47 19 -47 48c0 54 30 97 108 207c-9 8 -52 21 -52 40c0 4 3 5 7 5c16 0 36 -17 52 -31h2s2 0 3 1c73 96 85 108 88 108c8 0 13 -9 13 -14
c0 -9 -6 -18 -6 -18s-26 -32 -60 -76h20c73 96 85 108 88 108c8 0 13 -9 13 -14c0 -9 -6 -18 -6 -18s-26 -32 -60 -76zM-10 -46c5 -5 11 -8 18 -9c-4 6 -4 13 -4 13v4c0 37 45 111 94 180c-2 6 -5 12 -7 18c-10 -13 -20 -26 -29 -39l-14 -19c-43 -58 -64 -96 -68 -123
c0 -12 4 -20 10 -25zM26 -52c43 0 80 105 80 143c0 4 -1 9 -1 14c-46 -65 -85 -127 -85 -149c0 -6 3 -8 6 -8zM107 154c9 12 17 24 26 35h-20c-5 -6 -9 -12 -14 -18c3 -5 5 -11 8 -17z" />
    <glyph glyph-name=".notdef" horiz-adv-x="119"
 />
    <glyph glyph-name="B" unicode="B" horiz-adv-x="503"
d="M-1 204c-19 4 -36 8 -52 31c-8 12 -11 24 -5 28c5 3 16 -3 24 -14c6 -9 -2 -24 12 -31c7 -2 14 -4 22 -5c31 -4 68 4 95 11c76 20 148 54 222 84c62 25 216 70 198 -45c-6 -24 -22 -43 -41 -58c41 -23 35 -77 20 -113c16 -3 32 -7 32 -10c-1 -2 -20 -1 -37 0
c-18 -36 -45 -67 -77 -91c-21 -16 -51 -30 -79 -31c-28 -4 -63 8 -72 39c-12 34 22 60 46 70c50 23 105 29 159 27c17 39 18 78 -7 98c-1 0 -1 0 -1 1c-10 -6 -21 -10 -32 -12c-9 0 -32 -11 -33 9c2 19 19 20 28 22c13 1 27 0 39 -4c21 14 37 33 43 56c15 69 -75 69 -117 53
c5 -10 -2 -24 -2 -24l-63 -93c-97 -138 -94 -184 -94 -184c-2 -18 -16 -7 -16 -7c-14 59 125 262 153 302c-14 -5 -28 -10 -42 -16c-74 -30 -146 -64 -224 -85c-27 -7 -67 -14 -99 -8zM423 194c7 2 14 5 20 7c-7 1 -14 1 -20 1c-23 -5 -24 -14 0 -8zM334 -28
c55 8 99 63 126 112c-50 1 -102 -5 -148 -26c-24 -12 -48 -30 -39 -55c7 -24 37 -35 61 -31z" />
    <glyph glyph-name="C" unicode="C" horiz-adv-x="443"
d="M-38 211c-4 2 -6 7 -6 13c0 5 1 10 3 16c29 68 114 76 179 76c80 0 140 -25 203 -37c40 26 84 45 137 45c43 0 75 -22 75 -48c0 -19 -20 -35 -70 -35c-45 0 -87 12 -129 23c-70 -52 -137 -140 -137 -217c0 -37 19 -66 63 -66c72 0 159 69 175 69c0 -19 -105 -81 -174 -81
c-21 0 -90 3 -90 92c0 87 81 172 137 209c-60 11 -115 34 -190 34c-54 0 -120 -3 -153 -45c-9 -11 -3 -49 -19 -49c-1 0 -3 0 -4 1zM471 312c-37 -4 -72 -18 -104 -39c40 -10 79 -19 120 -19c38 0 53 8 53 21c0 23 -33 37 -69 37z" />
    <glyph glyph-name="D" unicode="D" horiz-adv-x="421"
d="M-2 -22c-35 6 -119 41 -119 89c0 4 2 6 6 7c28 7 30 -46 34 -48c41 -34 128 -50 194 -50c132 0 308 75 308 225c0 66 -37 117 -106 123c-32 0 -57 -1 -84 -25c-13 -11 -16 -42 -20 -67c28 44 51 77 51 77c3 6 6 7 9 7c7 0 11 -12 11 -17c0 -8 -4 -15 -4 -15l-63 -93
c-91 -130 -94 -178 -94 -184c0 -8 -5 -10 -8 -10c-8 0 -9 4 -9 8c0 43 47 134 95 208c0 20 2 76 26 96c29 25 61 29 94 27c70 -4 131 -51 131 -135c0 -160 -194 -240 -332 -240c-41 0 -82 6 -120 17z" />
    <glyph glyph-name="E" unicode="E" horiz-adv-x="411"
d="M-51 178c-4 1 -6 6 -6 12c0 5 1 10 3 16c40 81 115 126 198 126c69 0 139 -26 201 -54c33 23 75 39 117 39c20 0 53 -9 53 -40c0 -36 -46 -48 -68 -48c-34 0 -65 21 -92 30c-15 -15 -30 -39 -20 -61c9 1 16 1 28 1c13 0 24 -4 24 -14c0 -15 -19 -16 -22 -16
c-15 0 -32 10 -36 16c-70 -12 -152 -79 -152 -138c0 -45 33 -60 55 -60c58 0 166 71 190 71c2 -8 -116 -84 -190 -84c-43 0 -81 25 -81 78c0 85 99 134 166 144c-19 28 -4 57 17 73c-61 27 -127 51 -191 51c-59 0 -117 -22 -164 -78c-20 -23 -1 -65 -28 -65c0 0 -1 0 -2 1z
M255 -11c-4 -1 -8 -2 -12 -2c3 0 8 1 12 2zM376 183c3 7 -27 6 -29 4c3 -5 27 -9 29 -4zM441 304c-28 -4 -56 -18 -76 -36c1 0 2 -1 3 -1c27 -10 50 -26 76 -26c24 0 59 11 59 36c0 29 -54 27 -62 27z" />
    <glyph glyph-name="F" unicode="F" horiz-adv-x="257"
d="M-24 153c-8 0 -16 12 -16 30c0 113 117 146 191 146c70 0 131 -18 192 -35c22 32 23 35 25 35c10 0 14 -9 14 -16c0 -8 -4 -16 -4 -16l-6 -11c5 -1 10 -2 16 -4c37 25 79 42 124 42c17 0 58 1 58 -32c0 -37 -43 -39 -60 -39c-41 0 -81 7 -120 16c-24 -16 -45 -36 -64 -57
l-1 -1h13c5 0 14 -1 14 -6c0 -6 -9 -6 -14 -6h-21c-59 -71 -130 -229 -183 -229c-24 0 -57 7 -57 37c0 9 12 35 59 35c13 0 22 -6 22 -12s-9 -10 -21 -10c-7 0 -14 3 -22 7c-11 -4 -25 -11 -25 -20c0 -15 24 -24 40 -24c27 0 86 123 136 198c-12 14 -43 21 -43 24s0 6 16 6
h47c19 28 36 53 50 72c-61 17 -119 34 -185 34c-77 0 -168 -36 -179 -114c3 -14 11 -20 11 -34c0 -9 -3 -15 -7 -16zM273 191c2 3 3 5 5 8h-14c3 -2 6 -5 9 -8zM510 265c16 0 49 5 49 27c0 19 -29 20 -48 20c-38 0 -74 -13 -107 -34c35 -7 70 -13 106 -13zM365 275l-12 -20
l21 18c-3 1 -6 2 -9 2z" />
    <glyph glyph-name="G" unicode="G" horiz-adv-x="296"
d="M88 -32c-50 0 -84 35 -84 88c0 71 48 135 97 181c51 49 122 89 195 89c7 0 68 1 68 -43c-1 0 -8 -57 -34 -57c-5 0 -7 3 -7 8c0 24 30 26 30 48c0 25 -44 28 -65 28c-127 -12 -260 -165 -260 -269c0 -35 22 -58 58 -58c37 0 172 42 172 93c0 7 2 28 17 33
c10 3 19 -10 15 -22c0 0 -38 -78 -79 -127c67 -14 130 -43 195 -43c39 0 82 10 114 33c14 7 12 46 33 46c5 0 7 -4 7 -9c0 -41 -92 -80 -156 -80c-70 0 -136 29 -202 43c-29 -31 -70 -69 -117 -69c-18 0 -43 11 -43 34c0 46 70 53 104 53c17 0 34 -2 51 -5
c18 20 28 36 45 65c-10 -6 -85 -60 -154 -60zM84 -107c39 0 75 31 103 59c-13 2 -26 3 -39 3c-24 0 -93 -5 -93 -39c0 -12 13 -23 29 -23zM280 91c1 7 -3 8 -5 6c-4 -4 -6 -11 -4 -24c3 5 8 12 9 18z" />
    <glyph glyph-name="H" unicode="H" horiz-adv-x="520"
d="M-86 207c-6 8 -11 21 -11 29s3 13 8 13c22 0 4 -37 23 -57c35 -33 81 -38 124 -38c77 0 167 24 233 42c76 120 90 131 93 131c7 0 12 -11 12 -17c0 -8 -4 -15 -4 -15l-61 -89c50 17 137 19 133 -60c46 85 114 174 114 174c3 6 6 7 8 7c7 0 11 -12 11 -17
c0 -8 -4 -15 -4 -15l-63 -93c-90 -145 -91 -174 -91 -180c0 -7 4 -9 7 -9c18 -2 79 49 81 53c2 1 4 1 5 1s2 0 2 -2c0 -7 -53 -55 -74 -62c-6 -2 -11 -3 -15 -3c-19 0 -22 20 -22 20c-1 3 -1 7 -1 11c0 29 31 80 31 120c0 65 -89 57 -132 40c-84 -124 -86 -169 -86 -173
c0 -8 -6 -10 -9 -10c-10 0 -11 4 -11 8c0 39 28 103 67 165c-66 -18 -147 -39 -222 -39c-56 0 -117 11 -146 65z" />
    <glyph glyph-name="I" unicode="I" horiz-adv-x="298"
d="M-34 -25c-11 6 -17 15 -17 22c0 5 3 7 9 7c22 0 28 -21 46 -33c9 0 20 0 30 3c133 45 206 164 322 278c47 47 42 50 47 50c6 0 9 -11 9 -16c0 -9 -4 -17 -4 -17l-56 -71c-96 -132 -105 -194 -105 -194c-2 -8 -5 -10 -8 -10c-8 0 -9 4 -9 7c0 42 47 131 88 193
c-83 -90 -161 -191 -282 -232c-6 -2 -12 -3 -19 -3c-18 0 -37 6 -51 16zM414 300c-2 1 -4 4 -4 8c0 12 17 34 29 34c5 0 8 -2 8 -8c0 -15 -17 -35 -29 -35c-1 0 -3 0 -4 1z" />
    <glyph glyph-name="J" unicode="J" horiz-adv-x="253"
d="M26 -118c-28 0 -61 11 -61 46c0 57 56 84 99 84c31 0 59 -5 87 -14c39 60 99 161 137 217c-56 -28 -126 -51 -189 -51c-42 0 -82 19 -82 65c0 6 3 12 8 12c30 0 4 -66 72 -66c89 0 172 44 252 85c58 30 117 72 187 72c20 0 60 -9 60 -47c0 -31 -32 -65 -65 -65
c-8 0 -13 2 -13 7c0 33 66 7 66 59c0 25 -23 35 -48 35c-68 0 -141 -48 -202 -83c0 -4 -2 -10 -3 -11c-47 -65 -151 -237 -153 -239c35 -12 72 -27 107 -27c44 0 40 32 71 32c6 0 11 -2 11 -7c0 -17 -41 -37 -87 -37c-34 0 -75 16 -109 29c-40 -55 -86 -96 -145 -96z
M-23 -72c-1 -23 19 -34 49 -34c47 0 83 41 118 93c-27 9 -52 13 -80 13c-27 0 -84 -15 -87 -72z" />
    <glyph glyph-name="K" unicode="K" horiz-adv-x="355"
d="M207 3c-1 3 -1 7 -1 11c0 22 10 53 25 87c-11 4 -23 17 -25 30c-2 11 2 20 12 21c12 1 20 -18 24 -27c21 42 47 86 69 120c-86 -87 -183 -152 -311 -152c1 0 -75 -3 -76 47c0 4 2 7 6 7c16 0 25 -16 36 -36c9 -7 25 -6 40 -6c120 0 236 80 316 169c18 20 37 44 41 44
c7 0 10 -12 10 -16c0 -9 -4 -16 -4 -16l-54 -91c-21 -35 -37 -63 -50 -87c14 0 28 3 41 7c49 14 126 85 126 114c0 7 -1 13 -1 19c0 16 12 30 18 30c16 0 8 -26 6 -34c-14 -54 -106 -148 -190 -148h-4c-2 0 -3 0 -3 -2c34 -68 80 -134 161 -134c46 0 44 36 73 36
c6 0 10 -2 10 -7c0 -21 -53 -40 -86 -40c-84 0 -133 69 -165 131c-25 -50 -28 -69 -28 -69c-1 -9 -5 -11 -8 -11c-4 0 -8 3 -8 3zM222 139c-4 4 -7 -2 -6 -6c2 -7 7 -18 19 -21c-3 10 -6 18 -13 27z" />
    <glyph glyph-name="L" unicode="L" horiz-adv-x="290"
d="M-57 159c0 103 95 152 174 152c85 0 163 -42 243 -43c8 10 37 47 48 50c13 4 23 -11 23 -22c0 -36 -37 -39 -50 -41c-59 -95 -140 -224 -151 -236c24 -31 50 -57 94 -57c64 0 48 42 84 42c4 0 7 -2 7 -7c0 -6 -7 -17 -18 -23c1 -2 -39 -23 -78 -23c-46 0 -76 31 -99 60
c-13 -10 -27 -14 -41 -14c-34 0 -50 37 -50 69c0 22 9 29 20 31c22 5 50 -36 65 -57c49 68 85 146 137 216c-83 4 -155 42 -235 42c-86 0 -150 -57 -157 -109c0 -11 5 -20 5 -29c0 -14 -4 -25 -10 -25c-11 3 -11 15 -11 24zM179 11c12 0 21 9 28 18c-18 23 -44 61 -55 57
c-8 -3 -11 -9 -11 -20c0 -29 18 -55 38 -55zM405 293c-3 -4 -8 -13 -15 -25c14 3 29 11 29 26c0 4 -1 9 -4 10c-1 1 -6 -4 -10 -11z" />
    <glyph glyph-name="M" unicode="M" horiz-adv-x="409"
d="M214 174c-76 -91 -158 -181 -276 -220c-5 -1 -11 -2 -16 -2c-35 -3 -70 20 -70 36c0 6 3 8 9 8c22 0 27 -20 46 -33c9 0 19 0 29 3c134 44 228 167 316 275c39 52 40 59 41 59c15 0 13 -24 10 -33l-42 -72c-66 -107 -86 -157 -91 -175c2 0 12 15 18 23
c76 96 139 204 244 277c12 6 25 7 27 -14c8 11 10 14 13 14c12 0 11 -25 7 -32l-63 -93c-90 -146 -91 -174 -91 -180c0 -8 4 -10 7 -10s80 47 81 53c2 1 4 1 5 1c2 0 2 0 2 -2c0 -8 -54 -52 -74 -61c-6 -3 -12 -4 -16 -4c-18 0 -21 20 -21 20c-1 3 -1 7 -1 10
c0 71 103 218 141 271c0 9 1 23 -12 15c-98 -67 -164 -178 -239 -272c-19 -24 -30 -36 -38 -36c-7 0 -8 5 -8 10c0 40 27 103 62 164z" />
    <glyph glyph-name="N" unicode="N" horiz-adv-x="435"
d="M-48 216c6 -11 -2 -22 11 -38c35 -21 68 -31 106 -31c79 0 164 43 216 102c42 48 32 50 38 50c13 0 12 -24 9 -32l-42 -72c-67 -107 -83 -157 -89 -172c4 6 9 12 15 20c77 96 139 204 245 277c10 8 29 -1 27 -13c10 10 8 13 13 13c11 0 9 -25 7 -32l-63 -93
c-87 -140 -91 -173 -91 -179c0 -9 4 -11 7 -11c12 -1 78 45 81 53c2 1 4 1 5 1s2 0 2 -2c0 -7 -54 -52 -74 -61c-6 -3 -12 -4 -16 -4c-18 0 -21 20 -21 20c-9 76 100 225 140 281c1 12 -1 23 -13 15c-96 -68 -164 -177 -239 -272c-19 -24 -32 -36 -37 -36c-8 0 -9 5 -9 10
c0 49 43 135 85 203c-53 -47 -124 -78 -194 -78c-67 0 -147 38 -147 88c0 6 2 11 7 11c7 0 15 -7 21 -18z" />
    <glyph glyph-name="O" unicode="O" horiz-adv-x="383"
d="M-81 289c17 15 63 35 105 35c61 0 112 -22 157 -60v1c30 29 74 56 116 56c44 0 63 -29 67 -83c3 -46 -18 -196 -132 -196c-48 0 -71 44 -71 86c0 37 16 73 41 101c-6 5 -11 10 -17 16c-30 -35 -59 -85 -59 -140c0 -53 21 -111 81 -111c128 0 194 145 199 248
c-2 37 -23 32 -23 57c0 9 3 15 9 15c22 0 22 -52 21 -78c-6 -110 -82 -254 -211 -254c-72 0 -103 51 -103 106c0 63 33 121 74 167c-44 36 -91 58 -148 58c-22 0 -49 -5 -68 -13c-28 -14 -22 -41 -44 -41c-5 0 -8 3 -8 8c0 6 5 14 14 22zM276 305c-27 -6 -56 -25 -83 -51
c6 -6 12 -11 17 -16c16 14 30 27 53 27c25 0 39 -20 39 -39c0 -23 -18 -41 -41 -41c-21 0 -35 19 -46 30c-15 -24 -26 -55 -26 -85c0 -32 11 -73 54 -74c73 4 109 96 109 181c0 46 -16 72 -54 72h2s-24 -2 -24 -4zM222 225c13 -14 28 -28 43 -28c9 0 25 10 25 29
c0 14 -12 27 -27 27c-14 0 -30 -13 -41 -28z" />
    <glyph glyph-name="P" unicode="P" horiz-adv-x="490"
d="M542 248c0 -121 -120 -237 -239 -237c-25 0 -53 11 -53 45c0 5 1 10 2 16c-29 -58 -32 -79 -32 -79c-2 -9 -5 -11 -9 -11c-8 0 -9 4 -9 8c0 81 130 282 136 282c1 1 2 2 2 3c-113 -46 -210 -127 -323 -181c-10 -4 -25 -7 -35 -7c-13 0 -55 13 -55 42c0 4 2 8 7 8
c26 0 20 -38 54 -38c8 0 16 2 24 7c122 56 229 152 361 195c30 10 61 19 96 19c36 0 73 -14 73 -72zM260 53c0 -18 23 -27 37 -28c112 0 212 129 212 222c0 43 -25 56 -56 56c-37 0 -64 -11 -104 -24c6 -6 9 -10 9 -17c0 -8 -4 -15 -4 -15l-42 -70c-18 -29 -32 -53 -43 -74
c1 1 3 2 5 2c5 0 7 -6 7 -12c0 -18 -12 -26 -21 -40z" />
    <glyph glyph-name="Q" unicode="Q" horiz-adv-x="314"
d="M251 -54c16 0 36 7 36 28s-11 32 -25 32c-16 0 -29 -13 -32 -13v1c1 2 13 19 32 19c15 0 36 -11 36 -40c0 -25 -24 -39 -47 -39c-33 0 -64 30 -85 52c-14 -6 -51 -13 -73 -12c-36 1 -87 15 -87 67c0 17 7 34 24 41c0 115 106 225 208 242c66 13 102 -48 101 -100
c0 -103 -64 -202 -160 -234c20 -19 46 -44 72 -44zM19 39c0 -37 40 -52 74 -52c25 0 43 4 62 9c-2 2 -5 4 -7 7c-10 -4 -24 -8 -41 -8c-49 0 -71 34 -76 75c-8 -6 -12 -18 -12 -31zM60 67c4 -30 22 -64 54 -64c11 0 26 1 29 4c-25 23 -53 48 -83 60zM160 8c3 -3 5 -5 8 -7
c71 32 139 116 139 216c0 71 -25 100 -67 94c-119 -17 -181 -150 -181 -230c36 -13 65 -40 92 -65c13 18 17 35 35 35c4 0 8 -3 8 -7c0 -17 -25 -27 -34 -36zM246 9v-5c-18 -14 -8 -23 -21 -32c-4 -3 -8 -3 -10 -1c-8 12 18 29 31 38z" />
    <glyph glyph-name="R" unicode="R" horiz-adv-x="461"
d="M-26 152c149 53 296 167 463 167c38 0 80 -15 80 -66c0 -97 -104 -206 -211 -218c30 -41 65 -90 119 -90c19 0 25 26 46 26c6 0 10 -2 10 -6c0 -22 -46 -30 -61 -30c-61 0 -97 54 -128 98c-7 -1 -14 -1 -20 -1c-22 0 -38 3 -61 11c-26 -57 -21 -64 -23 -64
c-12 0 -14 4 -14 10c0 21 5 43 15 70c-4 6 -8 13 -9 21c-2 18 10 35 33 33c35 67 80 128 80 128c4 6 7 8 9 8c7 0 11 -12 11 -17c0 -8 -4 -15 -4 -15l-25 -42c-17 -28 -31 -49 -41 -69c25 -14 42 -39 57 -58c83 19 185 106 185 203c0 26 -11 48 -47 56
c-166 0 -305 -112 -461 -167c-12 -4 -22 -7 -35 -3c0 0 -51 15 -51 47c0 4 3 7 7 7c30 0 21 -44 52 -44c6 0 18 2 24 5zM194 73c4 9 8 17 12 26c-12 -3 -18 -12 -12 -26zM216 54c16 -6 33 -10 53 -10c5 0 10 0 15 1c-14 20 -29 38 -48 48c-8 -15 -14 -28 -20 -39z" />
    <glyph glyph-name="S" unicode="S" horiz-adv-x="257"
d="M35 124c34 -2 106 -73 148 -98c14 14 24 33 24 55c0 60 -66 105 -66 166c0 47 39 78 85 77c39 -1 73 -33 73 -69c0 -9 -3 -15 -8 -15c-8 0 -21 15 -21 33c0 3 1 7 1 10c0 18 -27 28 -44 28c-32 0 -62 -7 -62 -60c0 -43 73 -97 73 -166c0 -32 -16 -59 -32 -74
c64 -40 134 -70 208 -70c34 0 58 3 99 18c32 15 22 40 47 40c6 0 9 -3 9 -7c0 -20 -60 -63 -155 -63c-78 0 -151 32 -218 74c-23 -16 -65 -26 -100 -26c-41 0 -90 27 -95 83c-4 45 9 65 34 64zM13 68c0 -44 36 -78 82 -78c28 0 57 10 79 28c-49 32 -114 97 -142 97
c-14 0 -20 -9 -19 -47z" />
    <glyph glyph-name="T" unicode="T" horiz-adv-x="264"
d="M23 169c90 0 169 46 250 88c51 27 112 71 167 71c37 0 78 -19 78 -68c0 -28 -18 -74 -37 -74c-5 0 -8 4 -8 10c0 28 33 29 33 57c0 44 -28 63 -65 63c-43 0 -92 -32 -135 -55c2 -3 2 -7 2 -10c0 -8 -3 -14 -3 -14l-36 -52c-85 -138 -97 -182 -97 -182c0 -13 3 -15 7 -15
c1 0 90 62 91 70c2 1 3 1 4 1c2 0 2 0 2 -2c0 -4 -5 -12 -5 -12c-5 -6 -78 -66 -78 -66c-6 -3 -12 -4 -16 -4c-18 0 -21 20 -21 20c-1 3 -1 7 -1 11c0 67 89 193 122 239c-77 -39 -156 -88 -248 -88c-19 0 -87 11 -87 70c0 9 3 14 8 14c10 0 20 -17 20 -37
c0 -26 28 -35 53 -35z" />
    <glyph glyph-name="U" unicode="U" horiz-adv-x="489"
d="M405 82c-44 -50 -112 -110 -184 -110c-25 0 -27 16 -27 25c0 8 4 13 4 13l63 93c85 138 101 192 101 192c0 12 -3 14 -7 14c-7 0 -34 -20 -59 -37c-76 -53 -161 -132 -253 -132c-64 0 -113 60 -113 86c0 7 2 12 7 12c26 0 12 -32 36 -59c26 -17 43 -26 71 -26
c78 0 162 68 233 120c47 38 75 49 80 49c19 0 21 -19 21 -19c1 -3 1 -7 1 -10c0 -76 -132 -257 -160 -299c-2 -3 -3 -5 -3 -7s2 -3 2 -3h-1c76 0 153 71 199 131c3 4 6 8 10 12c37 73 93 145 93 145c3 6 6 7 9 7c7 0 11 -12 11 -17c0 -8 -4 -15 -4 -15l-36 -52
c-90 -146 -91 -174 -91 -180c0 -8 4 -10 7 -10c2 0 81 47 82 53c2 1 3 1 4 1c2 0 2 0 2 -2c0 -8 -54 -52 -74 -61c-6 -3 -12 -4 -16 -4c-19 0 -22 17 -22 27c0 18 3 39 14 63z" />
    <glyph glyph-name="V" unicode="V" horiz-adv-x="407"
d="M294 265c-69 -52 -158 -125 -243 -125c-69 0 -114 65 -114 87c0 6 2 11 7 11c27 0 17 -38 37 -59c26 -17 42 -26 70 -26c112 0 287 169 313 169c19 0 22 -19 22 -19c0 -3 1 -7 1 -10c0 -86 -165 -308 -167 -308c7 0 17 5 23 8c101 56 180 148 248 242c4 6 9 12 14 18
c0 11 -3 20 -3 29c0 15 10 27 16 27s10 -8 10 -19c0 -24 -15 -45 -27 -62c-69 -95 -147 -187 -252 -247c-7 -2 -15 -6 -24 -6c-12 0 -24 7 -24 20c0 8 4 15 4 15l63 93c86 138 101 192 101 192c0 12 -3 14 -7 14c-7 0 -43 -28 -68 -44z" />
    <glyph glyph-name="W" unicode="W" horiz-adv-x="562"
d="M351 -20c-5 4 -6 9 -6 14c0 8 4 16 4 16l49 73c-40 -41 -117 -108 -169 -108c-11 0 -23 9 -23 20c0 8 4 15 4 15l63 93c86 138 101 192 101 192c0 12 -3 14 -7 14c-7 0 -34 -20 -59 -37c-74 -51 -160 -132 -252 -132c-69 0 -114 65 -114 87c0 6 2 11 7 11
c27 0 17 -38 37 -59c26 -17 42 -26 70 -26c112 0 287 169 313 169c19 0 22 -19 22 -19c0 -3 1 -7 1 -10c0 -86 -165 -307 -166 -308c7 0 15 2 24 7c81 36 148 99 199 173c53 92 64 130 64 130c1 9 7 13 11 13c5 0 6 -7 6 -12c0 -86 -164 -306 -166 -311c7 0 16 2 26 7
c102 48 180 140 232 239c11 32 4 18 4 49c0 16 7 30 14 30s11 -10 11 -22c-1 -12 -4 -33 -18 -62c-52 -102 -134 -196 -238 -245c-8 -3 -17 -6 -26 -6c-8 0 -18 4 -18 5z" />
    <glyph glyph-name="X" unicode="X" horiz-adv-x="475"
d="M600 -31c-15 -17 -35 -27 -59 -27c-87 0 -125 98 -147 155c-32 -60 -33 -83 -33 -86c0 -9 -5 -11 -8 -11c-9 0 -10 6 -10 12c0 32 15 74 40 121c-10 40 -16 80 -17 121c-90 0 -164 54 -246 54c-70 0 -127 -55 -143 -111c0 -10 5 -19 5 -27c0 -14 -6 -24 -11 -24
c-7 0 -11 9 -11 23c5 64 65 151 163 151c85 0 162 -54 242 -54c0 0 -1 34 18 34c9 0 20 -11 15 -26c-3 -9 -11 -14 -20 -17c1 -36 6 -73 14 -108c47 82 111 163 111 163c3 6 6 8 9 8c7 0 10 -12 10 -16c0 -9 -4 -16 -4 -16l-63 -93c-23 -33 -40 -60 -53 -83
c21 -59 59 -158 137 -158c45 0 38 43 63 43c5 0 7 -3 7 -7c0 -6 -3 -14 -9 -21zM380 287c-2 -6 -2 -10 -2 -18c8 3 12 5 12 12c0 4 -8 12 -10 6z" />
    <glyph glyph-name="Y" unicode="Y" horiz-adv-x="448"
d="M357 -45c-25 -30 -63 -62 -109 -59c-16 1 -33 8 -33 28c0 39 76 46 98 46c9 0 18 -1 27 -1c27 34 44 69 50 78c5 9 11 20 17 31c-46 -52 -104 -96 -176 -106c-19 0 -32 15 -32 26c0 7 4 12 4 12l63 93c86 138 102 192 102 192c0 13 -4 14 -8 14c-6 -1 -33 -19 -59 -37
c-77 -52 -159 -132 -252 -132c-70 0 -114 66 -114 87c0 6 3 11 8 11c26 0 17 -39 36 -59c15 -16 43 -26 71 -26c78 0 162 68 233 120c46 37 73 49 79 49c19 0 22 -19 22 -19c0 -3 1 -6 1 -10c0 -81 -163 -289 -163 -307c0 -1 1 -2 1 -2c76 0 154 71 199 131
c52 70 50 135 99 135c4 0 5 -3 5 -6c0 -4 -2 -8 -3 -10c-34 -46 -88 -159 -116 -205c-17 -29 -30 -49 -41 -63c30 -4 61 -12 91 -12c63 0 48 53 77 53c5 0 7 -4 7 -8c0 -17 -38 -57 -85 -57c-34 0 -67 9 -99 13zM252 -92c30 0 59 27 78 49c-6 0 -12 1 -17 1
c-2 0 -86 -3 -86 -36c0 -9 12 -14 25 -14z" />
    <glyph glyph-name="Z" unicode="Z" horiz-adv-x="301"
d="M462 329c13 5 29 9 45 9c37 0 76 -19 78 -69c1 -32 -21 -79 -51 -79c-5 0 -9 3 -9 8c0 33 48 13 48 67c0 43 -29 61 -65 61c-41 0 -87 -29 -126 -50c2 -3 2 -7 2 -11c0 -8 -3 -15 -3 -15l-36 -53c-9 -13 -17 -26 -26 -38h20c6 0 15 0 15 -6s-9 -6 -15 -6h-28
c-33 -48 -64 -101 -98 -147c36 -37 81 -61 129 -61c21 0 53 5 64 15c14 14 19 33 40 33c5 0 8 -2 8 -6c0 -25 -55 -54 -124 -51c-51 2 -89 30 -124 60c-16 -19 -36 -36 -62 -36c-23 0 -44 14 -44 40c0 18 15 40 46 41c20 1 37 -10 48 -21c20 20 42 66 65 101
c0 27 -34 34 -34 38c0 6 15 6 16 6h46c29 44 55 83 69 102c-4 -1 -7 -3 -10 -5c-78 -40 -158 -89 -250 -89c-17 0 -88 9 -88 71c0 8 4 13 9 13c8 0 20 -15 20 -33c0 -32 28 -39 60 -39c132 0 246 104 365 150zM141 -34c19 0 24 13 47 40c-13 13 -28 18 -43 18
c-17 0 -33 -13 -33 -29c0 -14 11 -29 29 -29zM269 131c4 6 7 11 10 16h-19c4 -5 7 -10 9 -16z" />
    <glyph glyph-name="a" unicode="a" horiz-adv-x="182"
d="M192 168c-86 -116 -89 -140 -89 -148s5 -9 8 -9c17 0 70 46 78 46c1 0 2 -1 2 -2c0 -4 -7 -12 -7 -12c-58 -50 -75 -44 -75 -45c-21 0 -22 22 -22 22c0 11 1 20 6 35v-1c-22 -21 -65 -47 -65 -47c-10 -6 -17 -7 -23 -7c-19 0 -20 18 -20 27c0 35 36 80 36 80
c56 69 86 74 86 74c20 9 40 -6 35 -34c10 15 23 37 46 37c6 0 7 -3 7 -6c0 -4 -2 -9 -3 -10zM38 29c4 3 93 60 93 108c0 9 -1 23 -11 23c-17 0 -62 -52 -74 -65c0 0 -42 -44 -42 -73c0 -2 0 -6 3 -7s12 2 31 14z" />
    <glyph glyph-name="b" unicode="b"
d="M169 108c7 5 17 14 21 14c1 0 2 -1 2 -2c0 -22 -48 -46 -78 -51c-5 -5 -9 -11 -14 -17c-12 -15 -59 -58 -87 -52c-1 0 2 0 2 0c-17 0 -29 13 -27 33c0 4 1 7 2 11c33 108 175 267 179 267c7 0 10 -7 10 -16c0 -5 -1 -10 -4 -14c-36 -46 -65 -84 -88 -116c7 8 26 16 35 17
c19 2 38 1 34 -31c0 -2 -4 -24 -31 -66c16 5 32 13 44 23zM13 15c26 0 60 41 71 55c-20 5 -32 23 -34 42c-26 -39 -44 -68 -44 -85c0 -13 7 -12 7 -12zM92 82c30 44 32 61 32 61c2 7 3 17 -7 17c-28 0 -54 -17 -54 -45c0 -16 10 -30 29 -33z" />
    <glyph glyph-name="c" unicode="c" horiz-adv-x="133"
d="M97 180c5 2 9 3 12 3c19 0 27 -18 22 -46c-7 -37 -29 -36 -29 -36l1 1l-1 -1c-4 1 -3 10 -3 12c0 8 19 25 19 43c-6 0 -13 -2 -22 -8c-23 -15 -91 -89 -91 -123c0 -10 9 -13 17 -13c57 0 125 75 138 97c1 1 2 -1 2 -2c0 -31 -93 -107 -139 -109c-29 -1 -36 16 -36 36
c0 44 72 133 110 146z" />
    <glyph glyph-name="d" unicode="d" horiz-adv-x="180"
d="M277 309c4 -3 6 -8 6 -12c0 -9 -6 -18 -6 -18l-71 -87c-104 -138 -107 -165 -107 -172c0 -8 5 -9 8 -9c16 -2 68 46 77 46c2 0 3 -1 3 -2c0 -4 -7 -12 -7 -12c-32 -27 -63 -46 -75 -45c-21 2 -22 22 -22 22c0 8 1 18 5 31c-17 -15 -58 -51 -84 -51c-20 0 -21 17 -21 27
c0 48 75 142 122 154c22 7 34 -9 36 -31c52 78 122 155 122 155c4 4 7 5 10 5c2 0 4 -1 4 -1zM129 133c0 19 -2 30 -26 16c-31 -18 -102 -88 -102 -128c0 -3 -1 -7 3 -7s13 2 32 15c22 13 77 80 93 104z" />
    <glyph glyph-name="e" unicode="e" horiz-adv-x="130"
d="M128 72c6 9 18 20 22 18c3 -2 -5 -17 -12 -26c-19 -22 -31 -31 -55 -45c-22 -12 -80 -42 -92 0c-12 45 53 141 96 161c15 8 35 8 42 -11c24 -67 -62 -101 -106 -122c-4 -1 -7 -2 -11 -3c-4 -11 -5 -21 -3 -29c6 -13 49 4 68 16c27 17 33 23 51 41zM93 152
c-29 -20 -57 -57 -74 -92c46 19 110 52 98 100c-3 6 -14 0 -24 -8z" />
    <glyph glyph-name="f" unicode="f" horiz-adv-x="78"
d="M60 122c2 -10 2 -20 2 -30c0 -43 -36 -155 -93 -155c-21 0 -22 22 -22 22v4c0 37 45 111 94 180c-6 17 -14 33 -24 48c-5 3 -50 19 -50 37c0 4 3 5 7 5c16 0 36 -17 52 -31c2 1 -5 1 -2 1h62c99 130 86 107 91 107c7 0 10 -9 10 -13c0 -9 -6 -18 -6 -18s-26 -32 -60 -76
c6 0 14 -3 14 -6c0 -4 -8 -7 -14 -7h-10c-16 -21 -34 -45 -51 -68zM-31 -51c43 0 80 105 80 143c0 4 -1 9 -1 14c-46 -65 -85 -127 -85 -149c0 -6 3 -8 6 -8zM41 175c3 -6 6 -13 9 -20c9 12 17 24 26 35h-43c4 -5 5 -10 8 -15z" />
    <glyph glyph-name="g" unicode="g" horiz-adv-x="158"
d="M43 -33c18 26 34 55 51 89l-1 -2c-22 -21 -65 -47 -65 -47c-9 -5 -15 -7 -20 -7c-22 0 -24 15 -24 27c0 35 36 80 36 80c56 69 86 74 86 74c4 1 7 2 10 2c25 0 27 -25 27 -34v-4c8 16 21 39 47 39c4 0 5 -3 5 -6c0 -4 -2 -9 -3 -10c-50 -67 -95 -163 -125 -206
c75 -14 132 -27 190 -27s123 7 204 42c19 8 24 35 47 35c4 0 7 -3 7 -7c0 -18 -34 -32 -46 -37c-85 -36 -154 -44 -218 -44c-59 0 -116 11 -191 27c-37 -47 -77 -78 -130 -78c-20 0 -57 15 -57 44c0 50 69 57 109 57c20 0 41 -3 61 -7zM-72 -114c44 0 80 34 106 71
c-18 2 -36 6 -55 6c-33 0 -92 -9 -92 -45c0 -23 24 -32 41 -32zM37 29c0 0 69 39 93 102c0 6 1 28 -10 29c-17 0 -62 -53 -74 -65c0 0 -42 -44 -42 -73c0 -2 0 -7 3 -7c4 0 12 3 30 14z" />
    <glyph glyph-name="h" unicode="h" horiz-adv-x="180"
d="M145 169c-46 -18 -87 -57 -119 -100c-31 -51 -31 -64 -31 -64c-2 -5 -5 -6 -8 -6c-7 0 -7 4 -7 7c0 94 191 305 193 305c6 0 10 -7 10 -15c0 -5 -2 -11 -5 -15c-46 -59 -80 -106 -106 -143c22 19 60 44 87 47c20 2 36 -18 22 -32c-69 -95 -78 -119 -78 -127
c0 -14 5 -15 8 -15c13 0 73 44 73 45c2 1 3 1 4 1c2 0 3 -1 3 -2c0 -4 -7 -12 -7 -12c-32 -27 -62 -45 -75 -45c-21 0 -22 22 -22 22c-3 35 21 75 59 133c4 6 12 20 -1 16z" />
    <glyph glyph-name="i" unicode="i" horiz-adv-x="85"
d="M58 168c6 7 21 16 32 16c5 0 7 -2 7 -6s-3 -9 -4 -10c-80 -110 -87 -142 -87 -142c-1 -3 -1 -5 -1 -7c0 -7 5 -8 8 -8c15 -2 72 43 72 45c2 1 4 1 5 1s2 -1 2 -2c0 -4 -7 -12 -7 -12c-52 -46 -72 -45 -74 -45c-23 1 -22 22 -22 22c0 36 28 89 69 148zM95 209
c-3 1 -4 4 -4 8c0 14 16 36 27 36c4 0 7 -3 7 -9c0 -16 -16 -36 -26 -36c-2 0 -3 0 -4 1z" />
    <glyph glyph-name="j" unicode="j" horiz-adv-x="74"
d="M119 224c-7 -10 -14 -16 -20 -16c-5 0 -8 3 -8 9c0 15 16 36 27 36c4 0 7 -3 7 -9s-2 -13 -6 -20zM90 184c3 -1 5 -3 5 -6c0 -4 -3 -9 -4 -10c-30 -41 -71 -101 -96 -159c44 10 84 48 87 45c12 -14 -55 -46 -93 -60c-15 -30 -45 -92 -100 -104c-15 -4 -19 9 -19 18
c0 51 64 78 100 92c32 95 82 184 120 184zM-57 -52c6 11 14 24 19 35c-34 -14 -79 -38 -79 -76c0 -3 0 -5 2 -5c16 0 50 29 58 46z" />
    <glyph glyph-name="k" unicode="k" horiz-adv-x="172"
d="M172 311c6 -1 9 -7 9 -15c0 -5 -2 -11 -5 -15c-64 -82 -106 -140 -133 -182c44 24 82 23 97 67c1 6 -4 11 -1 16v0c10 10 25 -2 25 -15c0 -53 -63 -59 -75 -63c13 -7 14 -23 14 -26c-6 -45 -6 -51 -6 -52c0 -14 6 -15 12 -15c14 -1 63 42 63 45c2 1 3 1 4 1
c2 0 3 -1 3 -2c0 -9 -53 -57 -73 -56c-35 2 -31 31 -31 79c0 9 0 16 -1 21c-20 -8 -38 -15 -51 -32c-30 -50 -30 -62 -30 -62c-2 -5 -5 -6 -8 -6c-7 0 -7 4 -7 7c0 92 189 305 194 305z" />
    <glyph glyph-name="l" unicode="l" horiz-adv-x="85"
d="M111 192c-104 -139 -106 -165 -106 -173c0 -7 4 -8 8 -8c18 0 72 43 72 45c1 1 7 2 7 -1c1 -6 -7 -12 -7 -12c-55 -48 -72 -45 -74 -45c-24 -1 -22 22 -22 22c0 77 174 285 180 285c4 4 7 5 9 5c7 0 9 -10 9 -14c0 -9 -5 -17 -5 -17z" />
    <glyph glyph-name="m" unicode="m" horiz-adv-x="276"
d="M241 169c-58 -22 -107 -77 -141 -131c-19 -25 -16 -38 -24 -38c-3 0 -5 5 -5 13c0 6 1 15 5 25c24 67 44 94 69 130c-52 -19 -106 -77 -138 -130c-17 -22 -15 -38 -25 -38c-3 0 -5 5 -5 13c0 7 1 15 5 25c47 112 74 145 103 146c4 0 5 -3 5 -6c0 -14 -30 -46 -42 -64
c23 23 71 70 106 70c11 0 21 -8 21 -18c0 -11 -24 -37 -34 -53c27 29 58 54 97 69c10 4 40 4 40 -19c0 -5 -1 -9 -2 -10c-69 -96 -78 -120 -78 -128c0 -13 6 -14 9 -14c9 0 72 44 72 45c2 1 4 1 5 1s2 -1 2 -2c0 -4 -7 -12 -7 -12c-62 -48 -76 -45 -74 -45
c-15 0 -23 14 -23 29c0 33 24 73 59 126c6 8 11 16 9 18c-3 0 -6 -1 -9 -2z" />
    <glyph glyph-name="n" unicode="n" horiz-adv-x="187"
d="M187 56c2 1 4 1 5 1s2 -1 2 -2c0 -4 -7 -12 -7 -12c-65 -51 -76 -45 -74 -45c-11 0 -23 9 -23 29c0 33 24 73 59 126c6 8 11 15 9 18c-3 0 -6 -1 -9 -2c-58 -22 -108 -77 -141 -131c-14 -23 -17 -38 -25 -38c-3 0 -5 5 -5 13c0 7 1 15 5 25c30 75 68 146 103 146
c4 0 5 -3 5 -6c0 -13 -30 -47 -44 -67c28 30 60 55 99 71c34 8 40 -6 40 -19c0 -5 -1 -9 -2 -10c-75 -103 -77 -124 -77 -127c0 -14 4 -15 8 -15c9 0 72 44 72 45z" />
    <glyph glyph-name="o" unicode="o" horiz-adv-x="177"
d="M205 130c-14 -29 -46 -51 -83 -51c-6 0 -8 -5 -12 -11c-2 -3 -50 -71 -102 -71c-8 0 -22 2 -23 25c-3 74 84 168 136 168c26 0 27 -25 27 -34c0 -12 -3 -34 -21 -63c30 2 54 20 65 43c1 3 4 5 6 5c8 0 7 -10 7 -11zM17 14c32 1 73 51 86 68c-25 6 -44 25 -44 51
c0 3 0 7 1 10c-24 -26 -51 -72 -51 -114c0 -16 7 -15 8 -15zM110 94c13 26 16 42 16 51c0 20 -12 24 -19 24c-27 0 -35 -28 -35 -36c0 -17 14 -32 38 -39z" />
    <glyph glyph-name="p" unicode="p" horiz-adv-x="178"
d="M74 183c5 -4 6 -10 7 -16c1 -10 0 -8 -11 -28c14 20 59 41 76 44c25 4 43 -5 32 -30c-71 -98 -79 -120 -79 -128c0 -13 3 -13 9 -14c11 -2 73 44 73 45c2 1 3 1 4 1c2 0 3 -1 3 -2c0 -4 -7 -12 -7 -12c-56 -45 -73 -45 -75 -45c-15 0 -23 14 -23 29c0 33 25 73 60 126
c5 8 10 17 8 18c-36 0 -101 -60 -112 -81c-33 -57 -76 -137 -80 -178c0 -12 3 -14 7 -14c6 0 6 2 9 2c5 0 6 -6 6 -9c0 -5 -14 -6 -16 -6c-22 0 -24 19 -24 29v6c0 85 119 270 133 263z" />
    <glyph glyph-name="q" unicode="q" horiz-adv-x="154"
d="M29 7c-9 -6 -16 -7 -22 -7c-20 0 -21 17 -21 27c0 35 36 80 36 80c56 69 86 74 86 74c5 2 9 2 12 2c21 0 23 -23 24 -32c18 29 20 32 24 32c10 0 13 -9 13 -16s-3 -14 -3 -14c1 0 -119 -180 -119 -245c0 -8 3 -10 7 -10c6 0 5 2 8 2c5 0 6 -6 6 -9c0 -5 -14 -6 -16 -6
c-21 0 -23 18 -23 28c0 34 16 82 40 130c-22 -18 -52 -36 -52 -36zM47 95c0 0 -43 -45 -43 -74c0 -3 -1 -7 3 -7c26 1 89 61 106 87c9 14 20 29 20 43c0 7 -1 13 -8 13c-5 0 -10 -2 -19 -8c0 0 -17 -10 -59 -54z" />
    <glyph glyph-name="r" unicode="r" horiz-adv-x="149"
d="M151 165c0 8 -11 5 -16 2c-51 -28 -94 -79 -124 -130c-15 -25 -17 -37 -24 -37c-3 0 -5 5 -5 13c0 6 0 15 5 25c35 75 70 152 103 146c3 -1 5 -2 5 -5c0 -12 -24 -38 -35 -55c19 20 60 60 86 60c12 0 21 -9 21 -29c0 -46 -26 -57 -31 -57c-9 0 -7 13 -5 18
c3 7 17 28 20 49z" />
    <glyph glyph-name="s" unicode="s" horiz-adv-x="146"
d="M-16 31c-4 7 -6 13 -6 21c0 18 15 36 36 36c4 0 10 -1 15 -3c13 17 28 31 64 90c1 1 -6 15 15 11c24 -5 34 -109 7 -150c15 -1 39 11 42 11c1 0 1 0 1 -1c0 -4 -20 -22 -44 -22c-2 0 -5 0 -7 1c-25 -27 -42 -25 -62 -26c-24 -1 -48 10 -61 32zM45 84c-2 -2 -3 -4 -5 -5
c18 -12 37 -27 54 -35c18 31 13 111 5 112c-17 -25 -35 -52 -54 -72zM31 69c-13 -13 -27 -25 -37 -32c8 -14 32 -25 52 -25c19 0 32 9 40 21c-19 10 -39 25 -55 36zM20 75c-2 0 -3 1 -5 1c-11 0 -24 -14 -24 -28c0 -2 0 -3 1 -5c7 9 18 21 28 32z" />
    <glyph glyph-name="t" unicode="t" horiz-adv-x="82"
d="M173 311c7 0 11 -7 11 -15c0 -9 -5 -17 -5 -17l-62 -76h7c5 0 14 0 14 -6c0 -7 -9 -7 -14 -7h-17c-102 -137 -105 -162 -105 -171c0 -7 5 -8 8 -8c19 -2 72 43 72 45c2 1 4 1 5 1s2 -1 2 -2c0 -6 -7 -12 -7 -12c-59 -52 -72 -45 -74 -45c-24 0 -22 22 -22 22
c0 40 38 106 86 170h-43c-6 0 -13 0 -13 7c0 6 7 6 13 6h53c73 96 87 108 91 108z" />
    <glyph glyph-name="u" unicode="u" horiz-adv-x="177"
d="M177 56c2 1 3 1 4 1c2 0 3 -1 3 -2c0 -4 -7 -12 -7 -12c-59 -47 -73 -45 -75 -45c-21 0 -22 22 -22 22c-1 4 0 8 0 13c-54 -33 -61 -35 -69 -35c-21 0 -22 22 -22 22v6c0 22 50 158 101 158c5 0 7 -2 7 -6s-3 -9 -4 -10c-80 -110 -87 -142 -87 -142c-1 -3 -1 -5 -1 -7
c0 -7 5 -8 8 -8c5 0 47 23 70 37c9 31 58 136 98 136c5 0 7 -2 7 -6s-3 -9 -4 -10c-85 -116 -88 -140 -88 -148s5 -8 8 -9c15 -3 73 43 73 45z" />
    <glyph glyph-name="v" unicode="v" horiz-adv-x="153"
d="M203 143c7 5 20 18 24 18c1 0 1 -1 1 -2c0 -20 -68 -64 -109 -60c-23 -38 -58 -102 -114 -102c-11 0 -19 5 -19 19c0 39 58 168 106 168c4 0 5 -3 5 -6c0 -4 -2 -9 -3 -10c-20 -27 -93 -121 -93 -156c0 -1 0 -3 1 -3c49 0 80 55 104 95c-5 5 -7 11 -7 18
c0 40 53 60 78 60c5 0 8 -1 8 -2h-1c-4 0 -42 -42 -58 -69c27 1 54 14 77 32zM113 116c10 16 21 33 33 47c-17 -8 -35 -28 -35 -41c0 -2 1 -4 2 -6z" />
    <glyph glyph-name="w" unicode="w" horiz-adv-x="249"
d="M315 139c-27 -21 -55 -40 -93 -40c-22 -35 -59 -103 -112 -103c-11 0 -19 6 -19 21c0 30 26 78 36 96c-28 -31 -90 -117 -121 -117c-1 0 -16 -2 -16 17c0 36 59 171 108 171c4 0 5 -2 5 -5c0 -5 -3 -10 -3 -11c-54 -71 -98 -141 -97 -161c4 1 8 3 13 7
c54 46 95 109 152 159c8 8 22 11 29 11c4 0 5 -3 5 -6c0 -4 -2 -9 -3 -10c-20 -27 -93 -121 -93 -156c0 -2 0 -3 1 -4c39 -5 75 50 102 95c-6 5 -8 12 -8 20c0 38 52 59 80 59c5 0 9 -1 9 -2v0c-4 0 -43 -40 -61 -69c48 0 86 50 100 50c1 0 1 -1 1 -2c0 -4 -7 -13 -15 -20z
M251 164c-18 -7 -38 -28 -38 -42c0 -3 1 -5 3 -7c11 17 22 34 35 49z" />
    <glyph glyph-name="x" unicode="x" horiz-adv-x="153"
d="M152 56c2 1 4 1 5 1s2 -1 2 -2c0 -9 -58 -46 -79 -55c-5 -2 -9 -2 -13 -2c-33 0 -24 45 -21 67c-71 -60 -145 -118 -237 -146c-8 -2 -16 -4 -25 -4c-21 0 -65 12 -65 39c0 3 5 5 9 5c28 0 22 -31 56 -31c8 0 15 1 22 3c91 29 168 89 242 152c4 21 10 44 21 70
c1 3 8 17 -1 17c-14 0 -47 -32 -58 -32c-2 0 -4 2 -4 4c0 13 47 41 77 41c19 0 23 -9 23 -18c0 -16 -12 -34 -18 -47c19 16 68 65 88 65c5 0 8 -3 8 -7c0 -27 -25 -11 -57 -40c-16 -14 -32 -28 -47 -42c-8 -24 -18 -57 -9 -83c8 -3 81 45 81 45z" />
    <glyph glyph-name="y" unicode="y" horiz-adv-x="162"
d="M274 -19c1 -1 1 -3 1 -4c0 -20 -48 -43 -101 -43c-38 0 -78 14 -114 23c-39 -48 -80 -77 -127 -76c-22 0 -58 13 -58 42c0 49 62 58 97 58c25 0 49 -3 74 -8c21 27 34 53 39 63c-54 -34 -69 -38 -75 -38c-21 0 -22 22 -22 22v6c0 22 50 158 101 158c5 0 7 -2 7 -6
s-3 -9 -4 -10c-80 -110 -87 -142 -87 -142c-1 -3 -1 -5 -1 -7c0 -7 5 -8 8 -8c7 0 70 38 82 44c27 56 59 129 98 129c4 0 5 -3 5 -6c0 -4 -2 -9 -3 -10c-45 -61 -79 -142 -126 -201c38 -10 76 -21 113 -21c14 0 29 3 42 6c16 5 21 32 44 32c3 0 5 -1 7 -3zM-18 -91
c22 15 40 34 56 53c-21 4 -42 7 -63 7c-36 0 -88 -9 -88 -45c0 -21 28 -31 45 -31s34 6 50 16z" />
    <glyph glyph-name="z" unicode="z" horiz-adv-x="160"
d="M160 56c2 1 3 1 4 1c2 0 3 -1 3 -2c0 -4 -7 -12 -7 -12c-32 -27 -63 -46 -75 -45c-13 1 -19 8 -20 15c-2 -4 -5 -8 -7 -11c8 -21 9 -41 9 -60c0 -34 -16 -100 -61 -100c-20 0 -23 17 -23 27c0 37 19 87 46 136c-2 -1 -4 -1 -6 -1c-12 0 -19 8 -19 19c0 8 6 17 19 17
c9 0 15 -6 19 -11c60 97 48 71 88 142c-39 -1 -115 -41 -116 -87c5 -9 -4 -9 -6 -9c-7 0 -16 3 -16 16c0 30 49 61 49 92c0 8 12 2 12 -12c0 -4 -1 -9 -3 -14c23 17 50 27 79 27c25 0 30 -11 30 -21c0 -5 -1 -9 -2 -10c-69 -95 -78 -119 -78 -127c0 -14 5 -15 8 -15
c13 -2 73 44 73 45zM22 18c5 -1 7 -1 12 1c-4 5 -8 7 -12 7c-3 0 -4 -1 -4 -3s1 -4 4 -5zM8 -145c31 0 46 61 46 87c0 15 -2 30 -5 44c-23 -42 -48 -93 -48 -121c0 -8 3 -10 7 -10z" />
    <glyph glyph-name="zero" unicode="0" horiz-adv-x="321"
d="M251 390c66 -15 88 -94 88 -156c0 -114 -76 -269 -200 -269c-89 0 -129 75 -129 143c0 50 40 174 94 174c6 0 10 -3 10 -8c0 -24 -32 -23 -53 -38c-22 -41 -39 -82 -39 -129c0 -66 39 -129 119 -129c95 0 167 149 167 251c0 84 -56 196 -141 121c-12 -25 -7 -59 -30 -59
c-5 0 -8 6 -8 13c0 18 45 87 111 87c4 0 7 -1 11 -1z" />
    <glyph glyph-name="one" unicode="1" horiz-adv-x="258"
d="M318 363l-40 -77c-123 -229 -126 -311 -126 -311c-1 -9 -5 -12 -9 -12c-7 0 -8 4 -8 9c0 68 42 177 88 271c-50 -71 -150 -189 -199 -189c-8 0 -16 3 -16 8c0 29 46 11 61 26c85 71 149 164 208 258c22 45 27 50 30 50c10 0 14 -11 14 -18c0 -8 -3 -15 -3 -15z" />
    <glyph glyph-name="two" unicode="2" horiz-adv-x="328"
d="M282 195c25 -25 36 -62 36 -98c0 -87 -87 -133 -161 -133s-148 44 -148 135c0 62 48 113 98 142c50 38 131 53 159 100c5 12 -15 32 -31 32c-9 0 -14 -5 -16 -12c0 -11 3 -21 3 -30c0 -17 -9 -30 -16 -30c-6 0 -11 8 -11 20c0 50 25 61 42 61c25 0 43 -20 43 -40
c0 -77 -241 -101 -241 -241c0 -50 28 -124 118 -124c72 0 149 43 149 124c0 20 -4 40 -9 55c-17 16 -46 19 -46 42c0 6 4 9 9 9c6 0 14 -5 22 -12z" />
    <glyph glyph-name="three" unicode="3" horiz-adv-x="333"
d="M256 236c45 -25 67 -74 67 -119c0 -83 -64 -154 -156 -154c-77 0 -158 49 -158 132c0 74 56 103 68 103c5 0 9 -2 9 -7c0 -25 -31 -23 -52 -42c-9 -17 -12 -37 -12 -56c0 -72 72 -116 141 -118c83 -1 130 75 130 144c0 39 -22 109 -76 127c-9 -1 -17 -2 -26 -2
c-8 0 -31 3 -31 17c0 7 9 14 15 14c9 0 27 -8 37 -12c38 0 57 26 57 54c0 24 -19 54 -57 54c-51 0 -43 -42 -75 -42c-6 0 -8 3 -8 8c0 24 49 46 85 46s85 -17 85 -66c0 -31 -32 -67 -63 -67c7 -4 14 -9 20 -14zM191 256h4c-7 4 -18 6 -21 6h-2c0 -2 8 -6 19 -6z" />
    <glyph glyph-name="four" unicode="4" horiz-adv-x="303"
d="M294 70c0 -20 -19 -23 -88 -23l-16 -71c-2 -5 -5 -13 -10 -12s-3 12 -2 15l16 68c-12 0 -23 -1 -35 -1c-46 0 -93 4 -138 23c-6 2 -12 2 -11 11c0 72 147 298 147 298c3 6 7 7 9 7c8 0 12 -13 12 -18c0 -8 -4 -15 -4 -15l-44 -75c-89 -144 -103 -189 -103 -189
c-1 -3 -2 -5 -2 -6c1 -1 2 -2 4 -3c49 -21 110 -20 168 -20l4 18c2 6 3 13 9 12s4 -10 3 -15l-4 -15c37 0 41 19 69 19c9 0 15 -3 16 -8z" />
    <glyph glyph-name="five" unicode="5" horiz-adv-x="347"
d="M280 362c-16 7 -34 9 -51 9c-31 0 -52 -8 -78 -15c1 -9 2 -17 2 -25c0 -17 -3 -34 -6 -50c22 0 42 -2 64 -7c85 -20 124 -67 124 -147c0 -94 -70 -160 -177 -160c-64 0 -148 40 -148 120c0 67 49 111 64 111c5 0 8 -3 8 -8c0 -42 -60 -13 -60 -99c0 -73 73 -112 138 -112
c89 0 144 70 144 149c0 84 -68 141 -144 141c-30 0 -9 -23 -33 -23c-7 0 -12 7 -12 15c0 10 12 16 19 18c3 17 6 35 6 53c0 7 0 14 -1 20c-7 0 -11 -4 -19 -4s-10 6 -10 11c0 4 4 26 23 26c8 0 11 -5 15 -17c24 7 44 14 76 15c58 1 112 -19 112 -70c0 -5 -3 -9 -8 -9
c-29 0 -21 50 -48 58zM133 363c1 0 2 1 4 1c-1 2 -2 7 -3 8c-7 7 -14 -9 -14 -12c0 -1 1 -1 2 -1c2 0 5 1 11 4zM129 260c0 1 0 2 1 4c-2 -2 -3 -2 -3 -3s0 -2 1 -2z" />
    <glyph glyph-name="six" unicode="6" horiz-adv-x="317"
d="M92 258c85 53 215 -27 214 -132c-1 -80 -70 -162 -155 -163c-89 -1 -141 58 -141 140c0 24 5 49 12 72c27 87 124 199 200 210c35 5 54 -23 52 -66c-1 -15 -4 -28 -12 -28s-14 12 -14 28c0 12 9 23 8 37c-1 15 -22 23 -32 19c-49 -18 -106 -76 -132 -117zM280 68
c10 19 14 39 14 59c0 99 -127 174 -212 114c-9 -14 -43 -77 -43 -140c0 -50 21 -112 93 -124c6 -1 13 -2 19 -2c55 0 108 41 129 93z" />
    <glyph glyph-name="seven" unicode="7" horiz-adv-x="261"
d="M377 368c0 -17 -18 -20 -28 -20c-12 0 -24 2 -35 3l-34 -65c-124 -223 -118 -323 -135 -323c-8 0 -9 4 -9 9c0 103 102 301 148 383c-51 8 -100 19 -151 19c-47 0 -91 -19 -91 -65c0 -55 65 -26 65 -59c0 -5 -5 -8 -13 -8c-46 1 -64 44 -64 68c0 54 55 76 101 76
c54 0 106 -12 160 -19c15 27 16 29 19 29c9 0 13 -12 13 -18c0 -8 -3 -15 -3 -15c11 -3 25 -4 33 -4c12 0 15 6 15 12s-8 9 -4 13c0 0 12 -1 13 -16zM28 7c6 0 11 -4 11 -10c0 -4 -17 -38 -20 -14c-1 7 2 24 9 24z" />
    <glyph glyph-name="eight" unicode="8" horiz-adv-x="302"
d="M270 218c8 -35 22 -60 22 -113c0 -85 -76 -141 -152 -141c-73 0 -131 55 -131 125c0 90 98 153 164 201c-3 9 -5 19 -5 29c0 31 15 65 50 65c16 0 31 -12 31 -30c0 -20 -13 -46 -58 -76c25 -53 65 -96 69 -170c3 -57 -39 -88 -73 -88c-8 0 -13 3 -13 8c0 39 75 -6 75 76
c0 67 -40 110 -67 166c-64 -48 -141 -106 -141 -181c0 -40 29 -113 99 -113c73 0 141 55 141 136c0 18 -3 36 -7 52c-3 30 -33 33 -33 62c0 6 2 12 7 12c7 0 17 -8 22 -20zM234 354c0 15 -8 20 -18 20c-21 0 -36 -30 -36 -57c0 -7 1 -14 3 -20c21 16 51 38 51 57z" />
    <glyph glyph-name="nine" unicode="9" horiz-adv-x="329"
d="M190 384c68 0 125 -54 128 -134c1 -26 -6 -52 -13 -76c-26 -90 -123 -216 -200 -211c-15 1 -59 10 -59 60c0 6 2 12 7 12c33 0 13 -62 47 -62c56 0 109 76 136 119c-97 -44 -215 19 -215 129c0 89 80 163 169 163zM244 106c2 3 44 73 44 142c0 40 -25 124 -109 124
c-76 0 -146 -75 -146 -152c0 -100 122 -167 211 -114z" />
    <glyph glyph-name="dollar" unicode="$" horiz-adv-x="350"
d="M328 263c1 -4 2 -9 2 -13c0 -10 -4 -16 -10 -16c-7 0 -17 15 -17 31c0 6 1 13 1 20c0 14 -31 29 -46 29c-3 0 -6 -1 -9 -1l-17 -42c-1 -4 -5 -8 -9 -8c-3 0 -4 2 -4 6c0 3 1 5 2 7l14 36c-20 -4 -41 -15 -41 -57c0 -41 63 -95 63 -161c0 -80 -63 -107 -132 -107l-8 -23
c-2 -4 -6 -9 -9 -9s-4 4 -4 7c0 2 1 4 1 6l7 19c-39 2 -92 30 -92 85c0 5 -4 74 40 80c4 1 7 -4 7 -9c0 -30 -35 -26 -35 -65c0 -52 43 -77 85 -77l14 37c1 3 5 8 8 8s4 -3 4 -6c0 -2 0 -4 -1 -6l-12 -33c49 6 97 38 97 88c0 58 -57 103 -57 161c0 38 32 73 71 76l6 15
c1 3 5 7 8 7s4 -4 4 -7c0 -2 0 -4 -1 -5l-4 -10c29 0 63 -21 74 -63z" />
    <glyph glyph-name="ampersand" unicode="&#x26;" horiz-adv-x="328"
d="M287 27c13 2 21 0 21 -6c6 -6 -16 -12 -20 -13c-31 -5 -53 6 -72 25c-73 -75 -220 -53 -202 67c9 61 77 97 128 122c0 21 3 60 28 69c12 4 26 -1 33 -20c12 -32 -28 -45 -50 -59c0 -59 29 -117 62 -166c18 18 20 64 12 89c-7 8 -18 6 -24 15c-5 9 -9 19 -4 21
c1 4 12 0 18 -7v0c9 -2 42 -78 5 -125c13 -15 24 -22 42 -23c7 1 14 9 23 11zM193 274c-29 33 -41 -27 -40 -46c16 8 50 21 40 46zM98 3c39 -6 85 7 111 37c-36 49 -62 106 -65 169c-58 -28 -126 -66 -109 -141c8 -24 25 -54 63 -65z" />
    <glyph glyph-name="exclam" unicode="!" horiz-adv-x="199"
d="M34 26c5 0 10 -19 10 -32s-6 -25 -12 -25s-9 11 -9 23s8 34 11 34zM162 376c3 5 5 7 7 7c7 0 10 -10 10 -15c0 -6 -3 -12 -3 -12l-33 -63c-100 -186 -102 -253 -102 -253c-1 -8 -3 -10 -6 -10c-10 0 -8 9 -8 14c0 106 135 332 135 332z" />
    <glyph glyph-name="space" unicode=" " horiz-adv-x="101"
 />
    <glyph glyph-name="slash" unicode="/" horiz-adv-x="235"
d="M194 388c3 6 6 8 9 8c8 0 11 -13 11 -18c0 -8 -3 -15 -3 -15l-40 -77c-123 -229 -126 -311 -126 -311c-1 -9 -5 -12 -9 -12c-8 0 -9 4 -9 9c0 127 163 416 167 416z" />
    <glyph glyph-name="question" unicode="?" horiz-adv-x="346"
d="M151 28c4 -1 6 -16 6 -29c0 -14 -6 -28 -13 -28c-6 0 -9 9 -9 19c0 11 11 38 16 38zM338 354c3 4 6 5 8 5c6 -1 6 -13 6 -17c-1 -6 -4 -11 -4 -11l-43 -56c-125 -163 -143 -227 -143 -232c0 -8 -8 -10 -9 -10c-5 1 -7 4 -7 7c0 1 1 3 1 4c15 90 145 254 182 299
c-36 0 -51 20 -91 20c-95 0 -183 -88 -183 -191c0 -25 7 -39 21 -39c30 0 98 56 100 72c2 25 13 43 26 43c6 0 8 -4 8 -12c0 -12 -9 -25 -17 -36c-12 -16 -79 -78 -117 -78c-26 0 -33 25 -33 50c0 111 93 203 193 203c39 0 67 -19 91 -24c3 0 7 2 11 3z" />
    <glyph glyph-name="Euro" unicode="&#x20ac;" horiz-adv-x="600"
d="M509 323c22 0 81 -4 81 -38c0 -37 -62 -40 -82 -40c-39 0 -76 11 -112 24c-46 -32 -80 -72 -102 -107l47 -2c5 0 13 -3 13 -6c0 -4 -8 -6 -13 -6l-55 2l-6 -12l43 -1c5 0 13 -3 13 -6c0 -4 -7 -6 -14 -6l-48 1c-10 -23 -16 -47 -16 -69c0 -43 16 -78 67 -78
c46 0 90 29 134 55c24 14 14 49 36 49c5 0 7 -4 7 -9c0 -6 -3 -15 -8 -22c-24 -24 -105 -85 -180 -85c-56 0 -89 42 -89 89c0 24 7 49 17 71l-17 1c-6 0 -16 3 -16 6c1 4 11 6 16 6l23 -1l6 12h-5c-6 0 -15 3 -15 6c0 4 10 6 15 6h13c28 44 65 85 109 115
c-45 17 -88 33 -137 33c-86 0 -168 -31 -191 -93c0 -11 5 -21 5 -30c0 -15 -8 -28 -14 -28s-12 8 -12 20c0 95 114 144 210 144c58 0 103 -20 152 -38c38 23 80 34 125 37zM508 257c2 0 5 -1 8 -1c24 0 64 11 64 27c0 22 -51 28 -71 28c-39 -3 -71 -14 -101 -33
c34 -11 67 -21 100 -21z" />
    <glyph glyph-name="hyphen" unicode="-" horiz-adv-x="252"
d="M184 154c8 0 13 -3 13 -8c0 -4 -5 -7 -13 -7h-139c-9 0 -17 3 -17 7c0 5 8 8 17 8h139z" />
    <glyph glyph-name="comma" unicode="," horiz-adv-x="75"
d="M48 7c6 0 11 -4 11 -10c0 -14 -33 -46 -33 -55l1 -2h-1c-1 -1 -2 -1 -3 -1s-4 4 -4 8c0 15 20 46 23 54l-1 -1l2 6l1 -1v1c0 1 1 1 4 1z" />
    <glyph glyph-name="plus" unicode="+" horiz-adv-x="214"
d="M175 155c8 0 14 -4 14 -9c0 -3 -6 -7 -14 -7h-60l-7 -61c-1 -8 -7 -14 -11 -14c-6 1 -4 9 -4 16l7 59h-63c-8 0 -15 4 -15 7c0 5 7 9 15 9h65l7 62c1 8 6 14 9 14c6 0 6 -6 6 -16l-7 -60h58z" />
    <glyph glyph-name="cedilla" unicode="&#xb8;" horiz-adv-x="108"
d="M60 19l18 -11c4 -5 8 -13 8 -20c0 -12 -8 -23 -22 -23c-21 0 -40 13 -40 36c0 11 4 15 9 15c3 0 6 -3 6 -7c0 -2 -1 -5 -3 -8c0 -9 11 -23 22 -23c9 0 14 5 14 11c0 10 -15 10 -15 24c0 4 1 5 3 6z" />
    <glyph glyph-name="dieresis" unicode="&#xa8;" horiz-adv-x="131"
d="M99 237c0 -13 -19 -30 -32 -30c-5 0 -8 3 -8 8c0 9 11 29 29 29c6 0 11 -2 11 -7zM22 215c0 14 14 29 29 29c6 0 11 -2 11 -7c0 -11 -20 -30 -32 -30c-5 0 -8 3 -8 8z" />
    <glyph glyph-name="acute" unicode="&#xb4;" horiz-adv-x="111"
d="M90 245c0 -24 -49 -36 -61 -36c-5 0 -8 1 -8 1c0 1 0 1 1 1c29 8 29 42 59 42c6 0 9 -3 9 -8z" />
    <glyph glyph-name="tilde" unicode="&#x2dc;" horiz-adv-x="135"
d="M112 229c2 0 2 0 2 -1c0 -5 -9 -20 -27 -20c-36 0 -23 26 -47 26c-7 0 -10 0 -10 2c0 4 9 10 21 10c16 0 32 -20 47 -20c5 0 10 1 14 3z" />
    <glyph glyph-name="circumflex" unicode="&#x2c6;" horiz-adv-x="154"
d="M97 245c10 -18 13 -33 32 -43c-2 -2 2 -4 -6 -4s-23 4 -45 31c-22 -7 -30 -11 -49 -11c-7 0 -8 2 -8 4c0 1 48 26 57 30c0 0 3 2 7 2s8 -2 12 -9z" />
    <glyph glyph-name="grave" unicode="`" horiz-adv-x="111"
d="M22 250c1 2 4 3 8 3c30 0 30 -34 59 -42c0 0 1 0 1 -1c0 0 -3 -1 -8 -1c-12 0 -61 12 -61 36c0 2 0 4 1 5z" />
    <glyph glyph-name="agrave" unicode="&#xe0;" horiz-adv-x="182"
d="M192 168c-86 -116 -89 -140 -89 -148s5 -9 8 -9c17 0 70 46 78 46c1 0 2 -1 2 -2c0 -4 -7 -12 -7 -12c-58 -50 -75 -44 -75 -45c-21 0 -22 22 -22 22c0 11 1 20 6 35v-1c-22 -21 -65 -47 -65 -47c-10 -6 -17 -7 -23 -7c-19 0 -20 18 -20 27c0 35 36 80 36 80
c56 69 86 74 86 74c20 9 40 -6 35 -34c10 15 23 37 46 37c6 0 7 -3 7 -6c0 -4 -2 -9 -3 -10zM38 29c4 3 93 60 93 108c0 9 -1 23 -11 23c-17 0 -62 -52 -74 -65c0 0 -42 -44 -42 -73c0 -2 0 -6 3 -7s12 2 31 14zM121 250c1 2 4 3 8 3c30 0 30 -34 59 -42c0 0 1 0 1 -1
c0 0 -3 -1 -8 -1c-12 0 -61 12 -61 36c0 2 0 4 1 5z" />
    <glyph glyph-name="aacute" unicode="&#xe1;" horiz-adv-x="182"
d="M192 168c-86 -116 -89 -140 -89 -148s5 -9 8 -9c17 0 70 46 78 46c1 0 2 -1 2 -2c0 -4 -7 -12 -7 -12c-58 -50 -75 -44 -75 -45c-21 0 -22 22 -22 22c0 11 1 20 6 35v-1c-22 -21 -65 -47 -65 -47c-10 -6 -17 -7 -23 -7c-19 0 -20 18 -20 27c0 35 36 80 36 80
c56 69 86 74 86 74c20 9 40 -6 35 -34c10 15 23 37 46 37c6 0 7 -3 7 -6c0 -4 -2 -9 -3 -10zM38 29c4 3 93 60 93 108c0 9 -1 23 -11 23c-17 0 -62 -52 -74 -65c0 0 -42 -44 -42 -73c0 -2 0 -6 3 -7s12 2 31 14zM189 245c0 -24 -49 -36 -61 -36c-5 0 -8 1 -8 1c0 1 0 1 1 1
c29 8 29 42 59 42c6 0 9 -3 9 -8z" />
    <glyph glyph-name="acircumflex" unicode="&#xe2;" horiz-adv-x="182"
d="M192 168c-86 -116 -89 -140 -89 -148s5 -9 8 -9c17 0 70 46 78 46c1 0 2 -1 2 -2c0 -4 -7 -12 -7 -12c-58 -50 -75 -44 -75 -45c-21 0 -22 22 -22 22c0 11 1 20 6 35v-1c-22 -21 -65 -47 -65 -47c-10 -6 -17 -7 -23 -7c-19 0 -20 18 -20 27c0 35 36 80 36 80
c56 69 86 74 86 74c20 9 40 -6 35 -34c10 15 23 37 46 37c6 0 7 -3 7 -6c0 -4 -2 -9 -3 -10zM38 29c4 3 93 60 93 108c0 9 -1 23 -11 23c-17 0 -62 -52 -74 -65c0 0 -42 -44 -42 -73c0 -2 0 -6 3 -7s12 2 31 14zM177 245c10 -18 13 -33 32 -43c-2 -2 2 -4 -6 -4
s-23 4 -45 31c-22 -7 -30 -11 -49 -11c-7 0 -8 2 -8 4c0 1 48 26 57 30c0 0 3 2 7 2s8 -2 12 -9z" />
    <glyph glyph-name="atilde" unicode="&#xe3;" horiz-adv-x="182"
d="M192 168c-86 -116 -89 -140 -89 -148s5 -9 8 -9c17 0 70 46 78 46c1 0 2 -1 2 -2c0 -4 -7 -12 -7 -12c-58 -50 -75 -44 -75 -45c-21 0 -22 22 -22 22c0 11 1 20 6 35v-1c-22 -21 -65 -47 -65 -47c-10 -6 -17 -7 -23 -7c-19 0 -20 18 -20 27c0 35 36 80 36 80
c56 69 86 74 86 74c20 9 40 -6 35 -34c10 15 23 37 46 37c6 0 7 -3 7 -6c0 -4 -2 -9 -3 -10zM38 29c4 3 93 60 93 108c0 9 -1 23 -11 23c-17 0 -62 -52 -74 -65c0 0 -42 -44 -42 -73c0 -2 0 -6 3 -7s12 2 31 14zM201 229c2 0 2 0 2 -1c0 -5 -9 -20 -27 -20
c-36 0 -23 26 -47 26c-7 0 -10 0 -10 2c0 4 9 10 21 10c16 0 32 -20 47 -20c5 0 10 1 14 3z" />
    <glyph glyph-name="adieresis" unicode="&#xe4;" horiz-adv-x="182"
d="M192 168c-86 -116 -89 -140 -89 -148s5 -9 8 -9c17 0 70 46 78 46c1 0 2 -1 2 -2c0 -4 -7 -12 -7 -12c-58 -50 -75 -44 -75 -45c-21 0 -22 22 -22 22c0 11 1 20 6 35v-1c-22 -21 -65 -47 -65 -47c-10 -6 -17 -7 -23 -7c-19 0 -20 18 -20 27c0 35 36 80 36 80
c56 69 86 74 86 74c20 9 40 -6 35 -34c10 15 23 37 46 37c6 0 7 -3 7 -6c0 -4 -2 -9 -3 -10zM38 29c4 3 93 60 93 108c0 9 -1 23 -11 23c-17 0 -62 -52 -74 -65c0 0 -42 -44 -42 -73c0 -2 0 -6 3 -7s12 2 31 14zM207 237c0 -13 -19 -30 -32 -30c-5 0 -8 3 -8 8
c0 9 11 29 29 29c6 0 11 -2 11 -7zM130 215c0 14 14 29 29 29c6 0 11 -2 11 -7c0 -11 -20 -30 -32 -30c-5 0 -8 3 -8 8z" />
    <glyph glyph-name="ring" unicode="&#x2da;" horiz-adv-x="152"
d="M78 204c-12 2 -16 12 -15 22c3 11 14 14 23 13s13 -8 13 -16c0 -9 -9 -20 -21 -19zM79 213c5 0 9 4 9 8c2 4 -1 8 -5 8s-9 -3 -9 -6c-1 -5 0 -9 5 -10z" />
    <glyph glyph-name="aring" unicode="&#xe5;" horiz-adv-x="182"
d="M192 168c-86 -116 -89 -140 -89 -148s5 -9 8 -9c17 0 70 46 78 46c1 0 2 -1 2 -2c0 -4 -7 -12 -7 -12c-58 -50 -75 -44 -75 -45c-21 0 -22 22 -22 22c0 11 1 20 6 35v-1c-22 -21 -65 -47 -65 -47c-10 -6 -17 -7 -23 -7c-19 0 -20 18 -20 27c0 35 36 80 36 80
c56 69 86 74 86 74c20 9 40 -6 35 -34c10 15 23 37 46 37c6 0 7 -3 7 -6c0 -4 -2 -9 -3 -10zM38 29c4 3 93 60 93 108c0 9 -1 23 -11 23c-17 0 -62 -52 -74 -65c0 0 -42 -44 -42 -73c0 -2 0 -6 3 -7s12 2 31 14zM164 204c-12 2 -16 12 -15 22c3 11 14 14 23 13s13 -8 13 -16
c0 -9 -9 -20 -21 -19zM165 213c5 0 9 4 9 8c2 4 -1 8 -5 8s-9 -3 -9 -6c-1 -5 0 -9 5 -10z" />
    <glyph glyph-name="ccedilla" unicode="&#xe7;" horiz-adv-x="120"
d="M97 180c5 2 9 3 12 3c19 0 27 -18 22 -46c-7 -37 -29 -36 -29 -36l1 1l-1 -1c-4 1 -3 10 -3 12c0 8 19 25 19 43c-6 0 -13 -2 -22 -8c-23 -15 -91 -89 -91 -123c0 -10 9 -13 17 -13c57 0 125 75 138 97c1 1 2 -1 2 -2c0 -31 -93 -107 -139 -109c-29 -1 -36 16 -36 36
c0 44 72 133 110 146zM-8 17l18 -11c4 -5 8 -13 8 -20c0 -12 -8 -23 -22 -23c-21 0 -40 13 -40 36c0 11 4 15 9 15c3 0 6 -3 6 -7c0 -2 -1 -5 -3 -8c0 -9 11 -23 22 -23c9 0 14 5 14 11c0 10 -15 10 -15 24c0 4 1 5 3 6z" />
    <glyph glyph-name="egrave" unicode="&#xe8;" horiz-adv-x="130"
d="M128 72c6 9 18 20 22 18c3 -2 -5 -17 -12 -26c-19 -22 -31 -31 -55 -45c-22 -12 -80 -42 -92 0c-12 45 53 141 96 161c15 8 35 8 42 -11c24 -67 -62 -101 -106 -122c-4 -1 -7 -2 -11 -3c-4 -11 -5 -21 -3 -29c6 -13 49 4 68 16c27 17 33 23 51 41zM93 152
c-29 -20 -57 -57 -74 -92c46 19 110 52 98 100c-3 6 -14 0 -24 -8zM72 250c1 2 4 3 8 3c30 0 30 -34 59 -42c0 0 1 0 1 -1c0 0 -3 -1 -8 -1c-12 0 -61 12 -61 36c0 2 0 4 1 5z" />
    <glyph glyph-name="eacute" unicode="&#xe9;" horiz-adv-x="130"
d="M128 72c6 9 18 20 22 18c3 -2 -5 -17 -12 -26c-19 -22 -31 -31 -55 -45c-22 -12 -80 -42 -92 0c-12 45 53 141 96 161c15 8 35 8 42 -11c24 -67 -62 -101 -106 -122c-4 -1 -7 -2 -11 -3c-4 -11 -5 -21 -3 -29c6 -13 49 4 68 16c27 17 33 23 51 41zM93 152
c-29 -20 -57 -57 -74 -92c46 19 110 52 98 100c-3 6 -14 0 -24 -8zM140 245c0 -24 -49 -36 -61 -36c-5 0 -8 1 -8 1c0 1 0 1 1 1c29 8 29 42 59 42c6 0 9 -3 9 -8z" />
    <glyph glyph-name="ecircumflex" unicode="&#xea;" horiz-adv-x="130"
d="M128 72c6 9 18 20 22 18c3 -2 -5 -17 -12 -26c-19 -22 -31 -31 -55 -45c-22 -12 -80 -42 -92 0c-12 45 53 141 96 161c15 8 35 8 42 -11c24 -67 -62 -101 -106 -122c-4 -1 -7 -2 -11 -3c-4 -11 -5 -21 -3 -29c6 -13 49 4 68 16c27 17 33 23 51 41zM93 152
c-29 -20 -57 -57 -74 -92c46 19 110 52 98 100c-3 6 -14 0 -24 -8zM128 245c10 -18 13 -33 32 -43c-2 -2 2 -4 -6 -4s-23 4 -45 31c-22 -7 -30 -11 -49 -11c-7 0 -8 2 -8 4c0 1 48 26 57 30c0 0 3 2 7 2s8 -2 12 -9z" />
    <glyph glyph-name="edieresis" unicode="&#xeb;" horiz-adv-x="130"
d="M128 72c6 9 18 20 22 18c3 -2 -5 -17 -12 -26c-19 -22 -31 -31 -55 -45c-22 -12 -80 -42 -92 0c-12 45 53 141 96 161c15 8 35 8 42 -11c24 -67 -62 -101 -106 -122c-4 -1 -7 -2 -11 -3c-4 -11 -5 -21 -3 -29c6 -13 49 4 68 16c27 17 33 23 51 41zM93 152
c-29 -20 -57 -57 -74 -92c46 19 110 52 98 100c-3 6 -14 0 -24 -8zM146 237c0 -13 -19 -30 -32 -30c-5 0 -8 3 -8 8c0 9 11 29 29 29c6 0 11 -2 11 -7zM69 215c0 14 14 29 29 29c6 0 11 -2 11 -7c0 -11 -20 -30 -32 -30c-5 0 -8 3 -8 8z" />
    <glyph glyph-name="igrave" unicode="&#xec;" horiz-adv-x="85"
d="M58 168c6 7 21 16 32 16c5 0 7 -2 7 -6s-3 -9 -4 -10c-80 -110 -87 -142 -87 -142c-1 -3 -1 -5 -1 -7c0 -7 5 -8 8 -8c8 0 72 43 72 45c2 1 4 1 5 1s2 -1 2 -2c0 -4 -7 -12 -7 -12c-30 -30 -76 -45 -74 -45c-21 0 -22 22 -22 22c0 36 28 89 69 148zM62 250c1 2 4 3 8 3
c30 0 30 -34 59 -42c0 0 1 0 1 -1c0 0 -3 -1 -8 -1c-12 0 -61 12 -61 36c0 2 0 4 1 5z" />
    <glyph glyph-name="iacute" unicode="&#xed;" horiz-adv-x="85"
d="M58 168c6 7 21 16 32 16c5 0 7 -2 7 -6s-3 -9 -4 -10c-80 -110 -87 -142 -87 -142c-1 -3 -1 -5 -1 -7c0 -7 5 -8 8 -8c8 0 72 43 72 45c2 1 4 1 5 1s2 -1 2 -2c0 -4 -7 -12 -7 -12c-30 -30 -76 -45 -74 -45c-21 0 -22 22 -22 22c0 36 28 89 69 148zM126 245
c0 -24 -49 -36 -61 -36c-5 0 -8 1 -8 1c0 1 0 1 1 1c29 8 29 42 59 42c6 0 9 -3 9 -8z" />
    <glyph glyph-name="icircumflex" unicode="&#xee;" horiz-adv-x="85"
d="M58 168c6 7 21 16 32 16c5 0 7 -2 7 -6s-3 -9 -4 -10c-80 -110 -87 -142 -87 -142c-1 -3 -1 -5 -1 -7c0 -7 5 -8 8 -8c8 0 72 43 72 45c2 1 4 1 5 1s2 -1 2 -2c0 -4 -7 -12 -7 -12c-30 -30 -76 -45 -74 -45c-21 0 -22 22 -22 22c0 36 28 89 69 148zM115 245
c10 -18 13 -33 32 -43c-2 -2 2 -4 -6 -4s-23 4 -45 31c-22 -7 -30 -11 -49 -11c-7 0 -8 2 -8 4c0 1 48 26 57 30c0 0 3 2 7 2s8 -2 12 -9z" />
    <glyph glyph-name="idieresis" unicode="&#xef;" horiz-adv-x="85"
d="M58 168c6 7 21 16 32 16c5 0 7 -2 7 -6s-3 -9 -4 -10c-80 -110 -87 -142 -87 -142c-1 -3 -1 -5 -1 -7c0 -7 5 -8 8 -8c8 0 72 43 72 45c2 1 4 1 5 1s2 -1 2 -2c0 -4 -7 -12 -7 -12c-30 -30 -76 -45 -74 -45c-21 0 -22 22 -22 22c0 36 28 89 69 148zM142 237
c0 -13 -19 -30 -32 -30c-5 0 -8 3 -8 8c0 9 11 29 29 29c6 0 11 -2 11 -7zM65 215c0 14 14 29 29 29c6 0 11 -2 11 -7c0 -11 -20 -30 -32 -30c-5 0 -8 3 -8 8z" />
    <glyph glyph-name="ntilde" unicode="&#xf1;" horiz-adv-x="187"
d="M187 56c2 1 4 1 5 1s2 -1 2 -2c0 -4 -7 -12 -7 -12c-65 -51 -76 -45 -74 -45c-11 0 -23 9 -23 29c0 33 24 73 59 126c6 8 11 15 9 18c-3 0 -6 -1 -9 -2c-58 -22 -108 -77 -141 -131c-14 -23 -17 -38 -25 -38c-3 0 -5 5 -5 13c0 7 1 15 5 25c30 75 68 146 103 146
c4 0 5 -3 5 -6c0 -13 -30 -47 -44 -67c28 30 60 55 99 71c34 8 40 -6 40 -19c0 -5 -1 -9 -2 -10c-75 -103 -77 -124 -77 -127c0 -14 4 -15 8 -15c9 0 72 44 72 45zM174 229c2 0 2 0 2 -1c0 -5 -9 -20 -27 -20c-36 0 -23 26 -47 26c-7 0 -10 0 -10 2c0 4 9 10 21 10
c16 0 32 -20 47 -20c5 0 10 1 14 3z" />
    <glyph glyph-name="ograve" unicode="&#xf2;"
d="M205 130c-14 -29 -46 -51 -83 -51c-6 0 -8 -5 -12 -11c-2 -3 -50 -71 -102 -71c-8 0 -22 2 -23 25c-3 74 84 168 136 168c26 0 27 -25 27 -34c0 -12 -3 -34 -21 -63c30 2 54 20 65 43c1 3 4 5 6 5c8 0 7 -10 7 -11zM17 14c32 1 73 51 86 68c-25 6 -44 25 -44 51
c0 3 0 7 1 10c-24 -26 -51 -72 -51 -114c0 -16 7 -15 8 -15zM110 94c13 26 16 42 16 51c0 20 -12 24 -19 24c-27 0 -35 -28 -35 -36c0 -17 14 -32 38 -39zM99 250c1 2 4 3 8 3c30 0 30 -34 59 -42c0 0 1 0 1 -1c0 0 -3 -1 -8 -1c-12 0 -61 12 -61 36c0 2 0 4 1 5z" />
    <glyph glyph-name="oacute" unicode="&#xf3;"
d="M205 130c-14 -29 -46 -51 -83 -51c-6 0 -8 -5 -12 -11c-2 -3 -50 -71 -102 -71c-8 0 -22 2 -23 25c-3 74 84 168 136 168c26 0 27 -25 27 -34c0 -12 -3 -34 -21 -63c30 2 54 20 65 43c1 3 4 5 6 5c8 0 7 -10 7 -11zM17 14c32 1 73 51 86 68c-25 6 -44 25 -44 51
c0 3 0 7 1 10c-24 -26 -51 -72 -51 -114c0 -16 7 -15 8 -15zM110 94c13 26 16 42 16 51c0 20 -12 24 -19 24c-27 0 -35 -28 -35 -36c0 -17 14 -32 38 -39zM165 245c0 -24 -49 -36 -61 -36c-5 0 -8 1 -8 1c0 1 0 1 1 1c29 8 29 42 59 42c6 0 9 -3 9 -8z" />
    <glyph glyph-name="ocircumflex" unicode="&#xf4;"
d="M205 130c-14 -29 -46 -51 -83 -51c-6 0 -8 -5 -12 -11c-2 -3 -50 -71 -102 -71c-8 0 -22 2 -23 25c-3 74 84 168 136 168c26 0 27 -25 27 -34c0 -12 -3 -34 -21 -63c30 2 54 20 65 43c1 3 4 5 6 5c8 0 7 -10 7 -11zM17 14c32 1 73 51 86 68c-25 6 -44 25 -44 51
c0 3 0 7 1 10c-24 -26 -51 -72 -51 -114c0 -16 7 -15 8 -15zM110 94c13 26 16 42 16 51c0 20 -12 24 -19 24c-27 0 -35 -28 -35 -36c0 -17 14 -32 38 -39zM162 245c10 -18 13 -33 32 -43c-2 -2 2 -4 -6 -4s-23 4 -45 31c-22 -7 -30 -11 -49 -11c-7 0 -8 2 -8 4
c0 1 48 26 57 30c0 0 3 2 7 2s8 -2 12 -9z" />
    <glyph glyph-name="otilde" unicode="&#xf5;"
d="M205 130c-14 -29 -46 -51 -83 -51c-6 0 -8 -5 -12 -11c-2 -3 -50 -71 -102 -71c-8 0 -22 2 -23 25c-3 74 84 168 136 168c26 0 27 -25 27 -34c0 -12 -3 -34 -21 -63c30 2 54 20 65 43c1 3 4 5 6 5c8 0 7 -10 7 -11zM17 14c32 1 73 51 86 68c-25 6 -44 25 -44 51
c0 3 0 7 1 10c-24 -26 -51 -72 -51 -114c0 -16 7 -15 8 -15zM110 94c13 26 16 42 16 51c0 20 -12 24 -19 24c-27 0 -35 -28 -35 -36c0 -17 14 -32 38 -39zM178 229c2 0 2 0 2 -1c0 -5 -9 -20 -27 -20c-36 0 -23 26 -47 26c-7 0 -10 0 -10 2c0 4 9 10 21 10
c16 0 32 -20 47 -20c5 0 10 1 14 3z" />
    <glyph glyph-name="odieresis" unicode="&#xf6;"
d="M205 130c-14 -29 -46 -51 -83 -51c-6 0 -8 -5 -12 -11c-2 -3 -50 -71 -102 -71c-8 0 -22 2 -23 25c-3 74 84 168 136 168c26 0 27 -25 27 -34c0 -12 -3 -34 -21 -63c30 2 54 20 65 43c1 3 4 5 6 5c8 0 7 -10 7 -11zM17 14c32 1 73 51 86 68c-25 6 -44 25 -44 51
c0 3 0 7 1 10c-24 -26 -51 -72 -51 -114c0 -16 7 -15 8 -15zM110 94c13 26 16 42 16 51c0 20 -12 24 -19 24c-27 0 -35 -28 -35 -36c0 -17 14 -32 38 -39zM183 237c0 -13 -19 -30 -32 -30c-5 0 -8 3 -8 8c0 9 11 29 29 29c6 0 11 -2 11 -7zM106 215c0 14 14 29 29 29
c6 0 11 -2 11 -7c0 -11 -20 -30 -32 -30c-5 0 -8 3 -8 8z" />
    <glyph glyph-name="ugrave" unicode="&#xf9;" horiz-adv-x="177"
d="M177 56c2 1 3 1 4 1c2 0 3 -1 3 -2c0 -4 -7 -12 -7 -12c-59 -47 -73 -45 -75 -45c-21 0 -22 22 -22 22c-1 4 0 8 0 13c-54 -33 -61 -35 -69 -35c-21 0 -22 22 -22 22v6c0 22 50 158 101 158c5 0 7 -2 7 -6s-3 -9 -4 -10c-80 -110 -87 -142 -87 -142c-1 -3 -1 -5 -1 -7
c0 -7 5 -8 8 -8c5 0 47 23 70 37c9 31 58 136 98 136c5 0 7 -2 7 -6s-3 -9 -4 -10c-85 -116 -88 -140 -88 -148s5 -8 8 -9c15 -3 73 43 73 45zM103 250c1 2 4 3 8 3c30 0 30 -34 59 -42c0 0 1 0 1 -1c0 0 -3 -1 -8 -1c-12 0 -61 12 -61 36c0 2 0 4 1 5z" />
    <glyph glyph-name="uacute" unicode="&#xfa;" horiz-adv-x="177"
d="M177 56c2 1 3 1 4 1c2 0 3 -1 3 -2c0 -4 -7 -12 -7 -12c-59 -47 -73 -45 -75 -45c-21 0 -22 22 -22 22c-1 4 0 8 0 13c-54 -33 -61 -35 -69 -35c-21 0 -22 22 -22 22v6c0 22 50 158 101 158c5 0 7 -2 7 -6s-3 -9 -4 -10c-80 -110 -87 -142 -87 -142c-1 -3 -1 -5 -1 -7
c0 -7 5 -8 8 -8c5 0 47 23 70 37c9 31 58 136 98 136c5 0 7 -2 7 -6s-3 -9 -4 -10c-85 -116 -88 -140 -88 -148s5 -8 8 -9c15 -3 73 43 73 45zM165 245c0 -24 -49 -36 -61 -36c-5 0 -8 1 -8 1c0 1 0 1 1 1c29 8 29 42 59 42c6 0 9 -3 9 -8z" />
    <glyph glyph-name="ucircumflex" unicode="&#xfb;" horiz-adv-x="177"
d="M177 56c2 1 3 1 4 1c2 0 3 -1 3 -2c0 -4 -7 -12 -7 -12c-59 -47 -73 -45 -75 -45c-21 0 -22 22 -22 22c-1 4 0 8 0 13c-54 -33 -61 -35 -69 -35c-21 0 -22 22 -22 22v6c0 22 50 158 101 158c5 0 7 -2 7 -6s-3 -9 -4 -10c-80 -110 -87 -142 -87 -142c-1 -3 -1 -5 -1 -7
c0 -7 5 -8 8 -8c5 0 47 23 70 37c9 31 58 136 98 136c5 0 7 -2 7 -6s-3 -9 -4 -10c-85 -116 -88 -140 -88 -148s5 -8 8 -9c15 -3 73 43 73 45zM159 245c10 -18 13 -33 32 -43c-2 -2 2 -4 -6 -4s-23 4 -45 31c-22 -7 -30 -11 -49 -11c-7 0 -8 2 -8 4c0 1 48 26 57 30
c0 0 3 2 7 2s8 -2 12 -9z" />
    <glyph glyph-name="udieresis" unicode="&#xfc;" horiz-adv-x="177"
d="M177 56c2 1 3 1 4 1c2 0 3 -1 3 -2c0 -4 -7 -12 -7 -12c-59 -47 -73 -45 -75 -45c-21 0 -22 22 -22 22c-1 4 0 8 0 13c-54 -33 -61 -35 -69 -35c-21 0 -22 22 -22 22v6c0 22 50 158 101 158c5 0 7 -2 7 -6s-3 -9 -4 -10c-80 -110 -87 -142 -87 -142c-1 -3 -1 -5 -1 -7
c0 -7 5 -8 8 -8c5 0 47 23 70 37c9 31 58 136 98 136c5 0 7 -2 7 -6s-3 -9 -4 -10c-85 -116 -88 -140 -88 -148s5 -8 8 -9c15 -3 73 43 73 45zM183 237c0 -13 -19 -30 -32 -30c-5 0 -8 3 -8 8c0 9 11 29 29 29c6 0 11 -2 11 -7zM106 215c0 14 14 29 29 29c6 0 11 -2 11 -7
c0 -11 -20 -30 -32 -30c-5 0 -8 3 -8 8z" />
    <glyph glyph-name="yacute" unicode="&#xfd;" horiz-adv-x="165"
d="M282 -19c1 -1 1 -3 1 -4c0 -20 -48 -43 -101 -43c-38 0 -78 14 -114 23c-39 -48 -80 -77 -127 -76c-22 0 -58 13 -58 42c0 49 62 58 97 58c25 0 49 -3 74 -8c21 27 34 53 39 63c-54 -34 -69 -38 -75 -38c-21 0 -22 22 -22 22v6c0 22 50 158 101 158c5 0 7 -2 7 -6
s-3 -9 -4 -10c-80 -110 -87 -142 -87 -142c-1 -3 -1 -5 -1 -7c0 -7 5 -8 8 -8c7 0 70 38 82 44c27 56 59 129 98 129c4 0 5 -3 5 -6c0 -4 -2 -9 -3 -10c-45 -61 -79 -142 -126 -201c38 -10 76 -21 113 -21c14 0 29 3 42 6c16 5 21 32 44 32c3 0 5 -1 7 -3zM-10 -91
c22 15 40 34 56 53c-21 4 -42 7 -63 7c-36 0 -88 -9 -88 -45c0 -21 28 -31 45 -31s34 6 50 16zM184 245c0 -24 -49 -36 -61 -36c-5 0 -8 1 -8 1c0 1 0 1 1 1c29 8 29 42 59 42c6 0 9 -3 9 -8z" />
    <glyph glyph-name="ydieresis" unicode="&#xff;" horiz-adv-x="165"
d="M282 -19c1 -1 1 -3 1 -4c0 -20 -48 -43 -101 -43c-38 0 -78 14 -114 23c-39 -48 -80 -77 -127 -76c-22 0 -58 13 -58 42c0 49 62 58 97 58c25 0 49 -3 74 -8c21 27 34 53 39 63c-54 -34 -69 -38 -75 -38c-21 0 -22 22 -22 22v6c0 22 50 158 101 158c5 0 7 -2 7 -6
s-3 -9 -4 -10c-80 -110 -87 -142 -87 -142c-1 -3 -1 -5 -1 -7c0 -7 5 -8 8 -8c7 0 70 38 82 44c27 56 59 129 98 129c4 0 5 -3 5 -6c0 -4 -2 -9 -3 -10c-45 -61 -79 -142 -126 -201c38 -10 76 -21 113 -21c14 0 29 3 42 6c16 5 21 32 44 32c3 0 5 -1 7 -3zM-10 -91
c22 15 40 34 56 53c-21 4 -42 7 -63 7c-36 0 -88 -9 -88 -45c0 -21 28 -31 45 -31s34 6 50 16zM197 237c0 -13 -19 -30 -32 -30c-5 0 -8 3 -8 8c0 9 11 29 29 29c6 0 11 -2 11 -7zM120 215c0 14 14 29 29 29c6 0 11 -2 11 -7c0 -11 -20 -30 -32 -30c-5 0 -8 3 -8 8z" />
    <glyph glyph-name="questiondown" unicode="&#xbf;" horiz-adv-x="323"
d="M150 270c-4 1 -6 16 -6 29c0 14 6 28 13 28c6 0 9 -9 9 -19c0 -11 -11 -38 -16 -38zM-37 -56c-3 -4 -6 -5 -8 -5c-6 1 -6 13 -6 17c1 6 4 11 4 11l43 56c125 163 143 227 143 232c0 8 8 10 9 10c5 -1 7 -4 7 -7c0 -1 -1 -3 -1 -4c-15 -90 -145 -254 -182 -299
c36 0 51 -20 91 -20c95 0 183 88 183 191c0 25 -7 39 -21 39c-30 0 -98 -56 -100 -72c-2 -25 -13 -43 -26 -43c-6 0 -8 4 -8 12c0 12 9 25 17 36c12 16 79 78 117 78c26 0 33 -25 33 -50c0 -111 -93 -203 -193 -203c-39 0 -67 19 -91 24c-3 0 -7 -2 -11 -3z" />
    <glyph glyph-name="quotesingle" unicode="'" horiz-adv-x="72"
d="M97 308c6 -1 10 -6 9 -12c-3 -13 -42 -38 -44 -47v-2l-1 1c-1 -1 -2 -1 -3 -1s-3 5 -2 9c3 14 29 41 34 48l-1 -1l3 5l1 -1v1c0 1 1 1 4 0z" />
    <glyph glyph-name="period" unicode="." horiz-adv-x="84"
d="M28 7c6 0 11 -4 11 -10c0 -4 -17 -38 -20 -14c-1 7 2 24 9 24z" />
    <glyph glyph-name="Agrave" unicode="&#xc0;" horiz-adv-x="598"
d="M44 21c-13 11 -32 41 -37 64c-3 14 0 27 7 29c7 1 15 -9 18 -24c6 -30 -12 -32 20 -61c81 -70 211 -43 290 23c83 68 166 138 245 211c28 25 60 57 62 57v0c7 13 12 5 12 5c13 -10 3 -30 3 -30l-63 -93c-85 -138 -90 -175 -90 -175c-3 -18 10 -13 10 -13
c13 4 77 52 77 52c15 7 2 -13 2 -13c-5 -6 -69 -50 -69 -50c-33 -13 -37 17 -37 17c-5 25 11 67 33 111h-46c-2 0 -7 0 -5 3c2 5 17 8 21 7c19 -1 36 0 38 5h1c25 47 56 94 80 128c-7 -7 -14 -14 -21 -20c-79 -74 -161 -143 -246 -212c-82 -67 -216 -99 -305 -21zM647 373
c1 2 4 3 8 3c30 0 30 -34 59 -42c0 0 1 0 1 -1c0 0 -3 -1 -8 -1c-12 0 -61 12 -61 36c0 2 0 4 1 5z" />
    <glyph glyph-name="Aacute" unicode="&#xc1;" horiz-adv-x="598"
d="M44 21c-13 11 -32 41 -37 64c-3 14 0 27 7 29c7 1 15 -9 18 -24c6 -30 -12 -32 20 -61c81 -70 211 -43 290 23c83 68 166 138 245 211c28 25 60 57 62 57v0c7 13 12 5 12 5c13 -10 3 -30 3 -30l-63 -93c-85 -138 -90 -175 -90 -175c-3 -18 10 -13 10 -13
c13 4 77 52 77 52c15 7 2 -13 2 -13c-5 -6 -69 -50 -69 -50c-33 -13 -37 17 -37 17c-5 25 11 67 33 111h-46c-2 0 -7 0 -5 3c2 5 17 8 21 7c19 -1 36 0 38 5h1c25 47 56 94 80 128c-7 -7 -14 -14 -21 -20c-79 -74 -161 -143 -246 -212c-82 -67 -216 -99 -305 -21zM715 369
c0 -24 -49 -36 -61 -36c-5 0 -8 1 -8 1c0 1 0 1 1 1c29 8 29 42 59 42c6 0 9 -3 9 -8z" />
    <glyph glyph-name="Acircumflex" unicode="&#xc2;" horiz-adv-x="598"
d="M44 21c-13 11 -32 41 -37 64c-3 14 0 27 7 29c7 1 15 -9 18 -24c6 -30 -12 -32 20 -61c81 -70 211 -43 290 23c83 68 166 138 245 211c28 25 60 57 62 57v0c7 13 12 5 12 5c13 -10 3 -30 3 -30l-63 -93c-85 -138 -90 -175 -90 -175c-3 -18 10 -13 10 -13
c13 4 77 52 77 52c15 7 2 -13 2 -13c-5 -6 -69 -50 -69 -50c-33 -13 -37 17 -37 17c-5 25 11 67 33 111h-46c-2 0 -7 0 -5 3c2 5 17 8 21 7c19 -1 36 0 38 5h1c25 47 56 94 80 128c-7 -7 -14 -14 -21 -20c-79 -74 -161 -143 -246 -212c-82 -67 -216 -99 -305 -21zM702 371
c10 -18 13 -33 32 -43c-2 -2 2 -4 -6 -4s-23 4 -45 31c-22 -7 -30 -11 -49 -11c-7 0 -8 2 -8 4c0 1 48 26 57 30c0 0 3 2 7 2s8 -2 12 -9z" />
    <glyph glyph-name="Atilde" unicode="&#xc3;" horiz-adv-x="598"
d="M44 21c-13 11 -32 41 -37 64c-3 14 0 27 7 29c7 1 15 -9 18 -24c6 -30 -12 -32 20 -61c81 -70 211 -43 290 23c83 68 166 138 245 211c28 25 60 57 62 57v0c7 13 12 5 12 5c13 -10 3 -30 3 -30l-63 -93c-85 -138 -90 -175 -90 -175c-3 -18 10 -13 10 -13
c13 4 77 52 77 52c15 7 2 -13 2 -13c-5 -6 -69 -50 -69 -50c-33 -13 -37 17 -37 17c-5 25 11 67 33 111h-46c-2 0 -7 0 -5 3c2 5 17 8 21 7c19 -1 36 0 38 5h1c25 47 56 94 80 128c-7 -7 -14 -14 -21 -20c-79 -74 -161 -143 -246 -212c-82 -67 -216 -99 -305 -21zM720 355
c2 0 2 0 2 -1c0 -5 -9 -20 -27 -20c-36 0 -23 26 -47 26c-7 0 -10 0 -10 2c0 4 9 10 21 10c16 0 32 -20 47 -20c5 0 10 1 14 3z" />
    <glyph glyph-name="Adieresis" unicode="&#xc4;" horiz-adv-x="598"
d="M44 21c-13 11 -32 41 -37 64c-3 14 0 27 7 29c7 1 15 -9 18 -24c6 -30 -12 -32 20 -61c81 -70 211 -43 290 23c83 68 166 138 245 211c28 25 60 57 62 57v0c7 13 12 5 12 5c13 -10 3 -30 3 -30l-63 -93c-85 -138 -90 -175 -90 -175c-3 -18 10 -13 10 -13
c13 4 77 52 77 52c15 7 2 -13 2 -13c-5 -6 -69 -50 -69 -50c-33 -13 -37 17 -37 17c-5 25 11 67 33 111h-46c-2 0 -7 0 -5 3c2 5 17 8 21 7c19 -1 36 0 38 5h1c25 47 56 94 80 128c-7 -7 -14 -14 -21 -20c-79 -74 -161 -143 -246 -212c-82 -67 -216 -99 -305 -21zM718 365
c0 -13 -19 -30 -32 -30c-5 0 -8 3 -8 8c0 9 11 29 29 29c6 0 11 -2 11 -7zM641 343c0 14 14 29 29 29c6 0 11 -2 11 -7c0 -11 -20 -30 -32 -30c-5 0 -8 3 -8 8z" />
    <glyph glyph-name="Aring" unicode="&#xc5;" horiz-adv-x="598"
d="M44 21c-13 11 -32 41 -37 64c-3 14 0 27 7 29c7 1 15 -9 18 -24c6 -30 -12 -32 20 -61c81 -70 211 -43 290 23c83 68 166 138 245 211c28 25 60 57 62 57v0c7 13 12 5 12 5c13 -10 3 -30 3 -30l-63 -93c-85 -138 -90 -175 -90 -175c-3 -18 10 -13 10 -13
c13 4 77 52 77 52c15 7 2 -13 2 -13c-5 -6 -69 -50 -69 -50c-33 -13 -37 17 -37 17c-5 25 11 67 33 111h-46c-2 0 -7 0 -5 3c2 5 17 8 21 7c19 -1 36 0 38 5h1c25 47 56 94 80 128c-7 -7 -14 -14 -21 -20c-79 -74 -161 -143 -246 -212c-82 -67 -216 -99 -305 -21zM680 336
c-12 2 -16 12 -15 22c3 11 14 14 23 13s13 -8 13 -16c0 -9 -9 -20 -21 -19zM681 345c5 0 9 4 9 8c2 4 -1 8 -5 8s-9 -3 -9 -6c-1 -5 0 -9 5 -10z" />
    <glyph glyph-name="Ccedilla" unicode="&#xc7;" horiz-adv-x="465"
d="M228 1l16 -15c3 -5 5 -14 4 -21c-3 -12 -13 -21 -26 -18c-21 4 -37 20 -33 43c2 11 7 14 12 13c3 -1 5 -4 5 -8c-1 -2 -2 -5 -5 -8c-2 -8 6 -24 17 -26c9 -2 15 2 16 8c2 10 -13 12 -10 26c1 4 2 5 4 6zM-3 211c-4 2 -6 7 -6 13c0 5 1 10 3 16c29 68 114 76 179 76
c80 0 140 -25 203 -37c40 26 84 45 137 45c43 0 75 -22 75 -48c0 -19 -20 -35 -70 -35c-45 0 -87 12 -129 23c-70 -52 -137 -140 -137 -217c0 -37 19 -66 63 -66c72 0 159 69 175 69c0 -19 -105 -81 -174 -81c-21 0 -90 3 -90 92c0 87 81 172 137 209
c-60 11 -115 34 -190 34c-54 0 -120 -3 -153 -45c-9 -11 -3 -49 -19 -49c-1 0 -3 0 -4 1zM506 312c-37 -4 -72 -18 -104 -39c40 -10 79 -19 120 -19c38 0 53 8 53 21c0 23 -33 37 -69 37z" />
    <glyph glyph-name="Egrave" unicode="&#xc8;" horiz-adv-x="474"
d="M12 178c-4 1 -6 6 -6 12c0 5 1 10 3 16c40 81 115 126 198 126c69 0 139 -26 201 -54c33 23 75 39 117 39c20 0 53 -9 53 -40c0 -36 -46 -48 -68 -48c-34 0 -65 21 -92 30c-15 -15 -30 -39 -20 -61c9 1 16 1 28 1c13 0 24 -4 24 -14c0 -15 -19 -16 -22 -16
c-15 0 -32 10 -36 16c-70 -12 -152 -79 -152 -138c0 -45 33 -60 55 -60c58 0 166 71 190 71c2 -8 -116 -84 -190 -84c-43 0 -81 25 -81 78c0 85 99 134 166 144c-19 28 -4 57 17 73c-61 27 -127 51 -191 51c-59 0 -117 -22 -164 -78c-20 -23 -1 -65 -28 -65c0 0 -1 0 -2 1z
M318 -11c-4 -1 -8 -2 -12 -2c3 0 8 1 12 2zM439 183c3 7 -27 6 -29 4c3 -5 27 -9 29 -4zM504 304c-28 -4 -56 -18 -76 -36c1 0 2 -1 3 -1c27 -10 50 -26 76 -26c24 0 59 11 59 36c0 29 -54 27 -62 27zM518 372c1 2 4 3 8 3c30 0 30 -34 59 -42c0 0 1 0 1 -1c0 0 -3 -1 -8 -1
c-12 0 -61 12 -61 36c0 2 0 4 1 5z" />
    <glyph glyph-name="Eacute" unicode="&#xc9;" horiz-adv-x="474"
d="M12 178c-4 1 -6 6 -6 12c0 5 1 10 3 16c40 81 115 126 198 126c69 0 139 -26 201 -54c33 23 75 39 117 39c20 0 53 -9 53 -40c0 -36 -46 -48 -68 -48c-34 0 -65 21 -92 30c-15 -15 -30 -39 -20 -61c9 1 16 1 28 1c13 0 24 -4 24 -14c0 -15 -19 -16 -22 -16
c-15 0 -32 10 -36 16c-70 -12 -152 -79 -152 -138c0 -45 33 -60 55 -60c58 0 166 71 190 71c2 -8 -116 -84 -190 -84c-43 0 -81 25 -81 78c0 85 99 134 166 144c-19 28 -4 57 17 73c-61 27 -127 51 -191 51c-59 0 -117 -22 -164 -78c-20 -23 -1 -65 -28 -65c0 0 -1 0 -2 1z
M318 -11c-4 -1 -9 -2 -12 -2c4 0 8 1 12 2zM439 183c3 7 -27 6 -29 4c3 -5 27 -9 29 -4zM504 304c-28 -4 -56 -18 -76 -36c1 0 2 -1 3 -1c27 -10 50 -26 76 -26c24 0 59 11 59 36c0 29 -54 27 -62 27zM586 367c0 -24 -49 -36 -61 -36c-5 0 -8 1 -8 1c0 1 0 1 1 1
c29 8 29 42 59 42c6 0 9 -3 9 -8z" />
    <glyph glyph-name="Ecircumflex" unicode="&#xca;" horiz-adv-x="474"
d="M12 178c-4 1 -6 6 -6 12c0 5 1 10 3 16c40 81 115 126 198 126c69 0 139 -26 201 -54c33 23 75 39 117 39c20 0 53 -9 53 -40c0 -36 -46 -48 -68 -48c-34 0 -65 21 -92 30c-15 -15 -30 -39 -20 -61c9 1 16 1 28 1c13 0 24 -4 24 -14c0 -15 -19 -16 -22 -16
c-15 0 -32 10 -36 16c-70 -12 -152 -79 -152 -138c0 -45 33 -60 55 -60c58 0 166 71 190 71c2 -8 -116 -84 -190 -84c-43 0 -81 25 -81 78c0 85 99 134 166 144c-19 28 -4 57 17 73c-61 27 -127 51 -191 51c-59 0 -117 -22 -164 -78c-20 -23 -1 -65 -28 -65c0 0 -1 0 -2 1z
M318 -11c-4 -1 -8 -2 -12 -2c3 0 8 1 12 2zM439 183c3 7 -27 6 -29 4c3 -5 27 -9 29 -4zM504 304c-28 -4 -56 -18 -76 -36c1 0 2 -1 3 -1c27 -10 50 -26 76 -26c24 0 59 11 59 36c0 29 -54 27 -62 27zM575 373c10 -18 13 -33 32 -43c-2 -2 2 -4 -6 -4s-23 4 -45 31
c-22 -7 -30 -11 -49 -11c-7 0 -8 2 -8 4c0 1 48 26 57 30c0 0 3 2 7 2s8 -2 12 -9z" />
    <glyph glyph-name="Edieresis" unicode="&#xcb;" horiz-adv-x="474"
d="M12 178c-4 1 -6 6 -6 12c0 5 1 10 3 16c40 81 115 126 198 126c69 0 139 -26 201 -54c33 23 75 39 117 39c20 0 53 -9 53 -40c0 -36 -46 -48 -68 -48c-34 0 -65 21 -92 30c-15 -15 -30 -39 -20 -61c9 1 16 1 28 1c13 0 24 -4 24 -14c0 -15 -19 -16 -22 -16
c-15 0 -32 10 -36 16c-70 -12 -152 -79 -152 -138c0 -45 33 -60 55 -60c58 0 166 71 190 71c2 -8 -116 -84 -190 -84c-43 0 -81 25 -81 78c0 85 99 134 166 144c-19 28 -4 57 17 73c-61 27 -127 51 -191 51c-59 0 -117 -22 -164 -78c-20 -23 -1 -65 -28 -65c0 0 -1 0 -2 1z
M318 -11c-4 -1 -8 -2 -12 -2c3 0 8 1 12 2zM439 183c3 7 -27 6 -29 4c3 -5 27 -9 29 -4zM504 304c-28 -4 -56 -18 -76 -36c1 0 2 -1 3 -1c27 -10 50 -26 76 -26c24 0 59 11 59 36c0 29 -54 27 -62 27zM591 364c0 -13 -19 -30 -32 -30c-5 0 -8 3 -8 8c0 9 11 29 29 29
c6 0 11 -2 11 -7zM514 342c0 14 14 29 29 29c6 0 11 -2 11 -7c0 -11 -20 -30 -32 -30c-5 0 -8 3 -8 8z" />
    <glyph glyph-name="Igrave" unicode="&#xcc;" horiz-adv-x="361"
d="M29 -25c-11 6 -17 15 -17 22c0 5 3 7 9 7c22 0 28 -21 46 -33c9 0 20 0 30 3c133 45 206 164 322 278c47 47 42 50 47 50c6 0 9 -11 9 -16c0 -9 -4 -17 -4 -17l-56 -71c-96 -132 -105 -194 -105 -194c-2 -8 -5 -10 -8 -10c-8 0 -9 4 -9 7c0 42 47 131 88 193
c-83 -90 -161 -191 -282 -232c-22 -7 -51 0 -70 13zM459 360c1 2 4 3 8 3c30 0 30 -34 59 -42c0 0 1 0 1 -1c0 0 -3 -1 -8 -1c-12 0 -61 12 -61 36c0 2 0 4 1 5z" />
    <glyph glyph-name="Iacute" unicode="&#xcd;" horiz-adv-x="361"
d="M29 -25c-11 6 -17 15 -17 22c0 5 3 7 9 7c22 0 28 -21 46 -33c9 0 20 0 30 3c133 45 206 164 322 278c47 47 42 50 47 50c6 0 9 -11 9 -16c0 -9 -4 -17 -4 -17l-56 -71c-96 -132 -105 -194 -105 -194c-2 -8 -5 -10 -8 -10c-8 0 -9 4 -9 7c0 42 47 131 88 193
c-83 -90 -161 -191 -282 -232c-22 -7 -51 0 -70 13zM528 358c0 -24 -49 -36 -61 -36c-5 0 -8 1 -8 1c0 1 0 1 1 1c29 8 29 42 59 42c6 0 9 -3 9 -8z" />
    <glyph glyph-name="Icircumflex" unicode="&#xce;" horiz-adv-x="361"
d="M29 -25c-11 6 -17 15 -17 22c0 5 3 7 9 7c22 0 28 -21 46 -33c9 0 20 0 30 3c133 45 206 164 322 278c47 47 42 50 47 50c6 0 9 -11 9 -16c0 -9 -4 -17 -4 -17l-56 -71c-96 -132 -105 -194 -105 -194c-2 -8 -5 -10 -8 -10c-8 0 -9 4 -9 7c0 42 47 131 88 193
c-83 -90 -161 -191 -282 -232c-22 -7 -51 0 -70 13zM505 351c10 -18 13 -33 32 -43c-2 -2 2 -4 -6 -4s-23 4 -45 31c-22 -7 -30 -11 -49 -11c-7 0 -8 2 -8 4c0 1 48 26 57 30c0 0 3 2 7 2s8 -2 12 -9z" />
    <glyph glyph-name="Idieresis" unicode="&#xcf;" horiz-adv-x="361"
d="M29 -25c-11 6 -17 15 -17 22c0 5 3 7 9 7c22 0 28 -21 46 -33c9 0 20 0 30 3c133 45 206 164 322 278c47 47 42 50 47 50c6 0 9 -11 9 -16c0 -9 -4 -17 -4 -17l-56 -71c-96 -132 -105 -194 -105 -194c-2 -8 -5 -10 -8 -10c-8 0 -9 4 -9 7c0 42 47 131 88 193
c-83 -90 -161 -191 -282 -232c-22 -7 -51 0 -70 13zM531 350c0 -13 -19 -30 -32 -30c-5 0 -8 3 -8 8c0 9 11 29 29 29c6 0 11 -2 11 -7zM454 328c0 14 14 29 29 29c6 0 11 -2 11 -7c0 -11 -20 -30 -32 -30c-5 0 -8 3 -8 8z" />
    <glyph glyph-name="Ntilde" unicode="&#xd1;" horiz-adv-x="435"
d="M-48 216c6 -11 -2 -22 11 -38c35 -21 68 -31 106 -31c79 0 164 43 216 102c42 48 32 50 38 50c13 0 12 -24 9 -32l-42 -72c-67 -107 -83 -157 -89 -172c4 6 9 12 15 20c77 96 139 204 245 277c10 8 29 -1 27 -13c10 10 8 13 13 13c11 0 9 -25 7 -32l-63 -93
c-87 -140 -91 -173 -91 -179c0 -9 4 -11 7 -11c12 -1 78 45 81 53c2 1 4 1 5 1s2 0 2 -2c0 -7 -54 -52 -74 -61c-6 -3 -12 -4 -16 -4c-18 0 -21 20 -21 20c-9 76 100 225 140 281c1 12 -1 23 -13 15c-96 -68 -164 -177 -239 -272c-19 -24 -32 -36 -37 -36c-8 0 -9 5 -9 10
c0 49 43 135 85 203c-53 -47 -124 -78 -194 -78c-67 0 -147 38 -147 88c0 6 2 11 7 11c7 0 15 -7 21 -18zM448 342c2 0 2 0 2 -1c0 -5 -9 -20 -27 -20c-36 0 -23 26 -47 26c-7 0 -10 0 -10 2c0 4 9 10 21 10c16 0 32 -20 47 -20c5 0 10 1 14 3z" />
    <glyph glyph-name="Ograve" unicode="&#xd2;" horiz-adv-x="485"
d="M21 289c17 15 63 35 105 35c61 0 112 -22 157 -60v1c30 29 74 56 116 56c44 0 63 -29 67 -83c3 -46 -18 -196 -132 -196c-48 0 -71 44 -71 86c0 37 16 73 41 101c-6 5 -11 10 -17 16c-30 -35 -59 -85 -59 -140c0 -53 21 -111 81 -111c128 0 194 145 199 248
c-2 37 -23 32 -23 57c0 9 3 15 9 15c22 0 22 -52 21 -78c-6 -110 -82 -254 -211 -254c-72 0 -103 51 -103 106c0 63 33 121 74 167c-44 36 -91 58 -148 58c-22 0 -49 -5 -68 -13c-28 -14 -22 -41 -44 -41c-5 0 -8 3 -8 8c0 6 5 14 14 22zM378 305c-27 -6 -56 -25 -83 -51
c6 -6 12 -11 17 -16c16 14 30 27 53 27c25 0 39 -20 39 -39c0 -23 -18 -41 -41 -41c-21 0 -35 19 -46 30c-15 -24 -26 -55 -26 -85c0 -32 11 -73 54 -74c73 4 109 96 109 181c0 46 -16 72 -54 72h2s-24 -2 -24 -4zM324 225c13 -14 28 -28 43 -28c9 0 25 10 25 29
c0 14 -12 27 -27 27c-14 0 -30 -13 -41 -28zM405 360c1 2 4 3 8 3c30 0 30 -34 59 -42c0 0 1 0 1 -1c0 0 -3 -1 -8 -1c-12 0 -61 12 -61 36c0 2 0 4 1 5z" />
    <glyph glyph-name="Oacute" unicode="&#xd3;" horiz-adv-x="485"
d="M21 289c17 15 63 35 105 35c61 0 112 -22 157 -60v1c30 29 74 56 116 56c44 0 63 -29 67 -83c3 -46 -18 -196 -132 -196c-48 0 -71 44 -71 86c0 37 16 73 41 101c-6 5 -11 10 -17 16c-30 -35 -59 -85 -59 -140c0 -53 21 -111 81 -111c128 0 194 145 199 248
c-2 37 -23 32 -23 57c0 9 3 15 9 15c22 0 22 -52 21 -78c-6 -110 -82 -254 -211 -254c-72 0 -103 51 -103 106c0 63 33 121 74 167c-44 36 -91 58 -148 58c-22 0 -49 -5 -68 -13c-28 -14 -22 -41 -44 -41c-5 0 -8 3 -8 8c0 6 5 14 14 22zM378 305c-27 -6 -56 -25 -83 -51
c6 -6 12 -11 17 -16c16 14 30 27 53 27c25 0 39 -20 39 -39c0 -23 -18 -41 -41 -41c-21 0 -35 19 -46 30c-15 -24 -26 -55 -26 -85c0 -32 11 -73 54 -74c73 4 109 96 109 181c0 46 -16 72 -54 72h2s-24 -2 -24 -4zM324 225c13 -14 28 -28 43 -28c9 0 25 10 25 29
c0 14 -12 27 -27 27c-14 0 -30 -13 -41 -28zM472 367c0 -24 -49 -36 -61 -36c-5 0 -8 1 -8 1c0 1 0 1 1 1c29 8 29 42 59 42c6 0 9 -3 9 -8z" />
    <glyph glyph-name="Ocircumflex" unicode="&#xd4;" horiz-adv-x="485"
d="M21 289c17 15 63 35 105 35c61 0 112 -22 157 -60v1c30 29 74 56 116 56c44 0 63 -29 67 -83c3 -46 -18 -196 -132 -196c-48 0 -71 44 -71 86c0 37 16 73 41 101c-6 5 -11 10 -17 16c-30 -35 -59 -85 -59 -140c0 -53 21 -111 81 -111c128 0 194 145 199 248
c-2 37 -23 32 -23 57c0 9 3 15 9 15c22 0 22 -52 21 -78c-6 -110 -82 -254 -211 -254c-72 0 -103 51 -103 106c0 63 33 121 74 167c-44 36 -91 58 -148 58c-22 0 -49 -5 -68 -13c-28 -14 -22 -41 -44 -41c-5 0 -8 3 -8 8c0 6 5 14 14 22zM378 305c-27 -6 -56 -25 -83 -51
c6 -6 12 -11 17 -16c16 14 30 27 53 27c25 0 39 -20 39 -39c0 -23 -18 -41 -41 -41c-21 0 -35 19 -46 30c-15 -24 -26 -55 -26 -85c0 -32 11 -73 54 -74c73 4 109 96 109 181c0 46 -16 72 -54 72h2s-24 -2 -24 -4zM324 225c13 -14 28 -28 43 -28c9 0 25 10 25 29
c0 14 -12 27 -27 27c-14 0 -30 -13 -41 -28zM460 363c10 -18 13 -33 32 -43c-2 -2 2 -4 -6 -4s-23 4 -45 31c-22 -7 -30 -11 -49 -11c-7 0 -8 2 -8 4c0 1 48 26 57 30c0 0 3 2 7 2s8 -2 12 -9z" />
    <glyph glyph-name="Otilde" unicode="&#xd5;" horiz-adv-x="485"
d="M21 289c17 15 63 35 105 35c61 0 112 -22 157 -60v1c30 29 74 56 116 56c44 0 63 -29 67 -83c3 -46 -18 -196 -132 -196c-48 0 -71 44 -71 86c0 37 16 73 41 101c-6 5 -11 10 -17 16c-30 -35 -59 -85 -59 -140c0 -53 21 -111 81 -111c128 0 194 145 199 248
c-2 37 -23 32 -23 57c0 9 3 15 9 15c22 0 22 -52 21 -78c-6 -110 -82 -254 -211 -254c-72 0 -103 51 -103 106c0 63 33 121 74 167c-44 36 -91 58 -148 58c-22 0 -49 -5 -68 -13c-28 -14 -22 -41 -44 -41c-5 0 -8 3 -8 8c0 6 5 14 14 22zM378 305c-27 -6 -56 -25 -83 -51
c6 -6 12 -11 17 -16c16 14 30 27 53 27c25 0 39 -20 39 -39c0 -23 -18 -41 -41 -41c-21 0 -35 19 -46 30c-15 -24 -26 -55 -26 -85c0 -32 11 -73 54 -74c73 4 109 96 109 181c0 46 -16 72 -54 72h2s-24 -2 -24 -4zM324 225c13 -14 28 -28 43 -28c9 0 25 10 25 29
c0 14 -12 27 -27 27c-14 0 -30 -13 -41 -28zM481 344c2 0 2 0 2 -1c0 -5 -9 -20 -27 -20c-36 0 -23 26 -47 26c-7 0 -10 0 -10 2c0 4 9 10 21 10c16 0 32 -20 47 -20c5 0 10 1 14 3z" />
    <glyph glyph-name="Odieresis" unicode="&#xd6;" horiz-adv-x="485"
d="M21 289c17 15 63 35 105 35c61 0 112 -22 157 -60v1c30 29 74 56 116 56c44 0 63 -29 67 -83c3 -46 -18 -196 -132 -196c-48 0 -71 44 -71 86c0 37 16 73 41 101c-6 5 -11 10 -17 16c-30 -35 -59 -85 -59 -140c0 -53 21 -111 81 -111c128 0 194 145 199 248
c-2 37 -23 32 -23 57c0 9 3 15 9 15c22 0 22 -52 21 -78c-6 -110 -82 -254 -211 -254c-72 0 -103 51 -103 106c0 63 33 121 74 167c-44 36 -91 58 -148 58c-22 0 -49 -5 -68 -13c-28 -14 -22 -41 -44 -41c-5 0 -8 3 -8 8c0 6 5 14 14 22zM378 305c-27 -6 -56 -25 -83 -51
c6 -6 12 -11 17 -16c16 14 30 27 53 27c25 0 39 -20 39 -39c0 -23 -18 -41 -41 -41c-21 0 -35 19 -46 30c-15 -24 -26 -55 -26 -85c0 -32 11 -73 54 -74c73 4 109 96 109 181c0 46 -16 72 -54 72h2s-24 -2 -24 -4zM324 225c13 -14 28 -28 43 -28c9 0 25 10 25 29
c0 14 -12 27 -27 27c-14 0 -30 -13 -41 -28zM476 359c0 -13 -19 -30 -32 -30c-5 0 -8 3 -8 8c0 9 11 29 29 29c6 0 11 -2 11 -7zM399 337c0 14 14 29 29 29c6 0 11 -2 11 -7c0 -11 -20 -30 -32 -30c-5 0 -8 3 -8 8z" />
    <glyph glyph-name="multiply" unicode="&#xd7;" horiz-adv-x="833"
 />
    <glyph glyph-name="Oslash" unicode="&#xd8;" horiz-adv-x="485"
d="M267 -17c-2 -5 -5 -7 -7 -7c-7 0 -9 11 -9 15c0 7 2 13 2 13l33 65c100 194 102 263 102 263c1 8 4 10 8 10c6 0 7 -3 7 -7c0 -108 -132 -352 -136 -352zM21 289c17 15 63 35 105 35c61 0 112 -22 157 -60v1c30 29 74 56 116 56c44 0 63 -29 67 -83
c3 -46 -18 -196 -132 -196c-48 0 -71 44 -71 86c0 37 16 73 41 101c-6 5 -11 10 -17 16c-30 -35 -59 -85 -59 -140c0 -53 21 -111 81 -111c128 0 194 145 199 248c-2 37 -23 32 -23 57c0 9 3 15 9 15c22 0 22 -52 21 -78c-6 -110 -82 -254 -211 -254c-72 0 -103 51 -103 106
c0 63 33 121 74 167c-44 36 -91 58 -148 58c-22 0 -49 -5 -68 -13c-28 -14 -22 -41 -44 -41c-5 0 -8 3 -8 8c0 6 5 14 14 22zM378 305c-27 -6 -56 -25 -83 -51c6 -6 12 -11 17 -16c16 14 30 27 53 27c25 0 39 -20 39 -39c0 -23 -18 -41 -41 -41c-21 0 -35 19 -46 30
c-15 -24 -26 -55 -26 -85c0 -32 11 -73 54 -74c73 4 109 96 109 181c0 46 -16 72 -54 72h2s-24 -2 -24 -4zM324 225c13 -14 28 -28 43 -28c9 0 25 10 25 29c0 14 -12 27 -27 27c-14 0 -30 -13 -41 -28z" />
    <glyph glyph-name="Ugrave" unicode="&#xd9;" horiz-adv-x="564"
d="M480 82c-44 -50 -112 -110 -184 -110c-25 0 -27 16 -27 25c0 8 4 13 4 13l63 93c85 138 101 192 101 192c0 12 -3 14 -7 14c-7 0 -34 -20 -59 -37c-76 -53 -161 -132 -253 -132c-64 0 -113 60 -113 86c0 7 2 12 7 12c26 0 12 -32 36 -59c26 -17 43 -26 71 -26
c78 0 162 68 233 120c47 38 75 49 80 49c19 0 21 -19 21 -19c1 -3 1 -7 1 -10c0 -76 -132 -257 -160 -299c-2 -3 -3 -5 -3 -7s2 -3 2 -3h-1c76 0 153 71 199 131c3 4 6 8 10 12c37 73 93 145 93 145c3 6 6 7 9 7c7 0 11 -12 11 -17c0 -8 -4 -15 -4 -15l-36 -52
c-90 -146 -91 -174 -91 -180c0 -8 4 -10 7 -10c2 0 81 47 82 53c2 1 3 1 4 1c2 0 2 0 2 -2c0 -8 -54 -52 -74 -61c-6 -3 -12 -4 -16 -4c-19 0 -22 17 -22 27c0 18 3 39 14 63zM497 360c1 2 4 3 8 3c30 0 30 -34 59 -42c0 0 1 0 1 -1c0 0 -3 -1 -8 -1c-12 0 -61 12 -61 36
c0 2 0 4 1 5z" />
    <glyph glyph-name="Uacute" unicode="&#xda;" horiz-adv-x="564"
d="M480 82c-44 -50 -112 -110 -184 -110c-25 0 -27 16 -27 25c0 8 4 13 4 13l63 93c85 138 101 192 101 192c0 12 -3 14 -7 14c-7 0 -34 -20 -59 -37c-76 -53 -161 -132 -253 -132c-64 0 -113 60 -113 86c0 7 2 12 7 12c26 0 12 -32 36 -59c26 -17 43 -26 71 -26
c78 0 162 68 233 120c47 38 75 49 80 49c19 0 21 -19 21 -19c1 -3 1 -7 1 -10c0 -76 -132 -257 -160 -299c-2 -3 -3 -5 -3 -7s2 -3 2 -3h-1c76 0 153 71 199 131c3 4 6 8 10 12c37 73 93 145 93 145c3 6 6 7 9 7c7 0 11 -12 11 -17c0 -8 -4 -15 -4 -15l-36 -52
c-90 -146 -91 -174 -91 -180c0 -8 4 -10 7 -10c2 0 81 47 82 53c2 1 3 1 4 1c2 0 2 0 2 -2c0 -8 -54 -52 -74 -61c-6 -3 -12 -4 -16 -4c-19 0 -22 17 -22 27c0 18 3 39 14 63zM583 356c0 -24 -49 -36 -61 -36c-5 0 -8 1 -8 1c0 1 0 1 1 1c29 8 29 42 59 42c6 0 9 -3 9 -8z
" />
    <glyph glyph-name="Ucircumflex" unicode="&#xdb;" horiz-adv-x="564"
d="M480 82c-44 -50 -112 -110 -184 -110c-25 0 -27 16 -27 25c0 8 4 13 4 13l63 93c85 138 101 192 101 192c0 12 -3 14 -7 14c-7 0 -34 -20 -59 -37c-76 -53 -161 -132 -253 -132c-64 0 -113 60 -113 86c0 7 2 12 7 12c26 0 12 -32 36 -59c26 -17 43 -26 71 -26
c78 0 162 68 233 120c47 38 75 49 80 49c19 0 21 -19 21 -19c1 -3 1 -7 1 -10c0 -76 -132 -257 -160 -299c-2 -3 -3 -5 -3 -7s2 -3 2 -3h-1c76 0 153 71 199 131c3 4 6 8 10 12c37 73 93 145 93 145c3 6 6 7 9 7c7 0 11 -12 11 -17c0 -8 -4 -15 -4 -15l-36 -52
c-90 -146 -91 -174 -91 -180c0 -8 4 -10 7 -10c2 0 81 47 82 53c2 1 3 1 4 1c2 0 2 0 2 -2c0 -8 -54 -52 -74 -61c-6 -3 -12 -4 -16 -4c-19 0 -22 17 -22 27c0 18 3 39 14 63zM572 360c10 -18 13 -33 32 -43c-2 -2 2 -4 -6 -4s-23 4 -45 31c-22 -7 -30 -11 -49 -11
c-7 0 -8 2 -8 4c0 1 48 26 57 30c0 0 3 2 7 2s8 -2 12 -9z" />
    <glyph glyph-name="Udieresis" unicode="&#xdc;" horiz-adv-x="564"
d="M480 82c-44 -50 -112 -110 -184 -110c-25 0 -27 16 -27 25c0 8 4 13 4 13l63 93c85 138 101 192 101 192c0 12 -3 14 -7 14c-7 0 -34 -20 -59 -37c-76 -53 -161 -132 -253 -132c-64 0 -113 60 -113 86c0 7 2 12 7 12c26 0 12 -32 36 -59c26 -17 43 -26 71 -26
c78 0 162 68 233 120c47 38 75 49 80 49c19 0 21 -19 21 -19c1 -3 1 -7 1 -10c0 -76 -132 -257 -160 -299c-2 -3 -3 -5 -3 -7s2 -3 2 -3h-1c76 0 153 71 199 131c3 4 6 8 10 12c37 73 93 145 93 145c3 6 6 7 9 7c7 0 11 -12 11 -17c0 -8 -4 -15 -4 -15l-36 -52
c-90 -146 -91 -174 -91 -180c0 -8 4 -10 7 -10c2 0 81 47 82 53c2 1 3 1 4 1c2 0 2 0 2 -2c0 -8 -54 -52 -74 -61c-6 -3 -12 -4 -16 -4c-19 0 -22 17 -22 27c0 18 3 39 14 63zM591 353c0 -13 -19 -30 -32 -30c-5 0 -8 3 -8 8c0 9 11 29 29 29c6 0 11 -2 11 -7zM514 331
c0 14 14 29 29 29c6 0 11 -2 11 -7c0 -11 -20 -30 -32 -30c-5 0 -8 3 -8 8z" />
    <glyph glyph-name="Yacute" unicode="&#xdd;" horiz-adv-x="521"
d="M430 -45c-25 -30 -63 -62 -109 -59c-16 1 -33 8 -33 28c0 39 76 46 98 46c9 0 18 -1 27 -1c27 34 44 69 50 78c5 9 11 20 17 31c-46 -52 -104 -96 -176 -106c-19 0 -32 15 -32 26c0 7 4 12 4 12l63 93c86 138 102 192 102 192c0 13 -4 14 -8 14c-6 -1 -33 -19 -59 -37
c-77 -52 -159 -132 -252 -132c-70 0 -114 66 -114 87c0 6 3 11 8 11c26 0 17 -39 36 -59c15 -16 43 -26 71 -26c78 0 162 68 233 120c46 37 73 49 79 49c19 0 22 -19 22 -19c0 -3 1 -6 1 -10c0 -81 -163 -289 -163 -307c0 -1 1 -2 1 -2c76 0 154 71 199 131
c52 70 50 135 99 135c4 0 5 -3 5 -6c0 -4 -2 -8 -3 -10c-34 -46 -88 -159 -116 -205c-17 -29 -30 -49 -41 -63c30 -4 61 -12 91 -12c63 0 48 53 77 53c5 0 7 -4 7 -8c0 -17 -38 -57 -85 -57c-34 0 -67 9 -99 13zM325 -92c30 0 59 27 78 49c-6 0 -12 1 -17 1
c-2 0 -86 -3 -86 -36c0 -9 12 -14 25 -14zM579 354c0 -24 -49 -36 -61 -36c-5 0 -8 1 -8 1c0 1 0 1 1 1c29 8 29 42 59 42c6 0 9 -3 9 -8z" />
    <glyph glyph-name="oslash" unicode="&#xf8;"
d="M-10 -24c-2 -3 -5 -4 -6 -3c-5 0 -5 8 -5 11c1 5 4 8 4 8l33 40c100 119 114 165 114 165c1 5 4 6 7 6c5 -1 4 -3 4 -7c-15 -73 -149 -221 -151 -220zM205 130c-14 -29 -46 -51 -83 -51c-6 0 -8 -5 -12 -11c-2 -3 -50 -71 -102 -71c-8 0 -22 2 -23 25
c-3 74 84 168 136 168c26 0 27 -25 27 -34c0 -12 -3 -34 -21 -63c30 2 54 20 65 43c1 3 4 5 6 5c8 0 7 -10 7 -11zM17 14c32 1 73 51 86 68c-25 6 -44 25 -44 51c0 3 0 7 1 10c-24 -26 -51 -72 -51 -114c0 -16 7 -15 8 -15zM110 94c13 26 16 42 16 51c0 20 -12 24 -19 24
c-27 0 -35 -28 -35 -36c0 -17 14 -32 38 -39z" />
    <glyph glyph-name="fi" unicode="&#xfb01;" horiz-adv-x="163"
d="M60 122c2 -10 2 -20 2 -30c0 -43 -36 -155 -93 -155c-21 0 -22 22 -22 22v4c0 37 45 111 94 180c-6 17 -14 33 -24 48c-5 3 -50 19 -50 37c0 4 3 5 7 5c16 0 36 -17 52 -31c2 1 -5 1 -2 1h62c99 130 86 107 91 107c7 0 10 -9 10 -13c0 -9 -6 -18 -6 -18s-26 -32 -60 -76
c6 0 61 0 61 -6c0 -7 -55 -7 -61 -7h-10c-16 -21 -34 -45 -51 -68zM-31 -51c43 0 80 105 80 143c0 4 -1 9 -1 14c-46 -65 -85 -127 -85 -149c0 -6 3 -8 6 -8zM41 175c3 -6 6 -13 9 -20c9 12 17 24 26 35h-43c4 -5 5 -10 8 -15zM136 168c6 7 21 16 32 16c5 0 7 -2 7 -6
s-3 -9 -4 -10c-80 -110 -87 -142 -87 -142c-1 -3 -1 -5 -1 -7c0 -7 5 -8 8 -8c15 -2 72 43 72 45c2 1 4 1 5 1s2 -1 2 -2c0 -4 -7 -12 -7 -12c-52 -46 -72 -45 -74 -45c-23 1 -22 22 -22 22c0 36 28 89 69 148zM169 194c-3 1 -4 4 -4 8c0 14 16 36 27 36c4 0 7 -3 7 -9
c0 -16 -16 -36 -26 -36c-2 0 -3 0 -4 1z" />
    <glyph glyph-name="fl" unicode="&#xfb02;" horiz-adv-x="163"
d="M60 122c2 -10 2 -20 2 -30c0 -43 -36 -155 -93 -155c-21 0 -22 22 -22 22v4c0 37 45 111 94 180c-6 17 -14 33 -24 48c-5 3 -48 18 -48 36c0 4 3 5 7 5c16 0 34 -16 50 -30c2 1 -5 1 -2 1h62c99 130 86 107 91 107c7 0 10 -9 10 -13c0 -9 -6 -18 -6 -18s-26 -32 -60 -76
c33 0 54 4 54 1c0 -4 -5 -14 -54 -14h-10c-16 -21 -34 -45 -51 -68zM-31 -51c43 0 80 105 80 143c0 4 -1 9 -1 14c-46 -65 -85 -127 -85 -149c0 -6 3 -8 6 -8zM41 175c3 -6 6 -13 9 -20c9 12 17 24 26 35h-43c4 -5 5 -10 8 -15zM189 192c-104 -139 -106 -165 -106 -173
c0 -7 4 -8 8 -8c18 0 72 43 72 45c1 1 7 2 7 -1c1 -6 -7 -12 -7 -12c-55 -48 -72 -45 -74 -45c-24 -1 -22 22 -22 22c0 77 174 285 180 285c4 4 7 5 9 5c7 0 9 -10 9 -14c0 -9 -5 -17 -5 -17z" />
    <glyph glyph-name="quotedbl" unicode="&#x22;" horiz-adv-x="69"
d="M90 311c6 0 11 -4 11 -10c0 -14 -33 -46 -33 -55l1 -2h-1c-1 -1 -2 -1 -3 -1s-4 4 -4 8c0 15 20 46 23 54l-1 -1l2 6l1 -1v1c0 1 1 1 4 1zM140 311c6 0 11 -4 11 -10c0 -14 -33 -46 -33 -55l1 -2h-1c-1 -1 -2 -1 -3 -1s-4 4 -4 8c0 15 20 46 23 54l-1 -1l2 6l1 -1v1
c0 1 1 1 4 1z" />
    <glyph glyph-name="divide" unicode="&#xf7;" horiz-adv-x="209"
d="M182 154c8 0 13 -3 13 -8c0 -4 -5 -7 -13 -7h-139c-9 0 -17 3 -17 7c0 5 8 8 17 8h139zM101 121c7 0 13 -5 13 -12c0 -5 -19 -38 -23 -9c-1 8 2 21 10 21zM130 202c7 0 13 -5 13 -12c0 -5 -19 -38 -23 -10c-1 9 1 22 10 22z" />
    <glyph glyph-name="equal" unicode="=" horiz-adv-x="290"
d="M184 112c8 0 13 -3 13 -8c0 -4 -5 -7 -13 -7h-139c-9 0 -17 3 -17 7c0 5 8 8 17 8h139zM202 152c8 0 13 -3 13 -8c0 -4 -5 -7 -13 -7h-139c-9 0 -17 3 -17 7c0 5 8 8 17 8h139z" />
    <glyph glyph-name="semicolon" unicode=";" horiz-adv-x="106"
d="M42 74c6 0 11 -4 11 -10c0 -14 -33 -46 -33 -55l1 -2h-1c-1 -1 -2 -1 -3 -1s-4 4 -4 8c0 15 20 46 23 54l-1 -1l2 6l1 -1v1c0 1 1 1 4 1zM70 149c6 0 11 -4 11 -10c0 -4 -17 -38 -20 -14c-1 7 2 24 9 24z" />
    <glyph glyph-name="colon" unicode=":" horiz-adv-x="126"
d="M71 150c6 0 11 -4 11 -10c0 -4 -17 -38 -20 -14c-1 7 2 24 9 24zM43 72c6 0 11 -4 11 -10c0 -4 -17 -38 -20 -14c-1 7 2 24 9 24z" />
    <glyph glyph-name="underscore" unicode="_" horiz-adv-x="363"
d="M317 -7c8 0 13 -3 13 -8c0 -4 -5 -7 -13 -7h-272c-9 0 -17 3 -17 7c0 5 8 8 17 8h272z" />
    <glyph glyph-name="A" unicode="A" horiz-adv-x="512"
d="M-42 21c-13 11 -32 41 -37 64c-3 14 0 27 7 29c7 1 15 -9 18 -24c6 -30 -12 -32 20 -61c81 -70 211 -43 290 23c83 68 166 138 245 211c28 25 60 57 62 57v0c7 13 12 5 12 5c13 -10 3 -30 3 -30l-63 -93c-85 -138 -90 -175 -90 -175c-3 -18 10 -13 10 -13
c13 4 77 52 77 52c15 7 2 -13 2 -13c-5 -6 -69 -50 -69 -50c-33 -13 -37 17 -37 17c-5 25 11 67 33 111h-46c-2 0 -7 0 -5 3c2 5 17 8 21 7c19 -1 36 0 38 5h1c25 47 56 94 80 128c-7 -7 -14 -14 -21 -20c-79 -74 -161 -143 -246 -212c-82 -67 -216 -99 -305 -21z" />
    <glyph glyph-name="oe" unicode="&#x153;" horiz-adv-x="220"
d="M127 93l-5 -14c-6 0 -8 -5 -12 -11c-2 -3 -50 -71 -102 -71c-8 0 -22 2 -23 25c-3 74 84 168 136 168c26 0 27 -25 27 -34c0 -12 -3 -34 -21 -63zM17 14c24 3 56 25 64 35c-27 10 -38 61 -21 94c-24 -26 -51 -72 -51 -114c0 -16 7 -15 8 -15zM88 61c17 22 35 53 38 84
c2 20 -12 24 -19 24c-53 0 -47 -106 -19 -108zM226 72c6 9 18 20 22 18c3 -2 -5 -17 -12 -26c-19 -22 -31 -31 -55 -45c-22 -12 -80 -42 -92 0c-12 45 53 141 96 161c15 8 35 8 42 -11c24 -67 -62 -101 -106 -122c-4 -1 -7 -2 -11 -3c-4 -11 -5 -21 -3 -29c6 -13 49 4 68 16
c27 17 33 23 51 41zM191 152c-29 -20 -57 -57 -74 -92c46 19 110 52 98 100c-3 6 -14 0 -24 -8z" />
    <glyph glyph-name="quoteright" unicode="&#x2019;" horiz-adv-x="70"
d="M90 311c6 0 11 -4 11 -10c0 -14 -33 -46 -33 -55l1 -2h-1c-1 -1 -2 -1 -3 -1s-4 4 -4 8c0 15 20 46 23 54l-1 -1l2 6l1 -1v1c0 1 1 1 4 1z" />
    </font>
</defs>
</svg>
