<?xml version="1.0" standalone="no"?>
<!DOCTYPE svg PUBLIC "-//W3C//DTD SVG 1.1//EN" "http://www.w3.org/Graphics/SVG/1.1/DTD/svg11.dtd" >
<svg xmlns="http://www.w3.org/2000/svg" xmlns:xlink="http://www.w3.org/1999/xlink" version="1.1">
<metadata></metadata>
<defs>
<font id="718book" horiz-adv-x="597" >
<font-face units-per-em="1000" ascent="750" descent="-250" />
<missing-glyph horiz-adv-x="260" />
<glyph unicode="&#xfb01;" horiz-adv-x="654" d="M26 408v62h95v79q0 102 51 146.5t133 44.5q61 0 117 -28l-25 -57q-41 23 -83 23q-113 0 -113 -131v-77h191v-62h-191v-408h-80v408h-95zM477 470h81v-470h-81v470zM463 618q0 22 16 37.5t38 15.5t38 -15.5t16 -37.5t-16 -38t-38 -16t-38 16t-16 38z" />
<glyph unicode="&#xfb02;" horiz-adv-x="657" d="M26 408v62h95v79q0 102 51 146.5t133 44.5q61 0 111 -25l-26 -57q-34 20 -76 20q-113 0 -113 -131v-77h182v-62h-182v-408h-80v408h-95zM481 730h80v-730h-80v730z" />
<glyph unicode="&#xfb03;" horiz-adv-x="997" d="M201 408v-408h-80v408h-95v62h95v79q0 102 51 146.5t133 44.5q65 0 120 -30l-26 -57q-39 25 -85 25q-113 0 -113 -131v-77h263v79q0 102 51 146.5t133 44.5q61 0 117 -28l-25 -57q-41 23 -83 23q-113 0 -113 -131v-77h191v-62h-191v-408h-80v408h-263zM821 470h80v-470 h-80v470zM806 618q0 22 16 37.5t39 15.5q22 0 37.5 -15.5t15.5 -37.5t-15.5 -38t-37.5 -16t-38.5 16t-16.5 38z" />
<glyph unicode="&#xfb04;" horiz-adv-x="1000" d="M201 408v-408h-80v408h-95v62h95v79q0 102 51 146.5t133 44.5q65 0 120 -30l-26 -57q-39 25 -85 25q-113 0 -113 -131v-77h263v79q0 102 51 146.5t133 44.5q62 0 111 -25l-26 -57q-32 20 -76 20q-113 0 -113 -131v-77h186v-62h-186v-408h-80v408h-263zM824 730h80v-730 h-80v730z" />
<glyph horiz-adv-x="0" />
<glyph horiz-adv-x="333" />
<glyph unicode=" "  horiz-adv-x="260" />
<glyph unicode="&#x09;" horiz-adv-x="260" />
<glyph unicode="&#xa0;" horiz-adv-x="260" />
<glyph unicode="!" horiz-adv-x="254" d="M157 195h-60l-15 482v12h91v-12zM71 47q0 24 16 40t40 16t40 -16t16 -40t-16 -40t-40 -16t-40 16t-16 40z" />
<glyph unicode="&#x22;" horiz-adv-x="366" d="M108 461h-43l-22 154v74h87v-74zM288 461h-43l-21 154v74h86v-74z" />
<glyph unicode="#" d="M345 0l18 166h-165l-19 -166h-59l19 166h-104v56h111l21 198h-111v55h116l18 160h59l-18 -160h165l19 160h58l-18 -160h113v-55h-119l-21 -198h119v-56h-126l-18 -166h-58zM225 420l-21 -198h165l22 198h-166z" />
<glyph unicode="$" d="M103 480q0 59 43.5 98.5t127.5 47.5v94h77v-94q49 -6 96.5 -23t73.5 -36l-41 -53q-70 51 -164 51q-130 0 -130 -80q0 -16 8.5 -29.5t20 -22.5t33.5 -18t38.5 -14.5t45.5 -13.5q39 -11 59 -17.5t52 -20.5t48 -29t29 -39t13 -53q0 -73 -51.5 -111t-135.5 -44v-106h-77 l1 107q-120 12 -206 74l42 55q34 -28 89 -49.5t113 -21.5q65 0 103 22.5t38 69.5q0 21 -11 37.5t-36.5 28.5t-44.5 18.5t-58 17.5q-37 10 -57 16.5t-51 20t-47 28t-28.5 37.5t-12.5 52z" />
<glyph unicode="%" horiz-adv-x="854" d="M45 515q0 82 40 132t105 50q67 0 107.5 -50t40.5 -132t-40.5 -132t-107.5 -50q-65 0 -105 50t-40 132zM107 515q0 -59 22 -95.5t61 -36.5q40 0 62.5 36.5t22.5 95.5q0 60 -22 95.5t-63 35.5q-39 0 -61 -35.5t-22 -95.5zM648 690h56l-498 -690h-56zM518 174q0 82 40 132 t105 50q67 0 107.5 -50t40.5 -132t-40.5 -132t-107.5 -50q-65 0 -105 50t-40 132zM580 174q0 -59 22 -95.5t61 -36.5q40 0 62.5 36.5t22.5 95.5q0 60 -22 95.5t-63 35.5q-39 0 -61 -35.5t-22 -95.5z" />
<glyph unicode="&#x26;" horiz-adv-x="696" d="M595 298l64 -35q-50 -94 -85 -138l94 -140h-86l-63 91q-91 -91 -210 -91q-124 0 -184.5 67t-60.5 166q0 171 191 241l-155 226l2 5h432v-71h-299l297 -434q28 41 63 113zM480 132l-186 270q-153 -52 -153 -184q0 -70 43.5 -119t125.5 -49q97 0 170 82z" />
<glyph unicode="'" horiz-adv-x="173" d="M108 461h-43l-22 154v74h87v-74z" />
<glyph unicode="(" horiz-adv-x="385" d="M64 297q0 143 73.5 260t202.5 173l13 -25q-98 -54 -153.5 -167.5t-55.5 -240.5t55.5 -240t152.5 -166l-12 -25q-129 56 -202.5 172.5t-73.5 258.5z" />
<glyph unicode=")" horiz-adv-x="385" d="M322 298q0 -142 -74 -259t-203 -173l-12 25q97 54 152.5 167t55.5 240q0 128 -55.5 241t-153.5 167l13 24q129 -56 203 -172.5t74 -259.5z" />
<glyph unicode="*" horiz-adv-x="444" d="M225 518l-51 -99l-34 -45l-50 36l33 46l78 78l-110 19l-53 18l19 59l54 -17l98 -50l-16 110v56h63v-56l-17 -110l99 50l54 17l19 -59l-53 -17l-109 -19l77 -79l34 -46l-51 -36l-33 45z" />
<glyph unicode="+" d="M526 323h-192v-194h-72v194h-192v64h192v197h72v-197h192v-64z" />
<glyph unicode="," horiz-adv-x="232" d="M173 98l-92 -223h-30l24 228h98v-5z" />
<glyph unicode="-" horiz-adv-x="447" d="M73 201v70h301v-70h-301z" />
<glyph unicode="." horiz-adv-x="232" d="M60 48q0 23 16 39t40 16t40.5 -16t16.5 -39q0 -24 -16.5 -40.5t-40.5 -16.5t-40 16.5t-16 40.5z" />
<glyph unicode="/" horiz-adv-x="411" d="M322 715h72l-305 -748h-72z" />
<glyph unicode="0" d="M51 346q0 162 68 260t180 98t179.5 -98t67.5 -260q0 -163 -67.5 -262t-179.5 -99t-180 99t-68 262zM132 346q0 -132 44.5 -212.5t122.5 -80.5t122 80.5t44 212.5t-44 210.5t-122 78.5t-122.5 -78.5t-44.5 -210.5z" />
<glyph unicode="1" d="M82 534v71l251 101h7v-641h176v-65h-434v65h178v541z" />
<glyph unicode="2" d="M116 534l-55 46q49 64 102.5 93t123.5 29q94 0 154 -54t60 -140q0 -30 -5.5 -57.5t-21.5 -57t-27.5 -49.5t-41 -55t-43.5 -50.5t-52 -56.5l-104 -113h329v-69h-477v10l128 138q71 76 104 113.5t68.5 86t48.5 84t13 73.5q0 57 -38 93t-103 36q-85 0 -163 -100z" />
<glyph unicode="3" d="M158 359l-6 6l212 256h-277v69h428v-6l-219 -245q112 0 172 -55.5t60 -162.5q0 -98 -61.5 -166.5t-177.5 -68.5q-136 0 -236 98l50 54q24 -23 34 -31.5t34.5 -25t52 -23t61.5 -6.5q81 0 123.5 47.5t42.5 121.5q0 81 -49 121.5t-132 40.5q-55 0 -112 -24z" />
<glyph unicode="4" d="M447 0h-81v154h-335v9l253 537h85l-230 -479h228v198h80v-198h115v-67h-115v-154z" />
<glyph unicode="5" d="M103 337l-4 4l44 349h370v-69h-305l-29 -189q62 24 115 24q109 0 171.5 -61t62.5 -169q0 -100 -62 -170t-176 -70q-133 0 -233 95l48 54q25 -25 45 -40t56.5 -28.5t79.5 -13.5q81 0 122.5 48.5t41.5 124.5q0 80 -47.5 124t-131.5 44t-168 -57z" />
<glyph unicode="6" d="M475 221q0 83 -44.5 126t-111.5 43q-102 0 -177 -90q-2 -16 -2 -28q0 -40 8.5 -77t27 -71t53.5 -54t82 -20q74 0 119 48t45 123zM57 309q0 201 71 297t189 96q110 0 202 -70l-42 -54q-66 61 -158 61q-89 0 -136 -78.5t-47 -193.5q86 86 196 86q97 0 157.5 -60.5 t60.5 -169.5q0 -103 -64 -170t-176 -67q-118 0 -185.5 83.5t-67.5 239.5z" />
<glyph unicode="7" d="M48 690h499v-7q-80 -137 -153.5 -324.5t-104.5 -358.5h-86q56 313 225 621h-380v69z" />
<glyph unicode="8" d="M304 706q97 0 156 -48t59 -134q0 -107 -134 -167q74 -26 116 -66t42 -115q0 -96 -67.5 -143t-172.5 -47t-176.5 47.5t-71.5 140.5q0 131 152 185q-120 50 -120 165q0 82 57.5 132t159.5 50zM463 175q0 57 -42.5 90.5t-145.5 62.5q-142 -38 -142 -150q0 -60 46.5 -95 t122.5 -35q77 0 119 35t42 92zM164 525q0 -51 37.5 -85.5t119.5 -55.5q57 21 91 56.5t34 81.5q0 61 -40.5 89.5t-102.5 28.5q-67 0 -103 -31t-36 -84z" />
<glyph unicode="9" d="M125 472q0 -80 44.5 -121.5t110.5 -41.5q104 0 178 87q1 8 1 26q0 37 -7.5 71.5t-24.5 69t-52.5 55.5t-85.5 21q-71 0 -117.5 -46.5t-46.5 -120.5zM542 385q0 -217 -67 -308t-195 -91q-121 0 -216 73l40 58q34 -30 80 -48t91 -18q54 0 91.5 21t57.5 60.5t29 85.5t10 107 q-81 -81 -195 -81q-97 0 -157.5 59.5t-60.5 164.5q0 101 66 167.5t173 66.5q123 0 188 -81.5t65 -235.5z" />
<glyph unicode=":" horiz-adv-x="232" d="M60 344q0 23 16 39t40 16t40.5 -16t16.5 -39q0 -25 -16.5 -41t-40.5 -16t-40 16t-16 41zM60 48q0 23 16 39t40 16t40.5 -16t16.5 -39q0 -24 -16.5 -40.5t-40.5 -16.5t-40 16.5t-16 40.5z" />
<glyph unicode=";" horiz-adv-x="232" d="M173 98l-92 -223h-30l24 228h98v-5zM65 344q0 23 16 39t40 16t40 -16t16 -39q0 -25 -16 -41t-40 -16t-40 16t-16 41z" />
<glyph unicode="&#x3c;" d="M70 348v31l456 221v-71l-350 -165l350 -166v-71z" />
<glyph unicode="=" d="M526 219h-456v63h456v-63zM526 419h-456v63h456v-63z" />
<glyph unicode="&#x3e;" d="M526 379v-31l-456 -221v71l350 166l-350 165v71z" />
<glyph unicode="?" horiz-adv-x="448" d="M78 558l-49 47q46 51 90.5 73.5t111.5 22.5q75 0 123 -45.5t48 -116.5q0 -47 -18.5 -82.5t-45 -57.5t-53.5 -41t-45.5 -43t-18.5 -53q0 -34 11 -67h-72q-13 37 -13 67q0 35 18.5 64t44.5 50t52.5 41.5t45 49.5t18.5 64q0 46 -29 75.5t-79 29.5q-77 0 -140 -78zM137 47 q0 24 16.5 40t40.5 16t39.5 -16t15.5 -40t-15.5 -40t-39.5 -16t-40.5 16t-16.5 40z" />
<glyph unicode="@" horiz-adv-x="870" d="M611 156q0 -37 12.5 -54t42.5 -17q44 0 72.5 44t28.5 137q0 148 -93 226t-237 78q-106 0 -183.5 -48.5t-114 -122.5t-36.5 -162q0 -65 21 -123t62 -105.5t108 -75.5t151 -28q94 0 199 43l19 -32q-105 -46 -218 -46q-121 0 -210 52t-131.5 134t-42.5 182q0 156 101 262.5 t274 106.5q159 0 264.5 -87.5t105.5 -254.5q0 -113 -44 -164t-115 -51q-70 0 -93 52q-64 -58 -146 -58q-64 0 -104.5 31t-40.5 91q0 71 49 102.5t124 31.5q55 0 106 -17v41q0 82 -102 82q-75 0 -138 -38l-21 49q71 41 163 41q167 0 167 -141v-161zM543 141v100 q-56 16 -99 16q-115 0 -115 -90q0 -36 26.5 -57t66.5 -21q63 0 121 52z" />
<glyph unicode="A" horiz-adv-x="711" d="M32 0l321 714h6l320 -714h-91l-70 164h-328l-68 -164h-90zM217 230h272l-93 223q-24 54 -38 98h-5q-4 -10 -11.5 -29.5t-16 -40.5t-10.5 -27z" />
<glyph unicode="B" horiz-adv-x="631" d="M105 0v690q92 5 189 5q122 0 180 -45.5t58 -139.5q0 -112 -122 -144q68 -8 111 -51.5t43 -118.5q0 -59 -19.5 -100t-56.5 -62.5t-81 -30.5t-102 -9q-84 0 -200 6zM186 623v-229q30 -1 99 -1q77 0 122 28t45 86q0 120 -153 120q-79 0 -113 -4zM186 327v-262q57 -5 125 -5 q85 0 127 32.5t42 104.5q0 68 -42.5 100t-150.5 32q-71 0 -101 -2z" />
<glyph unicode="C" horiz-adv-x="717" d="M609 154l58 -51q-101 -118 -259 -118q-143 0 -238.5 98.5t-95.5 263.5q0 162 95.5 260t238.5 98q157 0 258 -114l-61 -54q-77 97 -196 97q-107 0 -177 -79.5t-70 -207.5t70.5 -210t176.5 -82q119 0 200 99z" />
<glyph unicode="D" horiz-adv-x="754" d="M680 345q0 -172 -98 -261.5t-295 -89.5q-83 0 -182 6v690q90 5 184 5q391 0 391 -350zM593 345q0 137 -73.5 207t-218.5 70q-75 0 -113 -5v-546q43 -4 110 -4q143 0 219 70.5t76 207.5z" />
<glyph unicode="E" horiz-adv-x="580" d="M105 690h411v-72h-328v-225h274v-71h-274v-251h346v-71h-429v690z" />
<glyph unicode="F" horiz-adv-x="555" d="M105 690h410v-72h-327v-229h272v-71h-272v-318h-83v690z" />
<glyph unicode="G" horiz-adv-x="762" d="M670 337v-299q-120 -53 -249 -53q-152 0 -249.5 93t-97.5 269q0 165 95.5 261.5t239.5 96.5q146 0 243 -98l-55 -58q-70 85 -188 85q-107 0 -177 -78t-70 -209q0 -139 73.5 -216t185.5 -77q91 0 169 34v179h-170v70h250z" />
<glyph unicode="H" horiz-adv-x="745" d="M557 690h84v-690h-84v320h-368v-320h-84v690h84v-297h368v297z" />
<glyph unicode="I" horiz-adv-x="294" d="M105 690h84v-690h-84v690z" />
<glyph unicode="J" horiz-adv-x="527" d="M221 -15q-121 0 -190 101l61 47q53 -80 129 -80q62 0 92 40t30 134v463h84v-444q0 -29 -1 -49.5t-5.5 -50t-12.5 -50t-23 -43t-36.5 -36.5t-54 -23t-73.5 -9z" />
<glyph unicode="K" horiz-adv-x="645" d="M105 690h83v-317l306 317h102l-326 -336l364 -354h-105l-341 330v-330h-83v690z" />
<glyph unicode="L" horiz-adv-x="523" d="M105 690h83v-619h297v-71h-380v690z" />
<glyph unicode="M" horiz-adv-x="871" d="M105 0v710h10l321 -467l321 467h9v-710h-82v326q0 25 5 155q-39 -69 -78 -125l-172 -239h-7l-170 239q-39 55 -79 127q4 -67 4 -156v-327h-82z" />
<glyph unicode="N" horiz-adv-x="767" d="M580 690h82v-710h-8l-438 498l-32 41l3 -50v-469h-82v710h8l430 -484l41 -52l-4 61v455z" />
<glyph unicode="O" horiz-adv-x="842" d="M421 705q146 0 246.5 -98.5t100.5 -259.5q0 -163 -100.5 -262.5t-246.5 -99.5t-246.5 99.5t-100.5 262.5q0 161 100.5 259.5t246.5 98.5zM421 634q-110 0 -184.5 -80t-74.5 -207q0 -128 74.5 -210t184.5 -82q111 0 185.5 81.5t74.5 210.5q0 128 -74.5 207.5t-185.5 79.5z " />
<glyph unicode="P" horiz-adv-x="616" d="M105 0v690q84 4 190 4q262 0 262 -222q0 -114 -68.5 -166t-186.5 -52q-52 0 -116 4v-258h-81zM185 619v-293q50 -4 116 -4q175 0 175 150q0 86 -47 119t-130 33q-71 0 -114 -5z" />
<glyph unicode="Q" horiz-adv-x="842" d="M74 347q0 161 100.5 259.5t246.5 98.5t246.5 -98.5t100.5 -259.5q0 -146 -81.5 -242t-207.5 -115l102 -180h-101l-96 177q-134 13 -222 110.5t-88 249.5zM162 347q0 -130 74 -211.5t185 -81.5t185 81.5t74 211.5q0 128 -74 207.5t-185 79.5t-185 -79.5t-74 -207.5z" />
<glyph unicode="R" horiz-adv-x="636" d="M105 0v690q115 5 180 5q120 0 181.5 -51.5t61.5 -145.5q0 -155 -131 -201l217 -297h-95l-205 280q-32 -3 -58 -3q-42 0 -70 4v-281h-81zM186 622v-272q40 -6 88 -6q78 0 125 35t47 112q0 136 -158 136q-22 0 -102 -5z" />
<glyph unicode="S" horiz-adv-x="564" d="M83 525q0 85 57.5 132.5t149.5 47.5q138 0 217 -95l-54 -51q-56 78 -160 78q-62 0 -96.5 -29t-34.5 -78q0 -20 5 -36.5t18.5 -30.5t23 -22.5t34 -20.5t34 -16t40.5 -16q35 -14 55 -23t49 -27.5t44 -38t27 -50.5t12 -69q0 -98 -62.5 -146.5t-165.5 -48.5q-151 0 -245 128 l59 44q74 -106 185 -106q82 0 116 36t34 90q0 25 -9.5 45.5t-21 34t-35.5 27.5t-40 21t-47 20q-38 16 -56 23.5t-48.5 26.5t-45.5 37t-27 47.5t-12 65.5z" />
<glyph unicode="T" horiz-adv-x="562" d="M28 690h506v-72h-210v-618h-83v618h-213v72z" />
<glyph unicode="U" horiz-adv-x="732" d="M183 690v-410q0 -226 182 -226q183 0 183 226v410h84v-385q0 -38 -2.5 -67.5t-10.5 -70t-26.5 -70t-46.5 -56.5t-74.5 -41.5t-107.5 -14.5q-52 0 -94 12t-69 30t-46.5 46.5t-30 54.5t-16 61.5t-7 59.5t-1.5 56v385h83z" />
<glyph unicode="V" horiz-adv-x="700" d="M403 272l175 418h90l-315 -712h-6l-315 712h91l177 -417l52 -132z" />
<glyph unicode="W" horiz-adv-x="1004" d="M505 710l171 -430l38 -103l27 99l123 414h87l-223 -712h-6l-197 483l-24 69l-22 -68l-197 -484h-7l-223 712h88l122 -409l28 -104l36 102l172 431h7z" />
<glyph unicode="X" horiz-adv-x="660" d="M517 690h92l-221 -332l240 -358h-91l-179 263l-27 45l-28 -47l-179 -261h-92l246 364l-217 326h91l155 -229l28 -47l29 49z" />
<glyph unicode="Y" horiz-adv-x="623" d="M337 400l171 290h91l-244 -402v-288h-85v286l-246 404h92l173 -291l23 -45z" />
<glyph unicode="Z" horiz-adv-x="590" d="M538 0h-494v6l363 611h-339v73h467v-5l-363 -612h366v-73z" />
<glyph unicode="[" horiz-adv-x="354" d="M87 -132v857h221v-51h-150v-754h150v-52h-221z" />
<glyph unicode="\" horiz-adv-x="411" d="M17 715h72l305 -748h-72z" />
<glyph unicode="]" horiz-adv-x="354" d="M46 725h220v-857h-220v52h150v753h-150v52z" />
<glyph unicode="^" horiz-adv-x="491" d="M462 408h-73l-144 195l-143 -195h-73l216 293z" />
<glyph unicode="_" horiz-adv-x="483" d="M-12 -131v42h507v-42h-507z" />
<glyph unicode="`" horiz-adv-x="505" d="M352 550h-52l-137 134v6h102z" />
<glyph unicode="a" horiz-adv-x="556" d="M401 0l-8 45q-70 -55 -173 -55q-72 0 -117.5 36t-45.5 109q0 54 29.5 91t71.5 52t93 15q77 0 136 -19v47q0 97 -119 97q-41 0 -86.5 -13t-76.5 -32l-25 57q82 49 193 49q193 0 193 -166v-209q0 -53 16 -104h-81zM387 103v116q-61 19 -120 19q-57 0 -94 -25t-37 -78 q0 -46 28 -70.5t80 -24.5q76 0 143 63z" />
<glyph unicode="b" horiz-adv-x="618" d="M172 43l-8 -43h-80q12 74 12 132v598h80v-313q70 62 157 62q100 0 159 -62.5t59 -183.5q0 -117 -65.5 -180t-156.5 -63q-93 0 -157 53zM176 358v-260q60 -51 136 -51q69 0 113 45t44 139q0 95 -42 140.5t-110 45.5q-77 0 -141 -59z" />
<glyph unicode="c" horiz-adv-x="546" d="M456 109l41 -50q-81 -71 -191 -71q-102 0 -170.5 65.5t-68.5 179.5q0 110 69 178t173 68q105 0 185 -70l-40 -51q-62 59 -142 59q-73 0 -118 -49t-45 -135q0 -87 46 -135t116 -48q86 0 145 59z" />
<glyph unicode="d" horiz-adv-x="618" d="M443 433v297h80v-612q0 -60 14 -118h-79l-9 49q-66 -59 -162 -59q-101 0 -160.5 63.5t-59.5 185.5q0 116 66.5 178t160.5 62q83 0 149 -46zM443 108v262q-61 47 -134 47q-70 0 -115 -43.5t-45 -137.5q0 -96 42.5 -142.5t111.5 -46.5q76 0 140 61z" />
<glyph unicode="e" horiz-adv-x="578" d="M512 216l-363 -2q5 -81 49 -123.5t115 -42.5q93 0 157 56l34 -52q-83 -64 -197 -64q-102 0 -171 64.5t-69 182.5q0 107 66.5 175.5t167.5 68.5q98 0 155 -61.5t57 -167.5q0 -20 -1 -34zM301 419q-65 0 -106.5 -40.5t-45.5 -111.5h288q-5 152 -136 152z" />
<glyph unicode="f" horiz-adv-x="396" d="M26 408v62h95v79q0 102 51 146.5t133 44.5q66 0 124 -32l-26 -56q-42 26 -89 26q-113 0 -113 -130v-78h187v-62h-187v-408h-80v408h-95z" />
<glyph unicode="g" horiz-adv-x="547" d="M362 466q37 67 115 67q31 0 65 -10l-14 -50q-19 10 -44 10q-51 0 -69 -46q65 -53 65 -127q0 -75 -54.5 -123.5t-148.5 -48.5q-57 0 -95 18q-55 -23 -55 -60q0 -31 32.5 -41.5t122.5 -12.5q36 -1 57.5 -2t54 -5t52.5 -13t40 -22.5t29.5 -36.5t9.5 -53q0 -80 -72 -118 t-181 -38q-240 0 -240 137q0 41 28 70t61 44q-64 23 -64 75q0 31 19 53.5t58 46.5q-65 52 -65 130q0 76 55 122.5t151 46.5q48 0 87 -13zM407 310q0 54 -35.5 85t-97.5 31q-61 0 -96.5 -31.5t-35.5 -84.5q0 -54 36 -87.5t96 -33.5q62 0 97.5 33t35.5 88zM170 -13 q-69 -30 -69 -88q0 -46 38 -70.5t138 -24.5q92 0 136 26.5t44 70.5q0 22 -10 37.5t-24.5 23.5t-40 12t-47 5t-54.5 2h-6q-62 1 -105 6z" />
<glyph unicode="h" horiz-adv-x="625" d="M454 0v285q0 128 -127 128q-81 0 -151 -59v-354h-80v730h80v-314q70 63 166 63q36 0 67 -7.5t61 -26t47 -56t17 -91.5v-298h-80z" />
<glyph unicode="i" horiz-adv-x="272" d="M96 470h80v-470h-80v470zM82 618q0 22 16 37.5t38 15.5t37.5 -15.5t15.5 -37.5t-15.5 -38t-37.5 -16t-38 16t-16 38z" />
<glyph unicode="j" horiz-adv-x="271" d="M-85 -212l29 58q38 -27 79 -27q37 0 55 24t18 78v549h80v-549q0 -85 -36.5 -126t-102.5 -41t-122 34zM81 618q0 22 16 37.5t38 15.5t38 -15.5t16 -37.5t-16 -38t-38 -16t-38 16t-16 38z" />
<glyph unicode="k" horiz-adv-x="542" d="M96 730h80v-455l229 195h100l-251 -222l263 -248h-103l-238 226v-226h-80v730z" />
<glyph unicode="l" horiz-adv-x="271" d="M96 730h80v-730h-80v730z" />
<glyph unicode="m" horiz-adv-x="936" d="M96 470h77v-57q73 66 158 66q113 0 157 -83q63 83 171 83q35 0 66 -9t59.5 -29t45 -59t16.5 -92v-290h-80v285q0 66 -28.5 96.5t-88.5 30.5q-46 0 -82.5 -22.5t-56.5 -54.5v-335h-80v285q0 66 -28.5 96.5t-89.5 30.5q-70 0 -136 -61v-351h-80v470z" />
<glyph unicode="n" horiz-adv-x="625" d="M456 0l-1 286q0 126 -125 126q-86 0 -154 -59v-353h-80v470h76v-57q72 66 172 66q36 0 66.5 -8t60 -26.5t47 -56t17.5 -90.5v-298h-79z" />
<glyph unicode="o" horiz-adv-x="629" d="M314 479q114 0 181 -68.5t67 -176.5q0 -107 -67 -176.5t-181 -69.5t-180.5 69.5t-66.5 176.5q0 108 66.5 176.5t180.5 68.5zM314 418q-79 0 -122 -51t-43 -133t43 -134t122 -52q80 0 123 52t43 134t-43 133t-123 51z" />
<glyph unicode="p" horiz-adv-x="618" d="M175 36v-280h-79v714h77v-57q73 66 159 66q104 0 161.5 -64.5t57.5 -180.5t-66 -180t-154 -64q-100 0 -156 46zM175 358v-258q64 -53 137 -53q68 0 112.5 45.5t44.5 139.5q0 95 -42 140t-112 45q-73 0 -140 -59z" />
<glyph unicode="q" horiz-adv-x="618" d="M446 428l6 44h71v-716h-79v285q-59 -51 -157 -51q-100 0 -160 63.5t-60 185.5q0 115 68 177.5t162 62.5q81 0 149 -51zM444 112v255q-63 49 -131 49q-72 0 -118 -43.5t-46 -136.5q0 -95 42.5 -141t112.5 -46q79 0 140 63z" />
<glyph unicode="r" horiz-adv-x="408" d="M384 457l-28 -68q-34 20 -72 20q-70 0 -108 -83v-326h-80v470h77v-71q18 39 50.5 59.5t70.5 20.5q49 0 90 -22z" />
<glyph unicode="s" horiz-adv-x="457" d="M237 479q49 0 96.5 -16t72.5 -37l-36 -52q-54 44 -133 44q-101 0 -101 -68q0 -31 23 -46.5t71 -30.5q3 -1 29.5 -9t32.5 -10t28 -10.5t29.5 -14t22.5 -17t20 -22.5t10.5 -27t5.5 -35q0 -70 -52.5 -105t-133.5 -35q-115 0 -195 66l38 52q65 -61 157 -61q111 0 111 78 q0 22 -16.5 38t-37.5 24t-55 18q-10 3 -15 4q-33 10 -54.5 18.5t-45.5 24.5t-36 40t-12 57q0 56 45.5 94t130.5 38z" />
<glyph unicode="t" horiz-adv-x="401" d="M347 76l24 -57q-59 -31 -117 -31q-69 0 -108.5 40.5t-39.5 141.5q0 136 4 238h-88v62h91q0 18 0.5 60.5t0.5 61.5l77 42q0 -80 -2 -164h166v-62h-166q-4 -220 -4 -233q0 -123 83 -123q38 0 79 24z" />
<glyph unicode="u" horiz-adv-x="611" d="M170 470v-277q0 -72 31 -105t94 -33q78 0 141 72v343h79v-335q0 -65 15 -135h-83l-8 59q-69 -69 -166 -69q-33 0 -63 9t-58 28t-44.5 56.5t-16.5 88.5v298h79z" />
<glyph unicode="v" horiz-adv-x="574" d="M447 470h88l-246 -494h-6l-243 494h89l138 -308l19 -54l22 55z" />
<glyph unicode="w" horiz-adv-x="820" d="M413 478l139 -293l18 -48l13 48l102 285h82l-184 -494h-6l-149 306l-18 45l-18 -44l-149 -307h-7l-184 494h83l102 -285l13 -48l18 47l139 294h6z" />
<glyph unicode="x" horiz-adv-x="502" d="M390 0l-118 163l-21 34l-22 -34l-117 -163h-88l179 247l-160 223h89l101 -142l20 -32l20 31l101 143h88l-162 -227l177 -243h-87z" />
<glyph unicode="y" horiz-adv-x="577" d="M450 470h87l-272 -592q-57 -125 -159 -125q-43 0 -82 15l18 63q32 -15 58 -15q31 0 53.5 20t45.5 68l51 110l-208 456h89l140 -322l21 -57l20 57z" />
<glyph unicode="z" horiz-adv-x="488" d="M60 408v62h383v-5l-279 -403h283v-62h-406v7l277 401h-258z" />
<glyph unicode="{" horiz-adv-x="353" d="M307 -132h-53q-85 0 -123 36.5t-38 91.5q0 44 13.5 99.5t13.5 79.5q0 44 -22.5 68.5t-63.5 24.5h-14v57h13q41 0 64 25t23 69q0 25 -13.5 80t-13.5 97q0 56 38 92.5t123 36.5h53v-51h-39q-56 0 -81.5 -24t-25.5 -61q0 -36 14.5 -94.5t14.5 -85.5q0 -82 -73 -112 q73 -28 73 -112q0 -28 -14.5 -86.5t-14.5 -94.5t25.5 -59.5t81.5 -23.5h39v-53z" />
<glyph unicode="|" horiz-adv-x="471" d="M202 739h68v-985h-68v985z" />
<glyph unicode="}" horiz-adv-x="353" d="M99 -132h-53v53h39q56 0 81.5 23.5t25.5 59.5t-14.5 94.5t-14.5 86.5q0 84 74 112q-74 29 -74 112q0 27 14.5 85.5t14.5 94.5q0 37 -25.5 61t-81.5 24h-39v51h53q85 0 123 -36.5t38 -92.5q0 -42 -13.5 -97t-13.5 -80q0 -44 23 -69t64 -25h13v-57h-14q-41 0 -63.5 -24.5 t-22.5 -68.5q0 -24 13.5 -79.5t13.5 -99.5q0 -55 -38 -91.5t-123 -36.5z" />
<glyph unicode="~" horiz-adv-x="491" d="M335 362q27 0 44 18.5t17 58.5h61q0 -69 -31 -104t-83 -35q-42 0 -97 34.5t-86 34.5q-64 0 -64 -74h-62q0 69 32 102.5t85 33.5q43 0 97 -34.5t87 -34.5z" />
<glyph unicode="&#xa1;" horiz-adv-x="254" d="M97 270h60l15 -481v-13h-91v13zM183 418q0 -24 -16 -40t-40 -16t-40 16t-16 40t16 40.5t40 16.5t40 -16.5t16 -40.5z" />
<glyph unicode="&#xa2;" d="M295 684h64v-113q89 -9 155 -63l-43 -51q-60 55 -143 55q-74 0 -119.5 -44.5t-45.5 -121.5q0 -78 46.5 -121t117.5 -43q92 0 146 56l43 -51q-68 -56 -157 -64v-123h-64v122q-95 8 -154 66.5t-59 157.5q0 94 58.5 155t154.5 70v113z" />
<glyph unicode="&#xa3;" d="M61 320v62h95q-3 8 -14.5 35.5t-15.5 39.5t-9 34.5t-5 42.5q0 75 55.5 121t148.5 46q122 0 203 -91l-53 -51q-61 75 -145 75q-57 0 -90 -29.5t-33 -79.5q0 -23 6 -44t20 -54t18 -45h207v-62h-189q6 -29 6 -60q0 -59 -14.5 -100.5t-48.5 -90.5h329v-69h-469v19 q51 47 85 111t34 125q0 30 -7 65h-114z" />
<glyph unicode="&#xa4;" d="M75 353q0 77 49 137l-84 85l40 40l85 -87q56 44 134 44q76 0 132 -43l87 86l39 -40l-84 -85q50 -62 50 -137q0 -76 -51 -139l85 -85l-40 -39l-87 86q-57 -42 -131 -42q-75 0 -132 42l-87 -86l-39 40l84 85q-50 60 -50 138zM145 353q0 -67 44 -113t110 -46t110 46t44 113 t-44 113t-110 46t-110 -46t-44 -113z" />
<glyph unicode="&#xa5;" d="M35 410v52h128l-121 227h89l146 -278l22 -53l23 53l144 278h89l-121 -227h129v-52h-154l-63 -115h217v-52h-221v-243h-84v243h-223v52h217l-63 115h-154z" />
<glyph unicode="&#xa6;" horiz-adv-x="483" d="M202 739h68v-394h-68v394zM202 148h68v-394h-68v394z" />
<glyph unicode="&#xa7;" horiz-adv-x="528" d="M484 237q0 -93 -72 -137q47 -42 47 -111q0 -89 -58 -134.5t-150 -45.5q-74 0 -128.5 29t-102.5 89l53 47q20 -28 38 -47t56 -38t83 -19q136 0 136 113q0 43 -34 72.5t-82 47t-96.5 37.5t-82.5 58t-34 95q0 88 89 129q-31 23 -46 50t-15 71q0 72 52.5 115t141.5 43 q125 0 200 -95l-52 -49q-56 81 -146 81q-62 0 -91.5 -25.5t-29.5 -68.5q0 -42 33.5 -69.5t81 -43.5t95 -35.5t81 -59t33.5 -99.5zM413 237q0 27 -10.5 47.5t-35.5 36.5t-44.5 25t-59.5 23t-58 22q-77 -24 -77 -98q0 -37 25.5 -63.5t57.5 -39t76.5 -29.5t67.5 -32 q58 37 58 108z" />
<glyph unicode="&#xa8;" horiz-adv-x="505" d="M92 618q0 22 16 37.5t38 15.5t38 -15.5t16 -37.5t-16 -38t-38 -16t-38 16t-16 38zM305 618q0 22 16 37.5t38 15.5t38 -15.5t16 -37.5t-16 -38t-38 -16t-38 16t-16 38z" />
<glyph unicode="&#xa9;" horiz-adv-x="925" d="M60 345q0 166 117.5 279t284.5 113q168 0 285.5 -113t117.5 -279t-117.5 -279t-285.5 -113q-167 0 -284.5 113t-117.5 279zM97 345q0 -152 106 -255.5t259 -103.5t259 103.5t106 255.5t-106 255.5t-259 103.5t-259 -103.5t-106 -255.5zM609 229l40 -52q-77 -70 -188 -70 q-101 0 -168 65t-67 177q0 109 67.5 176t170.5 67q105 0 183 -70l-40 -52q-58 60 -140 60q-72 0 -117 -49t-45 -132q0 -84 46 -131.5t115 -47.5q88 0 143 59z" />
<glyph unicode="&#xaa;" horiz-adv-x="409" d="M290 369l-5 31q-18 -15 -51.5 -27t-68.5 -12q-50 0 -83.5 26.5t-33.5 75.5q0 56 40 83t97 27q49 0 95 -13v35q0 64 -86 64q-59 0 -112 -31l-20 44q58 33 135 33q143 0 143 -114v-139q0 -43 13 -83h-63zM107 464q0 -29 20.5 -46t53.5 -17q56 0 99 41v79q-39 13 -86 13 q-37 0 -62 -17t-25 -53zM54 248v43h300v-43h-300z" />
<glyph unicode="&#xab;" horiz-adv-x="590" d="M464 0l-186 209l186 217h83l-177 -217l177 -209h-83zM229 0l-186 209l186 217h83l-177 -217l177 -209h-83z" />
<glyph unicode="&#xac;" d="M526 323h-456v64h456v-64zM460 161v224h66v-224h-66z" />
<glyph unicode="&#xad;" horiz-adv-x="444" d="M72 201v70h301v-70h-301z" />
<glyph unicode="&#xae;" horiz-adv-x="572" d="M197 392v257q10 0 41 0.5t43 0.5q106 0 106 -76q0 -56 -52 -76l74 -106h-54l-67 99q-8 -1 -20 -1q-10 0 -26 2v-100h-45zM242 617v-92q15 -3 35 -3q61 0 61 51q0 45 -57 45q-28 0 -39 -1zM83 516q0 -83 59 -139.5t144 -56.5q84 0 143.5 56.5t59.5 139.5q0 82 -59.5 138.5 t-143.5 56.5q-85 0 -144 -56t-59 -139zM56 516q0 93 67 156t163 63t162.5 -62.5t66.5 -156.5t-66.5 -157t-162.5 -63t-163 63t-67 157z" />
<glyph unicode="&#xaf;" horiz-adv-x="505" d="M89 587v53h328v-53h-328z" />
<glyph unicode="&#xb0;" horiz-adv-x="460" d="M59 539q0 74 47.5 119.5t122.5 45.5q76 0 123.5 -45.5t47.5 -119.5q0 -72 -48 -119t-123 -47q-74 0 -122 47t-48 119zM112 539q0 -53 32 -88.5t85 -35.5t85 35.5t32 88.5q0 54 -31.5 88t-85.5 34t-85.5 -34t-31.5 -88z" />
<glyph unicode="&#xb1;" d="M526 336h-192v-180h-72v180h-192v65h192v183h72v-183h192v-65zM526 0h-456v64h456v-64z" />
<glyph unicode="&#xb2;" horiz-adv-x="368" d="M78 659l-43 33q57 74 142 74q58 0 95.5 -30.5t37.5 -79.5q0 -31 -16.5 -63t-34.5 -53.5t-55 -59.5l-48 -49h171v-51h-293v8l62 58q80 75 115 121.5t35 85.5q0 28 -19.5 45.5t-52.5 17.5q-52 0 -96 -57z" />
<glyph unicode="&#xb3;" horiz-adv-x="368" d="M94 566l-5 4l123 140h-153v49h262v-4l-122 -134q59 0 92.5 -31t33.5 -88q0 -54 -37.5 -92t-109.5 -38q-85 0 -146 57l36 38q16 -15 25.5 -23t32 -17t48.5 -9q46 0 69 23t23 62q0 81 -102 81q-36 0 -70 -18z" />
<glyph unicode="&#xb4;" horiz-adv-x="505" d="M214 550h-51l87 140h102v-6z" />
<glyph unicode="&#xb5;" horiz-adv-x="604" d="M88 -182v652h80v-277q0 -72 30.5 -105t93.5 -33q78 0 141 72v343h80v-335q0 -70 14 -135h-83l-8 59q-21 -21 -35.5 -32.5t-47.5 -24t-73 -12.5q-81 0 -114 41v-213h-78z" />
<glyph unicode="&#xb6;" horiz-adv-x="681" d="M527 -116v763h-140v-763h-54v327q-128 0 -199.5 65t-71.5 173q0 114 72.5 177.5t195.5 63.5h250v-806h-53z" />
<glyph unicode="&#xb7;" horiz-adv-x="211" d="M47 232q0 25 16.5 41.5t42.5 16.5q25 0 41 -16.5t16 -41.5t-16 -41.5t-41 -16.5t-42 16.5t-17 41.5z" />
<glyph unicode="&#xb8;" horiz-adv-x="500" d="M273 4l-22 -68h12q42 0 67 -21t25 -59q0 -47 -31.5 -71.5t-82.5 -24.5q-50 0 -87 16l14 40q39 -17 69 -17q60 0 60 56q0 50 -62 50q-17 0 -39 -4l30 103h47z" />
<glyph unicode="&#xb9;" horiz-adv-x="368" d="M52 661v52l165 55h4v-341h105v-47h-274v47h108v269z" />
<glyph unicode="&#xba;" horiz-adv-x="409" d="M204 701q80 0 124.5 -48t44.5 -125q0 -75 -45 -123.5t-124 -48.5t-123.5 48.5t-44.5 123.5q0 77 44 125t124 48zM204 653q-53 0 -80 -34.5t-27 -90.5q0 -55 27.5 -90.5t79.5 -35.5q53 0 80.5 35.5t27.5 90.5q0 56 -27.5 90.5t-80.5 34.5zM43 248v43h324v-43h-324z" />
<glyph unicode="&#xbb;" horiz-adv-x="590" d="M126 426l186 -209l-186 -217h-83l177 217l-177 209h83zM361 426l186 -209l-186 -217h-83l177 217l-177 209h83z" />
<glyph unicode="&#xbc;" horiz-adv-x="854" d="M49 595v52l157 51h4v-311h97v-46h-258v46h99v239zM660 690h56l-498 -690h-56zM759 0h-62v72h-190v6l139 276h65l-127 -239h113v89h62v-85h63v-47h-63v-72z" />
<glyph unicode="&#xbd;" horiz-adv-x="854" d="M49 595v52l157 51h4v-311h97v-46h-258v46h99v239zM660 690h56l-498 -690h-56zM579 254l-37 32q57 69 141 69q51 0 85 -28.5t34 -74.5q0 -29 -14.5 -57.5t-30.5 -46.5t-51 -53l-51 -49h168v-46h-284v7l95 90q37 35 55 54t34.5 46.5t16.5 50.5q0 25 -18 41t-49 16 q-47 0 -94 -51z" />
<glyph unicode="&#xbe;" horiz-adv-x="854" d="M97 512l-4 4l119 127h-146v47h251v-4l-115 -120q118 -7 118 -111q0 -51 -36.5 -86.5t-105.5 -35.5q-81 0 -138 53l35 38q15 -14 23.5 -21t30 -15.5t45.5 -8.5q43 0 64.5 21t21.5 56q0 74 -94 74q-33 0 -69 -18zM660 690h56l-498 -690h-56zM759 0h-62v72h-190v6l139 276 h65l-127 -239h113v89h62v-85h63v-47h-63v-72z" />
<glyph unicode="&#xbf;" horiz-adv-x="448" d="M371 -92l48 -48q-45 -51 -90.5 -73.5t-111.5 -22.5q-75 0 -123 45.5t-48 116.5q0 47 18.5 83t45.5 58t54 41t45.5 43t18.5 53q0 31 -12 67h73q12 -41 12 -67q0 -35 -18.5 -64t-44.5 -50l-52 -42t-44.5 -50t-18.5 -64q0 -46 28.5 -75t78.5 -29q78 0 141 78zM311 419 q0 -24 -16 -40t-40 -16q-25 0 -40.5 16t-15.5 40t15.5 40t40.5 16q24 0 40 -16t16 -40z" />
<glyph unicode="&#xc0;" horiz-adv-x="711" d="M32 0l321 714h6l320 -714h-91l-70 164h-328l-68 -164h-90zM217 230h272l-93 223q-24 54 -38 98h-5q-4 -10 -11.5 -29.5t-16 -40.5t-10.5 -27zM448 742h-74l-185 85v6h137l122 -88v-3z" />
<glyph unicode="&#xc1;" horiz-adv-x="711" d="M32 0l321 714h6l320 -714h-91l-70 164h-328l-68 -164h-90zM217 230h272l-93 223q-24 54 -38 98h-5q-4 -10 -11.5 -29.5t-16 -40.5t-10.5 -27zM329 742h-74v3l122 89h137v-6z" />
<glyph unicode="&#xc2;" horiz-adv-x="711" d="M32 0l321 714h6l320 -714h-91l-70 164h-328l-68 -164h-90zM217 230h272l-93 223q-24 54 -38 98h-5q-4 -10 -11.5 -29.5t-16 -40.5t-10.5 -27zM549 742h-96l-97 58l-98 -58h-95l155 97h76z" />
<glyph unicode="&#xc3;" horiz-adv-x="711" d="M32 0l321 714h6l320 -714h-91l-70 164h-328l-68 -164h-90zM217 230h272l-93 223q-24 54 -38 98h-5q-4 -10 -11.5 -29.5t-16 -40.5t-10.5 -27zM437 797q60 0 60 61h57q0 -54 -33 -81.5t-81 -27.5q-35 0 -86 26.5t-75 26.5q-27 0 -45 -14.5t-18 -45.5h-57q0 54 34.5 80.5 t82.5 26.5q34 0 85 -26t76 -26z" />
<glyph unicode="&#xc4;" horiz-adv-x="711" d="M32 0l321 714h6l320 -714h-91l-70 164h-328l-68 -164h-90zM217 230h272l-93 223q-24 54 -38 98h-5q-4 -10 -11.5 -29.5t-16 -40.5t-10.5 -27zM192 792q0 22 15 36t38 14t38 -14t15 -36q0 -21 -15 -35.5t-38 -14.5q-22 0 -37.5 14.5t-15.5 35.5zM416 792q0 22 15 36t38 14 t38 -14t15 -36q0 -21 -15.5 -35.5t-37.5 -14.5t-37.5 14.5t-15.5 35.5z" />
<glyph unicode="&#xc5;" horiz-adv-x="711" d="M32 0l321 714h6l320 -714h-91l-70 164h-328l-68 -164h-90zM217 230h272l-93 223q-24 54 -38 98h-5q-4 -10 -11.5 -29.5t-16 -40.5t-10.5 -27zM248 838q0 44 30.5 71.5t76.5 27.5q47 0 78 -27.5t31 -71.5q0 -42 -31.5 -70t-77.5 -28q-45 0 -76 28t-31 70zM289 838 q0 -28 18.5 -45.5t47.5 -17.5q30 0 48 17.5t18 45.5q0 29 -18 46t-48 17q-29 0 -47.5 -17t-18.5 -46z" />
<glyph unicode="&#xc6;" horiz-adv-x="921" d="M508 164h-315l-68 -164h-93l301 690h437v-72h-368l96 -226h255v-70h-225l106 -251h275v-71h-331zM215 230h267l-133 325h-4z" />
<glyph unicode="&#xc7;" horiz-adv-x="717" d="M609 154l58 -51q-95 -110 -239 -117l-16 -50h12q42 0 67 -21t25 -59q0 -47 -31.5 -71.5t-82.5 -24.5q-50 0 -87 16l14 40q39 -17 69 -17q60 0 60 56q0 50 -62 50q-17 0 -39 -4l24 85q-133 9 -220 106t-87 255q0 162 95.5 260t238.5 98q157 0 258 -114l-61 -54 q-77 97 -196 97q-107 0 -177 -79.5t-70 -207.5t70.5 -210t176.5 -82q119 0 200 99z" />
<glyph unicode="&#xc8;" horiz-adv-x="580" d="M105 690h411v-72h-328v-225h274v-71h-274v-251h346v-71h-429v690zM396 742h-74l-185 85v6h137l122 -88v-3z" />
<glyph unicode="&#xc9;" horiz-adv-x="580" d="M105 690h411v-72h-328v-225h274v-71h-274v-251h346v-71h-429v690zM293 742h-74v3l122 89h137v-6z" />
<glyph unicode="&#xca;" horiz-adv-x="580" d="M105 690h411v-72h-328v-225h274v-71h-274v-251h346v-71h-429v690zM506 742h-96l-97 58l-98 -58h-95l155 97h76z" />
<glyph unicode="&#xcb;" horiz-adv-x="580" d="M105 690h411v-72h-328v-225h274v-71h-274v-251h346v-71h-429v690zM149 792q0 22 15 36t38 14t38 -14t15 -36q0 -21 -15 -35.5t-38 -14.5q-22 0 -37.5 14.5t-15.5 35.5zM373 792q0 22 15 36t38 14t38 -14t15 -36q0 -21 -15.5 -35.5t-37.5 -14.5t-37.5 14.5t-15.5 35.5z " />
<glyph unicode="&#xcc;" horiz-adv-x="294" d="M105 690h84v-690h-84v690zM227 742h-74l-185 85v6h137l122 -88v-3z" />
<glyph unicode="&#xcd;" horiz-adv-x="294" d="M105 690h84v-690h-84v690zM136 742h-74v3l122 89h137v-6z" />
<glyph unicode="&#xce;" horiz-adv-x="294" d="M105 690h84v-690h-84v690zM341 742h-96l-97 58l-98 -58h-95l155 97h76z" />
<glyph unicode="&#xcf;" horiz-adv-x="294" d="M105 690h84v-690h-84v690zM-18 792q0 22 15 36t38 14t38 -14t15 -36q0 -21 -15 -35.5t-38 -14.5q-22 0 -37.5 14.5t-15.5 35.5zM206 792q0 22 15 36t38 14t38 -14t15 -36q0 -21 -15.5 -35.5t-37.5 -14.5t-37.5 14.5t-15.5 35.5z" />
<glyph unicode="&#xd0;" horiz-adv-x="754" d="M22 322v69h83v299q10 0 43.5 1.5t69.5 2.5t71 1q391 0 391 -350q0 -172 -98 -261.5t-295 -89.5q-71 0 -182 6v322h-83zM593 345q0 137 -73.5 207t-218.5 70q-56 0 -113 -5v-226h191v-69h-191v-251q45 -4 110 -4q143 0 219 70.5t76 207.5z" />
<glyph unicode="&#xd1;" horiz-adv-x="767" d="M580 690h82v-710h-8l-438 498l-32 41l3 -50v-469h-82v710h8l430 -484l41 -52l-4 61v455zM471 797q60 0 60 61h57q0 -54 -33 -81.5t-81 -27.5q-35 0 -86 26.5t-75 26.5q-27 0 -45 -14.5t-18 -45.5h-57q0 54 34.5 80.5t82.5 26.5q34 0 85 -26t76 -26z" />
<glyph unicode="&#xd2;" horiz-adv-x="842" d="M421 705q146 0 246.5 -98.5t100.5 -259.5q0 -163 -100.5 -262.5t-246.5 -99.5t-246.5 99.5t-100.5 262.5q0 161 100.5 259.5t246.5 98.5zM421 634q-110 0 -184.5 -80t-74.5 -207q0 -128 74.5 -210t184.5 -82q111 0 185.5 81.5t74.5 210.5q0 128 -74.5 207.5t-185.5 79.5z M527 746h-74l-185 85v6h137l122 -88v-3z" />
<glyph unicode="&#xd3;" horiz-adv-x="842" d="M421 705q146 0 246.5 -98.5t100.5 -259.5q0 -163 -100.5 -262.5t-246.5 -99.5t-246.5 99.5t-100.5 262.5q0 161 100.5 259.5t246.5 98.5zM421 634q-110 0 -184.5 -80t-74.5 -207q0 -128 74.5 -210t184.5 -82q111 0 185.5 81.5t74.5 210.5q0 128 -74.5 207.5t-185.5 79.5z M395 746h-74v3l122 89h137v-6z" />
<glyph unicode="&#xd4;" horiz-adv-x="842" d="M421 705q146 0 246.5 -98.5t100.5 -259.5q0 -163 -100.5 -262.5t-246.5 -99.5t-246.5 99.5t-100.5 262.5q0 161 100.5 259.5t246.5 98.5zM421 634q-110 0 -184.5 -80t-74.5 -207q0 -128 74.5 -210t184.5 -82q111 0 185.5 81.5t74.5 210.5q0 128 -74.5 207.5t-185.5 79.5z M615 742h-96l-97 58l-98 -58h-95l155 97h76z" />
<glyph unicode="&#xd5;" horiz-adv-x="842" d="M421 705q146 0 246.5 -98.5t100.5 -259.5q0 -163 -100.5 -262.5t-246.5 -99.5t-246.5 99.5t-100.5 262.5q0 161 100.5 259.5t246.5 98.5zM421 634q-110 0 -184.5 -80t-74.5 -207q0 -128 74.5 -210t184.5 -82q111 0 185.5 81.5t74.5 210.5q0 128 -74.5 207.5t-185.5 79.5z M504 797q60 0 60 61h57q0 -54 -33 -81.5t-81 -27.5q-35 0 -86 26.5t-75 26.5q-26 0 -44.5 -14.5t-18.5 -45.5h-57q0 54 34.5 80.5t82.5 26.5q35 0 85 -26t76 -26z" />
<glyph unicode="&#xd6;" horiz-adv-x="842" d="M421 705q146 0 246.5 -98.5t100.5 -259.5q0 -163 -100.5 -262.5t-246.5 -99.5t-246.5 99.5t-100.5 262.5q0 161 100.5 259.5t246.5 98.5zM421 634q-110 0 -184.5 -80t-74.5 -207q0 -128 74.5 -210t184.5 -82q111 0 185.5 81.5t74.5 210.5q0 128 -74.5 207.5t-185.5 79.5z M258 792q0 22 15 36t38 14t38 -14t15 -36q0 -21 -15 -35.5t-38 -14.5q-22 0 -37.5 14.5t-15.5 35.5zM482 792q0 22 15 36t38 14t38 -14t15 -36q0 -21 -15.5 -35.5t-37.5 -14.5t-37.5 14.5t-15.5 35.5z" />
<glyph unicode="&#xd7;" d="M510 523l-164 -165l164 -163l-47 -48l-165 164l-163 -164l-48 47l163 164l-163 164l47 48l164 -164l164 164z" />
<glyph unicode="&#xd8;" horiz-adv-x="843" d="M679 742l64 -47l-72 -92q97 -100 97 -256q0 -163 -100.5 -262.5t-246.5 -99.5q-105 0 -188 52l-69 -89l-61 48l70 90q-99 102 -99 261q0 161 100.5 259.5t246.5 98.5q103 0 189 -53zM421 634q-110 0 -184.5 -80t-74.5 -207q0 -116 62 -195l339 439q-63 43 -142 43z M681 347q0 113 -61 190l-340 -438q63 -43 141 -43q110 0 185 81.5t75 209.5z" />
<glyph unicode="&#xd9;" horiz-adv-x="732" d="M183 690v-410q0 -226 182 -226q183 0 183 226v410h84v-385q0 -38 -2.5 -67.5t-10.5 -70t-26.5 -70t-46.5 -56.5t-74.5 -41.5t-107.5 -14.5q-52 0 -94 12t-69 30t-46.5 46.5t-30 54.5t-16 61.5t-7 59.5t-1.5 56v385h83zM451 742h-74l-185 85v6h137l122 -88v-3z" />
<glyph unicode="&#xda;" horiz-adv-x="732" d="M183 690v-410q0 -226 182 -226q183 0 183 226v410h84v-385q0 -38 -2.5 -67.5t-10.5 -70t-26.5 -70t-46.5 -56.5t-74.5 -41.5t-107.5 -14.5q-52 0 -94 12t-69 30t-46.5 46.5t-30 54.5t-16 61.5t-7 59.5t-1.5 56v385h83zM344 742h-74v3l122 89h137v-6z" />
<glyph unicode="&#xdb;" horiz-adv-x="732" d="M183 690v-410q0 -226 182 -226q183 0 183 226v410h84v-385q0 -38 -2.5 -67.5t-10.5 -70t-26.5 -70t-46.5 -56.5t-74.5 -41.5t-107.5 -14.5q-52 0 -94 12t-69 30t-46.5 46.5t-30 54.5t-16 61.5t-7 59.5t-1.5 56v385h83zM559 742h-96l-97 58l-98 -58h-95l155 97h76z" />
<glyph unicode="&#xdc;" horiz-adv-x="732" d="M183 690v-410q0 -226 182 -226q183 0 183 226v410h84v-385q0 -38 -2.5 -67.5t-10.5 -70t-26.5 -70t-46.5 -56.5t-74.5 -41.5t-107.5 -14.5q-52 0 -94 12t-69 30t-46.5 46.5t-30 54.5t-16 61.5t-7 59.5t-1.5 56v385h83zM201 792q0 22 15 36t38 14t38 -14t15 -36 q0 -21 -15 -35.5t-38 -14.5q-22 0 -37.5 14.5t-15.5 35.5zM425 792q0 22 15 36t38 14t38 -14t15 -36q0 -21 -15.5 -35.5t-37.5 -14.5t-37.5 14.5t-15.5 35.5z" />
<glyph unicode="&#xdd;" horiz-adv-x="623" d="M337 400l171 290h91l-244 -402v-288h-85v286l-246 404h92l173 -291l23 -45zM299 742h-74v3l122 89h137v-6z" />
<glyph unicode="&#xde;" horiz-adv-x="612" d="M104 690h85v-121q57 3 106 3q262 0 262 -222q0 -115 -69 -167.5t-187 -52.5q-62 0 -115 5v-135h-82v690zM185 497v-293q56 -6 115 -6q78 0 127 35t49 117q0 86 -47 119t-130 33q-74 0 -114 -5z" />
<glyph unicode="&#xdf;" horiz-adv-x="625" d="M265 33l29 55q54 -42 112 -42q39 0 64 23t25 65q0 31 -18 54.5t-43.5 39t-51 32t-43.5 44.5t-18 67q0 38 24.5 73.5t49.5 69.5t25 68q0 41 -30 69t-84 28q-57 0 -95 -38.5t-38 -124.5v-516h-79v515q0 61 17.5 106t48 70t67 37t78.5 12q94 0 143 -47t49 -116 q0 -32 -15.5 -61t-34 -47.5t-34 -42.5t-15.5 -46q0 -26 18 -47.5t43 -37.5t50.5 -35t43.5 -50t18 -72q0 -75 -44.5 -112.5t-113.5 -37.5q-81 0 -148 45z" />
<glyph unicode="&#xe0;" horiz-adv-x="556" d="M401 0l-8 45q-70 -55 -173 -55q-72 0 -117.5 36t-45.5 109q0 54 29.5 91t71.5 52t93 15q77 0 136 -19v47q0 97 -119 97q-41 0 -86.5 -13t-76.5 -32l-25 57q82 49 193 49q193 0 193 -166v-209q0 -53 16 -104h-81zM387 103v116q-61 19 -120 19q-57 0 -94 -25t-37 -78 q0 -46 28 -70.5t80 -24.5q76 0 143 63zM337 550h-52l-137 134v6h102z" />
<glyph unicode="&#xe1;" horiz-adv-x="556" d="M401 0l-8 45q-70 -55 -173 -55q-72 0 -117.5 36t-45.5 109q0 54 29.5 91t71.5 52t93 15q77 0 136 -19v47q0 97 -119 97q-41 0 -86.5 -13t-76.5 -32l-25 57q82 49 193 49q193 0 193 -166v-209q0 -53 16 -104h-81zM387 103v116q-61 19 -120 19q-57 0 -94 -25t-37 -78 q0 -46 28 -70.5t80 -24.5q76 0 143 63zM267 550h-51l87 140h102v-6z" />
<glyph unicode="&#xe2;" horiz-adv-x="556" d="M401 0l-8 45q-70 -55 -173 -55q-72 0 -117.5 36t-45.5 109q0 54 29.5 91t71.5 52t93 15q77 0 136 -19v47q0 97 -119 97q-41 0 -86.5 -13t-76.5 -32l-25 57q82 49 193 49q193 0 193 -166v-209q0 -53 16 -104h-81zM387 103v116q-61 19 -120 19q-57 0 -94 -25t-37 -78 q0 -46 28 -70.5t80 -24.5q76 0 143 63zM453 548h-82l-96 95l-98 -95h-81l160 149h37z" />
<glyph unicode="&#xe3;" horiz-adv-x="556" d="M401 0l-8 45q-70 -55 -173 -55q-72 0 -117.5 36t-45.5 109q0 54 29.5 91t71.5 52t93 15q77 0 136 -19v47q0 97 -119 97q-41 0 -86.5 -13t-76.5 -32l-25 57q82 49 193 49q193 0 193 -166v-209q0 -53 16 -104h-81zM387 103v116q-61 19 -120 19q-57 0 -94 -25t-37 -78 q0 -46 28 -70.5t80 -24.5q76 0 143 63zM358 612q21 0 36 17t15 55h52q0 -63 -27.5 -94t-70.5 -31q-34 0 -87 31.5t-77 31.5q-53 0 -53 -69h-52q0 62 27.5 92t71.5 30q35 0 88 -31.5t77 -31.5z" />
<glyph unicode="&#xe4;" horiz-adv-x="556" d="M401 0l-8 45q-70 -55 -173 -55q-72 0 -117.5 36t-45.5 109q0 54 29.5 91t71.5 52t93 15q77 0 136 -19v47q0 97 -119 97q-41 0 -86.5 -13t-76.5 -32l-25 57q82 49 193 49q193 0 193 -166v-209q0 -53 16 -104h-81zM387 103v116q-61 19 -120 19q-57 0 -94 -25t-37 -78 q0 -46 28 -70.5t80 -24.5q76 0 143 63zM115 618q0 22 16 37.5t38 15.5t38 -15.5t16 -37.5t-16 -38t-38 -16t-38 16t-16 38zM328 618q0 22 16 37.5t38 15.5t38 -15.5t16 -37.5t-16 -38t-38 -16t-38 16t-16 38z" />
<glyph unicode="&#xe5;" horiz-adv-x="556" d="M401 0l-8 45q-70 -55 -173 -55q-72 0 -117.5 36t-45.5 109q0 54 29.5 91t71.5 52t93 15q77 0 136 -19v47q0 97 -119 97q-41 0 -86.5 -13t-76.5 -32l-25 57q82 49 193 49q193 0 193 -166v-209q0 -53 16 -104h-81zM387 103v116q-61 19 -120 19q-57 0 -94 -25t-37 -78 q0 -46 28 -70.5t80 -24.5q76 0 143 63zM170 647q0 45 30 74.5t76 29.5t76.5 -29.5t30.5 -74.5q0 -44 -30.5 -74t-76.5 -30t-76 30t-30 74zM211 647q0 -29 18 -48t47 -19t47 19t18 48q0 30 -17.5 48t-47.5 18q-29 0 -47 -18.5t-18 -47.5z" />
<glyph unicode="&#xe6;" horiz-adv-x="859" d="M436 215q4 -79 48 -124t111 -45q93 0 158 57l31 -50q-86 -65 -195 -65q-98 0 -162 62q-82 -60 -199 -60q-74 0 -122.5 36t-48.5 109q0 79 58 118t142 39q45 0 107 -15q1 25 11 56q-4 50 -33 70t-79 20q-86 0 -157 -45l-26 53q81 49 186 49q120 0 156 -77q63 77 161 77 t154.5 -61t56.5 -166q0 -2 -3 -38h-355zM440 265h282q-3 73 -37.5 115.5t-100.5 42.5q-62 0 -100.5 -44t-43.5 -114zM396 94q-32 52 -32 128q-47 14 -98 14q-57 0 -94.5 -24t-37.5 -79q0 -41 30.5 -66t77.5 -25q83 0 154 52z" />
<glyph unicode="&#xe7;" horiz-adv-x="546" d="M456 109l41 -50q-73 -65 -172 -70l-15 -50h11q40 0 64 -19.5t24 -56.5q0 -44 -30 -67.5t-79 -23.5q-46 0 -83 16l14 37q32 -16 65 -16q57 0 57 53q0 47 -59 47q-21 0 -36 -3l23 83q-93 8 -153.5 72.5t-60.5 171.5q0 110 69 178t173 68q105 0 185 -70l-40 -51 q-62 59 -142 59q-73 0 -118 -49t-45 -135q0 -87 46 -135t116 -48q86 0 145 59z" />
<glyph unicode="&#xe8;" horiz-adv-x="578" d="M512 216l-363 -2q5 -81 49 -123.5t115 -42.5q93 0 157 56l34 -52q-83 -64 -197 -64q-102 0 -171 64.5t-69 182.5q0 107 66.5 175.5t167.5 68.5q98 0 155 -61.5t57 -167.5q0 -20 -1 -34zM301 419q-65 0 -106.5 -40.5t-45.5 -111.5h288q-5 152 -136 152zM348 550h-52 l-137 134v6h102z" />
<glyph unicode="&#xe9;" horiz-adv-x="578" d="M512 216l-363 -2q5 -81 49 -123.5t115 -42.5q93 0 157 56l34 -52q-83 -64 -197 -64q-102 0 -171 64.5t-69 182.5q0 107 66.5 175.5t167.5 68.5q98 0 155 -61.5t57 -167.5q0 -20 -1 -34zM301 419q-65 0 -106.5 -40.5t-45.5 -111.5h288q-5 152 -136 152zM293 550h-51 l87 140h102v-6z" />
<glyph unicode="&#xea;" horiz-adv-x="578" d="M512 216l-363 -2q5 -81 49 -123.5t115 -42.5q93 0 157 56l34 -52q-83 -64 -197 -64q-102 0 -171 64.5t-69 182.5q0 107 66.5 175.5t167.5 68.5q98 0 155 -61.5t57 -167.5q0 -20 -1 -34zM301 419q-65 0 -106.5 -40.5t-45.5 -111.5h288q-5 152 -136 152zM476 548h-82 l-96 95l-98 -95h-81l160 149h37z" />
<glyph unicode="&#xeb;" horiz-adv-x="578" d="M512 216l-363 -2q5 -81 49 -123.5t115 -42.5q93 0 157 56l34 -52q-83 -64 -197 -64q-102 0 -171 64.5t-69 182.5q0 107 66.5 175.5t167.5 68.5q98 0 155 -61.5t57 -167.5q0 -20 -1 -34zM301 419q-65 0 -106.5 -40.5t-45.5 -111.5h288q-5 152 -136 152zM142 618 q0 22 16 37.5t38 15.5t38 -15.5t16 -37.5t-16 -38t-38 -16t-38 16t-16 38zM355 618q0 22 16 37.5t38 15.5t38 -15.5t16 -37.5t-16 -38t-38 -16t-38 16t-16 38z" />
<glyph unicode="&#xec;" horiz-adv-x="271" d="M96 470h80v-470h-80v470zM205 550h-52l-137 134v6h102z" />
<glyph unicode="&#xed;" horiz-adv-x="271" d="M96 470h80v-470h-80v470zM129 550h-51l87 140h102v-6z" />
<glyph unicode="&#xee;" horiz-adv-x="271" d="M96 470h80v-470h-80v470zM298 548h-80l-81 88l-83 -88h-79l143 149h37z" />
<glyph unicode="&#xef;" horiz-adv-x="271" d="M96 470h80v-470h-80v470zM-5 618q0 21 15 35.5t36 14.5q22 0 36.5 -14.5t14.5 -35.5t-14.5 -36t-36.5 -15q-21 0 -36 15t-15 36zM174 618q0 21 15 35.5t36 14.5q22 0 36.5 -14.5t14.5 -35.5t-14.5 -36t-36.5 -15q-21 0 -36 15t-15 36z" />
<glyph unicode="&#xf0;" horiz-adv-x="631" d="M233 535l-23 48l123 54q-62 63 -137 101h90q63 -32 109 -74l96 43l22 -47l-79 -35q129 -147 129 -376q0 -115 -64.5 -188t-184.5 -73q-114 0 -180.5 69t-66.5 176q0 106 64.5 173.5t167.5 67.5q95 0 151 -58l33 -44l-20 53q-27 91 -92 171zM314 413q-79 0 -122 -50 t-43 -132q0 -81 43 -132t122 -51q80 0 123 51t43 132q0 82 -43 132t-123 50z" />
<glyph unicode="&#xf1;" horiz-adv-x="625" d="M456 0l-1 286q0 126 -125 126q-86 0 -154 -59v-353h-80v470h76v-57q72 66 172 66q36 0 66.5 -8t60 -26.5t47 -56t17.5 -90.5v-298h-79zM399 612q21 0 36 17t15 55h52q0 -63 -27.5 -94t-70.5 -31q-34 0 -87 31.5t-77 31.5q-53 0 -53 -69h-52q0 62 27.5 92t71.5 30 q35 0 88 -31.5t77 -31.5z" />
<glyph unicode="&#xf2;" horiz-adv-x="629" d="M314 479q114 0 181 -68.5t67 -176.5q0 -107 -67 -176.5t-181 -69.5t-180.5 69.5t-66.5 176.5q0 108 66.5 176.5t180.5 68.5zM314 418q-79 0 -122 -51t-43 -133t43 -134t122 -52q80 0 123 52t43 134t-43 133t-123 51zM373 550h-52l-137 134v6h102z" />
<glyph unicode="&#xf3;" horiz-adv-x="629" d="M314 479q114 0 181 -68.5t67 -176.5q0 -107 -67 -176.5t-181 -69.5t-180.5 69.5t-66.5 176.5q0 108 66.5 176.5t180.5 68.5zM314 418q-79 0 -122 -51t-43 -133t43 -134t122 -52q80 0 123 52t43 134t-43 133t-123 51zM304 550h-51l87 140h102v-6z" />
<glyph unicode="&#xf4;" horiz-adv-x="629" d="M314 479q114 0 181 -68.5t67 -176.5q0 -107 -67 -176.5t-181 -69.5t-180.5 69.5t-66.5 176.5q0 108 66.5 176.5t180.5 68.5zM314 418q-79 0 -122 -51t-43 -133t43 -134t122 -52q80 0 123 52t43 134t-43 133t-123 51zM492 548h-82l-96 95l-98 -95h-81l160 149h37z" />
<glyph unicode="&#xf5;" horiz-adv-x="629" d="M314 479q114 0 181 -68.5t67 -176.5q0 -107 -67 -176.5t-181 -69.5t-180.5 69.5t-66.5 176.5q0 108 66.5 176.5t180.5 68.5zM314 418q-79 0 -122 -51t-43 -133t43 -134t122 -52q80 0 123 52t43 134t-43 133t-123 51zM395 612q21 0 36 17t15 55h52q0 -63 -27.5 -94 t-70.5 -31q-34 0 -87 31.5t-77 31.5q-53 0 -53 -69h-52q0 62 27.5 92t71.5 30q35 0 88 -31.5t77 -31.5z" />
<glyph unicode="&#xf6;" horiz-adv-x="629" d="M314 479q114 0 181 -68.5t67 -176.5q0 -107 -67 -176.5t-181 -69.5t-180.5 69.5t-66.5 176.5q0 108 66.5 176.5t180.5 68.5zM314 418q-79 0 -122 -51t-43 -133t43 -134t122 -52q80 0 123 52t43 134t-43 133t-123 51zM153 618q0 22 16 37.5t38 15.5t38 -15.5t16 -37.5 t-16 -38t-38 -16t-38 16t-16 38zM366 618q0 22 16 37.5t38 15.5t38 -15.5t16 -37.5t-16 -38t-38 -16t-38 16t-16 38z" />
<glyph unicode="&#xf7;" d="M241 521q0 23 17 40t40 17q22 0 39 -17t17 -40t-16.5 -40t-39.5 -17t-40 17t-17 40zM526 325h-456v60h456v-60zM241 191q0 23 17 40t40 17q22 0 39 -17t17 -40t-16.5 -40t-39.5 -17t-40 17t-17 40z" />
<glyph unicode="&#xf8;" horiz-adv-x="629" d="M493 520l55 -39l-54 -71q68 -68 68 -177q0 -107 -67 -176t-181 -69q-66 0 -119 25l-51 -68l-53 39l49 66q-73 70 -73 183q0 108 66.5 177t180.5 69q69 0 127 -29zM314 418q-79 0 -122 -52t-43 -133q0 -74 35 -124l216 287q-36 22 -86 22zM480 233q0 68 -31 116l-214 -283 q33 -18 79 -18q80 0 123 51t43 134z" />
<glyph unicode="&#xf9;" horiz-adv-x="611" d="M170 470v-277q0 -72 31 -105t94 -33q78 0 141 72v343h79v-335q0 -65 15 -135h-83l-8 59q-69 -69 -166 -69q-33 0 -63 9t-58 28t-44.5 56.5t-16.5 88.5v298h79zM359 550h-52l-137 134v6h102z" />
<glyph unicode="&#xfa;" horiz-adv-x="611" d="M170 470v-277q0 -72 31 -105t94 -33q78 0 141 72v343h79v-335q0 -65 15 -135h-83l-8 59q-69 -69 -166 -69q-33 0 -63 9t-58 28t-44.5 56.5t-16.5 88.5v298h79zM299 550h-51l87 140h102v-6z" />
<glyph unicode="&#xfb;" horiz-adv-x="611" d="M170 470v-277q0 -72 31 -105t94 -33q78 0 141 72v343h79v-335q0 -65 15 -135h-83l-8 59q-69 -69 -166 -69q-33 0 -63 9t-58 28t-44.5 56.5t-16.5 88.5v298h79zM481 548h-82l-96 95l-98 -95h-81l160 149h37z" />
<glyph unicode="&#xfc;" horiz-adv-x="611" d="M170 470v-277q0 -72 31 -105t94 -33q78 0 141 72v343h79v-335q0 -65 15 -135h-83l-8 59q-69 -69 -166 -69q-33 0 -63 9t-58 28t-44.5 56.5t-16.5 88.5v298h79zM143 618q0 22 16 37.5t38 15.5t38 -15.5t16 -37.5t-16 -38t-38 -16t-38 16t-16 38zM356 618q0 22 16 37.5 t38 15.5t38 -15.5t16 -37.5t-16 -38t-38 -16t-38 16t-16 38z" />
<glyph unicode="&#xfd;" horiz-adv-x="577" d="M450 470h87l-272 -592q-57 -125 -159 -125q-43 0 -82 15l18 63q32 -15 58 -15q31 0 53.5 20t45.5 68l51 110l-208 456h89l140 -322l21 -57l20 57zM283 550h-51l87 140h102v-6z" />
<glyph unicode="&#xfe;" horiz-adv-x="618" d="M175 40v-281h-79v973h79v-316q75 63 157 63q104 0 161.5 -64.5t57.5 -181.5q0 -116 -66 -179.5t-154 -63.5q-92 0 -156 50zM175 358v-258q64 -53 137 -53q68 0 112.5 45t44.5 139q0 95 -42 141t-112 46q-73 0 -140 -60z" />
<glyph unicode="&#xff;" horiz-adv-x="577" d="M450 470h87l-272 -592q-57 -125 -159 -125q-43 0 -82 15l18 63q32 -15 58 -15q31 0 53.5 20t45.5 68l51 110l-208 456h89l140 -322l21 -57l20 57zM131 618q0 22 16 37.5t38 15.5t38 -15.5t16 -37.5t-16 -38t-38 -16t-38 16t-16 38zM344 618q0 22 16 37.5t38 15.5 t38 -15.5t16 -37.5t-16 -38t-38 -16t-38 16t-16 38z" />
<glyph unicode="&#x152;" horiz-adv-x="936" d="M569 617v-225h244v-70h-244v-249h317v-73h-488q-147 0 -244 92.5t-97 254.5q0 160 97 251.5t244 91.5h470v-73h-299zM486 619h-88q-112 0 -183 -72.5t-71 -199.5q0 -128 71 -202t183 -74h88v548z" />
<glyph unicode="&#x153;" horiz-adv-x="976" d="M909 215h-359q2 -80 48 -124.5t115 -44.5q92 0 157 56l30 -49q-83 -65 -193 -65q-68 0 -119 32t-75 93q-50 -125 -205 -125q-110 0 -175.5 69.5t-65.5 176.5t65.5 176.5t176.5 69.5q154 0 204 -127q22 59 69.5 93t113.5 34q98 0 156.5 -62t58.5 -168q0 -5 -2 -35z M313 418q-78 0 -121.5 -51.5t-43.5 -132.5t43.5 -133.5t121.5 -52.5q79 0 122 52.5t43 133.5q0 82 -42.5 133t-122.5 51zM698 422q-64 0 -103.5 -42.5t-43.5 -114.5h286q-6 157 -139 157z" />
<glyph unicode="&#x178;" horiz-adv-x="623" d="M337 400l171 290h91l-244 -402v-288h-85v286l-246 404h92l173 -291l23 -45zM146 792q0 22 15 36t38 14t38 -14t15 -36q0 -21 -15 -35.5t-38 -14.5q-22 0 -37.5 14.5t-15.5 35.5zM370 792q0 22 15 36t38 14t38 -14t15 -36q0 -21 -15.5 -35.5t-37.5 -14.5t-37.5 14.5 t-15.5 35.5z" />
<glyph unicode="&#x2c6;" horiz-adv-x="505" d="M431 548h-82l-96 95l-98 -95h-81l160 149h37z" />
<glyph unicode="&#x2dc;" horiz-adv-x="505" d="M333 612q21 0 36 17t15 55h52q0 -63 -27.5 -94t-70.5 -31q-34 0 -87 31.5t-77 31.5q-53 0 -53 -69h-52q0 62 27.5 92t71.5 30q35 0 88 -31.5t77 -31.5z" />
<glyph unicode="&#x2000;" horiz-adv-x="468" />
<glyph unicode="&#x2001;" horiz-adv-x="937" />
<glyph unicode="&#x2002;" horiz-adv-x="468" />
<glyph unicode="&#x2003;" horiz-adv-x="937" />
<glyph unicode="&#x2004;" horiz-adv-x="312" />
<glyph unicode="&#x2005;" horiz-adv-x="234" />
<glyph unicode="&#x2006;" horiz-adv-x="156" />
<glyph unicode="&#x2007;" horiz-adv-x="156" />
<glyph unicode="&#x2008;" horiz-adv-x="117" />
<glyph unicode="&#x2009;" horiz-adv-x="187" />
<glyph unicode="&#x200a;" horiz-adv-x="52" />
<glyph unicode="&#x2010;" horiz-adv-x="447" d="M73 201v70h301v-70h-301z" />
<glyph unicode="&#x2011;" horiz-adv-x="447" d="M73 201v70h301v-70h-301z" />
<glyph unicode="&#x2012;" horiz-adv-x="447" d="M73 201v70h301v-70h-301z" />
<glyph unicode="&#x2013;" horiz-adv-x="528" d="M54 208v57h420v-57h-420z" />
<glyph unicode="&#x2014;" horiz-adv-x="926" d="M54 209v55h817v-55h-817z" />
<glyph unicode="&#x2018;" horiz-adv-x="232" d="M51 534l98 194h31l-26 -199h-103v5z" />
<glyph unicode="&#x2019;" horiz-adv-x="232" d="M180 723l-98 -194h-31l26 199h103v-5z" />
<glyph unicode="&#x201a;" horiz-adv-x="230" d="M179 92l-98 -194h-30l25 200h103v-6z" />
<glyph unicode="&#x201c;" horiz-adv-x="430" d="M250 534l97 194h31l-26 -199h-102v5zM51 534l98 194h31l-26 -199h-103v5z" />
<glyph unicode="&#x201d;" horiz-adv-x="430" d="M180 723l-98 -194h-31l26 199h103v-5zM378 723l-98 -194h-30l25 199h103v-5z" />
<glyph unicode="&#x201e;" horiz-adv-x="421" d="M175 92l-98 -194h-30l26 200h102v-6zM373 92l-98 -194h-30l26 200h102v-6z" />
<glyph unicode="&#x2022;" horiz-adv-x="445" d="M89 341q0 55 39.5 94t94.5 39q54 0 93 -39t39 -94t-39 -94t-93 -39q-55 0 -94.5 39t-39.5 94z" />
<glyph unicode="&#x2026;" horiz-adv-x="842" d="M85 48q0 23 16 39t40 16q25 0 41 -16t16 -39q0 -24 -16 -40.5t-41 -16.5q-24 0 -40 16.5t-16 40.5zM362 48q0 23 16 39t40 16t40 -16t16 -39q0 -24 -16 -40.5t-40 -16.5t-40 16.5t-16 40.5zM638 48q0 23 16 39t40 16t40 -16t16 -39q0 -24 -16 -40.5t-40 -16.5t-40 16.5 t-16 40.5z" />
<glyph unicode="&#x202f;" horiz-adv-x="187" />
<glyph unicode="&#x2039;" horiz-adv-x="355" d="M229 0l-186 209l186 217h83l-177 -217l177 -209h-83z" />
<glyph unicode="&#x203a;" horiz-adv-x="355" d="M126 426l186 -209l-186 -217h-83l177 217l-177 209h83z" />
<glyph unicode="&#x205f;" horiz-adv-x="234" />
<glyph unicode="&#x20ac;" d="M34 248v51h78q-2 30 -2 47q0 18 2 54h-78v51h85q18 119 78 186t155 67q131 0 195 -113l-56 -39q-20 41 -56 64.5t-79 23.5q-63 0 -104 -50.5t-50 -138.5h225v-51h-233q-1 -18 -1 -54q0 -32 1 -47h233v-51h-227q9 -94 50 -146t106 -52q90 0 136 91l57 -39 q-34 -55 -85.5 -85.5t-111.5 -30.5q-96 0 -157 69.5t-77 192.5h-84z" />
<glyph unicode="&#x2122;" horiz-adv-x="752" d="M36 712h247v-41h-98v-269h-50v269h-99v41zM509 517l154 205h9v-320h-52v183l-110 -149l-111 149v-183h-51v320h9z" />
<glyph unicode="&#x25fc;" horiz-adv-x="470" d="M0 470h470v-470h-470v470z" />
</font>
</defs>
</svg>
